<?xml version="1.0" encoding="utf-8" standalone="no"?>
<!DOCTYPE svg PUBLIC "-//W3C//DTD SVG 1.1//EN"
  "http://www.w3.org/Graphics/SVG/1.1/DTD/svg11.dtd">
<!-- Created with matplotlib (http://matplotlib.org/) -->
<svg height="407pt" version="1.1" viewBox="0 0 460 407" width="460pt" xmlns="http://www.w3.org/2000/svg" xmlns:xlink="http://www.w3.org/1999/xlink">
 <defs>
  <style type="text/css">
*{stroke-linecap:butt;stroke-linejoin:round;stroke-miterlimit:100000;}
  </style>
 </defs>
 <g id="figure_1">
  <g id="patch_1">
   <path d="M 0 407.7125 
L 460.8 407.7125 
L 460.8 0 
L 0 0 
z
" style="fill:#ffffff;"/>
  </g>
  <g id="axes_1">
   <g id="patch_2">
    <path d="M 7.2 352.8 
L 453.6 352.8 
L 453.6 7.2 
L 7.2 7.2 
z
" style="fill:#ffffff;"/>
   </g>
   <g id="line2d_1">
    <path clip-path="url(#p6555008c4c)" d="M 359.109926 352.8 
L 359.109926 351.555716 
L 365.996311 351.555716 
L 365.996311 350.311431 
L 371.201643 350.311431 
L 371.201643 349.067147 
L 372.081281 349.067147 
L 372.081281 347.822862 
L 373.024439 347.822862 
L 373.024439 346.578578 
L 375.468234 346.578578 
L 375.468234 345.334293 
L 376.450459 345.334293 
L 376.450459 344.090009 
L 376.744512 344.090009 
L 376.744512 342.845725 
L 377.212026 342.845725 
L 377.212026 341.60144 
L 377.56289 341.60144 
L 377.56289 340.357156 
L 377.728185 340.357156 
L 377.745254 337.868587 
L 378.548117 337.868587 
L 378.548117 336.624302 
L 379.386639 336.624302 
L 379.386639 335.380018 
L 382.342065 335.380018 
L 382.360161 332.891449 
L 383.054751 332.891449 
L 383.054751 331.647165 
L 383.614088 331.647165 
L 383.614088 330.40288 
L 383.833931 330.40288 
L 383.833931 329.158596 
L 384.405489 329.158596 
L 384.405489 327.914311 
L 384.850771 327.914311 
L 384.850771 326.670027 
L 385.074847 326.670027 
L 385.074847 325.425743 
L 385.202369 325.425743 
L 385.304176 322.937174 
L 385.699685 322.937174 
L 385.791905 319.20432 
L 385.944618 319.20432 
L 385.944618 317.960036 
L 386.240012 317.960036 
L 386.240012 316.715752 
L 386.618912 316.715752 
L 386.618912 315.471467 
L 386.977456 315.471467 
L 386.977456 314.227183 
L 387.128106 314.227183 
L 387.234959 311.738614 
L 387.265489 311.738614 
L 387.322804 308.005761 
L 387.485345 308.005761 
L 387.485345 306.761476 
L 387.941664 306.761476 
L 387.941664 305.517192 
L 388.193391 305.517192 
L 388.199021 303.028623 
L 388.327976 303.028623 
L 388.413318 300.540054 
L 388.463115 300.540054 
L 388.463115 299.29577 
L 388.636659 299.29577 
L 388.636659 298.051485 
L 389.017099 298.051485 
L 389.017099 296.807201 
L 389.229446 296.807201 
L 389.246715 294.318632 
L 389.422895 294.318632 
L 389.464937 291.830063 
L 389.598842 291.830063 
L 389.702118 288.09721 
L 389.791393 288.09721 
L 389.842456 284.364356 
L 389.905404 284.364356 
L 389.917765 281.875788 
L 390.325763 281.875788 
L 390.354969 279.387219 
L 390.696927 279.387219 
L 390.746839 276.89865 
L 390.871824 276.89865 
L 390.884338 274.410081 
L 391.020878 274.410081 
L 391.020878 273.165797 
L 391.388419 273.165797 
L 391.388419 271.921512 
L 391.51532 271.921512 
L 391.618746 268.188659 
L 391.83052 268.188659 
L 391.838781 265.70009 
L 392.089558 265.70009 
L 392.089558 264.455806 
L 392.228779 264.455806 
L 392.326619 260.722952 
L 392.412679 260.722952 
L 392.432807 258.234383 
L 392.577916 258.234383 
L 392.646308 255.745815 
L 392.754078 255.745815 
L 392.857608 250.768677 
L 392.908737 250.768677 
L 392.967398 248.280108 
L 393.053405 248.280108 
L 393.09049 244.547255 
L 393.214675 244.547255 
L 393.259571 242.058686 
L 393.341568 242.058686 
L 393.402429 239.570117 
L 393.495244 239.570117 
L 393.59787 234.592979 
L 393.74958 234.592979 
L 393.831151 230.860126 
L 393.882773 230.860126 
L 393.882773 229.615842 
L 394.276863 229.615842 
L 394.290798 227.127273 
L 394.416142 227.127273 
L 394.482555 223.394419 
L 394.619247 223.394419 
L 394.692846 218.417282 
L 394.833372 218.417282 
L 394.833372 217.172997 
L 395.177046 217.172997 
L 395.195016 214.684428 
L 395.364636 214.684428 
L 395.467298 209.707291 
L 395.475982 209.707291 
L 395.557096 205.974437 
L 395.596414 205.974437 
L 395.596414 204.730153 
L 395.84342 204.730153 
L 395.84342 203.485869 
L 395.985296 203.485869 
L 396.086579 200.9973 
L 396.24577 200.9973 
L 396.355516 197.264446 
L 396.395166 197.264446 
L 396.395166 196.020162 
L 396.517903 196.020162 
L 396.596155 192.287309 
L 396.762426 192.287309 
L 396.871901 188.554455 
L 396.882859 188.554455 
L 396.908338 186.065887 
L 397.041351 186.065887 
L 397.118099 183.577318 
L 397.20405 183.577318 
L 397.303248 179.844464 
L 397.339649 179.844464 
L 397.427431 173.623042 
L 397.456827 173.623042 
L 397.566762 171.134473 
L 397.592151 171.134473 
L 397.649249 168.645905 
L 397.752675 168.645905 
L 397.752675 167.40162 
L 397.945432 167.40162 
L 397.953353 164.913051 
L 398.11081 164.913051 
L 398.186689 161.180198 
L 398.286938 161.180198 
L 398.345284 158.691629 
L 398.405284 158.691629 
L 398.502803 156.20306 
L 398.671872 156.20306 
L 398.671872 154.958776 
L 398.820806 154.958776 
L 398.858761 149.981638 
L 399.13062 149.981638 
L 399.185677 145.0045 
L 399.275814 145.0045 
L 399.275814 143.760216 
L 399.446588 143.760216 
L 399.500767 141.271647 
L 399.562721 141.271647 
L 399.670959 136.294509 
L 399.725007 136.294509 
L 399.817974 133.805941 
L 399.841231 133.805941 
L 399.899493 131.317372 
L 399.996098 131.317372 
L 400.102148 125.09595 
L 400.223792 125.09595 
L 400.291707 121.363096 
L 400.424123 121.363096 
L 400.523029 117.630243 
L 400.668495 117.630243 
L 400.758155 113.89739 
L 400.846826 113.89739 
L 400.855048 111.408821 
L 401.18925 111.408821 
L 401.239508 107.675968 
L 401.326811 107.675968 
L 401.326811 106.431683 
L 401.499758 106.431683 
L 401.499758 105.187399 
L 401.625138 105.187399 
L 401.686268 100.210261 
L 401.928848 100.210261 
L 402.014129 95.233123 
L 402.067955 95.233123 
L 402.160393 87.767417 
L 402.19671 87.767417 
L 402.293511 82.790279 
L 402.321506 82.790279 
L 402.385617 79.057426 
L 402.438513 79.057426 
L 402.536784 72.836004 
L 402.577538 72.836004 
L 402.585264 70.347435 
L 402.797698 70.347435 
L 402.797698 69.10315 
L 402.969284 69.10315 
L 403.076734 64.126013 
L 403.113812 64.126013 
L 403.183183 61.637444 
L 403.401368 61.637444 
L 403.507374 59.148875 
L 403.513507 59.148875 
L 403.594985 56.660306 
L 403.701619 56.660306 
L 403.701619 55.416022 
L 403.827014 55.416022 
L 403.843006 52.927453 
L 403.98779 52.927453 
L 404.093383 50.438884 
L 404.496746 50.438884 
L 404.496746 49.194599 
L 404.703484 49.194599 
L 404.703484 47.950315 
L 404.861139 47.950315 
L 404.861139 46.706031 
L 405.622598 46.706031 
L 405.715184 44.217462 
L 405.906212 44.217462 
L 405.906212 42.973177 
L 406.258064 42.973177 
L 406.258064 41.728893 
L 406.623128 41.728893 
L 406.623128 40.484608 
L 406.799594 40.484608 
L 406.799594 39.240324 
L 407.477947 39.240324 
L 407.477947 37.99604 
L 407.90881 37.99604 
L 407.992913 35.507471 
L 408.733615 35.507471 
L 408.733615 34.263186 
L 408.969342 34.263186 
L 408.969342 33.018902 
L 409.332001 33.018902 
L 409.332001 31.774617 
L 409.773822 31.774617 
L 409.77443 29.286049 
L 411.543492 29.286049 
L 411.543492 28.041764 
L 412.111271 28.041764 
L 412.207035 24.308911 
L 412.320709 24.308911 
L 412.320709 23.064626 
L 412.678713 23.064626 
L 412.678713 21.820342 
L 414.611227 21.820342 
L 414.611227 20.576058 
L 415.289735 20.576058 
L 415.289735 19.331773 
L 415.607224 19.331773 
L 415.607224 18.087489 
L 416.115725 18.087489 
L 416.115725 16.843204 
L 416.30488 16.843204 
L 416.30488 15.59892 
L 422.511727 15.59892 
L 422.511727 14.354635 
L 426.126314 14.354635 
L 426.126314 13.110351 
L 427.339756 13.110351 
L 427.339756 11.866067 
L 437.763371 11.866067 
L 437.763371 10.621782 
L 437.763371 10.621782 
L 453.6 10.621782 
L 453.6 10.621782 
" style="fill:none;stroke:#ff0000;stroke-linecap:square;stroke-width:3.0;"/>
   </g>
   <g id="line2d_2">
    <path clip-path="url(#p6555008c4c)" d="M 359.109926 352.8 
L 359.109926 351.555716 
L 365.996311 351.555716 
L 365.996311 350.311431 
L 371.201643 350.311431 
L 371.201643 349.067147 
L 372.081281 349.067147 
L 372.081281 347.822862 
L 373.024439 347.822862 
L 373.024439 346.578578 
L 375.468234 346.578578 
L 375.468234 345.334293 
L 376.450459 345.334293 
L 376.450459 344.090009 
L 376.744512 344.090009 
L 376.744512 342.845725 
L 377.212026 342.845725 
L 377.212026 341.60144 
L 377.56289 341.60144 
L 377.56289 340.357156 
L 377.728185 340.357156 
L 377.745254 337.868587 
L 378.548117 337.868587 
L 378.548117 336.624302 
L 379.386639 336.624302 
L 379.386639 335.380018 
L 382.342065 335.380018 
L 382.360161 332.891449 
L 383.054751 332.891449 
L 383.054751 331.647165 
L 383.614088 331.647165 
L 383.614088 330.40288 
L 383.833931 330.40288 
L 383.833931 329.158596 
L 384.405489 329.158596 
L 384.405489 327.914311 
L 384.850771 327.914311 
L 384.850771 326.670027 
L 385.074847 326.670027 
L 385.074847 325.425743 
L 385.202369 325.425743 
L 385.304176 322.937174 
L 385.699685 322.937174 
L 385.791905 319.20432 
L 385.944618 319.20432 
L 385.944618 317.960036 
L 386.240012 317.960036 
L 386.240012 316.715752 
L 386.618912 316.715752 
L 386.618912 315.471467 
L 386.977456 315.471467 
L 386.977456 314.227183 
L 387.128106 314.227183 
L 387.234959 311.738614 
L 387.265489 311.738614 
L 387.322804 308.005761 
L 387.485345 308.005761 
L 387.485345 306.761476 
L 387.941664 306.761476 
L 387.941664 305.517192 
L 388.193391 305.517192 
L 388.199021 303.028623 
L 388.327976 303.028623 
L 388.413318 300.540054 
L 388.463115 300.540054 
L 388.463115 299.29577 
L 388.636659 299.29577 
L 388.636659 298.051485 
L 389.017099 298.051485 
L 389.017099 296.807201 
L 389.229446 296.807201 
L 389.246715 294.318632 
L 389.422895 294.318632 
L 389.464937 291.830063 
L 389.598842 291.830063 
L 389.702118 288.09721 
L 389.791393 288.09721 
L 389.842456 284.364356 
L 389.905404 284.364356 
L 389.917765 281.875788 
L 390.325763 281.875788 
L 390.354969 279.387219 
L 390.696927 279.387219 
L 390.746839 276.89865 
L 390.871824 276.89865 
L 390.884338 274.410081 
L 391.020878 274.410081 
L 391.020878 273.165797 
L 391.388419 273.165797 
L 391.388419 271.921512 
L 391.51532 271.921512 
L 391.618746 268.188659 
L 391.83052 268.188659 
L 391.838781 265.70009 
L 392.089558 265.70009 
L 392.089558 264.455806 
L 392.228779 264.455806 
L 392.326619 260.722952 
L 392.412679 260.722952 
L 392.432807 258.234383 
L 392.577916 258.234383 
L 392.646308 255.745815 
L 392.754078 255.745815 
L 392.857608 250.768677 
L 392.908737 250.768677 
L 392.967398 248.280108 
L 393.053405 248.280108 
L 393.09049 244.547255 
L 393.214675 244.547255 
L 393.259571 242.058686 
L 393.341568 242.058686 
L 393.402429 239.570117 
L 393.495244 239.570117 
L 393.59787 234.592979 
L 393.74958 234.592979 
L 393.831151 230.860126 
L 393.882773 230.860126 
L 393.882773 229.615842 
L 394.276863 229.615842 
L 394.290798 227.127273 
L 394.416142 227.127273 
L 394.482555 223.394419 
L 394.619247 223.394419 
L 394.692846 218.417282 
L 394.833372 218.417282 
L 394.833372 217.172997 
L 395.177046 217.172997 
L 395.195016 214.684428 
L 395.364636 214.684428 
L 395.467298 209.707291 
L 395.475982 209.707291 
L 395.557096 205.974437 
L 395.596414 205.974437 
L 395.596414 204.730153 
L 395.84342 204.730153 
L 395.84342 203.485869 
L 395.985296 203.485869 
L 396.086579 200.9973 
L 396.24577 200.9973 
L 396.355516 197.264446 
L 396.395166 197.264446 
L 396.395166 196.020162 
L 396.517903 196.020162 
L 396.596155 192.287309 
L 396.762426 192.287309 
L 396.871901 188.554455 
L 396.882859 188.554455 
L 396.908338 186.065887 
L 397.041351 186.065887 
L 397.118099 183.577318 
L 397.20405 183.577318 
L 397.303248 179.844464 
L 397.339649 179.844464 
L 397.427431 173.623042 
L 397.456827 173.623042 
L 397.566762 171.134473 
L 397.592151 171.134473 
L 397.649249 168.645905 
L 397.752675 168.645905 
L 397.752675 167.40162 
L 397.945432 167.40162 
L 397.953353 164.913051 
L 398.11081 164.913051 
L 398.186689 161.180198 
L 398.286938 161.180198 
L 398.345284 158.691629 
L 398.405284 158.691629 
L 398.502803 156.20306 
L 398.671872 156.20306 
L 398.671872 154.958776 
L 398.820806 154.958776 
L 398.858761 149.981638 
L 399.13062 149.981638 
L 399.185677 145.0045 
L 399.275814 145.0045 
L 399.275814 143.760216 
L 399.446588 143.760216 
L 399.500767 141.271647 
L 399.562721 141.271647 
L 399.670959 136.294509 
L 399.725007 136.294509 
L 399.817974 133.805941 
L 399.841231 133.805941 
L 399.899493 131.317372 
L 399.996098 131.317372 
L 400.102148 125.09595 
L 400.223792 125.09595 
L 400.291707 121.363096 
L 400.424123 121.363096 
L 400.523029 117.630243 
L 400.668495 117.630243 
L 400.758155 113.89739 
L 400.846826 113.89739 
L 400.855048 111.408821 
L 401.18925 111.408821 
L 401.239508 107.675968 
L 401.326811 107.675968 
L 401.326811 106.431683 
L 401.499758 106.431683 
L 401.499758 105.187399 
L 401.625138 105.187399 
L 401.686268 100.210261 
L 401.928848 100.210261 
L 402.014129 95.233123 
L 402.067955 95.233123 
L 402.160393 87.767417 
L 402.19671 87.767417 
L 402.293511 82.790279 
L 402.321506 82.790279 
L 402.385617 79.057426 
L 402.438513 79.057426 
L 402.536784 72.836004 
L 402.577538 72.836004 
L 402.585264 70.347435 
L 402.797698 70.347435 
L 402.797698 69.10315 
L 402.969284 69.10315 
L 403.076734 64.126013 
L 403.113812 64.126013 
L 403.183183 61.637444 
L 403.401368 61.637444 
L 403.507374 59.148875 
L 403.513507 59.148875 
L 403.594985 56.660306 
L 403.701619 56.660306 
L 403.701619 55.416022 
L 403.827014 55.416022 
L 403.843006 52.927453 
L 403.98779 52.927453 
L 404.093383 50.438884 
L 404.496746 50.438884 
L 404.496746 49.194599 
L 404.703484 49.194599 
L 404.703484 47.950315 
L 404.861139 47.950315 
L 404.861139 46.706031 
L 405.622598 46.706031 
L 405.715184 44.217462 
L 405.906212 44.217462 
L 405.906212 42.973177 
L 406.258064 42.973177 
L 406.258064 41.728893 
L 406.623128 41.728893 
L 406.623128 40.484608 
L 406.799594 40.484608 
L 406.799594 39.240324 
L 407.477947 39.240324 
L 407.477947 37.99604 
L 407.90881 37.99604 
L 407.992913 35.507471 
L 408.733615 35.507471 
L 408.733615 34.263186 
L 408.969342 34.263186 
L 408.969342 33.018902 
L 409.332001 33.018902 
L 409.332001 31.774617 
L 409.773822 31.774617 
L 409.77443 29.286049 
L 411.543492 29.286049 
L 411.543492 28.041764 
L 412.111271 28.041764 
L 412.207035 24.308911 
L 412.320709 24.308911 
L 412.320709 23.064626 
L 412.678713 23.064626 
L 412.678713 21.820342 
L 414.611227 21.820342 
L 414.611227 20.576058 
L 415.289735 20.576058 
L 415.289735 19.331773 
L 415.607224 19.331773 
L 415.607224 18.087489 
L 416.115725 18.087489 
L 416.115725 16.843204 
L 416.30488 16.843204 
L 416.30488 15.59892 
L 422.511727 15.59892 
L 422.511727 14.354635 
L 426.126314 14.354635 
L 426.126314 13.110351 
L 427.339756 13.110351 
L 427.339756 11.866067 
L 437.763371 11.866067 
L 437.763371 10.621782 
L 437.763371 10.621782 
L 453.6 10.621782 
L 453.6 10.621782 
" style="fill:none;stroke:#00bfbf;stroke-linecap:square;"/>
   </g>
   <g id="line2d_3">
    <path clip-path="url(#p6555008c4c)" d="M 359.109926 352.8 
L 359.109926 351.555716 
L 365.996311 351.555716 
L 365.996311 350.311431 
L 371.201643 350.311431 
L 371.201643 349.067147 
L 372.081281 349.067147 
L 372.081281 347.822862 
L 373.024439 347.822862 
L 373.024439 346.578578 
L 375.468234 346.578578 
L 375.468234 345.334293 
L 376.450459 345.334293 
L 376.450459 344.090009 
L 376.744512 344.090009 
L 376.744512 342.845725 
L 377.212026 342.845725 
L 377.212026 341.60144 
L 377.56289 341.60144 
L 377.56289 340.357156 
L 377.728185 340.357156 
L 377.745254 337.868587 
L 378.548117 337.868587 
L 378.548117 336.624302 
L 379.386639 336.624302 
L 379.386639 335.380018 
L 382.342065 335.380018 
L 382.360161 332.891449 
L 383.054751 332.891449 
L 383.054751 331.647165 
L 383.614088 331.647165 
L 383.614088 330.40288 
L 383.833931 330.40288 
L 383.833931 329.158596 
L 384.405489 329.158596 
L 384.405489 327.914311 
L 384.850771 327.914311 
L 384.850771 326.670027 
L 385.074847 326.670027 
L 385.074847 325.425743 
L 385.202369 325.425743 
L 385.304176 322.937174 
L 385.699685 322.937174 
L 385.791905 319.20432 
L 385.944618 319.20432 
L 385.944618 317.960036 
L 386.240012 317.960036 
L 386.240012 316.715752 
L 386.618912 316.715752 
L 386.618912 315.471467 
L 386.977456 315.471467 
L 386.977456 314.227183 
L 387.128106 314.227183 
L 387.234959 311.738614 
L 387.265489 311.738614 
L 387.322804 308.005761 
L 387.485345 308.005761 
L 387.485345 306.761476 
L 387.941664 306.761476 
L 387.941664 305.517192 
L 388.193391 305.517192 
L 388.199021 303.028623 
L 388.327976 303.028623 
L 388.413318 300.540054 
L 388.463115 300.540054 
L 388.463115 299.29577 
L 388.636659 299.29577 
L 388.636659 298.051485 
L 389.017099 298.051485 
L 389.017099 296.807201 
L 389.229446 296.807201 
L 389.246715 294.318632 
L 389.422895 294.318632 
L 389.464937 291.830063 
L 389.598842 291.830063 
L 389.702118 288.09721 
L 389.791393 288.09721 
L 389.842456 284.364356 
L 389.905404 284.364356 
L 389.917765 281.875788 
L 390.325763 281.875788 
L 390.354969 279.387219 
L 390.696927 279.387219 
L 390.746839 276.89865 
L 390.871824 276.89865 
L 390.884338 274.410081 
L 391.020878 274.410081 
L 391.020878 273.165797 
L 391.388419 273.165797 
L 391.388419 271.921512 
L 391.51532 271.921512 
L 391.618746 268.188659 
L 391.83052 268.188659 
L 391.838781 265.70009 
L 392.089558 265.70009 
L 392.089558 264.455806 
L 392.228779 264.455806 
L 392.326619 260.722952 
L 392.412679 260.722952 
L 392.432807 258.234383 
L 392.577916 258.234383 
L 392.646308 255.745815 
L 392.754078 255.745815 
L 392.857608 250.768677 
L 392.908737 250.768677 
L 392.967398 248.280108 
L 393.053405 248.280108 
L 393.09049 244.547255 
L 393.214675 244.547255 
L 393.259571 242.058686 
L 393.341568 242.058686 
L 393.402429 239.570117 
L 393.495244 239.570117 
L 393.59787 234.592979 
L 393.74958 234.592979 
L 393.831151 230.860126 
L 393.882773 230.860126 
L 393.882773 229.615842 
L 394.276863 229.615842 
L 394.290798 227.127273 
L 394.416142 227.127273 
L 394.482555 223.394419 
L 394.619247 223.394419 
L 394.692846 218.417282 
L 394.833372 218.417282 
L 394.833372 217.172997 
L 395.177046 217.172997 
L 395.195016 214.684428 
L 395.364636 214.684428 
L 395.467298 209.707291 
L 395.475982 209.707291 
L 395.557096 205.974437 
L 395.596414 205.974437 
L 395.596414 204.730153 
L 395.84342 204.730153 
L 395.84342 203.485869 
L 395.985296 203.485869 
L 396.086579 200.9973 
L 396.24577 200.9973 
L 396.355516 197.264446 
L 396.395166 197.264446 
L 396.395166 196.020162 
L 396.517903 196.020162 
L 396.596155 192.287309 
L 396.762426 192.287309 
L 396.871901 188.554455 
L 396.882859 188.554455 
L 396.908338 186.065887 
L 397.041351 186.065887 
L 397.118099 183.577318 
L 397.20405 183.577318 
L 397.303248 179.844464 
L 397.339649 179.844464 
L 397.427431 173.623042 
L 397.456827 173.623042 
L 397.566762 171.134473 
L 397.592151 171.134473 
L 397.649249 168.645905 
L 397.752675 168.645905 
L 397.752675 167.40162 
L 397.945432 167.40162 
L 397.953353 164.913051 
L 398.11081 164.913051 
L 398.186689 161.180198 
L 398.286938 161.180198 
L 398.345284 158.691629 
L 398.405284 158.691629 
L 398.502803 156.20306 
L 398.671872 156.20306 
L 398.671872 154.958776 
L 398.820806 154.958776 
L 398.858761 149.981638 
L 399.13062 149.981638 
L 399.185677 145.0045 
L 399.275814 145.0045 
L 399.275814 143.760216 
L 399.446588 143.760216 
L 399.500767 141.271647 
L 399.562721 141.271647 
L 399.670959 136.294509 
L 399.725007 136.294509 
L 399.817974 133.805941 
L 399.841231 133.805941 
L 399.899493 131.317372 
L 399.996098 131.317372 
L 400.102148 125.09595 
L 400.223792 125.09595 
L 400.291707 121.363096 
L 400.424123 121.363096 
L 400.523029 117.630243 
L 400.668495 117.630243 
L 400.758155 113.89739 
L 400.846826 113.89739 
L 400.855048 111.408821 
L 401.18925 111.408821 
L 401.239508 107.675968 
L 401.326811 107.675968 
L 401.326811 106.431683 
L 401.499758 106.431683 
L 401.499758 105.187399 
L 401.625138 105.187399 
L 401.686268 100.210261 
L 401.928848 100.210261 
L 402.014129 95.233123 
L 402.067955 95.233123 
L 402.160393 87.767417 
L 402.19671 87.767417 
L 402.293511 82.790279 
L 402.321506 82.790279 
L 402.385617 79.057426 
L 402.438513 79.057426 
L 402.536784 72.836004 
L 402.577538 72.836004 
L 402.585264 70.347435 
L 402.797698 70.347435 
L 402.797698 69.10315 
L 402.969284 69.10315 
L 403.076734 64.126013 
L 403.113812 64.126013 
L 403.183183 61.637444 
L 403.401368 61.637444 
L 403.507374 59.148875 
L 403.513507 59.148875 
L 403.594985 56.660306 
L 403.701619 56.660306 
L 403.701619 55.416022 
L 403.827014 55.416022 
L 403.843006 52.927453 
L 403.98779 52.927453 
L 404.093383 50.438884 
L 404.496746 50.438884 
L 404.496746 49.194599 
L 404.703484 49.194599 
L 404.703484 47.950315 
L 404.861139 47.950315 
L 404.861139 46.706031 
L 405.622598 46.706031 
L 405.715184 44.217462 
L 405.906212 44.217462 
L 405.906212 42.973177 
L 406.258064 42.973177 
L 406.258064 41.728893 
L 406.623128 41.728893 
L 406.623128 40.484608 
L 406.799594 40.484608 
L 406.799594 39.240324 
L 407.477947 39.240324 
L 407.477947 37.99604 
L 407.90881 37.99604 
L 407.992913 35.507471 
L 408.733615 35.507471 
L 408.733615 34.263186 
L 408.969342 34.263186 
L 408.969342 33.018902 
L 409.332001 33.018902 
L 409.332001 31.774617 
L 409.773822 31.774617 
L 409.77443 29.286049 
L 411.543492 29.286049 
L 411.543492 28.041764 
L 412.111271 28.041764 
L 412.207035 24.308911 
L 412.320709 24.308911 
L 412.320709 23.064626 
L 412.678713 23.064626 
L 412.678713 21.820342 
L 414.611227 21.820342 
L 414.611227 20.576058 
L 415.289735 20.576058 
L 415.289735 19.331773 
L 415.607224 19.331773 
L 415.607224 18.087489 
L 416.115725 18.087489 
L 416.115725 16.843204 
L 416.30488 16.843204 
L 416.30488 15.59892 
L 422.511727 15.59892 
L 422.511727 14.354635 
L 426.126314 14.354635 
L 426.126314 13.110351 
L 427.339756 13.110351 
L 427.339756 11.866067 
L 437.763371 11.866067 
L 437.763371 10.621782 
L 437.763371 10.621782 
L 453.6 10.621782 
L 453.6 10.621782 
" style="fill:none;stroke:#bf00bf;stroke-linecap:square;"/>
   </g>
   <g id="line2d_4">
    <path clip-path="url(#p6555008c4c)" d="M 359.109926 352.8 
L 359.109926 351.555716 
L 365.996311 351.555716 
L 365.996311 350.311431 
L 371.201643 350.311431 
L 371.201643 349.067147 
L 372.081281 349.067147 
L 372.081281 347.822862 
L 373.024439 347.822862 
L 373.024439 346.578578 
L 375.468234 346.578578 
L 375.468234 345.334293 
L 376.450459 345.334293 
L 376.450459 344.090009 
L 376.744512 344.090009 
L 376.744512 342.845725 
L 377.212026 342.845725 
L 377.212026 341.60144 
L 377.56289 341.60144 
L 377.56289 340.357156 
L 377.728185 340.357156 
L 377.745254 337.868587 
L 378.548117 337.868587 
L 378.548117 336.624302 
L 379.386639 336.624302 
L 379.386639 335.380018 
L 382.342065 335.380018 
L 382.360161 332.891449 
L 383.054751 332.891449 
L 383.054751 331.647165 
L 383.614088 331.647165 
L 383.614088 330.40288 
L 383.833931 330.40288 
L 383.833931 329.158596 
L 384.405489 329.158596 
L 384.405489 327.914311 
L 384.850771 327.914311 
L 384.850771 326.670027 
L 385.074847 326.670027 
L 385.074847 325.425743 
L 385.202369 325.425743 
L 385.304176 322.937174 
L 385.699685 322.937174 
L 385.791905 319.20432 
L 385.944618 319.20432 
L 385.944618 317.960036 
L 386.240012 317.960036 
L 386.240012 316.715752 
L 386.618912 316.715752 
L 386.618912 315.471467 
L 386.977456 315.471467 
L 386.977456 314.227183 
L 387.128106 314.227183 
L 387.234959 311.738614 
L 387.265489 311.738614 
L 387.322804 308.005761 
L 387.485345 308.005761 
L 387.485345 306.761476 
L 387.941664 306.761476 
L 387.941664 305.517192 
L 388.193391 305.517192 
L 388.199021 303.028623 
L 388.327976 303.028623 
L 388.413318 300.540054 
L 388.463115 300.540054 
L 388.463115 299.29577 
L 388.636659 299.29577 
L 388.636659 298.051485 
L 389.017099 298.051485 
L 389.017099 296.807201 
L 389.229446 296.807201 
L 389.246715 294.318632 
L 389.422895 294.318632 
L 389.464937 291.830063 
L 389.598842 291.830063 
L 389.702118 288.09721 
L 389.791393 288.09721 
L 389.842456 284.364356 
L 389.905404 284.364356 
L 389.917765 281.875788 
L 390.325763 281.875788 
L 390.354969 279.387219 
L 390.696927 279.387219 
L 390.746839 276.89865 
L 390.871824 276.89865 
L 390.884338 274.410081 
L 391.020878 274.410081 
L 391.020878 273.165797 
L 391.388419 273.165797 
L 391.388419 271.921512 
L 391.51532 271.921512 
L 391.618746 268.188659 
L 391.83052 268.188659 
L 391.838781 265.70009 
L 392.089558 265.70009 
L 392.089558 264.455806 
L 392.228779 264.455806 
L 392.326619 260.722952 
L 392.412679 260.722952 
L 392.432807 258.234383 
L 392.577916 258.234383 
L 392.646308 255.745815 
L 392.754078 255.745815 
L 392.857608 250.768677 
L 392.908737 250.768677 
L 392.967398 248.280108 
L 393.053405 248.280108 
L 393.09049 244.547255 
L 393.214675 244.547255 
L 393.259571 242.058686 
L 393.341568 242.058686 
L 393.402429 239.570117 
L 393.495244 239.570117 
L 393.59787 234.592979 
L 393.74958 234.592979 
L 393.831151 230.860126 
L 393.882773 230.860126 
L 393.882773 229.615842 
L 394.276863 229.615842 
L 394.290798 227.127273 
L 394.416142 227.127273 
L 394.482555 223.394419 
L 394.619247 223.394419 
L 394.692846 218.417282 
L 394.833372 218.417282 
L 394.833372 217.172997 
L 395.177046 217.172997 
L 395.195016 214.684428 
L 395.364636 214.684428 
L 395.467298 209.707291 
L 395.475982 209.707291 
L 395.557096 205.974437 
L 395.596414 205.974437 
L 395.596414 204.730153 
L 395.84342 204.730153 
L 395.84342 203.485869 
L 395.985296 203.485869 
L 396.086579 200.9973 
L 396.24577 200.9973 
L 396.355516 197.264446 
L 396.395166 197.264446 
L 396.395166 196.020162 
L 396.517903 196.020162 
L 396.596155 192.287309 
L 396.762426 192.287309 
L 396.871901 188.554455 
L 396.882859 188.554455 
L 396.908338 186.065887 
L 397.041351 186.065887 
L 397.118099 183.577318 
L 397.20405 183.577318 
L 397.303248 179.844464 
L 397.339649 179.844464 
L 397.427431 173.623042 
L 397.456827 173.623042 
L 397.566762 171.134473 
L 397.592151 171.134473 
L 397.649249 168.645905 
L 397.752675 168.645905 
L 397.752675 167.40162 
L 397.945432 167.40162 
L 397.953353 164.913051 
L 398.11081 164.913051 
L 398.186689 161.180198 
L 398.286938 161.180198 
L 398.345284 158.691629 
L 398.405284 158.691629 
L 398.502803 156.20306 
L 398.671872 156.20306 
L 398.671872 154.958776 
L 398.820806 154.958776 
L 398.858761 149.981638 
L 399.13062 149.981638 
L 399.185677 145.0045 
L 399.275814 145.0045 
L 399.275814 143.760216 
L 399.446588 143.760216 
L 399.500767 141.271647 
L 399.562721 141.271647 
L 399.670959 136.294509 
L 399.725007 136.294509 
L 399.817974 133.805941 
L 399.841231 133.805941 
L 399.899493 131.317372 
L 399.996098 131.317372 
L 400.102148 125.09595 
L 400.223792 125.09595 
L 400.291707 121.363096 
L 400.424123 121.363096 
L 400.523029 117.630243 
L 400.668495 117.630243 
L 400.758155 113.89739 
L 400.846826 113.89739 
L 400.855048 111.408821 
L 401.18925 111.408821 
L 401.239508 107.675968 
L 401.326811 107.675968 
L 401.326811 106.431683 
L 401.499758 106.431683 
L 401.499758 105.187399 
L 401.625138 105.187399 
L 401.686268 100.210261 
L 401.928848 100.210261 
L 402.014129 95.233123 
L 402.067955 95.233123 
L 402.160393 87.767417 
L 402.19671 87.767417 
L 402.293511 82.790279 
L 402.321506 82.790279 
L 402.385617 79.057426 
L 402.438513 79.057426 
L 402.536784 72.836004 
L 402.577538 72.836004 
L 402.585264 70.347435 
L 402.797698 70.347435 
L 402.797698 69.10315 
L 402.969284 69.10315 
L 403.076734 64.126013 
L 403.113812 64.126013 
L 403.183183 61.637444 
L 403.401368 61.637444 
L 403.507374 59.148875 
L 403.513507 59.148875 
L 403.594985 56.660306 
L 403.701619 56.660306 
L 403.701619 55.416022 
L 403.827014 55.416022 
L 403.843006 52.927453 
L 403.98779 52.927453 
L 404.093383 50.438884 
L 404.496746 50.438884 
L 404.496746 49.194599 
L 404.703484 49.194599 
L 404.703484 47.950315 
L 404.861139 47.950315 
L 404.861139 46.706031 
L 405.622598 46.706031 
L 405.715184 44.217462 
L 405.906212 44.217462 
L 405.906212 42.973177 
L 406.258064 42.973177 
L 406.258064 41.728893 
L 406.623128 41.728893 
L 406.623128 40.484608 
L 406.799594 40.484608 
L 406.799594 39.240324 
L 407.477947 39.240324 
L 407.477947 37.99604 
L 407.90881 37.99604 
L 407.992913 35.507471 
L 408.733615 35.507471 
L 408.733615 34.263186 
L 408.969342 34.263186 
L 408.969342 33.018902 
L 409.332001 33.018902 
L 409.332001 31.774617 
L 409.773822 31.774617 
L 409.77443 29.286049 
L 411.543492 29.286049 
L 411.543492 28.041764 
L 412.111271 28.041764 
L 412.207035 24.308911 
L 412.320709 24.308911 
L 412.320709 23.064626 
L 412.678713 23.064626 
L 412.678713 21.820342 
L 414.611227 21.820342 
L 414.611227 20.576058 
L 415.289735 20.576058 
L 415.289735 19.331773 
L 415.607224 19.331773 
L 415.607224 18.087489 
L 416.115725 18.087489 
L 416.115725 16.843204 
L 416.30488 16.843204 
L 416.30488 15.59892 
L 422.511727 15.59892 
L 422.511727 14.354635 
L 426.126314 14.354635 
L 426.126314 13.110351 
L 427.339756 13.110351 
L 427.339756 11.866067 
L 437.763371 11.866067 
L 437.763371 10.621782 
L 437.763371 10.621782 
L 453.6 10.621782 
L 453.6 10.621782 
" style="fill:none;stroke:#000000;stroke-linecap:square;"/>
   </g>
   <g id="line2d_5">
    <path clip-path="url(#p6555008c4c)" d="M 359.109926 352.8 
L 359.109926 351.555716 
L 365.996311 351.555716 
L 365.996311 350.311431 
L 371.201643 350.311431 
L 371.201643 349.067147 
L 372.081281 349.067147 
L 372.081281 347.822862 
L 373.024439 347.822862 
L 373.024439 346.578578 
L 375.468234 346.578578 
L 375.468234 345.334293 
L 376.450459 345.334293 
L 376.450459 344.090009 
L 376.744512 344.090009 
L 376.744512 342.845725 
L 377.212026 342.845725 
L 377.212026 341.60144 
L 377.56289 341.60144 
L 377.56289 340.357156 
L 377.728185 340.357156 
L 377.745254 337.868587 
L 378.548117 337.868587 
L 378.548117 336.624302 
L 379.386639 336.624302 
L 379.386639 335.380018 
L 382.342065 335.380018 
L 382.360161 332.891449 
L 383.054751 332.891449 
L 383.054751 331.647165 
L 383.614088 331.647165 
L 383.614088 330.40288 
L 383.833931 330.40288 
L 383.833931 329.158596 
L 384.405489 329.158596 
L 384.405489 327.914311 
L 384.850771 327.914311 
L 384.850771 326.670027 
L 385.074847 326.670027 
L 385.074847 325.425743 
L 385.202369 325.425743 
L 385.304176 322.937174 
L 385.699685 322.937174 
L 385.791905 319.20432 
L 385.944618 319.20432 
L 385.944618 317.960036 
L 386.240012 317.960036 
L 386.240012 316.715752 
L 386.618912 316.715752 
L 386.618912 315.471467 
L 386.977456 315.471467 
L 386.977456 314.227183 
L 387.128106 314.227183 
L 387.234959 311.738614 
L 387.265489 311.738614 
L 387.322804 308.005761 
L 387.485345 308.005761 
L 387.485345 306.761476 
L 387.941664 306.761476 
L 387.941664 305.517192 
L 388.193391 305.517192 
L 388.199021 303.028623 
L 388.327976 303.028623 
L 388.413318 300.540054 
L 388.463115 300.540054 
L 388.463115 299.29577 
L 388.636659 299.29577 
L 388.636659 298.051485 
L 389.017099 298.051485 
L 389.017099 296.807201 
L 389.229446 296.807201 
L 389.246715 294.318632 
L 389.422895 294.318632 
L 389.464937 291.830063 
L 389.598842 291.830063 
L 389.702118 288.09721 
L 389.791393 288.09721 
L 389.842456 284.364356 
L 389.905404 284.364356 
L 389.917765 281.875788 
L 390.325763 281.875788 
L 390.354969 279.387219 
L 390.696927 279.387219 
L 390.746839 276.89865 
L 390.871824 276.89865 
L 390.884338 274.410081 
L 391.020878 274.410081 
L 391.020878 273.165797 
L 391.388419 273.165797 
L 391.388419 271.921512 
L 391.51532 271.921512 
L 391.618746 268.188659 
L 391.83052 268.188659 
L 391.838781 265.70009 
L 392.089558 265.70009 
L 392.089558 264.455806 
L 392.228779 264.455806 
L 392.326619 260.722952 
L 392.412679 260.722952 
L 392.432807 258.234383 
L 392.577916 258.234383 
L 392.646308 255.745815 
L 392.754078 255.745815 
L 392.857608 250.768677 
L 392.908737 250.768677 
L 392.967398 248.280108 
L 393.053405 248.280108 
L 393.09049 244.547255 
L 393.214675 244.547255 
L 393.259571 242.058686 
L 393.341568 242.058686 
L 393.402429 239.570117 
L 393.495244 239.570117 
L 393.59787 234.592979 
L 393.74958 234.592979 
L 393.831151 230.860126 
L 393.882773 230.860126 
L 393.882773 229.615842 
L 394.276863 229.615842 
L 394.290798 227.127273 
L 394.416142 227.127273 
L 394.482555 223.394419 
L 394.619247 223.394419 
L 394.692846 218.417282 
L 394.833372 218.417282 
L 394.833372 217.172997 
L 395.177046 217.172997 
L 395.195016 214.684428 
L 395.364636 214.684428 
L 395.467298 209.707291 
L 395.475982 209.707291 
L 395.557096 205.974437 
L 395.596414 205.974437 
L 395.596414 204.730153 
L 395.84342 204.730153 
L 395.84342 203.485869 
L 395.985296 203.485869 
L 396.086579 200.9973 
L 396.24577 200.9973 
L 396.355516 197.264446 
L 396.395166 197.264446 
L 396.395166 196.020162 
L 396.517903 196.020162 
L 396.596155 192.287309 
L 396.762426 192.287309 
L 396.871901 188.554455 
L 396.882859 188.554455 
L 396.908338 186.065887 
L 397.041351 186.065887 
L 397.118099 183.577318 
L 397.20405 183.577318 
L 397.303248 179.844464 
L 397.339649 179.844464 
L 397.427431 173.623042 
L 397.456827 173.623042 
L 397.566762 171.134473 
L 397.592151 171.134473 
L 397.649249 168.645905 
L 397.752675 168.645905 
L 397.752675 167.40162 
L 397.945432 167.40162 
L 397.953353 164.913051 
L 398.11081 164.913051 
L 398.186689 161.180198 
L 398.286938 161.180198 
L 398.345284 158.691629 
L 398.405284 158.691629 
L 398.502803 156.20306 
L 398.671872 156.20306 
L 398.671872 154.958776 
L 398.820806 154.958776 
L 398.858761 149.981638 
L 399.13062 149.981638 
L 399.185677 145.0045 
L 399.275814 145.0045 
L 399.275814 143.760216 
L 399.446588 143.760216 
L 399.500767 141.271647 
L 399.562721 141.271647 
L 399.670959 136.294509 
L 399.725007 136.294509 
L 399.817974 133.805941 
L 399.841231 133.805941 
L 399.899493 131.317372 
L 399.996098 131.317372 
L 400.102148 125.09595 
L 400.223792 125.09595 
L 400.291707 121.363096 
L 400.424123 121.363096 
L 400.523029 117.630243 
L 400.668495 117.630243 
L 400.758155 113.89739 
L 400.846826 113.89739 
L 400.855048 111.408821 
L 401.18925 111.408821 
L 401.239508 107.675968 
L 401.326811 107.675968 
L 401.326811 106.431683 
L 401.499758 106.431683 
L 401.499758 105.187399 
L 401.625138 105.187399 
L 401.686268 100.210261 
L 401.928848 100.210261 
L 402.014129 95.233123 
L 402.067955 95.233123 
L 402.160393 87.767417 
L 402.19671 87.767417 
L 402.293511 82.790279 
L 402.321506 82.790279 
L 402.385617 79.057426 
L 402.438513 79.057426 
L 402.536784 72.836004 
L 402.577538 72.836004 
L 402.585264 70.347435 
L 402.797698 70.347435 
L 402.797698 69.10315 
L 402.969284 69.10315 
L 403.076734 64.126013 
L 403.113812 64.126013 
L 403.183183 61.637444 
L 403.401368 61.637444 
L 403.507374 59.148875 
L 403.513507 59.148875 
L 403.594985 56.660306 
L 403.701619 56.660306 
L 403.701619 55.416022 
L 403.827014 55.416022 
L 403.843006 52.927453 
L 403.98779 52.927453 
L 404.093383 50.438884 
L 404.496746 50.438884 
L 404.496746 49.194599 
L 404.703484 49.194599 
L 404.703484 47.950315 
L 404.861139 47.950315 
L 404.861139 46.706031 
L 405.622598 46.706031 
L 405.715184 44.217462 
L 405.906212 44.217462 
L 405.906212 42.973177 
L 406.258064 42.973177 
L 406.258064 41.728893 
L 406.623128 41.728893 
L 406.623128 40.484608 
L 406.799594 40.484608 
L 406.799594 39.240324 
L 407.477947 39.240324 
L 407.477947 37.99604 
L 407.90881 37.99604 
L 407.992913 35.507471 
L 408.733615 35.507471 
L 408.733615 34.263186 
L 408.969342 34.263186 
L 408.969342 33.018902 
L 409.332001 33.018902 
L 409.332001 31.774617 
L 409.773822 31.774617 
L 409.77443 29.286049 
L 411.543492 29.286049 
L 411.543492 28.041764 
L 412.111271 28.041764 
L 412.207035 24.308911 
L 412.320709 24.308911 
L 412.320709 23.064626 
L 412.678713 23.064626 
L 412.678713 21.820342 
L 414.611227 21.820342 
L 414.611227 20.576058 
L 415.289735 20.576058 
L 415.289735 19.331773 
L 415.607224 19.331773 
L 415.607224 18.087489 
L 416.115725 18.087489 
L 416.115725 16.843204 
L 416.30488 16.843204 
L 416.30488 15.59892 
L 422.511727 15.59892 
L 422.511727 14.354635 
L 426.126314 14.354635 
L 426.126314 13.110351 
L 427.339756 13.110351 
L 427.339756 11.866067 
L 437.763371 11.866067 
L 437.763371 10.621782 
L 437.763371 10.621782 
L 453.6 10.621782 
L 453.6 10.621782 
" style="fill:none;stroke:#00bfbf;stroke-linecap:square;"/>
   </g>
   <g id="patch_3">
    <path d="M 7.2 7.2 
L 453.6 7.2 
" style="fill:none;stroke:#000000;stroke-linecap:square;stroke-linejoin:miter;"/>
   </g>
   <g id="patch_4">
    <path d="M 453.6 352.8 
L 453.6 7.2 
" style="fill:none;stroke:#000000;stroke-linecap:square;stroke-linejoin:miter;"/>
   </g>
   <g id="patch_5">
    <path d="M 7.2 352.8 
L 453.6 352.8 
" style="fill:none;stroke:#000000;stroke-linecap:square;stroke-linejoin:miter;"/>
   </g>
   <g id="patch_6">
    <path d="M 7.2 352.8 
L 7.2 7.2 
" style="fill:none;stroke:#000000;stroke-linecap:square;stroke-linejoin:miter;"/>
   </g>
   <g id="matplotlib.axis_1">
    <g id="xtick_1">
     <g id="line2d_6">
      <path clip-path="url(#p6555008c4c)" d="M 56.609384 352.8 
L 56.609384 7.2 
" style="fill:none;stroke:#000000;stroke-dasharray:1.000000,3.000000;stroke-dashoffset:0.0;stroke-width:0.5;"/>
     </g>
     <g id="line2d_7">
      <defs>
       <path d="M 0 0 
L 0 -4 
" id="m0f0a03677f" style="stroke:#000000;stroke-width:0.5;"/>
      </defs>
      <g>
       <use style="stroke:#000000;stroke-width:0.5;" x="56.6093839066" xlink:href="#m0f0a03677f" y="352.8"/>
      </g>
     </g>
     <g id="line2d_8">
      <defs>
       <path d="M 0 0 
L 0 4 
" id="m0eba5fa898" style="stroke:#000000;stroke-width:0.5;"/>
      </defs>
      <g>
       <use style="stroke:#000000;stroke-width:0.5;" x="56.6093839066" xlink:href="#m0eba5fa898" y="7.2"/>
      </g>
     </g>
     <g id="text_1">
      <!-- -7 -->
      <defs>
       <path d="M 4.890625 31.390625 
L 31.203125 31.390625 
L 31.203125 23.390625 
L 4.890625 23.390625 
z
" id="BitstreamVeraSans-Roman-2d"/>
       <path d="M 8.203125 72.90625 
L 55.078125 72.90625 
L 55.078125 68.703125 
L 28.609375 0 
L 18.3125 0 
L 43.21875 64.59375 
L 8.203125 64.59375 
z
" id="BitstreamVeraSans-Roman-37"/>
      </defs>
      <g transform="translate(46.6390714066 371.996875)scale(0.2 -0.2)">
       <use xlink:href="#BitstreamVeraSans-Roman-2d"/>
       <use x="36.083984375" xlink:href="#BitstreamVeraSans-Roman-37"/>
      </g>
     </g>
    </g>
    <g id="xtick_2">
     <g id="line2d_9">
      <path clip-path="url(#p6555008c4c)" d="M 106.233211 352.8 
L 106.233211 7.2 
" style="fill:none;stroke:#000000;stroke-dasharray:1.000000,3.000000;stroke-dashoffset:0.0;stroke-width:0.5;"/>
     </g>
     <g id="line2d_10">
      <g>
       <use style="stroke:#000000;stroke-width:0.5;" x="106.233210918" xlink:href="#m0f0a03677f" y="352.8"/>
      </g>
     </g>
     <g id="line2d_11">
      <g>
       <use style="stroke:#000000;stroke-width:0.5;" x="106.233210918" xlink:href="#m0eba5fa898" y="7.2"/>
      </g>
     </g>
     <g id="text_2">
      <!-- -6 -->
      <defs>
       <path d="M 33.015625 40.375 
Q 26.375 40.375 22.484375 35.828125 
Q 18.609375 31.296875 18.609375 23.390625 
Q 18.609375 15.53125 22.484375 10.953125 
Q 26.375 6.390625 33.015625 6.390625 
Q 39.65625 6.390625 43.53125 10.953125 
Q 47.40625 15.53125 47.40625 23.390625 
Q 47.40625 31.296875 43.53125 35.828125 
Q 39.65625 40.375 33.015625 40.375 
M 52.59375 71.296875 
L 52.59375 62.3125 
Q 48.875 64.0625 45.09375 64.984375 
Q 41.3125 65.921875 37.59375 65.921875 
Q 27.828125 65.921875 22.671875 59.328125 
Q 17.53125 52.734375 16.796875 39.40625 
Q 19.671875 43.65625 24.015625 45.921875 
Q 28.375 48.1875 33.59375 48.1875 
Q 44.578125 48.1875 50.953125 41.515625 
Q 57.328125 34.859375 57.328125 23.390625 
Q 57.328125 12.15625 50.6875 5.359375 
Q 44.046875 -1.421875 33.015625 -1.421875 
Q 20.359375 -1.421875 13.671875 8.265625 
Q 6.984375 17.96875 6.984375 36.375 
Q 6.984375 53.65625 15.1875 63.9375 
Q 23.390625 74.21875 37.203125 74.21875 
Q 40.921875 74.21875 44.703125 73.484375 
Q 48.484375 72.75 52.59375 71.296875 
" id="BitstreamVeraSans-Roman-36"/>
      </defs>
      <g transform="translate(96.2628984183 371.996875)scale(0.2 -0.2)">
       <use xlink:href="#BitstreamVeraSans-Roman-2d"/>
       <use x="36.083984375" xlink:href="#BitstreamVeraSans-Roman-36"/>
      </g>
     </g>
    </g>
    <g id="xtick_3">
     <g id="line2d_12">
      <path clip-path="url(#p6555008c4c)" d="M 155.857038 352.8 
L 155.857038 7.2 
" style="fill:none;stroke:#000000;stroke-dasharray:1.000000,3.000000;stroke-dashoffset:0.0;stroke-width:0.5;"/>
     </g>
     <g id="line2d_13">
      <g>
       <use style="stroke:#000000;stroke-width:0.5;" x="155.85703793" xlink:href="#m0f0a03677f" y="352.8"/>
      </g>
     </g>
     <g id="line2d_14">
      <g>
       <use style="stroke:#000000;stroke-width:0.5;" x="155.85703793" xlink:href="#m0eba5fa898" y="7.2"/>
      </g>
     </g>
     <g id="text_3">
      <!-- -5 -->
      <defs>
       <path d="M 10.796875 72.90625 
L 49.515625 72.90625 
L 49.515625 64.59375 
L 19.828125 64.59375 
L 19.828125 46.734375 
Q 21.96875 47.46875 24.109375 47.828125 
Q 26.265625 48.1875 28.421875 48.1875 
Q 40.625 48.1875 47.75 41.5 
Q 54.890625 34.8125 54.890625 23.390625 
Q 54.890625 11.625 47.5625 5.09375 
Q 40.234375 -1.421875 26.90625 -1.421875 
Q 22.3125 -1.421875 17.546875 -0.640625 
Q 12.796875 0.140625 7.71875 1.703125 
L 7.71875 11.625 
Q 12.109375 9.234375 16.796875 8.0625 
Q 21.484375 6.890625 26.703125 6.890625 
Q 35.15625 6.890625 40.078125 11.328125 
Q 45.015625 15.765625 45.015625 23.390625 
Q 45.015625 31 40.078125 35.4375 
Q 35.15625 39.890625 26.703125 39.890625 
Q 22.75 39.890625 18.8125 39.015625 
Q 14.890625 38.140625 10.796875 36.28125 
z
" id="BitstreamVeraSans-Roman-35"/>
      </defs>
      <g transform="translate(145.88672543 371.996875)scale(0.2 -0.2)">
       <use xlink:href="#BitstreamVeraSans-Roman-2d"/>
       <use x="36.083984375" xlink:href="#BitstreamVeraSans-Roman-35"/>
      </g>
     </g>
    </g>
    <g id="xtick_4">
     <g id="line2d_15">
      <path clip-path="url(#p6555008c4c)" d="M 205.480865 352.8 
L 205.480865 7.2 
" style="fill:none;stroke:#000000;stroke-dasharray:1.000000,3.000000;stroke-dashoffset:0.0;stroke-width:0.5;"/>
     </g>
     <g id="line2d_16">
      <g>
       <use style="stroke:#000000;stroke-width:0.5;" x="205.480864942" xlink:href="#m0f0a03677f" y="352.8"/>
      </g>
     </g>
     <g id="line2d_17">
      <g>
       <use style="stroke:#000000;stroke-width:0.5;" x="205.480864942" xlink:href="#m0eba5fa898" y="7.2"/>
      </g>
     </g>
     <g id="text_4">
      <!-- -4 -->
      <defs>
       <path d="M 37.796875 64.3125 
L 12.890625 25.390625 
L 37.796875 25.390625 
z
M 35.203125 72.90625 
L 47.609375 72.90625 
L 47.609375 25.390625 
L 58.015625 25.390625 
L 58.015625 17.1875 
L 47.609375 17.1875 
L 47.609375 0 
L 37.796875 0 
L 37.796875 17.1875 
L 4.890625 17.1875 
L 4.890625 26.703125 
z
" id="BitstreamVeraSans-Roman-34"/>
      </defs>
      <g transform="translate(195.510552442 371.996875)scale(0.2 -0.2)">
       <use xlink:href="#BitstreamVeraSans-Roman-2d"/>
       <use x="36.083984375" xlink:href="#BitstreamVeraSans-Roman-34"/>
      </g>
     </g>
    </g>
    <g id="xtick_5">
     <g id="line2d_18">
      <path clip-path="url(#p6555008c4c)" d="M 255.104692 352.8 
L 255.104692 7.2 
" style="fill:none;stroke:#000000;stroke-dasharray:1.000000,3.000000;stroke-dashoffset:0.0;stroke-width:0.5;"/>
     </g>
     <g id="line2d_19">
      <g>
       <use style="stroke:#000000;stroke-width:0.5;" x="255.104691953" xlink:href="#m0f0a03677f" y="352.8"/>
      </g>
     </g>
     <g id="line2d_20">
      <g>
       <use style="stroke:#000000;stroke-width:0.5;" x="255.104691953" xlink:href="#m0eba5fa898" y="7.2"/>
      </g>
     </g>
     <g id="text_5">
      <!-- -3 -->
      <defs>
       <path d="M 40.578125 39.3125 
Q 47.65625 37.796875 51.625 33 
Q 55.609375 28.21875 55.609375 21.1875 
Q 55.609375 10.40625 48.1875 4.484375 
Q 40.765625 -1.421875 27.09375 -1.421875 
Q 22.515625 -1.421875 17.65625 -0.515625 
Q 12.796875 0.390625 7.625 2.203125 
L 7.625 11.71875 
Q 11.71875 9.328125 16.59375 8.109375 
Q 21.484375 6.890625 26.8125 6.890625 
Q 36.078125 6.890625 40.9375 10.546875 
Q 45.796875 14.203125 45.796875 21.1875 
Q 45.796875 27.640625 41.28125 31.265625 
Q 36.765625 34.90625 28.71875 34.90625 
L 20.21875 34.90625 
L 20.21875 43.015625 
L 29.109375 43.015625 
Q 36.375 43.015625 40.234375 45.921875 
Q 44.09375 48.828125 44.09375 54.296875 
Q 44.09375 59.90625 40.109375 62.90625 
Q 36.140625 65.921875 28.71875 65.921875 
Q 24.65625 65.921875 20.015625 65.03125 
Q 15.375 64.15625 9.8125 62.3125 
L 9.8125 71.09375 
Q 15.4375 72.65625 20.34375 73.4375 
Q 25.25 74.21875 29.59375 74.21875 
Q 40.828125 74.21875 47.359375 69.109375 
Q 53.90625 64.015625 53.90625 55.328125 
Q 53.90625 49.265625 50.4375 45.09375 
Q 46.96875 40.921875 40.578125 39.3125 
" id="BitstreamVeraSans-Roman-33"/>
      </defs>
      <g transform="translate(245.134379453 371.996875)scale(0.2 -0.2)">
       <use xlink:href="#BitstreamVeraSans-Roman-2d"/>
       <use x="36.083984375" xlink:href="#BitstreamVeraSans-Roman-33"/>
      </g>
     </g>
    </g>
    <g id="xtick_6">
     <g id="line2d_21">
      <path clip-path="url(#p6555008c4c)" d="M 304.728519 352.8 
L 304.728519 7.2 
" style="fill:none;stroke:#000000;stroke-dasharray:1.000000,3.000000;stroke-dashoffset:0.0;stroke-width:0.5;"/>
     </g>
     <g id="line2d_22">
      <g>
       <use style="stroke:#000000;stroke-width:0.5;" x="304.728518965" xlink:href="#m0f0a03677f" y="352.8"/>
      </g>
     </g>
     <g id="line2d_23">
      <g>
       <use style="stroke:#000000;stroke-width:0.5;" x="304.728518965" xlink:href="#m0eba5fa898" y="7.2"/>
      </g>
     </g>
     <g id="text_6">
      <!-- -2 -->
      <defs>
       <path d="M 19.1875 8.296875 
L 53.609375 8.296875 
L 53.609375 0 
L 7.328125 0 
L 7.328125 8.296875 
Q 12.9375 14.109375 22.625 23.890625 
Q 32.328125 33.6875 34.8125 36.53125 
Q 39.546875 41.84375 41.421875 45.53125 
Q 43.3125 49.21875 43.3125 52.78125 
Q 43.3125 58.59375 39.234375 62.25 
Q 35.15625 65.921875 28.609375 65.921875 
Q 23.96875 65.921875 18.8125 64.3125 
Q 13.671875 62.703125 7.8125 59.421875 
L 7.8125 69.390625 
Q 13.765625 71.78125 18.9375 73 
Q 24.125 74.21875 28.421875 74.21875 
Q 39.75 74.21875 46.484375 68.546875 
Q 53.21875 62.890625 53.21875 53.421875 
Q 53.21875 48.921875 51.53125 44.890625 
Q 49.859375 40.875 45.40625 35.40625 
Q 44.1875 33.984375 37.640625 27.21875 
Q 31.109375 20.453125 19.1875 8.296875 
" id="BitstreamVeraSans-Roman-32"/>
      </defs>
      <g transform="translate(294.758206465 371.996875)scale(0.2 -0.2)">
       <use xlink:href="#BitstreamVeraSans-Roman-2d"/>
       <use x="36.083984375" xlink:href="#BitstreamVeraSans-Roman-32"/>
      </g>
     </g>
    </g>
    <g id="xtick_7">
     <g id="line2d_24">
      <path clip-path="url(#p6555008c4c)" d="M 354.352346 352.8 
L 354.352346 7.2 
" style="fill:none;stroke:#000000;stroke-dasharray:1.000000,3.000000;stroke-dashoffset:0.0;stroke-width:0.5;"/>
     </g>
     <g id="line2d_25">
      <g>
       <use style="stroke:#000000;stroke-width:0.5;" x="354.352345977" xlink:href="#m0f0a03677f" y="352.8"/>
      </g>
     </g>
     <g id="line2d_26">
      <g>
       <use style="stroke:#000000;stroke-width:0.5;" x="354.352345977" xlink:href="#m0eba5fa898" y="7.2"/>
      </g>
     </g>
     <g id="text_7">
      <!-- -1 -->
      <defs>
       <path d="M 12.40625 8.296875 
L 28.515625 8.296875 
L 28.515625 63.921875 
L 10.984375 60.40625 
L 10.984375 69.390625 
L 28.421875 72.90625 
L 38.28125 72.90625 
L 38.28125 8.296875 
L 54.390625 8.296875 
L 54.390625 0 
L 12.40625 0 
z
" id="BitstreamVeraSans-Roman-31"/>
      </defs>
      <g transform="translate(344.382033477 371.996875)scale(0.2 -0.2)">
       <use xlink:href="#BitstreamVeraSans-Roman-2d"/>
       <use x="36.083984375" xlink:href="#BitstreamVeraSans-Roman-31"/>
      </g>
     </g>
    </g>
    <g id="xtick_8">
     <g id="line2d_27">
      <path clip-path="url(#p6555008c4c)" d="M 403.976173 352.8 
L 403.976173 7.2 
" style="fill:none;stroke:#000000;stroke-dasharray:1.000000,3.000000;stroke-dashoffset:0.0;stroke-width:0.5;"/>
     </g>
     <g id="line2d_28">
      <g>
       <use style="stroke:#000000;stroke-width:0.5;" x="403.976172988" xlink:href="#m0f0a03677f" y="352.8"/>
      </g>
     </g>
     <g id="line2d_29">
      <g>
       <use style="stroke:#000000;stroke-width:0.5;" x="403.976172988" xlink:href="#m0eba5fa898" y="7.2"/>
      </g>
     </g>
     <g id="text_8">
      <!-- 0 -->
      <defs>
       <path d="M 31.78125 66.40625 
Q 24.171875 66.40625 20.328125 58.90625 
Q 16.5 51.421875 16.5 36.375 
Q 16.5 21.390625 20.328125 13.890625 
Q 24.171875 6.390625 31.78125 6.390625 
Q 39.453125 6.390625 43.28125 13.890625 
Q 47.125 21.390625 47.125 36.375 
Q 47.125 51.421875 43.28125 58.90625 
Q 39.453125 66.40625 31.78125 66.40625 
M 31.78125 74.21875 
Q 44.046875 74.21875 50.515625 64.515625 
Q 56.984375 54.828125 56.984375 36.375 
Q 56.984375 17.96875 50.515625 8.265625 
Q 44.046875 -1.421875 31.78125 -1.421875 
Q 19.53125 -1.421875 13.0625 8.265625 
Q 6.59375 17.96875 6.59375 36.375 
Q 6.59375 54.828125 13.0625 64.515625 
Q 19.53125 74.21875 31.78125 74.21875 
" id="BitstreamVeraSans-Roman-30"/>
      </defs>
      <g transform="translate(397.613672988 371.996875)scale(0.2 -0.2)">
       <use xlink:href="#BitstreamVeraSans-Roman-30"/>
      </g>
     </g>
    </g>
    <g id="xtick_9">
     <g id="line2d_30">
      <path clip-path="url(#p6555008c4c)" d="M 453.6 352.8 
L 453.6 7.2 
" style="fill:none;stroke:#000000;stroke-dasharray:1.000000,3.000000;stroke-dashoffset:0.0;stroke-width:0.5;"/>
     </g>
     <g id="line2d_31">
      <g>
       <use style="stroke:#000000;stroke-width:0.5;" x="453.6" xlink:href="#m0f0a03677f" y="352.8"/>
      </g>
     </g>
     <g id="line2d_32">
      <g>
       <use style="stroke:#000000;stroke-width:0.5;" x="453.6" xlink:href="#m0eba5fa898" y="7.2"/>
      </g>
     </g>
    </g>
    <g id="xtick_10">
     <g id="line2d_33">
      <defs>
       <path d="M 0 0 
L 0 -2 
" id="m9e927923fc" style="stroke:#000000;stroke-width:0.5;"/>
      </defs>
      <g>
       <use style="stroke:#000000;stroke-width:0.5;" x="21.9238173251" xlink:href="#m9e927923fc" y="352.8"/>
      </g>
     </g>
     <g id="line2d_34">
      <defs>
       <path d="M 0 0 
L 0 2 
" id="m9022a01497" style="stroke:#000000;stroke-width:0.5;"/>
      </defs>
      <g>
       <use style="stroke:#000000;stroke-width:0.5;" x="21.9238173251" xlink:href="#m9022a01497" y="7.2"/>
      </g>
     </g>
    </g>
    <g id="xtick_11">
     <g id="line2d_35">
      <g>
       <use style="stroke:#000000;stroke-width:0.5;" x="36.8620777553" xlink:href="#m9e927923fc" y="352.8"/>
      </g>
     </g>
     <g id="line2d_36">
      <g>
       <use style="stroke:#000000;stroke-width:0.5;" x="36.8620777553" xlink:href="#m9022a01497" y="7.2"/>
      </g>
     </g>
    </g>
    <g id="xtick_12">
     <g id="line2d_37">
      <g>
       <use style="stroke:#000000;stroke-width:0.5;" x="45.6003999329" xlink:href="#m9e927923fc" y="352.8"/>
      </g>
     </g>
     <g id="line2d_38">
      <g>
       <use style="stroke:#000000;stroke-width:0.5;" x="45.6003999329" xlink:href="#m9022a01497" y="7.2"/>
      </g>
     </g>
    </g>
    <g id="xtick_13">
     <g id="line2d_39">
      <g>
       <use style="stroke:#000000;stroke-width:0.5;" x="51.8003381854" xlink:href="#m9e927923fc" y="352.8"/>
      </g>
     </g>
     <g id="line2d_40">
      <g>
       <use style="stroke:#000000;stroke-width:0.5;" x="51.8003381854" xlink:href="#m9022a01497" y="7.2"/>
      </g>
     </g>
    </g>
    <g id="xtick_14">
     <g id="line2d_41">
      <g>
       <use style="stroke:#000000;stroke-width:0.5;" x="71.5476443368" xlink:href="#m9e927923fc" y="352.8"/>
      </g>
     </g>
     <g id="line2d_42">
      <g>
       <use style="stroke:#000000;stroke-width:0.5;" x="71.5476443368" xlink:href="#m9022a01497" y="7.2"/>
      </g>
     </g>
    </g>
    <g id="xtick_15">
     <g id="line2d_43">
      <g>
       <use style="stroke:#000000;stroke-width:0.5;" x="86.4859047669" xlink:href="#m9e927923fc" y="352.8"/>
      </g>
     </g>
     <g id="line2d_44">
      <g>
       <use style="stroke:#000000;stroke-width:0.5;" x="86.4859047669" xlink:href="#m9022a01497" y="7.2"/>
      </g>
     </g>
    </g>
    <g id="xtick_16">
     <g id="line2d_45">
      <g>
       <use style="stroke:#000000;stroke-width:0.5;" x="95.2242269446" xlink:href="#m9e927923fc" y="352.8"/>
      </g>
     </g>
     <g id="line2d_46">
      <g>
       <use style="stroke:#000000;stroke-width:0.5;" x="95.2242269446" xlink:href="#m9022a01497" y="7.2"/>
      </g>
     </g>
    </g>
    <g id="xtick_17">
     <g id="line2d_47">
      <g>
       <use style="stroke:#000000;stroke-width:0.5;" x="101.424165197" xlink:href="#m9e927923fc" y="352.8"/>
      </g>
     </g>
     <g id="line2d_48">
      <g>
       <use style="stroke:#000000;stroke-width:0.5;" x="101.424165197" xlink:href="#m9022a01497" y="7.2"/>
      </g>
     </g>
    </g>
    <g id="xtick_18">
     <g id="line2d_49">
      <g>
       <use style="stroke:#000000;stroke-width:0.5;" x="121.171471348" xlink:href="#m9e927923fc" y="352.8"/>
      </g>
     </g>
     <g id="line2d_50">
      <g>
       <use style="stroke:#000000;stroke-width:0.5;" x="121.171471348" xlink:href="#m9022a01497" y="7.2"/>
      </g>
     </g>
    </g>
    <g id="xtick_19">
     <g id="line2d_51">
      <g>
       <use style="stroke:#000000;stroke-width:0.5;" x="136.109731779" xlink:href="#m9e927923fc" y="352.8"/>
      </g>
     </g>
     <g id="line2d_52">
      <g>
       <use style="stroke:#000000;stroke-width:0.5;" x="136.109731779" xlink:href="#m9022a01497" y="7.2"/>
      </g>
     </g>
    </g>
    <g id="xtick_20">
     <g id="line2d_53">
      <g>
       <use style="stroke:#000000;stroke-width:0.5;" x="144.848053956" xlink:href="#m9e927923fc" y="352.8"/>
      </g>
     </g>
     <g id="line2d_54">
      <g>
       <use style="stroke:#000000;stroke-width:0.5;" x="144.848053956" xlink:href="#m9022a01497" y="7.2"/>
      </g>
     </g>
    </g>
    <g id="xtick_21">
     <g id="line2d_55">
      <g>
       <use style="stroke:#000000;stroke-width:0.5;" x="151.047992209" xlink:href="#m9e927923fc" y="352.8"/>
      </g>
     </g>
     <g id="line2d_56">
      <g>
       <use style="stroke:#000000;stroke-width:0.5;" x="151.047992209" xlink:href="#m9022a01497" y="7.2"/>
      </g>
     </g>
    </g>
    <g id="xtick_22">
     <g id="line2d_57">
      <g>
       <use style="stroke:#000000;stroke-width:0.5;" x="170.79529836" xlink:href="#m9e927923fc" y="352.8"/>
      </g>
     </g>
     <g id="line2d_58">
      <g>
       <use style="stroke:#000000;stroke-width:0.5;" x="170.79529836" xlink:href="#m9022a01497" y="7.2"/>
      </g>
     </g>
    </g>
    <g id="xtick_23">
     <g id="line2d_59">
      <g>
       <use style="stroke:#000000;stroke-width:0.5;" x="185.73355879" xlink:href="#m9e927923fc" y="352.8"/>
      </g>
     </g>
     <g id="line2d_60">
      <g>
       <use style="stroke:#000000;stroke-width:0.5;" x="185.73355879" xlink:href="#m9022a01497" y="7.2"/>
      </g>
     </g>
    </g>
    <g id="xtick_24">
     <g id="line2d_61">
      <g>
       <use style="stroke:#000000;stroke-width:0.5;" x="194.471880968" xlink:href="#m9e927923fc" y="352.8"/>
      </g>
     </g>
     <g id="line2d_62">
      <g>
       <use style="stroke:#000000;stroke-width:0.5;" x="194.471880968" xlink:href="#m9022a01497" y="7.2"/>
      </g>
     </g>
    </g>
    <g id="xtick_25">
     <g id="line2d_63">
      <g>
       <use style="stroke:#000000;stroke-width:0.5;" x="200.67181922" xlink:href="#m9e927923fc" y="352.8"/>
      </g>
     </g>
     <g id="line2d_64">
      <g>
       <use style="stroke:#000000;stroke-width:0.5;" x="200.67181922" xlink:href="#m9022a01497" y="7.2"/>
      </g>
     </g>
    </g>
    <g id="xtick_26">
     <g id="line2d_65">
      <g>
       <use style="stroke:#000000;stroke-width:0.5;" x="220.419125372" xlink:href="#m9e927923fc" y="352.8"/>
      </g>
     </g>
     <g id="line2d_66">
      <g>
       <use style="stroke:#000000;stroke-width:0.5;" x="220.419125372" xlink:href="#m9022a01497" y="7.2"/>
      </g>
     </g>
    </g>
    <g id="xtick_27">
     <g id="line2d_67">
      <g>
       <use style="stroke:#000000;stroke-width:0.5;" x="235.357385802" xlink:href="#m9e927923fc" y="352.8"/>
      </g>
     </g>
     <g id="line2d_68">
      <g>
       <use style="stroke:#000000;stroke-width:0.5;" x="235.357385802" xlink:href="#m9022a01497" y="7.2"/>
      </g>
     </g>
    </g>
    <g id="xtick_28">
     <g id="line2d_69">
      <g>
       <use style="stroke:#000000;stroke-width:0.5;" x="244.09570798" xlink:href="#m9e927923fc" y="352.8"/>
      </g>
     </g>
     <g id="line2d_70">
      <g>
       <use style="stroke:#000000;stroke-width:0.5;" x="244.09570798" xlink:href="#m9022a01497" y="7.2"/>
      </g>
     </g>
    </g>
    <g id="xtick_29">
     <g id="line2d_71">
      <g>
       <use style="stroke:#000000;stroke-width:0.5;" x="250.295646232" xlink:href="#m9e927923fc" y="352.8"/>
      </g>
     </g>
     <g id="line2d_72">
      <g>
       <use style="stroke:#000000;stroke-width:0.5;" x="250.295646232" xlink:href="#m9022a01497" y="7.2"/>
      </g>
     </g>
    </g>
    <g id="xtick_30">
     <g id="line2d_73">
      <g>
       <use style="stroke:#000000;stroke-width:0.5;" x="270.042952383" xlink:href="#m9e927923fc" y="352.8"/>
      </g>
     </g>
     <g id="line2d_74">
      <g>
       <use style="stroke:#000000;stroke-width:0.5;" x="270.042952383" xlink:href="#m9022a01497" y="7.2"/>
      </g>
     </g>
    </g>
    <g id="xtick_31">
     <g id="line2d_75">
      <g>
       <use style="stroke:#000000;stroke-width:0.5;" x="284.981212814" xlink:href="#m9e927923fc" y="352.8"/>
      </g>
     </g>
     <g id="line2d_76">
      <g>
       <use style="stroke:#000000;stroke-width:0.5;" x="284.981212814" xlink:href="#m9022a01497" y="7.2"/>
      </g>
     </g>
    </g>
    <g id="xtick_32">
     <g id="line2d_77">
      <g>
       <use style="stroke:#000000;stroke-width:0.5;" x="293.719534991" xlink:href="#m9e927923fc" y="352.8"/>
      </g>
     </g>
     <g id="line2d_78">
      <g>
       <use style="stroke:#000000;stroke-width:0.5;" x="293.719534991" xlink:href="#m9022a01497" y="7.2"/>
      </g>
     </g>
    </g>
    <g id="xtick_33">
     <g id="line2d_79">
      <g>
       <use style="stroke:#000000;stroke-width:0.5;" x="299.919473244" xlink:href="#m9e927923fc" y="352.8"/>
      </g>
     </g>
     <g id="line2d_80">
      <g>
       <use style="stroke:#000000;stroke-width:0.5;" x="299.919473244" xlink:href="#m9022a01497" y="7.2"/>
      </g>
     </g>
    </g>
    <g id="xtick_34">
     <g id="line2d_81">
      <g>
       <use style="stroke:#000000;stroke-width:0.5;" x="319.666779395" xlink:href="#m9e927923fc" y="352.8"/>
      </g>
     </g>
     <g id="line2d_82">
      <g>
       <use style="stroke:#000000;stroke-width:0.5;" x="319.666779395" xlink:href="#m9022a01497" y="7.2"/>
      </g>
     </g>
    </g>
    <g id="xtick_35">
     <g id="line2d_83">
      <g>
       <use style="stroke:#000000;stroke-width:0.5;" x="334.605039825" xlink:href="#m9e927923fc" y="352.8"/>
      </g>
     </g>
     <g id="line2d_84">
      <g>
       <use style="stroke:#000000;stroke-width:0.5;" x="334.605039825" xlink:href="#m9022a01497" y="7.2"/>
      </g>
     </g>
    </g>
    <g id="xtick_36">
     <g id="line2d_85">
      <g>
       <use style="stroke:#000000;stroke-width:0.5;" x="343.343362003" xlink:href="#m9e927923fc" y="352.8"/>
      </g>
     </g>
     <g id="line2d_86">
      <g>
       <use style="stroke:#000000;stroke-width:0.5;" x="343.343362003" xlink:href="#m9022a01497" y="7.2"/>
      </g>
     </g>
    </g>
    <g id="xtick_37">
     <g id="line2d_87">
      <g>
       <use style="stroke:#000000;stroke-width:0.5;" x="349.543300255" xlink:href="#m9e927923fc" y="352.8"/>
      </g>
     </g>
     <g id="line2d_88">
      <g>
       <use style="stroke:#000000;stroke-width:0.5;" x="349.543300255" xlink:href="#m9022a01497" y="7.2"/>
      </g>
     </g>
    </g>
    <g id="xtick_38">
     <g id="line2d_89">
      <g>
       <use style="stroke:#000000;stroke-width:0.5;" x="369.290606407" xlink:href="#m9e927923fc" y="352.8"/>
      </g>
     </g>
     <g id="line2d_90">
      <g>
       <use style="stroke:#000000;stroke-width:0.5;" x="369.290606407" xlink:href="#m9022a01497" y="7.2"/>
      </g>
     </g>
    </g>
    <g id="xtick_39">
     <g id="line2d_91">
      <g>
       <use style="stroke:#000000;stroke-width:0.5;" x="384.228866837" xlink:href="#m9e927923fc" y="352.8"/>
      </g>
     </g>
     <g id="line2d_92">
      <g>
       <use style="stroke:#000000;stroke-width:0.5;" x="384.228866837" xlink:href="#m9022a01497" y="7.2"/>
      </g>
     </g>
    </g>
    <g id="xtick_40">
     <g id="line2d_93">
      <g>
       <use style="stroke:#000000;stroke-width:0.5;" x="392.967189015" xlink:href="#m9e927923fc" y="352.8"/>
      </g>
     </g>
     <g id="line2d_94">
      <g>
       <use style="stroke:#000000;stroke-width:0.5;" x="392.967189015" xlink:href="#m9022a01497" y="7.2"/>
      </g>
     </g>
    </g>
    <g id="xtick_41">
     <g id="line2d_95">
      <g>
       <use style="stroke:#000000;stroke-width:0.5;" x="399.167127267" xlink:href="#m9e927923fc" y="352.8"/>
      </g>
     </g>
     <g id="line2d_96">
      <g>
       <use style="stroke:#000000;stroke-width:0.5;" x="399.167127267" xlink:href="#m9022a01497" y="7.2"/>
      </g>
     </g>
    </g>
    <g id="xtick_42">
     <g id="line2d_97">
      <g>
       <use style="stroke:#000000;stroke-width:0.5;" x="418.914433418" xlink:href="#m9e927923fc" y="352.8"/>
      </g>
     </g>
     <g id="line2d_98">
      <g>
       <use style="stroke:#000000;stroke-width:0.5;" x="418.914433418" xlink:href="#m9022a01497" y="7.2"/>
      </g>
     </g>
    </g>
    <g id="xtick_43">
     <g id="line2d_99">
      <g>
       <use style="stroke:#000000;stroke-width:0.5;" x="433.852693849" xlink:href="#m9e927923fc" y="352.8"/>
      </g>
     </g>
     <g id="line2d_100">
      <g>
       <use style="stroke:#000000;stroke-width:0.5;" x="433.852693849" xlink:href="#m9022a01497" y="7.2"/>
      </g>
     </g>
    </g>
    <g id="xtick_44">
     <g id="line2d_101">
      <g>
       <use style="stroke:#000000;stroke-width:0.5;" x="442.591016026" xlink:href="#m9e927923fc" y="352.8"/>
      </g>
     </g>
     <g id="line2d_102">
      <g>
       <use style="stroke:#000000;stroke-width:0.5;" x="442.591016026" xlink:href="#m9022a01497" y="7.2"/>
      </g>
     </g>
    </g>
    <g id="xtick_45">
     <g id="line2d_103">
      <g>
       <use style="stroke:#000000;stroke-width:0.5;" x="448.790954279" xlink:href="#m9e927923fc" y="352.8"/>
      </g>
     </g>
     <g id="line2d_104">
      <g>
       <use style="stroke:#000000;stroke-width:0.5;" x="448.790954279" xlink:href="#m9022a01497" y="7.2"/>
      </g>
     </g>
    </g>
    <g id="text_9">
     <!-- log10 of Df -->
     <defs>
      <path id="BitstreamVeraSans-Roman-20"/>
      <path d="M 30.609375 48.390625 
Q 23.390625 48.390625 19.1875 42.75 
Q 14.984375 37.109375 14.984375 27.296875 
Q 14.984375 17.484375 19.15625 11.84375 
Q 23.34375 6.203125 30.609375 6.203125 
Q 37.796875 6.203125 41.984375 11.859375 
Q 46.1875 17.53125 46.1875 27.296875 
Q 46.1875 37.015625 41.984375 42.703125 
Q 37.796875 48.390625 30.609375 48.390625 
M 30.609375 56 
Q 42.328125 56 49.015625 48.375 
Q 55.71875 40.765625 55.71875 27.296875 
Q 55.71875 13.875 49.015625 6.21875 
Q 42.328125 -1.421875 30.609375 -1.421875 
Q 18.84375 -1.421875 12.171875 6.21875 
Q 5.515625 13.875 5.515625 27.296875 
Q 5.515625 40.765625 12.171875 48.375 
Q 18.84375 56 30.609375 56 
" id="BitstreamVeraSans-Roman-6f"/>
      <path d="M 9.421875 75.984375 
L 18.40625 75.984375 
L 18.40625 0 
L 9.421875 0 
z
" id="BitstreamVeraSans-Roman-6c"/>
      <path d="M 19.671875 64.796875 
L 19.671875 8.109375 
L 31.59375 8.109375 
Q 46.6875 8.109375 53.6875 14.9375 
Q 60.6875 21.78125 60.6875 36.53125 
Q 60.6875 51.171875 53.6875 57.984375 
Q 46.6875 64.796875 31.59375 64.796875 
z
M 9.8125 72.90625 
L 30.078125 72.90625 
Q 51.265625 72.90625 61.171875 64.09375 
Q 71.09375 55.28125 71.09375 36.53125 
Q 71.09375 17.671875 61.125 8.828125 
Q 51.171875 0 30.078125 0 
L 9.8125 0 
z
" id="BitstreamVeraSans-Roman-44"/>
      <path d="M 45.40625 27.984375 
Q 45.40625 37.75 41.375 43.109375 
Q 37.359375 48.484375 30.078125 48.484375 
Q 22.859375 48.484375 18.828125 43.109375 
Q 14.796875 37.75 14.796875 27.984375 
Q 14.796875 18.265625 18.828125 12.890625 
Q 22.859375 7.515625 30.078125 7.515625 
Q 37.359375 7.515625 41.375 12.890625 
Q 45.40625 18.265625 45.40625 27.984375 
M 54.390625 6.78125 
Q 54.390625 -7.171875 48.1875 -13.984375 
Q 42 -20.796875 29.203125 -20.796875 
Q 24.46875 -20.796875 20.265625 -20.09375 
Q 16.0625 -19.390625 12.109375 -17.921875 
L 12.109375 -9.1875 
Q 16.0625 -11.328125 19.921875 -12.34375 
Q 23.78125 -13.375 27.78125 -13.375 
Q 36.625 -13.375 41.015625 -8.765625 
Q 45.40625 -4.15625 45.40625 5.171875 
L 45.40625 9.625 
Q 42.625 4.78125 38.28125 2.390625 
Q 33.9375 0 27.875 0 
Q 17.828125 0 11.671875 7.65625 
Q 5.515625 15.328125 5.515625 27.984375 
Q 5.515625 40.671875 11.671875 48.328125 
Q 17.828125 56 27.875 56 
Q 33.9375 56 38.28125 53.609375 
Q 42.625 51.21875 45.40625 46.390625 
L 45.40625 54.6875 
L 54.390625 54.6875 
z
" id="BitstreamVeraSans-Roman-67"/>
      <path d="M 37.109375 75.984375 
L 37.109375 68.5 
L 28.515625 68.5 
Q 23.6875 68.5 21.796875 66.546875 
Q 19.921875 64.59375 19.921875 59.515625 
L 19.921875 54.6875 
L 34.71875 54.6875 
L 34.71875 47.703125 
L 19.921875 47.703125 
L 19.921875 0 
L 10.890625 0 
L 10.890625 47.703125 
L 2.296875 47.703125 
L 2.296875 54.6875 
L 10.890625 54.6875 
L 10.890625 58.5 
Q 10.890625 67.625 15.140625 71.796875 
Q 19.390625 75.984375 28.609375 75.984375 
z
" id="BitstreamVeraSans-Roman-66"/>
     </defs>
     <g transform="translate(175.2140625 396.353125)scale(0.2 -0.2)">
      <use xlink:href="#BitstreamVeraSans-Roman-6c"/>
      <use x="27.783203125" xlink:href="#BitstreamVeraSans-Roman-6f"/>
      <use x="88.96484375" xlink:href="#BitstreamVeraSans-Roman-67"/>
      <use x="152.44140625" xlink:href="#BitstreamVeraSans-Roman-31"/>
      <use x="216.064453125" xlink:href="#BitstreamVeraSans-Roman-30"/>
      <use x="279.6875" xlink:href="#BitstreamVeraSans-Roman-20"/>
      <use x="311.474609375" xlink:href="#BitstreamVeraSans-Roman-6f"/>
      <use x="372.65625" xlink:href="#BitstreamVeraSans-Roman-66"/>
      <use x="407.861328125" xlink:href="#BitstreamVeraSans-Roman-20"/>
      <use x="439.6484375" xlink:href="#BitstreamVeraSans-Roman-44"/>
      <use x="516.650390625" xlink:href="#BitstreamVeraSans-Roman-66"/>
     </g>
    </g>
   </g>
   <g id="matplotlib.axis_2">
    <g id="ytick_1">
     <g id="line2d_105">
      <path clip-path="url(#p6555008c4c)" d="M 7.2 352.8 
L 453.6 352.8 
" style="fill:none;stroke:#000000;stroke-dasharray:1.000000,3.000000;stroke-dashoffset:0.0;stroke-width:0.5;"/>
     </g>
     <g id="line2d_106">
      <defs>
       <path d="M 0 0 
L 4 0 
" id="m506952418d" style="stroke:#000000;stroke-width:0.5;"/>
      </defs>
      <g>
       <use style="stroke:#000000;stroke-width:0.5;" x="7.2" xlink:href="#m506952418d" y="352.8"/>
      </g>
     </g>
     <g id="line2d_107">
      <defs>
       <path d="M 0 0 
L -4 0 
" id="m41e39c4775" style="stroke:#000000;stroke-width:0.5;"/>
      </defs>
      <g>
       <use style="stroke:#000000;stroke-width:0.5;" x="453.6" xlink:href="#m41e39c4775" y="352.8"/>
      </g>
     </g>
    </g>
    <g id="ytick_2">
     <g id="line2d_108">
      <path clip-path="url(#p6555008c4c)" d="M 7.2 284.364356 
L 453.6 284.364356 
" style="fill:none;stroke:#000000;stroke-dasharray:1.000000,3.000000;stroke-dashoffset:0.0;stroke-width:0.5;"/>
     </g>
     <g id="line2d_109">
      <g>
       <use style="stroke:#000000;stroke-width:0.5;" x="7.2" xlink:href="#m506952418d" y="284.364356436"/>
      </g>
     </g>
     <g id="line2d_110">
      <g>
       <use style="stroke:#000000;stroke-width:0.5;" x="453.6" xlink:href="#m41e39c4775" y="284.364356436"/>
      </g>
     </g>
    </g>
    <g id="ytick_3">
     <g id="line2d_111">
      <path clip-path="url(#p6555008c4c)" d="M 7.2 215.928713 
L 453.6 215.928713 
" style="fill:none;stroke:#000000;stroke-dasharray:1.000000,3.000000;stroke-dashoffset:0.0;stroke-width:0.5;"/>
     </g>
     <g id="line2d_112">
      <g>
       <use style="stroke:#000000;stroke-width:0.5;" x="7.2" xlink:href="#m506952418d" y="215.928712871"/>
      </g>
     </g>
     <g id="line2d_113">
      <g>
       <use style="stroke:#000000;stroke-width:0.5;" x="453.6" xlink:href="#m41e39c4775" y="215.928712871"/>
      </g>
     </g>
    </g>
    <g id="ytick_4">
     <g id="line2d_114">
      <path clip-path="url(#p6555008c4c)" d="M 7.2 147.493069 
L 453.6 147.493069 
" style="fill:none;stroke:#000000;stroke-dasharray:1.000000,3.000000;stroke-dashoffset:0.0;stroke-width:0.5;"/>
     </g>
     <g id="line2d_115">
      <g>
       <use style="stroke:#000000;stroke-width:0.5;" x="7.2" xlink:href="#m506952418d" y="147.493069307"/>
      </g>
     </g>
     <g id="line2d_116">
      <g>
       <use style="stroke:#000000;stroke-width:0.5;" x="453.6" xlink:href="#m41e39c4775" y="147.493069307"/>
      </g>
     </g>
    </g>
    <g id="ytick_5">
     <g id="line2d_117">
      <path clip-path="url(#p6555008c4c)" d="M 7.2 79.057426 
L 453.6 79.057426 
" style="fill:none;stroke:#000000;stroke-dasharray:1.000000,3.000000;stroke-dashoffset:0.0;stroke-width:0.5;"/>
     </g>
     <g id="line2d_118">
      <g>
       <use style="stroke:#000000;stroke-width:0.5;" x="7.2" xlink:href="#m506952418d" y="79.0574257426"/>
      </g>
     </g>
     <g id="line2d_119">
      <g>
       <use style="stroke:#000000;stroke-width:0.5;" x="453.6" xlink:href="#m41e39c4775" y="79.0574257426"/>
      </g>
     </g>
    </g>
    <g id="ytick_6">
     <g id="line2d_120">
      <path clip-path="url(#p6555008c4c)" d="M 7.2 10.621782 
L 453.6 10.621782 
" style="fill:none;stroke:#000000;stroke-dasharray:1.000000,3.000000;stroke-dashoffset:0.0;stroke-width:0.5;"/>
     </g>
     <g id="line2d_121">
      <g>
       <use style="stroke:#000000;stroke-width:0.5;" x="7.2" xlink:href="#m506952418d" y="10.6217821782"/>
      </g>
     </g>
     <g id="line2d_122">
      <g>
       <use style="stroke:#000000;stroke-width:0.5;" x="453.6" xlink:href="#m41e39c4775" y="10.6217821782"/>
      </g>
     </g>
    </g>
   </g>
   <g id="text_10">
    <!-- {f1-f55}, 20-D -->
    <defs>
     <path d="M 12.5 -9.28125 
L 15.921875 -9.28125 
Q 22.75 -9.28125 24.828125 -7.171875 
Q 26.90625 -5.078125 26.90625 1.90625 
L 26.90625 14.015625 
Q 26.90625 21.625 29.09375 25.09375 
Q 31.296875 28.5625 36.71875 29.890625 
Q 31.296875 31.109375 29.09375 34.5625 
Q 26.90625 38.03125 26.90625 45.703125 
L 26.90625 57.8125 
Q 26.90625 64.75 24.828125 66.875 
Q 22.75 69 15.921875 69 
L 12.5 69 
L 12.5 75.984375 
L 15.578125 75.984375 
Q 27.734375 75.984375 31.8125 72.390625 
Q 35.890625 68.796875 35.890625 58.015625 
L 35.890625 46.296875 
Q 35.890625 39.015625 38.515625 36.203125 
Q 41.15625 33.40625 48.09375 33.40625 
L 51.125 33.40625 
L 51.125 26.421875 
L 48.09375 26.421875 
Q 41.15625 26.421875 38.515625 23.578125 
Q 35.890625 20.75 35.890625 13.375 
L 35.890625 1.703125 
Q 35.890625 -9.078125 31.8125 -12.6875 
Q 27.734375 -16.3125 15.578125 -16.3125 
L 12.5 -16.3125 
z
" id="BitstreamVeraSans-Roman-7d"/>
     <path d="M 51.125 -9.28125 
L 51.125 -16.3125 
L 48.09375 -16.3125 
Q 35.9375 -16.3125 31.8125 -12.6875 
Q 27.6875 -9.078125 27.6875 1.703125 
L 27.6875 13.375 
Q 27.6875 20.75 25.046875 23.578125 
Q 22.40625 26.421875 15.484375 26.421875 
L 12.5 26.421875 
L 12.5 33.40625 
L 15.484375 33.40625 
Q 22.46875 33.40625 25.078125 36.203125 
Q 27.6875 39.015625 27.6875 46.296875 
L 27.6875 58.015625 
Q 27.6875 68.796875 31.8125 72.390625 
Q 35.9375 75.984375 48.09375 75.984375 
L 51.125 75.984375 
L 51.125 69 
L 47.796875 69 
Q 40.921875 69 38.8125 66.84375 
Q 36.71875 64.703125 36.71875 57.8125 
L 36.71875 45.703125 
Q 36.71875 38.03125 34.5 34.5625 
Q 32.28125 31.109375 26.90625 29.890625 
Q 32.328125 28.5625 34.515625 25.09375 
Q 36.71875 21.625 36.71875 14.015625 
L 36.71875 1.90625 
Q 36.71875 -4.984375 38.8125 -7.125 
Q 40.921875 -9.28125 47.796875 -9.28125 
z
" id="BitstreamVeraSans-Roman-7b"/>
     <path d="M 11.71875 12.40625 
L 22.015625 12.40625 
L 22.015625 4 
L 14.015625 -11.625 
L 7.71875 -11.625 
L 11.71875 4 
z
" id="BitstreamVeraSans-Roman-2c"/>
    </defs>
    <g transform="translate(298.972 345.888)scale(0.2 -0.2)">
     <use xlink:href="#BitstreamVeraSans-Roman-7b"/>
     <use x="63.623046875" xlink:href="#BitstreamVeraSans-Roman-66"/>
     <use x="98.828125" xlink:href="#BitstreamVeraSans-Roman-31"/>
     <use x="162.451171875" xlink:href="#BitstreamVeraSans-Roman-2d"/>
     <use x="198.53515625" xlink:href="#BitstreamVeraSans-Roman-66"/>
     <use x="233.740234375" xlink:href="#BitstreamVeraSans-Roman-35"/>
     <use x="297.36328125" xlink:href="#BitstreamVeraSans-Roman-35"/>
     <use x="360.986328125" xlink:href="#BitstreamVeraSans-Roman-7d"/>
     <use x="424.609375" xlink:href="#BitstreamVeraSans-Roman-2c"/>
     <use x="456.396484375" xlink:href="#BitstreamVeraSans-Roman-20"/>
     <use x="488.18359375" xlink:href="#BitstreamVeraSans-Roman-32"/>
     <use x="551.806640625" xlink:href="#BitstreamVeraSans-Roman-30"/>
     <use x="615.4296875" xlink:href="#BitstreamVeraSans-Roman-2d"/>
     <use x="651.513671875" xlink:href="#BitstreamVeraSans-Roman-44"/>
    </g>
   </g>
   <g id="text_11">
    <!-- 1.2 -->
    <defs>
     <path d="M 10.6875 12.40625 
L 21 12.40625 
L 21 0 
L 10.6875 0 
z
" id="BitstreamVeraSans-Roman-2e"/>
    </defs>
    <g style="fill:#808080;" transform="translate(222.4484375 347.2643125)scale(0.1 -0.1)">
     <use xlink:href="#BitstreamVeraSans-Roman-31"/>
     <use x="63.623046875" xlink:href="#BitstreamVeraSans-Roman-2e"/>
     <use x="95.41015625" xlink:href="#BitstreamVeraSans-Roman-32"/>
    </g>
   </g>
  </g>
 </g>
 <defs>
  <clipPath id="p6555008c4c">
   <rect height="345.6" width="446.4" x="7.2" y="7.2"/>
  </clipPath>
 </defs>
</svg>
