<?xml version="1.0" encoding="utf-8" standalone="no"?>
<!DOCTYPE svg PUBLIC "-//W3C//DTD SVG 1.1//EN"
  "http://www.w3.org/Graphics/SVG/1.1/DTD/svg11.dtd">
<!-- Created with matplotlib (http://matplotlib.org/) -->
<svg height="415pt" version="1.1" viewBox="0 0 538 415" width="538pt" xmlns="http://www.w3.org/2000/svg" xmlns:xlink="http://www.w3.org/1999/xlink">
 <defs>
  <style type="text/css">
*{stroke-linecap:butt;stroke-linejoin:round;stroke-miterlimit:100000;}
  </style>
 </defs>
 <g id="figure_1">
  <g id="patch_1">
   <path d="M 0 415.456343 
L 538.8 415.456343 
L 538.8 0 
L 0 0 
z
" style="fill:#ffffff;"/>
  </g>
  <g id="axes_1">
   <g id="patch_2">
    <path d="M 85.2 359.056343 
L 531.6 359.056343 
L 531.6 13.456343 
L 85.2 13.456343 
z
" style="fill:#ffffff;"/>
   </g>
   <g id="line2d_1">
    <defs>
     <path d="M 0 1.5 
C 0.397805 1.5 0.77937 1.341951 1.06066 1.06066 
C 1.341951 0.77937 1.5 0.397805 1.5 0 
C 1.5 -0.397805 1.341951 -0.77937 1.06066 -1.06066 
C 0.77937 -1.341951 0.397805 -1.5 0 -1.5 
C -0.397805 -1.5 -0.77937 -1.341951 -1.06066 -1.06066 
C -1.341951 -0.77937 -1.5 -0.397805 -1.5 0 
C -1.5 0.397805 -1.341951 0.77937 -1.06066 1.06066 
C -0.77937 1.341951 -0.397805 1.5 0 1.5 
z
" id="m4e467fe5f8" style="stroke:#000080;stroke-width:0.5;"/>
    </defs>
    <g>
     <use style="fill:#000080;stroke:#000080;stroke-width:0.5;" x="395.410342223" xlink:href="#m4e467fe5f8" y="105.372491678"/>
     <use style="fill:#000080;stroke:#000080;stroke-width:0.5;" x="395.410342223" xlink:href="#m4e467fe5f8" y="105.372491678"/>
    </g>
   </g>
   <g id="line2d_2">
    <path d="M 69.718457 359.056343 
L 69.718457 358.46638 
L 189.146878 358.46638 
L 189.146878 357.286455 
L 193.219057 357.286455 
L 193.219057 356.106531 
L 197.335507 356.106531 
L 197.335507 354.336643 
L 199.644477 354.336643 
L 199.644477 350.796869 
L 204.035656 350.796869 
L 204.035656 347.257094 
L 208.700599 347.257094 
L 208.700599 345.487207 
L 209.866176 345.487207 
L 209.908198 342.537394 
L 210.853525 342.537394 
L 210.893732 340.767507 
L 211.252378 340.767507 
L 211.252378 335.457845 
L 212.780162 335.457845 
L 212.780162 332.508033 
L 212.963992 332.508033 
L 212.963992 329.558221 
L 213.255008 329.558221 
L 213.363168 321.888709 
L 213.719967 321.888709 
L 213.719967 321.298746 
L 214.791154 321.298746 
L 214.791154 319.528859 
L 216.196755 319.528859 
L 216.196755 316.579047 
L 216.759856 316.579047 
L 216.759856 315.989084 
L 217.369311 315.989084 
L 217.369311 314.809159 
L 217.519111 314.809159 
L 217.519111 313.629235 
L 218.282278 313.629235 
L 218.282278 311.859347 
L 218.426098 311.859347 
L 218.426098 310.08946 
L 218.823936 310.08946 
L 218.823936 309.499497 
L 219.352767 309.499497 
L 219.352767 307.72961 
L 219.653306 307.72961 
L 219.734574 303.009911 
L 219.923057 303.009911 
L 219.976619 297.700249 
L 220.295318 297.700249 
L 220.295318 294.750436 
L 220.816582 294.750436 
L 220.816582 293.570511 
L 221.526499 293.570511 
L 221.526499 292.980549 
L 222.431276 292.980549 
L 222.431276 290.030737 
L 222.740665 290.030737 
L 222.764287 287.080925 
L 223.254676 287.080925 
L 223.323861 281.1813 
L 223.461591 281.1813 
L 223.461591 280.591338 
L 223.937066 280.591338 
L 223.937066 277.641525 
L 224.707699 277.641525 
L 224.707699 274.691713 
L 225.030001 274.691713 
L 225.030001 273.511788 
L 225.452628 273.511788 
L 225.452628 272.331863 
L 226.092292 272.331863 
L 226.092292 271.151939 
L 226.21401 271.151939 
L 226.21401 269.382051 
L 226.41541 269.382051 
L 226.41541 267.612164 
L 226.694354 267.612164 
L 226.773416 264.662352 
L 228.113544 264.662352 
L 228.113544 263.482427 
L 228.808715 263.482427 
L 228.844711 257.582802 
L 231.977258 257.582802 
L 231.992882 252.863103 
L 233.238264 252.863103 
L 233.238264 249.323328 
L 233.590006 249.323328 
L 233.590006 248.143403 
L 233.720494 248.143403 
L 233.720494 245.783553 
L 233.835847 245.783553 
L 233.835847 244.603629 
L 234.121649 244.603629 
L 234.121649 244.013666 
L 234.930375 244.013666 
L 235.039661 239.883929 
L 235.829538 239.883929 
L 235.868965 235.164229 
L 236.895459 235.164229 
L 236.895459 232.214417 
L 237.070344 232.214417 
L 237.070344 231.034492 
L 238.480692 231.034492 
L 238.480692 228.08468 
L 238.689976 228.08468 
L 238.701546 225.72483 
L 240.286421 225.72483 
L 240.286421 223.954943 
L 241.95702 223.954943 
L 241.95702 223.364981 
L 243.370987 223.364981 
L 243.370987 221.595093 
L 244.073059 221.595093 
L 244.073059 219.825206 
L 244.815396 219.825206 
L 244.815396 218.645281 
L 245.26821 218.645281 
L 245.26821 217.465356 
L 246.138905 217.465356 
L 246.138905 216.285431 
L 246.54964 216.285431 
L 246.54964 215.105506 
L 249.274202 215.105506 
L 249.274202 213.925581 
L 249.983313 213.925581 
L 249.983313 212.155694 
L 250.534826 212.155694 
L 250.534826 210.975769 
L 253.454193 210.975769 
L 253.454193 210.385807 
L 253.674187 210.385807 
L 253.715564 204.486182 
L 254.97284 204.486182 
L 254.97284 203.89622 
L 255.415025 203.89622 
L 255.415025 201.53637 
L 255.638297 201.53637 
L 255.638297 199.17652 
L 255.971744 199.17652 
L 255.971744 197.406633 
L 256.136619 197.406633 
L 256.136619 196.226708 
L 257.378495 196.226708 
L 257.378495 195.046783 
L 259.371975 195.046783 
L 259.371975 193.866858 
L 260.31013 193.866858 
L 260.411006 191.507009 
L 261.189343 191.507009 
L 261.189343 187.967234 
L 262.410506 187.967234 
L 262.410506 186.787309 
L 265.293195 186.787309 
L 265.293195 184.427459 
L 265.838617 184.427459 
L 265.838617 183.247534 
L 266.634218 183.247534 
L 266.634218 181.477647 
L 271.503942 181.477647 
L 271.503942 177.34791 
L 271.729163 177.34791 
L 271.729163 175.578023 
L 273.245158 175.578023 
L 273.245158 174.98806 
L 274.185775 174.98806 
L 274.185775 172.62821 
L 276.528859 172.62821 
L 276.528859 169.678398 
L 281.487695 169.678398 
L 281.487695 167.908511 
L 282.41349 167.908511 
L 282.41349 166.728586 
L 283.051358 166.728586 
L 283.051358 165.548661 
L 283.992006 165.548661 
L 283.992006 164.958699 
L 284.38439 164.958699 
L 284.38439 162.598849 
L 286.389054 162.598849 
L 286.389054 162.008886 
L 286.780825 162.008886 
L 286.780825 160.238999 
L 290.589188 160.238999 
L 290.589188 157.289187 
L 290.859497 157.289187 
L 290.859497 156.109262 
L 291.023461 156.109262 
L 291.023461 155.519299 
L 291.340151 155.519299 
L 291.340151 154.339375 
L 295.614114 154.339375 
L 295.614114 153.15945 
L 302.532841 153.15945 
L 302.532841 152.569487 
L 305.826342 152.569487 
L 305.826342 151.389562 
L 307.354359 151.389562 
L 307.36559 147.259825 
L 309.756013 147.259825 
L 309.756013 145.489938 
L 309.966389 145.489938 
L 309.966389 144.310013 
L 310.190356 144.310013 
L 310.190356 143.720051 
L 311.311322 143.720051 
L 311.311322 141.950163 
L 315.310794 141.950163 
L 315.310794 140.770238 
L 315.89023 140.770238 
L 315.89023 140.180276 
L 316.420464 140.180276 
L 316.420464 138.410389 
L 317.581732 138.410389 
L 317.581732 136.640501 
L 322.683734 136.640501 
L 322.683734 136.050539 
L 323.037723 136.050539 
L 323.037723 135.460576 
L 323.284709 135.460576 
L 323.284709 134.870614 
L 325.094423 134.870614 
L 325.094423 134.280651 
L 331.572902 134.280651 
L 331.572902 131.920802 
L 333.620375 131.920802 
L 333.620375 130.150914 
L 333.795444 130.150914 
L 333.795444 127.791065 
L 336.079891 127.791065 
L 336.079891 123.071365 
L 340.149359 123.071365 
L 340.149359 122.481403 
L 347.104581 122.481403 
L 347.104581 121.89144 
L 348.722528 121.89144 
L 348.722528 120.711515 
L 353.96493 120.711515 
L 353.96493 117.761703 
L 354.91923 117.761703 
L 354.91923 117.171741 
L 356.761478 117.171741 
L 356.761478 116.581778 
L 361.2469 116.581778 
L 361.2469 115.401853 
L 364.343543 115.401853 
L 364.387913 112.452041 
L 364.991096 112.452041 
L 364.991096 110.092191 
L 371.907575 110.092191 
L 371.907575 107.732341 
L 377.181054 107.732341 
L 377.181054 106.552417 
L 386.846545 106.552417 
L 386.846545 105.962454 
L 395.410342 105.962454 
L 395.410342 105.372492 
L 445.2 105.372492 
L 445.2 105.372492 
" style="fill:none;stroke:#000080;stroke-linecap:square;stroke-width:1.5;"/>
   </g>
   <g id="line2d_3">
    <defs>
     <path d="M 0 6 
C 1.591219 6 3.117479 5.367802 4.242641 4.242641 
C 5.367802 3.117479 6 1.591219 6 0 
C 6 -1.591219 5.367802 -3.117479 4.242641 -4.242641 
C 3.117479 -5.367802 1.591219 -6 0 -6 
C -1.591219 -6 -3.117479 -5.367802 -4.242641 -4.242641 
C -5.367802 -3.117479 -6 -1.591219 -6 0 
C -6 1.591219 -5.367802 3.117479 -4.242641 4.242641 
C -3.117479 5.367802 -1.591219 6 0 6 
z
" id="mdc31c99c87" style="stroke:#000080;stroke-width:1.5;"/>
    </defs>
    <g>
     <use style="fill:none;stroke:#000080;stroke-width:1.5;" x="211.252377539" xlink:href="#mdc31c99c87" y="340.767507042"/>
     <use style="fill:none;stroke:#000080;stroke-width:1.5;" x="246.549640013" xlink:href="#mdc31c99c87" y="215.105506359"/>
     <use style="fill:none;stroke:#000080;stroke-width:1.5;" x="307.365589521" xlink:href="#mdc31c99c87" y="150.209637462"/>
     <use style="fill:none;stroke:#000080;stroke-width:1.5;" x="395.410342223" xlink:href="#mdc31c99c87" y="105.962454123"/>
     <use style="fill:none;stroke:#000080;stroke-width:1.5;" x="395.410342223" xlink:href="#mdc31c99c87" y="105.372491678"/>
     <use style="fill:none;stroke:#000080;stroke-width:1.5;" x="445.2" xlink:href="#mdc31c99c87" y="105.372491678"/>
    </g>
   </g>
   <g id="line2d_4"/>
   <g id="line2d_5">
    <path clip-path="url(#p5a5896fdc4)" d="M 342.356031 122.481403 
" style="fill:none;stroke:#000080;stroke-linecap:square;"/>
    <defs>
     <path d="M -12 12 
L 12 -12 
M -12 -12 
L 12 12 
" id="mbe163ec398" style="stroke:#000080;stroke-width:3.0;"/>
    </defs>
    <g clip-path="url(#p5a5896fdc4)">
     <use style="fill:#000080;stroke:#000080;stroke-width:3.0;" x="342.356030992" xlink:href="#mbe163ec398" y="122.481402569"/>
    </g>
   </g>
   <g id="line2d_6">
    <defs>
     <path d="M 0 1.5 
C 0.397805 1.5 0.77937 1.341951 1.06066 1.06066 
C 1.341951 0.77937 1.5 0.397805 1.5 0 
C 1.5 -0.397805 1.341951 -0.77937 1.06066 -1.06066 
C 0.77937 -1.341951 0.397805 -1.5 0 -1.5 
C -0.397805 -1.5 -0.77937 -1.341951 -1.06066 -1.06066 
C -1.341951 -0.77937 -1.5 -0.397805 -1.5 0 
C -1.5 0.397805 -1.341951 0.77937 -1.06066 1.06066 
C -0.77937 1.341951 -0.397805 1.5 0 1.5 
z
" id="mca13f169a4" style="stroke:#ff00ff;stroke-width:0.5;"/>
    </defs>
    <g>
     <use style="fill:#ff00ff;stroke:#ff00ff;stroke-width:0.5;" x="396.088013474" xlink:href="#mca13f169a4" y="58.1754961164"/>
     <use style="fill:#ff00ff;stroke:#ff00ff;stroke-width:0.5;" x="396.088013474" xlink:href="#mca13f169a4" y="58.1754961164"/>
    </g>
   </g>
   <g id="line2d_7">
    <path d="M 69.718457 359.056343 
L 69.718457 353.156718 
L 143.331451 353.156718 
L 143.331451 341.947432 
L 144.927497 341.947432 
L 144.927497 336.63777 
L 171.429957 336.63777 
L 171.429957 336.047807 
L 171.663835 336.047807 
L 171.663835 334.867883 
L 189.358587 334.867883 
L 189.358587 331.328108 
L 190.588355 331.328108 
L 190.588355 324.838521 
L 193.307513 324.838521 
L 193.307513 323.658596 
L 196.278918 323.658596 
L 196.278918 321.888709 
L 197.03869 321.888709 
L 197.03869 318.938897 
L 198.484835 318.938897 
L 198.484835 315.989084 
L 198.763159 315.989084 
L 198.763159 315.399122 
L 201.857687 315.399122 
L 201.857687 311.269385 
L 202.097208 311.269385 
L 202.097208 310.08946 
L 204.144608 310.08946 
L 204.253031 303.599873 
L 204.521809 303.599873 
L 204.521809 301.829986 
L 205.049851 301.829986 
L 205.049851 296.520324 
L 205.309263 296.520324 
L 205.309263 295.340399 
L 205.768746 295.340399 
L 205.768746 294.160474 
L 206.069898 294.160474 
L 206.069898 290.620699 
L 207.657347 290.620699 
L 207.657347 288.850812 
L 208.877163 288.850812 
L 208.877163 287.080925 
L 209.008675 287.080925 
L 209.008675 282.361225 
L 209.654867 282.361225 
L 209.654867 280.591338 
L 209.908198 280.591338 
L 209.908198 278.82145 
L 210.732467 278.82145 
L 210.732467 278.231488 
L 211.212811 278.231488 
L 211.212811 277.641525 
L 212.927347 277.641525 
L 213.000577 269.972014 
L 213.255008 269.972014 
L 213.255008 266.432239 
L 214.036285 266.432239 
L 214.036285 262.302502 
L 215.225509 262.302502 
L 215.225509 260.532615 
L 215.813309 260.532615 
L 215.813309 258.762727 
L 216.48008 258.762727 
L 216.48008 257.582802 
L 217.399351 257.582802 
L 217.399351 255.222953 
L 217.845177 255.222953 
L 217.845177 254.043028 
L 218.166552 254.043028 
L 218.166552 252.27314 
L 218.710989 252.27314 
L 218.710989 251.683178 
L 219.159388 251.683178 
L 219.159388 250.503253 
L 220.505286 250.503253 
L 220.505286 249.913291 
L 220.919391 249.913291 
L 220.919391 246.963478 
L 221.1236 246.963478 
L 221.1236 242.243779 
L 223.734529 242.243779 
L 223.734529 240.473891 
L 224.292657 240.473891 
L 224.292657 237.524079 
L 225.008658 237.524079 
L 225.008658 235.164229 
L 225.640231 235.164229 
L 225.640231 232.214417 
L 228.82672 232.214417 
L 228.82672 229.264605 
L 229.059474 229.264605 
L 229.059474 228.674643 
L 229.949855 228.674643 
L 229.949855 227.494718 
L 231.149346 227.494718 
L 231.149346 223.954943 
L 232.775575 223.954943 
L 232.775575 222.185056 
L 239.763173 222.185056 
L 239.763173 220.415168 
L 241.29752 220.415168 
L 241.400258 216.875394 
L 241.441221 216.875394 
L 241.492319 213.335619 
L 242.500241 213.335619 
L 242.500241 212.155694 
L 243.872087 212.155694 
L 243.872087 210.385807 
L 244.200015 210.385807 
L 244.200015 207.435995 
L 244.335243 207.435995 
L 244.335243 205.076145 
L 247.676554 205.076145 
L 247.676554 201.53637 
L 250.872732 201.53637 
L 250.872732 200.356445 
L 251.442233 200.356445 
L 251.442233 199.766483 
L 253.26819 199.766483 
L 253.26819 197.406633 
L 253.921311 197.406633 
L 253.921311 196.226708 
L 255.502421 196.226708 
L 255.502421 193.276896 
L 256.310803 193.276896 
L 256.310803 192.096971 
L 257.617803 192.096971 
L 257.617803 190.917046 
L 258.805557 190.917046 
L 258.805557 189.737121 
L 259.581867 189.737121 
L 259.640829 186.787309 
L 262.807092 186.787309 
L 262.807092 184.427459 
L 263.56075 184.427459 
L 263.56075 182.067609 
L 266.673925 182.067609 
L 266.673925 179.70776 
L 267.063911 179.70776 
L 267.063911 178.527835 
L 267.911779 178.527835 
L 267.911779 177.34791 
L 268.510463 177.34791 
L 268.510463 173.808135 
L 270.051632 173.808135 
L 270.051632 173.218173 
L 271.530557 173.218173 
L 271.530557 172.62821 
L 272.16515 172.62821 
L 272.16515 169.678398 
L 274.777746 169.678398 
L 274.777746 167.318548 
L 277.120636 167.318548 
L 277.120636 164.958699 
L 277.445472 164.958699 
L 277.445472 163.778774 
L 280.66545 163.778774 
L 280.66545 161.418924 
L 281.939539 161.418924 
L 281.939539 160.238999 
L 283.762455 160.238999 
L 283.762455 159.649037 
L 284.724372 159.649037 
L 284.724372 152.569487 
L 286.097231 152.569487 
L 286.097231 151.979525 
L 286.390421 151.979525 
L 286.390421 149.619675 
L 287.647986 149.619675 
L 287.647986 147.849788 
L 289.75806 147.849788 
L 289.75806 146.669863 
L 290.444815 146.669863 
L 290.444815 145.489938 
L 291.44945 145.489938 
L 291.44945 143.720051 
L 292.212569 143.720051 
L 292.212569 141.950163 
L 295.269437 141.950163 
L 295.269437 140.180276 
L 295.542516 140.180276 
L 295.542516 138.410389 
L 297.946444 138.410389 
L 297.946444 137.820426 
L 300.005372 137.820426 
L 300.005372 135.460576 
L 302.43038 135.460576 
L 302.43038 134.280651 
L 302.625581 134.280651 
L 302.625581 131.920802 
L 304.712422 131.920802 
L 304.712422 128.381027 
L 305.191331 128.381027 
L 305.191331 127.791065 
L 308.161763 127.791065 
L 308.2493 120.121553 
L 308.359519 120.121553 
L 308.359519 118.351665 
L 309.355156 118.351665 
L 309.355156 116.581778 
L 309.836572 116.581778 
L 309.836572 114.811891 
L 310.111065 114.811891 
L 310.111065 113.042003 
L 310.50009 113.042003 
L 310.533984 106.552417 
L 311.2503 106.552417 
L 311.2503 104.192567 
L 312.193835 104.192567 
L 312.193835 103.602604 
L 314.492051 103.602604 
L 314.492051 101.832717 
L 318.008741 101.832717 
L 318.008741 100.652792 
L 324.261024 100.652792 
L 324.261024 98.292942 
L 324.825447 98.292942 
L 324.825447 94.753168 
L 328.390633 94.753168 
L 328.390633 93.573243 
L 333.250299 93.573243 
L 333.250299 92.98328 
L 335.248789 92.98328 
L 335.320171 88.263581 
L 341.185103 88.263581 
L 341.185103 87.083656 
L 341.663928 87.083656 
L 341.742763 83.543881 
L 342.165371 83.543881 
L 342.165371 82.953919 
L 344.108379 82.953919 
L 344.205885 80.594069 
L 344.945846 80.594069 
L 344.945846 80.004107 
L 345.222027 80.004107 
L 345.222321 78.824182 
L 347.164236 78.824182 
L 347.170895 75.874369 
L 347.311518 75.874369 
L 347.311518 75.284407 
L 347.502555 75.284407 
L 347.502555 74.694445 
L 358.730822 74.694445 
L 358.730929 73.51452 
L 359.169892 73.51452 
L 359.170049 70.564707 
L 359.31651 70.564707 
L 359.31651 69.974745 
L 360.37435 69.974745 
L 360.452569 67.614895 
L 360.558595 67.614895 
L 360.558595 67.024933 
L 364.250602 67.024933 
L 364.250602 66.43497 
L 367.527382 66.43497 
L 367.527454 65.255045 
L 368.616582 65.255045 
L 368.616582 64.665083 
L 368.744201 64.665083 
L 368.744201 64.075121 
L 373.770205 64.075121 
L 373.770205 63.485158 
L 373.995262 63.485158 
L 373.995262 62.305233 
L 374.664705 62.305233 
L 374.664705 61.715271 
L 379.35259 61.715271 
L 379.35259 61.125308 
L 382.879213 61.125308 
L 382.879213 60.535346 
L 383.253236 60.535346 
L 383.319561 59.355421 
L 386.207072 59.355421 
L 386.207072 58.765459 
L 396.088013 58.765459 
L 396.088013 58.175496 
L 445.2 58.175496 
L 445.2 58.175496 
" style="fill:none;stroke:#ff00ff;stroke-linecap:square;stroke-width:1.5;"/>
   </g>
   <g id="line2d_8">
    <defs>
     <path d="M -0 8.485281 
L 5.091169 0 
L 0 -8.485281 
L -5.091169 -0 
z
" id="m61cc682150" style="stroke:#ff00ff;stroke-linejoin:miter;stroke-width:1.5;"/>
    </defs>
    <g>
     <use style="fill:none;stroke:#ff00ff;stroke-linejoin:miter;stroke-width:1.5;" x="190.588355452" xlink:href="#m61cc682150" y="331.328107929"/>
     <use style="fill:none;stroke:#ff00ff;stroke-linejoin:miter;stroke-width:1.5;" x="232.775574661" xlink:href="#m61cc682150" y="222.185055693"/>
     <use style="fill:none;stroke:#ff00ff;stroke-linejoin:miter;stroke-width:1.5;" x="286.390421129" xlink:href="#m61cc682150" y="151.979524795"/>
     <use style="fill:none;stroke:#ff00ff;stroke-linejoin:miter;stroke-width:1.5;" x="386.207072048" xlink:href="#m61cc682150" y="59.3554210055"/>
     <use style="fill:none;stroke:#ff00ff;stroke-linejoin:miter;stroke-width:1.5;" x="396.088013474" xlink:href="#m61cc682150" y="58.1754961164"/>
     <use style="fill:none;stroke:#ff00ff;stroke-linejoin:miter;stroke-width:1.5;" x="445.2" xlink:href="#m61cc682150" y="58.1754961164"/>
    </g>
   </g>
   <g id="line2d_9"/>
   <g id="line2d_10">
    <path clip-path="url(#p5a5896fdc4)" d="M 342.356031 82.953919 
" style="fill:none;stroke:#ff00ff;stroke-linecap:square;"/>
    <defs>
     <path d="M -12 12 
L 12 -12 
M -12 -12 
L 12 12 
" id="m2383b8b86b" style="stroke:#ff00ff;stroke-width:3.0;"/>
    </defs>
    <g clip-path="url(#p5a5896fdc4)">
     <use style="fill:#ff00ff;stroke:#ff00ff;stroke-width:3.0;" x="342.356030992" xlink:href="#m2383b8b86b" y="82.9539187863"/>
    </g>
   </g>
   <g id="line2d_11">
    <defs>
     <path d="M 0 1.5 
C 0.397805 1.5 0.77937 1.341951 1.06066 1.06066 
C 1.341951 0.77937 1.5 0.397805 1.5 0 
C 1.5 -0.397805 1.341951 -0.77937 1.06066 -1.06066 
C 0.77937 -1.341951 0.397805 -1.5 0 -1.5 
C -0.397805 -1.5 -0.77937 -1.341951 -1.06066 -1.06066 
C -1.341951 -0.77937 -1.5 -0.397805 -1.5 0 
C -1.5 0.397805 -1.341951 0.77937 -1.06066 1.06066 
C -0.77937 1.341951 -0.397805 1.5 0 1.5 
z
" id="me40220dcf9" style="stroke:#ffa500;stroke-width:0.5;"/>
    </defs>
    <g>
     <use style="fill:#ffa500;stroke:#ffa500;stroke-width:0.5;" x="400.058637048" xlink:href="#me40220dcf9" y="58.1754961164"/>
     <use style="fill:#ffa500;stroke:#ffa500;stroke-width:0.5;" x="400.058637048" xlink:href="#me40220dcf9" y="58.1754961164"/>
    </g>
   </g>
   <g id="line2d_12">
    <path d="M 198.62443 359.056343 
L 198.62443 356.106531 
L 198.90103 356.106531 
L 198.90103 355.516568 
L 203.816144 355.516568 
L 203.816144 352.566756 
L 208.833152 352.566756 
L 208.833152 349.026981 
L 209.312559 349.026981 
L 209.312559 343.127357 
L 209.824074 343.127357 
L 209.908198 334.27792 
L 209.992008 334.27792 
L 209.992008 329.558221 
L 210.158689 329.558221 
L 210.158689 324.248559 
L 210.44742 324.248559 
L 210.44742 323.658596 
L 213.182608 323.658596 
L 213.182608 317.169009 
L 213.399106 317.169009 
L 213.399106 315.989084 
L 213.577931 315.989084 
L 213.577931 314.219197 
L 214.244701 314.219197 
L 214.244701 311.269385 
L 214.519599 311.269385 
L 214.519599 307.139648 
L 215.90979 307.139648 
L 215.90979 303.009911 
L 216.51134 303.009911 
L 216.51134 302.419948 
L 217.097112 302.419948 
L 217.097112 299.470136 
L 217.727158 299.470136 
L 217.815731 292.980549 
L 219.270096 292.980549 
L 219.270096 291.210662 
L 220.163079 291.210662 
L 220.163079 288.260849 
L 220.661477 288.260849 
L 220.661477 284.721075 
L 222.141831 284.721075 
L 222.190333 282.361225 
L 224.048797 282.361225 
L 224.048797 281.771263 
L 224.159973 281.771263 
L 224.159973 278.82145 
L 224.336711 278.82145 
L 224.336711 277.051563 
L 224.533884 277.051563 
L 224.533884 275.281676 
L 224.729331 275.281676 
L 224.729331 271.741901 
L 225.660979 271.741901 
L 225.660979 268.202126 
L 225.846848 268.202126 
L 225.846848 266.432239 
L 226.173511 266.432239 
L 226.173511 264.072389 
L 226.891488 264.072389 
L 226.930707 259.942652 
L 228.518645 259.942652 
L 228.518645 258.762727 
L 228.844711 258.762727 
L 228.844711 258.172765 
L 229.272191 258.172765 
L 229.272191 256.402877 
L 229.966964 256.402877 
L 229.984059 253.453065 
L 230.921101 253.453065 
L 230.986552 246.963478 
L 231.116882 246.963478 
L 231.116882 245.783553 
L 232.395328 245.783553 
L 232.456604 242.243779 
L 232.940854 242.243779 
L 232.940854 239.883929 
L 234.178373 239.883929 
L 234.178373 239.293967 
L 234.613168 239.293967 
L 234.613168 238.704004 
L 234.793012 238.704004 
L 234.793012 234.574267 
L 236.477731 234.574267 
L 236.477731 231.034492 
L 237.465011 231.034492 
L 237.465011 227.494718 
L 237.996538 227.494718 
L 237.996538 225.72483 
L 238.19856 225.72483 
L 238.19856 224.544905 
L 239.340062 224.544905 
L 239.340062 223.364981 
L 240.080766 223.364981 
L 240.080766 221.005131 
L 241.886926 221.005131 
L 241.95702 216.875394 
L 242.500241 216.875394 
L 242.519748 215.695469 
L 242.723546 215.695469 
L 242.723546 213.925581 
L 243.087662 213.925581 
L 243.087662 212.745657 
L 244.638763 212.745657 
L 244.638763 210.975769 
L 245.31127 210.975769 
L 245.354247 209.795844 
L 245.482684 209.795844 
L 245.482684 207.435995 
L 246.541499 207.435995 
L 246.541499 206.25607 
L 247.136067 206.25607 
L 247.223112 203.89622 
L 247.497841 203.89622 
L 247.599028 202.126333 
L 248.067803 202.126333 
L 248.067803 200.946408 
L 249.532083 200.946408 
L 249.532083 200.356445 
L 250.74493 200.356445 
L 250.74493 196.226708 
L 251.08634 196.226708 
L 251.08634 195.636746 
L 251.225417 195.636746 
L 251.225417 192.686933 
L 251.747443 192.686933 
L 251.747443 191.507009 
L 252.514526 191.507009 
L 252.620218 187.967234 
L 253.068471 187.967234 
L 253.068471 185.017422 
L 253.962234 185.017422 
L 253.962234 183.837497 
L 254.916946 183.837497 
L 254.916946 182.657572 
L 256.509712 182.657572 
L 256.509712 180.297722 
L 257.568158 180.297722 
L 257.568158 174.98806 
L 258.079147 174.98806 
L 258.079147 174.398098 
L 258.311102 174.398098 
L 258.311102 172.62821 
L 258.664046 172.62821 
L 258.664046 171.448285 
L 259.090561 171.448285 
L 259.090561 170.268361 
L 260.16017 170.268361 
L 260.16017 168.498473 
L 261.349361 168.498473 
L 261.349361 164.368736 
L 262.65326 164.368736 
L 262.65326 162.598849 
L 264.212425 162.598849 
L 264.212425 160.238999 
L 265.645596 160.238999 
L 265.645596 157.879149 
L 268.962607 157.879149 
L 268.962607 156.109262 
L 269.516668 156.109262 
L 269.516668 154.339375 
L 269.6328 154.339375 
L 269.6328 152.569487 
L 275.031597 152.569487 
L 275.031597 151.389562 
L 275.172141 151.389562 
L 275.172141 149.619675 
L 277.363681 149.619675 
L 277.363681 149.029713 
L 281.099427 149.029713 
L 281.099427 147.259825 
L 282.114104 147.259825 
L 282.114104 146.0799 
L 282.293888 146.0799 
L 282.393873 139.590313 
L 282.858379 139.590313 
L 282.965441 137.230464 
L 288.730395 137.230464 
L 288.730395 134.870614 
L 290.625419 134.870614 
L 290.625419 133.690689 
L 291.936915 133.690689 
L 291.936915 132.510764 
L 294.199404 132.510764 
L 294.199404 129.560952 
L 294.362687 129.560952 
L 294.362687 126.61114 
L 297.223261 126.61114 
L 297.223261 123.661327 
L 300.983434 123.661327 
L 300.983434 122.481403 
L 301.701749 122.481403 
L 301.701749 118.351665 
L 305.833215 118.351665 
L 305.93662 114.221928 
L 306.045221 114.221928 
L 306.045221 110.092191 
L 306.492776 110.092191 
L 306.492776 105.962454 
L 307.044641 105.962454 
L 307.044641 105.372492 
L 307.622346 105.372492 
L 307.622346 104.192567 
L 310.779448 104.192567 
L 310.779448 102.422679 
L 312.370588 102.422679 
L 312.370588 101.832717 
L 313.68248 101.832717 
L 313.68248 100.652792 
L 314.520789 100.652792 
L 314.520789 99.472867 
L 317.343932 99.472867 
L 317.343932 98.292942 
L 318.522675 98.292942 
L 318.522675 96.523055 
L 319.007595 96.523055 
L 319.0168 92.393318 
L 319.313123 92.393318 
L 319.313123 91.213393 
L 323.555684 91.213393 
L 323.555684 90.623431 
L 326.274294 90.623431 
L 326.274294 89.443506 
L 330.614816 89.443506 
L 330.614816 86.493693 
L 331.772775 86.493693 
L 331.772775 84.723806 
L 337.683887 84.723806 
L 337.683887 82.953919 
L 341.243834 82.953919 
L 341.243834 80.594069 
L 343.426423 80.594069 
L 343.426423 78.824182 
L 346.333456 78.824182 
L 346.442379 76.464332 
L 347.218795 76.464332 
L 347.218795 75.284407 
L 348.959622 75.284407 
L 348.959622 74.694445 
L 349.164788 74.694445 
L 349.164788 73.51452 
L 353.16715 73.51452 
L 353.16715 72.334595 
L 355.62357 72.334595 
L 355.62357 71.744632 
L 360.401034 71.744632 
L 360.401034 70.564707 
L 361.382442 70.564707 
L 361.382537 69.384783 
L 363.891058 69.384783 
L 363.891058 68.79482 
L 368.634863 68.79482 
L 368.634897 67.614895 
L 371.105883 67.614895 
L 371.105883 67.024933 
L 374.637577 67.024933 
L 374.637577 66.43497 
L 375.161906 66.43497 
L 375.161906 65.845008 
L 379.363917 65.845008 
L 379.364003 64.665083 
L 383.262766 64.665083 
L 383.262838 62.305233 
L 383.620465 62.305233 
L 383.620465 61.715271 
L 386.889717 61.715271 
L 386.889717 61.125308 
L 389.469589 61.125308 
L 389.469589 60.535346 
L 392.026995 60.535346 
L 392.026995 59.945383 
L 394.321351 59.945383 
L 394.321351 59.355421 
L 394.540102 59.355421 
L 394.540102 58.765459 
L 400.058637 58.765459 
L 400.058637 58.175496 
L 445.2 58.175496 
L 445.2 58.175496 
" style="fill:none;stroke:#ffa500;stroke-linecap:square;stroke-width:1.5;"/>
   </g>
   <g id="line2d_13">
    <defs>
     <path d="M 0 -6 
L -1.347084 -1.854102 
L -5.706339 -1.854102 
L -2.179628 0.708204 
L -3.526712 4.854102 
L -0 2.291796 
L 3.526712 4.854102 
L 2.179628 0.708204 
L 5.706339 -1.854102 
L 1.347084 -1.854102 
z
" id="m4f1a60a3f9" style="stroke:#ffa500;stroke-linejoin:bevel;stroke-width:1.5;"/>
    </defs>
    <g>
     <use style="fill:none;stroke:#ffa500;stroke-linejoin:bevel;stroke-width:1.5;" x="257.56815801" xlink:href="#m4f1a60a3f9" y="174.988060131"/>
     <use style="fill:none;stroke:#ffa500;stroke-linejoin:bevel;stroke-width:1.5;" x="326.274293845" xlink:href="#m4f1a60a3f9" y="90.623430565"/>
     <use style="fill:none;stroke:#ffa500;stroke-linejoin:bevel;stroke-width:1.5;" x="400.058637048" xlink:href="#m4f1a60a3f9" y="58.1754961164"/>
     <use style="fill:none;stroke:#ffa500;stroke-linejoin:bevel;stroke-width:1.5;" x="400.058637048" xlink:href="#m4f1a60a3f9" y="58.1754961164"/>
     <use style="fill:none;stroke:#ffa500;stroke-linejoin:bevel;stroke-width:1.5;" x="445.2" xlink:href="#m4f1a60a3f9" y="58.1754961164"/>
    </g>
   </g>
   <g id="line2d_14"/>
   <g id="line2d_15">
    <path clip-path="url(#p5a5896fdc4)" d="M 342.356031 80.594069 
" style="fill:none;stroke:#ffa500;stroke-linecap:square;"/>
    <defs>
     <path d="M -12 12 
L 12 -12 
M -12 -12 
L 12 12 
" id="m34e5ebe1bc" style="stroke:#ffa500;stroke-width:3.0;"/>
    </defs>
    <g clip-path="url(#p5a5896fdc4)">
     <use style="fill:#ffa500;stroke:#ffa500;stroke-width:3.0;" x="342.356030992" xlink:href="#m34e5ebe1bc" y="80.5940690082"/>
    </g>
   </g>
   <g id="line2d_16">
    <defs>
     <path d="M 0 1.5 
C 0.397805 1.5 0.77937 1.341951 1.06066 1.06066 
C 1.341951 0.77937 1.5 0.397805 1.5 0 
C 1.5 -0.397805 1.341951 -0.77937 1.06066 -1.06066 
C 0.77937 -1.341951 0.397805 -1.5 0 -1.5 
C -0.397805 -1.5 -0.77937 -1.341951 -1.06066 -1.06066 
C -1.341951 -0.77937 -1.5 -0.397805 -1.5 0 
C -1.5 0.397805 -1.341951 0.77937 -1.06066 1.06066 
C -0.77937 1.341951 -0.397805 1.5 0 1.5 
z
" id="maf380935c3" style="stroke:#6495ed;stroke-width:0.5;"/>
    </defs>
    <g>
     <use style="fill:#6495ed;stroke:#6495ed;stroke-width:0.5;" x="339.47625598" xlink:href="#maf380935c3" y="134.870613904"/>
     <use style="fill:#6495ed;stroke:#6495ed;stroke-width:0.5;" x="339.47625598" xlink:href="#maf380935c3" y="134.870613904"/>
    </g>
   </g>
   <g id="line2d_17">
    <path d="M 69.718457 359.056343 
L 69.718457 347.847056 
L 193.657875 347.847056 
L 193.657875 345.487207 
L 193.831017 345.487207 
L 193.831017 344.897244 
L 197.113265 344.897244 
L 197.113265 343.717319 
L 198.060738 343.717319 
L 198.060738 343.127357 
L 201.676345 343.127357 
L 201.676345 342.537394 
L 202.097208 342.537394 
L 202.097208 340.177545 
L 205.514646 340.177545 
L 205.514646 337.817695 
L 206.019987 337.817695 
L 206.019987 337.227732 
L 206.949733 337.227732 
L 207.045387 332.508033 
L 207.282745 332.508033 
L 207.282745 330.738145 
L 208.567255 330.738145 
L 208.656239 327.788333 
L 208.877163 327.788333 
L 208.877163 326.608408 
L 209.226156 326.608408 
L 209.226156 324.248559 
L 209.612364 324.248559 
L 209.612364 323.658596 
L 209.739631 323.658596 
L 209.739631 320.708784 
L 210.033795 320.708784 
L 210.033795 320.118821 
L 210.488365 320.118821 
L 210.488365 312.44931 
L 210.610749 312.44931 
L 210.610749 311.269385 
L 211.409945 311.269385 
L 211.409945 310.679422 
L 212.706205 310.679422 
L 212.780162 307.139648 
L 213.719967 307.139648 
L 213.719967 303.599873 
L 214.036285 303.599873 
L 214.036285 301.829986 
L 214.519599 301.829986 
L 214.519599 300.060098 
L 215.059447 300.060098 
L 215.059447 297.700249 
L 216.196755 297.700249 
L 216.196755 295.340399 
L 218.426098 295.340399 
L 218.426098 292.980549 
L 218.823936 292.980549 
L 218.823936 291.800624 
L 219.159388 291.800624 
L 219.159388 291.210662 
L 219.869367 291.210662 
L 219.869367 289.440774 
L 221.873171 289.440774 
L 221.873171 287.080925 
L 222.06888 287.080925 
L 222.06888 285.311037 
L 222.214545 285.311037 
L 222.214545 282.951187 
L 222.975774 282.951187 
L 222.975774 281.771263 
L 223.779696 281.771263 
L 223.779696 281.1813 
L 225.928963 281.1813 
L 225.928963 280.001375 
L 226.812843 280.001375 
L 226.911106 276.461601 
L 227.299891 276.461601 
L 227.299891 275.281676 
L 227.94568 275.281676 
L 227.94568 273.511788 
L 229.005976 273.511788 
L 229.005976 271.151939 
L 229.272191 271.151939 
L 229.272191 269.972014 
L 230.086358 269.972014 
L 230.086358 266.432239 
L 230.607563 266.432239 
L 230.607563 264.072389 
L 232.024098 264.072389 
L 232.070841 261.122577 
L 233.015579 261.122577 
L 233.015579 257.582802 
L 234.445863 257.582802 
L 234.445863 255.222953 
L 235.161971 255.222953 
L 235.161971 251.683178 
L 235.484894 251.683178 
L 235.484894 249.323328 
L 238.304777 249.323328 
L 238.304777 246.963478 
L 239.091389 246.963478 
L 239.091389 243.423704 
L 241.977007 243.423704 
L 241.977007 240.473891 
L 242.274681 240.473891 
L 242.382842 237.524079 
L 242.771796 237.524079 
L 242.771796 236.934117 
L 246.744142 236.934117 
L 246.744142 236.344154 
L 248.113385 236.344154 
L 248.113385 233.394342 
L 249.716496 233.394342 
L 249.730619 228.674643 
L 251.579119 228.674643 
L 251.579119 228.08468 
L 252.620218 228.08468 
L 252.620218 225.134868 
L 253.219937 225.134868 
L 253.219937 223.954943 
L 253.78632 223.954943 
L 253.78632 222.775018 
L 255.211602 222.775018 
L 255.211602 221.595093 
L 256.088877 221.595093 
L 256.088877 219.825206 
L 259.349041 219.825206 
L 259.349041 217.465356 
L 260.367203 217.465356 
L 260.367203 216.285431 
L 262.932527 216.285431 
L 262.932527 215.695469 
L 263.56455 215.695469 
L 263.56455 215.105506 
L 265.985705 215.105506 
L 265.985705 213.335619 
L 266.138605 213.335619 
L 266.138605 211.565732 
L 269.598024 211.565732 
L 269.598024 209.205882 
L 278.300424 209.205882 
L 278.300424 208.025957 
L 280.53786 208.025957 
L 280.640698 203.306257 
L 281.433128 203.306257 
L 281.433128 201.53637 
L 282.300458 201.53637 
L 282.300458 200.356445 
L 283.402703 200.356445 
L 283.402703 199.766483 
L 283.85609 199.766483 
L 283.85609 199.17652 
L 284.29445 199.17652 
L 284.29445 197.406633 
L 286.319198 197.406633 
L 286.319198 193.276896 
L 286.79963 193.276896 
L 286.88272 191.507009 
L 288.740245 191.507009 
L 288.740245 190.327084 
L 294.570342 190.327084 
L 294.570342 187.967234 
L 297.695614 187.967234 
L 297.695614 184.427459 
L 297.938292 184.427459 
L 297.938292 183.837497 
L 298.286198 183.837497 
L 298.286198 182.657572 
L 298.426251 182.657572 
L 298.426251 174.98806 
L 300.717178 174.98806 
L 300.717178 173.218173 
L 301.30554 173.218173 
L 301.30554 172.038248 
L 301.658301 172.038248 
L 301.658301 170.858323 
L 308.390691 170.858323 
L 308.390691 168.498473 
L 310.421893 168.498473 
L 310.421893 166.138623 
L 311.018158 166.138623 
L 311.018158 164.368736 
L 312.062946 164.368736 
L 312.062946 163.778774 
L 316.549484 163.778774 
L 316.549484 160.828961 
L 317.13432 160.828961 
L 317.13432 159.059074 
L 320.68878 159.059074 
L 320.712029 156.109262 
L 322.741556 156.109262 
L 322.741556 154.339375 
L 323.977947 154.339375 
L 323.977947 150.7996 
L 324.407586 150.7996 
L 324.407586 149.619675 
L 327.849994 149.619675 
L 327.849994 148.43975 
L 328.180452 148.43975 
L 328.180452 147.259825 
L 329.923213 147.259825 
L 329.923213 146.669863 
L 332.321861 146.669863 
L 332.321861 146.0799 
L 332.845986 146.0799 
L 332.845986 144.899975 
L 332.967303 144.899975 
L 332.967303 143.720051 
L 335.719116 143.720051 
L 335.719116 141.950163 
L 338.98602 141.950163 
L 338.98602 141.360201 
L 339.296764 141.360201 
L 339.333596 137.230464 
L 339.476256 137.230464 
L 339.476256 134.870614 
L 445.2 134.870614 
L 445.2 134.870614 
" style="fill:none;stroke:#6495ed;stroke-linecap:square;stroke-width:1.5;"/>
   </g>
   <g id="line2d_18">
    <defs>
     <path d="M -0 6 
L 6 -6 
L -6 -6 
z
" id="me805e998e6" style="stroke:#6495ed;stroke-linejoin:miter;stroke-width:1.5;"/>
    </defs>
    <g>
     <use style="fill:none;stroke:#6495ed;stroke-linejoin:miter;stroke-width:1.5;" x="69.7184573659" xlink:href="#me805e998e6" y="359.056342822"/>
     <use style="fill:none;stroke:#6495ed;stroke-linejoin:miter;stroke-width:1.5;" x="212.706204847" xlink:href="#me805e998e6" y="309.499497482"/>
     <use style="fill:none;stroke:#6495ed;stroke-linejoin:miter;stroke-width:1.5;" x="253.786319874" xlink:href="#me805e998e6" y="223.954943027"/>
     <use style="fill:none;stroke:#6495ed;stroke-linejoin:miter;stroke-width:1.5;" x="320.688779571" xlink:href="#me805e998e6" y="158.469111685"/>
     <use style="fill:none;stroke:#6495ed;stroke-linejoin:miter;stroke-width:1.5;" x="339.47625598" xlink:href="#me805e998e6" y="134.870613904"/>
     <use style="fill:none;stroke:#6495ed;stroke-linejoin:miter;stroke-width:1.5;" x="445.2" xlink:href="#me805e998e6" y="134.870613904"/>
    </g>
   </g>
   <g id="line2d_19"/>
   <g id="line2d_20">
    <path clip-path="url(#p5a5896fdc4)" d="M 342.355808 134.870614 
" style="fill:none;stroke:#6495ed;stroke-linecap:square;"/>
    <defs>
     <path d="M -12 12 
L 12 -12 
M -12 -12 
L 12 12 
" id="mb71b7ff91e" style="stroke:#6495ed;stroke-width:3.0;"/>
    </defs>
    <g clip-path="url(#p5a5896fdc4)">
     <use style="fill:#6495ed;stroke:#6495ed;stroke-width:3.0;" x="342.355807772" xlink:href="#mb71b7ff91e" y="134.870613904"/>
    </g>
   </g>
   <g id="line2d_21">
    <path d="M 445.2 134.870614 
L 484.8 352.212778 
" style="fill:none;stroke:#6495ed;stroke-linecap:square;stroke-width:1.5;"/>
    <g>
     <use style="fill:none;stroke:#6495ed;stroke-linejoin:miter;stroke-width:1.5;" x="445.2" xlink:href="#me805e998e6" y="134.870613904"/>
     <use style="fill:none;stroke:#6495ed;stroke-linejoin:miter;stroke-width:1.5;" x="484.8" xlink:href="#me805e998e6" y="352.212778465"/>
    </g>
   </g>
   <g id="line2d_22">
    <path d="M 445.2 105.372492 
L 484.8 242.715749 
" style="fill:none;stroke:#000080;stroke-linecap:square;stroke-width:1.5;"/>
    <g>
     <use style="fill:none;stroke:#000080;stroke-width:1.5;" x="445.2" xlink:href="#mdc31c99c87" y="105.372491678"/>
     <use style="fill:none;stroke:#000080;stroke-width:1.5;" x="484.8" xlink:href="#mdc31c99c87" y="242.715748762"/>
    </g>
   </g>
   <g id="line2d_23">
    <path d="M 445.2 58.175496 
L 484.8 133.218719 
" style="fill:none;stroke:#ffa500;stroke-linecap:square;stroke-width:1.5;"/>
    <g>
     <use style="fill:none;stroke:#ffa500;stroke-linejoin:bevel;stroke-width:1.5;" x="445.2" xlink:href="#m4f1a60a3f9" y="58.1754961164"/>
     <use style="fill:none;stroke:#ffa500;stroke-linejoin:bevel;stroke-width:1.5;" x="484.8" xlink:href="#m4f1a60a3f9" y="133.218719059"/>
    </g>
   </g>
   <g id="line2d_24">
    <path d="M 445.2 58.175496 
L 484.8 23.721689 
" style="fill:none;stroke:#ff00ff;stroke-linecap:square;stroke-width:1.5;"/>
    <g>
     <use style="fill:none;stroke:#ff00ff;stroke-linejoin:miter;stroke-width:1.5;" x="445.2" xlink:href="#m61cc682150" y="58.1754961164"/>
     <use style="fill:none;stroke:#ff00ff;stroke-linejoin:miter;stroke-width:1.5;" x="484.8" xlink:href="#m61cc682150" y="23.7216893564"/>
    </g>
   </g>
   <g id="line2d_25">
    <path d="M 445.2 359.056343 
L 445.2 16.878125 
" style="fill:none;stroke:#000000;stroke-linecap:square;"/>
   </g>
   <g id="patch_3">
    <path d="M 85.2 13.456343 
L 531.6 13.456343 
" style="fill:none;stroke:#000000;stroke-linecap:square;stroke-linejoin:miter;"/>
   </g>
   <g id="patch_4">
    <path d="M 531.6 359.056343 
L 531.6 13.456343 
" style="fill:none;stroke:#000000;stroke-linecap:square;stroke-linejoin:miter;"/>
   </g>
   <g id="patch_5">
    <path d="M 85.2 359.056343 
L 531.6 359.056343 
" style="fill:none;stroke:#000000;stroke-linecap:square;stroke-linejoin:miter;"/>
   </g>
   <g id="patch_6">
    <path d="M 85.2 359.056343 
L 85.2 13.456343 
" style="fill:none;stroke:#000000;stroke-linecap:square;stroke-linejoin:miter;"/>
   </g>
   <g id="matplotlib.axis_1">
    <g id="xtick_1">
     <g id="line2d_26">
      <path clip-path="url(#p5a5896fdc4)" d="M 85.2 359.056343 
L 85.2 13.456343 
" style="fill:none;stroke:#000000;stroke-dasharray:1.000000,3.000000;stroke-dashoffset:0.0;stroke-width:0.5;"/>
     </g>
     <g id="line2d_27">
      <defs>
       <path d="M 0 0 
L 0 -4 
" id="m68ac64ed01" style="stroke:#000000;stroke-width:0.5;"/>
      </defs>
      <g>
       <use style="stroke:#000000;stroke-width:0.5;" x="85.2" xlink:href="#m68ac64ed01" y="359.056342822"/>
      </g>
     </g>
     <g id="line2d_28">
      <defs>
       <path d="M 0 0 
L 0 4 
" id="me936084d73" style="stroke:#000000;stroke-width:0.5;"/>
      </defs>
      <g>
       <use style="stroke:#000000;stroke-width:0.5;" x="85.2" xlink:href="#me936084d73" y="13.4563428218"/>
      </g>
     </g>
     <g id="text_1">
      <!-- 0 -->
      <defs>
       <path d="M 31.78125 66.40625 
Q 24.171875 66.40625 20.328125 58.90625 
Q 16.5 51.421875 16.5 36.375 
Q 16.5 21.390625 20.328125 13.890625 
Q 24.171875 6.390625 31.78125 6.390625 
Q 39.453125 6.390625 43.28125 13.890625 
Q 47.125 21.390625 47.125 36.375 
Q 47.125 51.421875 43.28125 58.90625 
Q 39.453125 66.40625 31.78125 66.40625 
M 31.78125 74.21875 
Q 44.046875 74.21875 50.515625 64.515625 
Q 56.984375 54.828125 56.984375 36.375 
Q 56.984375 17.96875 50.515625 8.265625 
Q 44.046875 -1.421875 31.78125 -1.421875 
Q 19.53125 -1.421875 13.0625 8.265625 
Q 6.59375 17.96875 6.59375 36.375 
Q 6.59375 54.828125 13.0625 64.515625 
Q 19.53125 74.21875 31.78125 74.21875 
" id="BitstreamVeraSans-Roman-30"/>
      </defs>
      <g transform="translate(78.8375 378.253217822)scale(0.2 -0.2)">
       <use xlink:href="#BitstreamVeraSans-Roman-30"/>
      </g>
     </g>
    </g>
    <g id="xtick_2">
     <g id="line2d_29">
      <path clip-path="url(#p5a5896fdc4)" d="M 136.628571 359.056343 
L 136.628571 13.456343 
" style="fill:none;stroke:#000000;stroke-dasharray:1.000000,3.000000;stroke-dashoffset:0.0;stroke-width:0.5;"/>
     </g>
     <g id="line2d_30">
      <g>
       <use style="stroke:#000000;stroke-width:0.5;" x="136.628571429" xlink:href="#m68ac64ed01" y="359.056342822"/>
      </g>
     </g>
     <g id="line2d_31">
      <g>
       <use style="stroke:#000000;stroke-width:0.5;" x="136.628571429" xlink:href="#me936084d73" y="13.4563428218"/>
      </g>
     </g>
     <g id="text_2">
      <!-- 1 -->
      <defs>
       <path d="M 12.40625 8.296875 
L 28.515625 8.296875 
L 28.515625 63.921875 
L 10.984375 60.40625 
L 10.984375 69.390625 
L 28.421875 72.90625 
L 38.28125 72.90625 
L 38.28125 8.296875 
L 54.390625 8.296875 
L 54.390625 0 
L 12.40625 0 
z
" id="BitstreamVeraSans-Roman-31"/>
      </defs>
      <g transform="translate(130.266071429 378.253217822)scale(0.2 -0.2)">
       <use xlink:href="#BitstreamVeraSans-Roman-31"/>
      </g>
     </g>
    </g>
    <g id="xtick_3">
     <g id="line2d_32">
      <path clip-path="url(#p5a5896fdc4)" d="M 188.057143 359.056343 
L 188.057143 13.456343 
" style="fill:none;stroke:#000000;stroke-dasharray:1.000000,3.000000;stroke-dashoffset:0.0;stroke-width:0.5;"/>
     </g>
     <g id="line2d_33">
      <g>
       <use style="stroke:#000000;stroke-width:0.5;" x="188.057142857" xlink:href="#m68ac64ed01" y="359.056342822"/>
      </g>
     </g>
     <g id="line2d_34">
      <g>
       <use style="stroke:#000000;stroke-width:0.5;" x="188.057142857" xlink:href="#me936084d73" y="13.4563428218"/>
      </g>
     </g>
     <g id="text_3">
      <!-- 2 -->
      <defs>
       <path d="M 19.1875 8.296875 
L 53.609375 8.296875 
L 53.609375 0 
L 7.328125 0 
L 7.328125 8.296875 
Q 12.9375 14.109375 22.625 23.890625 
Q 32.328125 33.6875 34.8125 36.53125 
Q 39.546875 41.84375 41.421875 45.53125 
Q 43.3125 49.21875 43.3125 52.78125 
Q 43.3125 58.59375 39.234375 62.25 
Q 35.15625 65.921875 28.609375 65.921875 
Q 23.96875 65.921875 18.8125 64.3125 
Q 13.671875 62.703125 7.8125 59.421875 
L 7.8125 69.390625 
Q 13.765625 71.78125 18.9375 73 
Q 24.125 74.21875 28.421875 74.21875 
Q 39.75 74.21875 46.484375 68.546875 
Q 53.21875 62.890625 53.21875 53.421875 
Q 53.21875 48.921875 51.53125 44.890625 
Q 49.859375 40.875 45.40625 35.40625 
Q 44.1875 33.984375 37.640625 27.21875 
Q 31.109375 20.453125 19.1875 8.296875 
" id="BitstreamVeraSans-Roman-32"/>
      </defs>
      <g transform="translate(181.694642857 378.253217822)scale(0.2 -0.2)">
       <use xlink:href="#BitstreamVeraSans-Roman-32"/>
      </g>
     </g>
    </g>
    <g id="xtick_4">
     <g id="line2d_35">
      <path clip-path="url(#p5a5896fdc4)" d="M 239.485714 359.056343 
L 239.485714 13.456343 
" style="fill:none;stroke:#000000;stroke-dasharray:1.000000,3.000000;stroke-dashoffset:0.0;stroke-width:0.5;"/>
     </g>
     <g id="line2d_36">
      <g>
       <use style="stroke:#000000;stroke-width:0.5;" x="239.485714286" xlink:href="#m68ac64ed01" y="359.056342822"/>
      </g>
     </g>
     <g id="line2d_37">
      <g>
       <use style="stroke:#000000;stroke-width:0.5;" x="239.485714286" xlink:href="#me936084d73" y="13.4563428218"/>
      </g>
     </g>
     <g id="text_4">
      <!-- 3 -->
      <defs>
       <path d="M 40.578125 39.3125 
Q 47.65625 37.796875 51.625 33 
Q 55.609375 28.21875 55.609375 21.1875 
Q 55.609375 10.40625 48.1875 4.484375 
Q 40.765625 -1.421875 27.09375 -1.421875 
Q 22.515625 -1.421875 17.65625 -0.515625 
Q 12.796875 0.390625 7.625 2.203125 
L 7.625 11.71875 
Q 11.71875 9.328125 16.59375 8.109375 
Q 21.484375 6.890625 26.8125 6.890625 
Q 36.078125 6.890625 40.9375 10.546875 
Q 45.796875 14.203125 45.796875 21.1875 
Q 45.796875 27.640625 41.28125 31.265625 
Q 36.765625 34.90625 28.71875 34.90625 
L 20.21875 34.90625 
L 20.21875 43.015625 
L 29.109375 43.015625 
Q 36.375 43.015625 40.234375 45.921875 
Q 44.09375 48.828125 44.09375 54.296875 
Q 44.09375 59.90625 40.109375 62.90625 
Q 36.140625 65.921875 28.71875 65.921875 
Q 24.65625 65.921875 20.015625 65.03125 
Q 15.375 64.15625 9.8125 62.3125 
L 9.8125 71.09375 
Q 15.4375 72.65625 20.34375 73.4375 
Q 25.25 74.21875 29.59375 74.21875 
Q 40.828125 74.21875 47.359375 69.109375 
Q 53.90625 64.015625 53.90625 55.328125 
Q 53.90625 49.265625 50.4375 45.09375 
Q 46.96875 40.921875 40.578125 39.3125 
" id="BitstreamVeraSans-Roman-33"/>
      </defs>
      <g transform="translate(233.123214286 378.253217822)scale(0.2 -0.2)">
       <use xlink:href="#BitstreamVeraSans-Roman-33"/>
      </g>
     </g>
    </g>
    <g id="xtick_5">
     <g id="line2d_38">
      <path clip-path="url(#p5a5896fdc4)" d="M 290.914286 359.056343 
L 290.914286 13.456343 
" style="fill:none;stroke:#000000;stroke-dasharray:1.000000,3.000000;stroke-dashoffset:0.0;stroke-width:0.5;"/>
     </g>
     <g id="line2d_39">
      <g>
       <use style="stroke:#000000;stroke-width:0.5;" x="290.914285714" xlink:href="#m68ac64ed01" y="359.056342822"/>
      </g>
     </g>
     <g id="line2d_40">
      <g>
       <use style="stroke:#000000;stroke-width:0.5;" x="290.914285714" xlink:href="#me936084d73" y="13.4563428218"/>
      </g>
     </g>
     <g id="text_5">
      <!-- 4 -->
      <defs>
       <path d="M 37.796875 64.3125 
L 12.890625 25.390625 
L 37.796875 25.390625 
z
M 35.203125 72.90625 
L 47.609375 72.90625 
L 47.609375 25.390625 
L 58.015625 25.390625 
L 58.015625 17.1875 
L 47.609375 17.1875 
L 47.609375 0 
L 37.796875 0 
L 37.796875 17.1875 
L 4.890625 17.1875 
L 4.890625 26.703125 
z
" id="BitstreamVeraSans-Roman-34"/>
      </defs>
      <g transform="translate(284.551785714 378.253217822)scale(0.2 -0.2)">
       <use xlink:href="#BitstreamVeraSans-Roman-34"/>
      </g>
     </g>
    </g>
    <g id="xtick_6">
     <g id="line2d_41">
      <path clip-path="url(#p5a5896fdc4)" d="M 342.342857 359.056343 
L 342.342857 13.456343 
" style="fill:none;stroke:#000000;stroke-dasharray:1.000000,3.000000;stroke-dashoffset:0.0;stroke-width:0.5;"/>
     </g>
     <g id="line2d_42">
      <g>
       <use style="stroke:#000000;stroke-width:0.5;" x="342.342857143" xlink:href="#m68ac64ed01" y="359.056342822"/>
      </g>
     </g>
     <g id="line2d_43">
      <g>
       <use style="stroke:#000000;stroke-width:0.5;" x="342.342857143" xlink:href="#me936084d73" y="13.4563428218"/>
      </g>
     </g>
     <g id="text_6">
      <!-- 5 -->
      <defs>
       <path d="M 10.796875 72.90625 
L 49.515625 72.90625 
L 49.515625 64.59375 
L 19.828125 64.59375 
L 19.828125 46.734375 
Q 21.96875 47.46875 24.109375 47.828125 
Q 26.265625 48.1875 28.421875 48.1875 
Q 40.625 48.1875 47.75 41.5 
Q 54.890625 34.8125 54.890625 23.390625 
Q 54.890625 11.625 47.5625 5.09375 
Q 40.234375 -1.421875 26.90625 -1.421875 
Q 22.3125 -1.421875 17.546875 -0.640625 
Q 12.796875 0.140625 7.71875 1.703125 
L 7.71875 11.625 
Q 12.109375 9.234375 16.796875 8.0625 
Q 21.484375 6.890625 26.703125 6.890625 
Q 35.15625 6.890625 40.078125 11.328125 
Q 45.015625 15.765625 45.015625 23.390625 
Q 45.015625 31 40.078125 35.4375 
Q 35.15625 39.890625 26.703125 39.890625 
Q 22.75 39.890625 18.8125 39.015625 
Q 14.890625 38.140625 10.796875 36.28125 
z
" id="BitstreamVeraSans-Roman-35"/>
      </defs>
      <g transform="translate(335.980357143 378.253217822)scale(0.2 -0.2)">
       <use xlink:href="#BitstreamVeraSans-Roman-35"/>
      </g>
     </g>
    </g>
    <g id="xtick_7">
     <g id="line2d_44">
      <path clip-path="url(#p5a5896fdc4)" d="M 393.771429 359.056343 
L 393.771429 13.456343 
" style="fill:none;stroke:#000000;stroke-dasharray:1.000000,3.000000;stroke-dashoffset:0.0;stroke-width:0.5;"/>
     </g>
     <g id="line2d_45">
      <g>
       <use style="stroke:#000000;stroke-width:0.5;" x="393.771428571" xlink:href="#m68ac64ed01" y="359.056342822"/>
      </g>
     </g>
     <g id="line2d_46">
      <g>
       <use style="stroke:#000000;stroke-width:0.5;" x="393.771428571" xlink:href="#me936084d73" y="13.4563428218"/>
      </g>
     </g>
     <g id="text_7">
      <!-- 6 -->
      <defs>
       <path d="M 33.015625 40.375 
Q 26.375 40.375 22.484375 35.828125 
Q 18.609375 31.296875 18.609375 23.390625 
Q 18.609375 15.53125 22.484375 10.953125 
Q 26.375 6.390625 33.015625 6.390625 
Q 39.65625 6.390625 43.53125 10.953125 
Q 47.40625 15.53125 47.40625 23.390625 
Q 47.40625 31.296875 43.53125 35.828125 
Q 39.65625 40.375 33.015625 40.375 
M 52.59375 71.296875 
L 52.59375 62.3125 
Q 48.875 64.0625 45.09375 64.984375 
Q 41.3125 65.921875 37.59375 65.921875 
Q 27.828125 65.921875 22.671875 59.328125 
Q 17.53125 52.734375 16.796875 39.40625 
Q 19.671875 43.65625 24.015625 45.921875 
Q 28.375 48.1875 33.59375 48.1875 
Q 44.578125 48.1875 50.953125 41.515625 
Q 57.328125 34.859375 57.328125 23.390625 
Q 57.328125 12.15625 50.6875 5.359375 
Q 44.046875 -1.421875 33.015625 -1.421875 
Q 20.359375 -1.421875 13.671875 8.265625 
Q 6.984375 17.96875 6.984375 36.375 
Q 6.984375 53.65625 15.1875 63.9375 
Q 23.390625 74.21875 37.203125 74.21875 
Q 40.921875 74.21875 44.703125 73.484375 
Q 48.484375 72.75 52.59375 71.296875 
" id="BitstreamVeraSans-Roman-36"/>
      </defs>
      <g transform="translate(387.408928571 378.253217822)scale(0.2 -0.2)">
       <use xlink:href="#BitstreamVeraSans-Roman-36"/>
      </g>
     </g>
    </g>
    <g id="xtick_8">
     <g id="line2d_47">
      <path clip-path="url(#p5a5896fdc4)" d="M 445.2 359.056343 
L 445.2 13.456343 
" style="fill:none;stroke:#000000;stroke-dasharray:1.000000,3.000000;stroke-dashoffset:0.0;stroke-width:0.5;"/>
     </g>
     <g id="line2d_48">
      <g>
       <use style="stroke:#000000;stroke-width:0.5;" x="445.2" xlink:href="#m68ac64ed01" y="359.056342822"/>
      </g>
     </g>
     <g id="line2d_49">
      <g>
       <use style="stroke:#000000;stroke-width:0.5;" x="445.2" xlink:href="#me936084d73" y="13.4563428218"/>
      </g>
     </g>
     <g id="text_8">
      <!-- 7 -->
      <defs>
       <path d="M 8.203125 72.90625 
L 55.078125 72.90625 
L 55.078125 68.703125 
L 28.609375 0 
L 18.3125 0 
L 43.21875 64.59375 
L 8.203125 64.59375 
z
" id="BitstreamVeraSans-Roman-37"/>
      </defs>
      <g transform="translate(438.8375 378.253217822)scale(0.2 -0.2)">
       <use xlink:href="#BitstreamVeraSans-Roman-37"/>
      </g>
     </g>
    </g>
    <g id="xtick_9">
     <g id="line2d_50">
      <path clip-path="url(#p5a5896fdc4)" d="M 496.628571 359.056343 
L 496.628571 13.456343 
" style="fill:none;stroke:#000000;stroke-dasharray:1.000000,3.000000;stroke-dashoffset:0.0;stroke-width:0.5;"/>
     </g>
     <g id="line2d_51">
      <g>
       <use style="stroke:#000000;stroke-width:0.5;" x="496.628571429" xlink:href="#m68ac64ed01" y="359.056342822"/>
      </g>
     </g>
     <g id="line2d_52">
      <g>
       <use style="stroke:#000000;stroke-width:0.5;" x="496.628571429" xlink:href="#me936084d73" y="13.4563428218"/>
      </g>
     </g>
     <g id="text_9">
      <!-- 8 -->
      <defs>
       <path d="M 31.78125 34.625 
Q 24.75 34.625 20.71875 30.859375 
Q 16.703125 27.09375 16.703125 20.515625 
Q 16.703125 13.921875 20.71875 10.15625 
Q 24.75 6.390625 31.78125 6.390625 
Q 38.8125 6.390625 42.859375 10.171875 
Q 46.921875 13.96875 46.921875 20.515625 
Q 46.921875 27.09375 42.890625 30.859375 
Q 38.875 34.625 31.78125 34.625 
M 21.921875 38.8125 
Q 15.578125 40.375 12.03125 44.71875 
Q 8.5 49.078125 8.5 55.328125 
Q 8.5 64.0625 14.71875 69.140625 
Q 20.953125 74.21875 31.78125 74.21875 
Q 42.671875 74.21875 48.875 69.140625 
Q 55.078125 64.0625 55.078125 55.328125 
Q 55.078125 49.078125 51.53125 44.71875 
Q 48 40.375 41.703125 38.8125 
Q 48.828125 37.15625 52.796875 32.3125 
Q 56.78125 27.484375 56.78125 20.515625 
Q 56.78125 9.90625 50.3125 4.234375 
Q 43.84375 -1.421875 31.78125 -1.421875 
Q 19.734375 -1.421875 13.25 4.234375 
Q 6.78125 9.90625 6.78125 20.515625 
Q 6.78125 27.484375 10.78125 32.3125 
Q 14.796875 37.15625 21.921875 38.8125 
M 18.3125 54.390625 
Q 18.3125 48.734375 21.84375 45.5625 
Q 25.390625 42.390625 31.78125 42.390625 
Q 38.140625 42.390625 41.71875 45.5625 
Q 45.3125 48.734375 45.3125 54.390625 
Q 45.3125 60.0625 41.71875 63.234375 
Q 38.140625 66.40625 31.78125 66.40625 
Q 25.390625 66.40625 21.84375 63.234375 
Q 18.3125 60.0625 18.3125 54.390625 
" id="BitstreamVeraSans-Roman-38"/>
      </defs>
      <g transform="translate(490.266071429 378.253217822)scale(0.2 -0.2)">
       <use xlink:href="#BitstreamVeraSans-Roman-38"/>
      </g>
     </g>
    </g>
    <g id="xtick_10">
     <g id="line2d_53">
      <defs>
       <path d="M 0 0 
L 0 -2 
" id="m10f787c36b" style="stroke:#000000;stroke-width:0.5;"/>
      </defs>
      <g>
       <use style="stroke:#000000;stroke-width:0.5;" x="100.681542634" xlink:href="#m10f787c36b" y="359.056342822"/>
      </g>
     </g>
     <g id="line2d_54">
      <defs>
       <path d="M 0 0 
L 0 2 
" id="m00fe296abf" style="stroke:#000000;stroke-width:0.5;"/>
      </defs>
      <g>
       <use style="stroke:#000000;stroke-width:0.5;" x="100.681542634" xlink:href="#m00fe296abf" y="13.4563428218"/>
      </g>
     </g>
    </g>
    <g id="xtick_11">
     <g id="line2d_55">
      <g>
       <use style="stroke:#000000;stroke-width:0.5;" x="116.163085268" xlink:href="#m10f787c36b" y="359.056342822"/>
      </g>
     </g>
     <g id="line2d_56">
      <g>
       <use style="stroke:#000000;stroke-width:0.5;" x="116.163085268" xlink:href="#m00fe296abf" y="13.4563428218"/>
      </g>
     </g>
    </g>
    <g id="xtick_12">
     <g id="line2d_57">
      <g>
       <use style="stroke:#000000;stroke-width:0.5;" x="125.219207163" xlink:href="#m10f787c36b" y="359.056342822"/>
      </g>
     </g>
     <g id="line2d_58">
      <g>
       <use style="stroke:#000000;stroke-width:0.5;" x="125.219207163" xlink:href="#m00fe296abf" y="13.4563428218"/>
      </g>
     </g>
    </g>
    <g id="xtick_13">
     <g id="line2d_59">
      <g>
       <use style="stroke:#000000;stroke-width:0.5;" x="131.644627902" xlink:href="#m10f787c36b" y="359.056342822"/>
      </g>
     </g>
     <g id="line2d_60">
      <g>
       <use style="stroke:#000000;stroke-width:0.5;" x="131.644627902" xlink:href="#m00fe296abf" y="13.4563428218"/>
      </g>
     </g>
    </g>
    <g id="xtick_14">
     <g id="line2d_61">
      <g>
       <use style="stroke:#000000;stroke-width:0.5;" x="152.110114063" xlink:href="#m10f787c36b" y="359.056342822"/>
      </g>
     </g>
     <g id="line2d_62">
      <g>
       <use style="stroke:#000000;stroke-width:0.5;" x="152.110114063" xlink:href="#m00fe296abf" y="13.4563428218"/>
      </g>
     </g>
    </g>
    <g id="xtick_15">
     <g id="line2d_63">
      <g>
       <use style="stroke:#000000;stroke-width:0.5;" x="167.591656697" xlink:href="#m10f787c36b" y="359.056342822"/>
      </g>
     </g>
     <g id="line2d_64">
      <g>
       <use style="stroke:#000000;stroke-width:0.5;" x="167.591656697" xlink:href="#m00fe296abf" y="13.4563428218"/>
      </g>
     </g>
    </g>
    <g id="xtick_16">
     <g id="line2d_65">
      <g>
       <use style="stroke:#000000;stroke-width:0.5;" x="176.647778591" xlink:href="#m10f787c36b" y="359.056342822"/>
      </g>
     </g>
     <g id="line2d_66">
      <g>
       <use style="stroke:#000000;stroke-width:0.5;" x="176.647778591" xlink:href="#m00fe296abf" y="13.4563428218"/>
      </g>
     </g>
    </g>
    <g id="xtick_17">
     <g id="line2d_67">
      <g>
       <use style="stroke:#000000;stroke-width:0.5;" x="183.073199331" xlink:href="#m10f787c36b" y="359.056342822"/>
      </g>
     </g>
     <g id="line2d_68">
      <g>
       <use style="stroke:#000000;stroke-width:0.5;" x="183.073199331" xlink:href="#m00fe296abf" y="13.4563428218"/>
      </g>
     </g>
    </g>
    <g id="xtick_18">
     <g id="line2d_69">
      <g>
       <use style="stroke:#000000;stroke-width:0.5;" x="203.538685491" xlink:href="#m10f787c36b" y="359.056342822"/>
      </g>
     </g>
     <g id="line2d_70">
      <g>
       <use style="stroke:#000000;stroke-width:0.5;" x="203.538685491" xlink:href="#m00fe296abf" y="13.4563428218"/>
      </g>
     </g>
    </g>
    <g id="xtick_19">
     <g id="line2d_71">
      <g>
       <use style="stroke:#000000;stroke-width:0.5;" x="219.020228125" xlink:href="#m10f787c36b" y="359.056342822"/>
      </g>
     </g>
     <g id="line2d_72">
      <g>
       <use style="stroke:#000000;stroke-width:0.5;" x="219.020228125" xlink:href="#m00fe296abf" y="13.4563428218"/>
      </g>
     </g>
    </g>
    <g id="xtick_20">
     <g id="line2d_73">
      <g>
       <use style="stroke:#000000;stroke-width:0.5;" x="228.07635002" xlink:href="#m10f787c36b" y="359.056342822"/>
      </g>
     </g>
     <g id="line2d_74">
      <g>
       <use style="stroke:#000000;stroke-width:0.5;" x="228.07635002" xlink:href="#m00fe296abf" y="13.4563428218"/>
      </g>
     </g>
    </g>
    <g id="xtick_21">
     <g id="line2d_75">
      <g>
       <use style="stroke:#000000;stroke-width:0.5;" x="234.50177076" xlink:href="#m10f787c36b" y="359.056342822"/>
      </g>
     </g>
     <g id="line2d_76">
      <g>
       <use style="stroke:#000000;stroke-width:0.5;" x="234.50177076" xlink:href="#m00fe296abf" y="13.4563428218"/>
      </g>
     </g>
    </g>
    <g id="xtick_22">
     <g id="line2d_77">
      <g>
       <use style="stroke:#000000;stroke-width:0.5;" x="254.96725692" xlink:href="#m10f787c36b" y="359.056342822"/>
      </g>
     </g>
     <g id="line2d_78">
      <g>
       <use style="stroke:#000000;stroke-width:0.5;" x="254.96725692" xlink:href="#m00fe296abf" y="13.4563428218"/>
      </g>
     </g>
    </g>
    <g id="xtick_23">
     <g id="line2d_79">
      <g>
       <use style="stroke:#000000;stroke-width:0.5;" x="270.448799554" xlink:href="#m10f787c36b" y="359.056342822"/>
      </g>
     </g>
     <g id="line2d_80">
      <g>
       <use style="stroke:#000000;stroke-width:0.5;" x="270.448799554" xlink:href="#m00fe296abf" y="13.4563428218"/>
      </g>
     </g>
    </g>
    <g id="xtick_24">
     <g id="line2d_81">
      <g>
       <use style="stroke:#000000;stroke-width:0.5;" x="279.504921448" xlink:href="#m10f787c36b" y="359.056342822"/>
      </g>
     </g>
     <g id="line2d_82">
      <g>
       <use style="stroke:#000000;stroke-width:0.5;" x="279.504921448" xlink:href="#m00fe296abf" y="13.4563428218"/>
      </g>
     </g>
    </g>
    <g id="xtick_25">
     <g id="line2d_83">
      <g>
       <use style="stroke:#000000;stroke-width:0.5;" x="285.930342188" xlink:href="#m10f787c36b" y="359.056342822"/>
      </g>
     </g>
     <g id="line2d_84">
      <g>
       <use style="stroke:#000000;stroke-width:0.5;" x="285.930342188" xlink:href="#m00fe296abf" y="13.4563428218"/>
      </g>
     </g>
    </g>
    <g id="xtick_26">
     <g id="line2d_85">
      <g>
       <use style="stroke:#000000;stroke-width:0.5;" x="306.395828348" xlink:href="#m10f787c36b" y="359.056342822"/>
      </g>
     </g>
     <g id="line2d_86">
      <g>
       <use style="stroke:#000000;stroke-width:0.5;" x="306.395828348" xlink:href="#m00fe296abf" y="13.4563428218"/>
      </g>
     </g>
    </g>
    <g id="xtick_27">
     <g id="line2d_87">
      <g>
       <use style="stroke:#000000;stroke-width:0.5;" x="321.877370983" xlink:href="#m10f787c36b" y="359.056342822"/>
      </g>
     </g>
     <g id="line2d_88">
      <g>
       <use style="stroke:#000000;stroke-width:0.5;" x="321.877370983" xlink:href="#m00fe296abf" y="13.4563428218"/>
      </g>
     </g>
    </g>
    <g id="xtick_28">
     <g id="line2d_89">
      <g>
       <use style="stroke:#000000;stroke-width:0.5;" x="330.933492877" xlink:href="#m10f787c36b" y="359.056342822"/>
      </g>
     </g>
     <g id="line2d_90">
      <g>
       <use style="stroke:#000000;stroke-width:0.5;" x="330.933492877" xlink:href="#m00fe296abf" y="13.4563428218"/>
      </g>
     </g>
    </g>
    <g id="xtick_29">
     <g id="line2d_91">
      <g>
       <use style="stroke:#000000;stroke-width:0.5;" x="337.358913617" xlink:href="#m10f787c36b" y="359.056342822"/>
      </g>
     </g>
     <g id="line2d_92">
      <g>
       <use style="stroke:#000000;stroke-width:0.5;" x="337.358913617" xlink:href="#m00fe296abf" y="13.4563428218"/>
      </g>
     </g>
    </g>
    <g id="xtick_30">
     <g id="line2d_93">
      <g>
       <use style="stroke:#000000;stroke-width:0.5;" x="357.824399777" xlink:href="#m10f787c36b" y="359.056342822"/>
      </g>
     </g>
     <g id="line2d_94">
      <g>
       <use style="stroke:#000000;stroke-width:0.5;" x="357.824399777" xlink:href="#m00fe296abf" y="13.4563428218"/>
      </g>
     </g>
    </g>
    <g id="xtick_31">
     <g id="line2d_95">
      <g>
       <use style="stroke:#000000;stroke-width:0.5;" x="373.305942411" xlink:href="#m10f787c36b" y="359.056342822"/>
      </g>
     </g>
     <g id="line2d_96">
      <g>
       <use style="stroke:#000000;stroke-width:0.5;" x="373.305942411" xlink:href="#m00fe296abf" y="13.4563428218"/>
      </g>
     </g>
    </g>
    <g id="xtick_32">
     <g id="line2d_97">
      <g>
       <use style="stroke:#000000;stroke-width:0.5;" x="382.362064305" xlink:href="#m10f787c36b" y="359.056342822"/>
      </g>
     </g>
     <g id="line2d_98">
      <g>
       <use style="stroke:#000000;stroke-width:0.5;" x="382.362064305" xlink:href="#m00fe296abf" y="13.4563428218"/>
      </g>
     </g>
    </g>
    <g id="xtick_33">
     <g id="line2d_99">
      <g>
       <use style="stroke:#000000;stroke-width:0.5;" x="388.787485045" xlink:href="#m10f787c36b" y="359.056342822"/>
      </g>
     </g>
     <g id="line2d_100">
      <g>
       <use style="stroke:#000000;stroke-width:0.5;" x="388.787485045" xlink:href="#m00fe296abf" y="13.4563428218"/>
      </g>
     </g>
    </g>
    <g id="xtick_34">
     <g id="line2d_101">
      <g>
       <use style="stroke:#000000;stroke-width:0.5;" x="409.252971206" xlink:href="#m10f787c36b" y="359.056342822"/>
      </g>
     </g>
     <g id="line2d_102">
      <g>
       <use style="stroke:#000000;stroke-width:0.5;" x="409.252971206" xlink:href="#m00fe296abf" y="13.4563428218"/>
      </g>
     </g>
    </g>
    <g id="xtick_35">
     <g id="line2d_103">
      <g>
       <use style="stroke:#000000;stroke-width:0.5;" x="424.73451384" xlink:href="#m10f787c36b" y="359.056342822"/>
      </g>
     </g>
     <g id="line2d_104">
      <g>
       <use style="stroke:#000000;stroke-width:0.5;" x="424.73451384" xlink:href="#m00fe296abf" y="13.4563428218"/>
      </g>
     </g>
    </g>
    <g id="xtick_36">
     <g id="line2d_105">
      <g>
       <use style="stroke:#000000;stroke-width:0.5;" x="433.790635734" xlink:href="#m10f787c36b" y="359.056342822"/>
      </g>
     </g>
     <g id="line2d_106">
      <g>
       <use style="stroke:#000000;stroke-width:0.5;" x="433.790635734" xlink:href="#m00fe296abf" y="13.4563428218"/>
      </g>
     </g>
    </g>
    <g id="xtick_37">
     <g id="line2d_107">
      <g>
       <use style="stroke:#000000;stroke-width:0.5;" x="440.216056474" xlink:href="#m10f787c36b" y="359.056342822"/>
      </g>
     </g>
     <g id="line2d_108">
      <g>
       <use style="stroke:#000000;stroke-width:0.5;" x="440.216056474" xlink:href="#m00fe296abf" y="13.4563428218"/>
      </g>
     </g>
    </g>
    <g id="xtick_38">
     <g id="line2d_109">
      <g>
       <use style="stroke:#000000;stroke-width:0.5;" x="460.681542634" xlink:href="#m10f787c36b" y="359.056342822"/>
      </g>
     </g>
     <g id="line2d_110">
      <g>
       <use style="stroke:#000000;stroke-width:0.5;" x="460.681542634" xlink:href="#m00fe296abf" y="13.4563428218"/>
      </g>
     </g>
    </g>
    <g id="xtick_39">
     <g id="line2d_111">
      <g>
       <use style="stroke:#000000;stroke-width:0.5;" x="476.163085268" xlink:href="#m10f787c36b" y="359.056342822"/>
      </g>
     </g>
     <g id="line2d_112">
      <g>
       <use style="stroke:#000000;stroke-width:0.5;" x="476.163085268" xlink:href="#m00fe296abf" y="13.4563428218"/>
      </g>
     </g>
    </g>
    <g id="xtick_40">
     <g id="line2d_113">
      <g>
       <use style="stroke:#000000;stroke-width:0.5;" x="485.219207163" xlink:href="#m10f787c36b" y="359.056342822"/>
      </g>
     </g>
     <g id="line2d_114">
      <g>
       <use style="stroke:#000000;stroke-width:0.5;" x="485.219207163" xlink:href="#m00fe296abf" y="13.4563428218"/>
      </g>
     </g>
    </g>
    <g id="xtick_41">
     <g id="line2d_115">
      <g>
       <use style="stroke:#000000;stroke-width:0.5;" x="491.644627902" xlink:href="#m10f787c36b" y="359.056342822"/>
      </g>
     </g>
     <g id="line2d_116">
      <g>
       <use style="stroke:#000000;stroke-width:0.5;" x="491.644627902" xlink:href="#m00fe296abf" y="13.4563428218"/>
      </g>
     </g>
    </g>
    <g id="xtick_42">
     <g id="line2d_117">
      <g>
       <use style="stroke:#000000;stroke-width:0.5;" x="512.110114063" xlink:href="#m10f787c36b" y="359.056342822"/>
      </g>
     </g>
     <g id="line2d_118">
      <g>
       <use style="stroke:#000000;stroke-width:0.5;" x="512.110114063" xlink:href="#m00fe296abf" y="13.4563428218"/>
      </g>
     </g>
    </g>
    <g id="xtick_43">
     <g id="line2d_119">
      <g>
       <use style="stroke:#000000;stroke-width:0.5;" x="527.591656697" xlink:href="#m10f787c36b" y="359.056342822"/>
      </g>
     </g>
     <g id="line2d_120">
      <g>
       <use style="stroke:#000000;stroke-width:0.5;" x="527.591656697" xlink:href="#m00fe296abf" y="13.4563428218"/>
      </g>
     </g>
    </g>
    <g id="text_10">
     <!-- log10 of (# f-evals / dimension) -->
     <defs>
      <path id="BitstreamVeraSans-Roman-20"/>
      <path d="M 51.125 44 
L 36.921875 44 
L 32.8125 27.6875 
L 47.125 27.6875 
z
M 43.796875 71.78125 
L 38.71875 51.515625 
L 52.984375 51.515625 
L 58.109375 71.78125 
L 65.921875 71.78125 
L 60.890625 51.515625 
L 76.125 51.515625 
L 76.125 44 
L 58.984375 44 
L 54.984375 27.6875 
L 70.515625 27.6875 
L 70.515625 20.21875 
L 53.078125 20.21875 
L 48 0 
L 40.1875 0 
L 45.21875 20.21875 
L 30.90625 20.21875 
L 25.875 0 
L 18.015625 0 
L 23.09375 20.21875 
L 7.71875 20.21875 
L 7.71875 27.6875 
L 24.90625 27.6875 
L 29 44 
L 13.28125 44 
L 13.28125 51.515625 
L 30.90625 51.515625 
L 35.890625 71.78125 
z
" id="BitstreamVeraSans-Roman-23"/>
      <path d="M 52 44.1875 
Q 55.375 50.25 60.0625 53.125 
Q 64.75 56 71.09375 56 
Q 79.640625 56 84.28125 50.015625 
Q 88.921875 44.046875 88.921875 33.015625 
L 88.921875 0 
L 79.890625 0 
L 79.890625 32.71875 
Q 79.890625 40.578125 77.09375 44.375 
Q 74.3125 48.1875 68.609375 48.1875 
Q 61.625 48.1875 57.5625 43.546875 
Q 53.515625 38.921875 53.515625 30.90625 
L 53.515625 0 
L 44.484375 0 
L 44.484375 32.71875 
Q 44.484375 40.625 41.703125 44.40625 
Q 38.921875 48.1875 33.109375 48.1875 
Q 26.21875 48.1875 22.15625 43.53125 
Q 18.109375 38.875 18.109375 30.90625 
L 18.109375 0 
L 9.078125 0 
L 9.078125 54.6875 
L 18.109375 54.6875 
L 18.109375 46.1875 
Q 21.1875 51.21875 25.484375 53.609375 
Q 29.78125 56 35.6875 56 
Q 41.65625 56 45.828125 52.96875 
Q 50 49.953125 52 44.1875 
" id="BitstreamVeraSans-Roman-6d"/>
      <path d="M 54.890625 33.015625 
L 54.890625 0 
L 45.90625 0 
L 45.90625 32.71875 
Q 45.90625 40.484375 42.875 44.328125 
Q 39.84375 48.1875 33.796875 48.1875 
Q 26.515625 48.1875 22.3125 43.546875 
Q 18.109375 38.921875 18.109375 30.90625 
L 18.109375 0 
L 9.078125 0 
L 9.078125 54.6875 
L 18.109375 54.6875 
L 18.109375 46.1875 
Q 21.34375 51.125 25.703125 53.5625 
Q 30.078125 56 35.796875 56 
Q 45.21875 56 50.046875 50.171875 
Q 54.890625 44.34375 54.890625 33.015625 
" id="BitstreamVeraSans-Roman-6e"/>
      <path d="M 31 75.875 
Q 24.46875 64.65625 21.28125 53.65625 
Q 18.109375 42.671875 18.109375 31.390625 
Q 18.109375 20.125 21.3125 9.0625 
Q 24.515625 -2 31 -13.1875 
L 23.1875 -13.1875 
Q 15.875 -1.703125 12.234375 9.375 
Q 8.59375 20.453125 8.59375 31.390625 
Q 8.59375 42.28125 12.203125 53.3125 
Q 15.828125 64.359375 23.1875 75.875 
z
" id="BitstreamVeraSans-Roman-28"/>
      <path d="M 30.609375 48.390625 
Q 23.390625 48.390625 19.1875 42.75 
Q 14.984375 37.109375 14.984375 27.296875 
Q 14.984375 17.484375 19.15625 11.84375 
Q 23.34375 6.203125 30.609375 6.203125 
Q 37.796875 6.203125 41.984375 11.859375 
Q 46.1875 17.53125 46.1875 27.296875 
Q 46.1875 37.015625 41.984375 42.703125 
Q 37.796875 48.390625 30.609375 48.390625 
M 30.609375 56 
Q 42.328125 56 49.015625 48.375 
Q 55.71875 40.765625 55.71875 27.296875 
Q 55.71875 13.875 49.015625 6.21875 
Q 42.328125 -1.421875 30.609375 -1.421875 
Q 18.84375 -1.421875 12.171875 6.21875 
Q 5.515625 13.875 5.515625 27.296875 
Q 5.515625 40.765625 12.171875 48.375 
Q 18.84375 56 30.609375 56 
" id="BitstreamVeraSans-Roman-6f"/>
      <path d="M 9.421875 75.984375 
L 18.40625 75.984375 
L 18.40625 0 
L 9.421875 0 
z
" id="BitstreamVeraSans-Roman-6c"/>
      <path d="M 2.984375 54.6875 
L 12.5 54.6875 
L 29.59375 8.796875 
L 46.6875 54.6875 
L 56.203125 54.6875 
L 35.6875 0 
L 23.484375 0 
z
" id="BitstreamVeraSans-Roman-76"/>
      <path d="M 9.421875 54.6875 
L 18.40625 54.6875 
L 18.40625 0 
L 9.421875 0 
z
M 9.421875 75.984375 
L 18.40625 75.984375 
L 18.40625 64.59375 
L 9.421875 64.59375 
z
" id="BitstreamVeraSans-Roman-69"/>
      <path d="M 4.890625 31.390625 
L 31.203125 31.390625 
L 31.203125 23.390625 
L 4.890625 23.390625 
z
" id="BitstreamVeraSans-Roman-2d"/>
      <path d="M 25.390625 72.90625 
L 33.6875 72.90625 
L 8.296875 -9.28125 
L 0 -9.28125 
z
" id="BitstreamVeraSans-Roman-2f"/>
      <path d="M 56.203125 29.59375 
L 56.203125 25.203125 
L 14.890625 25.203125 
Q 15.484375 15.921875 20.484375 11.0625 
Q 25.484375 6.203125 34.421875 6.203125 
Q 39.59375 6.203125 44.453125 7.46875 
Q 49.3125 8.734375 54.109375 11.28125 
L 54.109375 2.78125 
Q 49.265625 0.734375 44.1875 -0.34375 
Q 39.109375 -1.421875 33.890625 -1.421875 
Q 20.796875 -1.421875 13.15625 6.1875 
Q 5.515625 13.8125 5.515625 26.8125 
Q 5.515625 40.234375 12.765625 48.109375 
Q 20.015625 56 32.328125 56 
Q 43.359375 56 49.78125 48.890625 
Q 56.203125 41.796875 56.203125 29.59375 
M 47.21875 32.234375 
Q 47.125 39.59375 43.09375 43.984375 
Q 39.0625 48.390625 32.421875 48.390625 
Q 24.90625 48.390625 20.390625 44.140625 
Q 15.875 39.890625 15.1875 32.171875 
z
" id="BitstreamVeraSans-Roman-65"/>
      <path d="M 45.40625 46.390625 
L 45.40625 75.984375 
L 54.390625 75.984375 
L 54.390625 0 
L 45.40625 0 
L 45.40625 8.203125 
Q 42.578125 3.328125 38.25 0.953125 
Q 33.9375 -1.421875 27.875 -1.421875 
Q 17.96875 -1.421875 11.734375 6.484375 
Q 5.515625 14.40625 5.515625 27.296875 
Q 5.515625 40.1875 11.734375 48.09375 
Q 17.96875 56 27.875 56 
Q 33.9375 56 38.25 53.625 
Q 42.578125 51.265625 45.40625 46.390625 
M 14.796875 27.296875 
Q 14.796875 17.390625 18.875 11.75 
Q 22.953125 6.109375 30.078125 6.109375 
Q 37.203125 6.109375 41.296875 11.75 
Q 45.40625 17.390625 45.40625 27.296875 
Q 45.40625 37.203125 41.296875 42.84375 
Q 37.203125 48.484375 30.078125 48.484375 
Q 22.953125 48.484375 18.875 42.84375 
Q 14.796875 37.203125 14.796875 27.296875 
" id="BitstreamVeraSans-Roman-64"/>
      <path d="M 45.40625 27.984375 
Q 45.40625 37.75 41.375 43.109375 
Q 37.359375 48.484375 30.078125 48.484375 
Q 22.859375 48.484375 18.828125 43.109375 
Q 14.796875 37.75 14.796875 27.984375 
Q 14.796875 18.265625 18.828125 12.890625 
Q 22.859375 7.515625 30.078125 7.515625 
Q 37.359375 7.515625 41.375 12.890625 
Q 45.40625 18.265625 45.40625 27.984375 
M 54.390625 6.78125 
Q 54.390625 -7.171875 48.1875 -13.984375 
Q 42 -20.796875 29.203125 -20.796875 
Q 24.46875 -20.796875 20.265625 -20.09375 
Q 16.0625 -19.390625 12.109375 -17.921875 
L 12.109375 -9.1875 
Q 16.0625 -11.328125 19.921875 -12.34375 
Q 23.78125 -13.375 27.78125 -13.375 
Q 36.625 -13.375 41.015625 -8.765625 
Q 45.40625 -4.15625 45.40625 5.171875 
L 45.40625 9.625 
Q 42.625 4.78125 38.28125 2.390625 
Q 33.9375 0 27.875 0 
Q 17.828125 0 11.671875 7.65625 
Q 5.515625 15.328125 5.515625 27.984375 
Q 5.515625 40.671875 11.671875 48.328125 
Q 17.828125 56 27.875 56 
Q 33.9375 56 38.28125 53.609375 
Q 42.625 51.21875 45.40625 46.390625 
L 45.40625 54.6875 
L 54.390625 54.6875 
z
" id="BitstreamVeraSans-Roman-67"/>
      <path d="M 37.109375 75.984375 
L 37.109375 68.5 
L 28.515625 68.5 
Q 23.6875 68.5 21.796875 66.546875 
Q 19.921875 64.59375 19.921875 59.515625 
L 19.921875 54.6875 
L 34.71875 54.6875 
L 34.71875 47.703125 
L 19.921875 47.703125 
L 19.921875 0 
L 10.890625 0 
L 10.890625 47.703125 
L 2.296875 47.703125 
L 2.296875 54.6875 
L 10.890625 54.6875 
L 10.890625 58.5 
Q 10.890625 67.625 15.140625 71.796875 
Q 19.390625 75.984375 28.609375 75.984375 
z
" id="BitstreamVeraSans-Roman-66"/>
      <path d="M 34.28125 27.484375 
Q 23.390625 27.484375 19.1875 25 
Q 14.984375 22.515625 14.984375 16.5 
Q 14.984375 11.71875 18.140625 8.90625 
Q 21.296875 6.109375 26.703125 6.109375 
Q 34.1875 6.109375 38.703125 11.40625 
Q 43.21875 16.703125 43.21875 25.484375 
L 43.21875 27.484375 
z
M 52.203125 31.203125 
L 52.203125 0 
L 43.21875 0 
L 43.21875 8.296875 
Q 40.140625 3.328125 35.546875 0.953125 
Q 30.953125 -1.421875 24.3125 -1.421875 
Q 15.921875 -1.421875 10.953125 3.296875 
Q 6 8.015625 6 15.921875 
Q 6 25.140625 12.171875 29.828125 
Q 18.359375 34.515625 30.609375 34.515625 
L 43.21875 34.515625 
L 43.21875 35.40625 
Q 43.21875 41.609375 39.140625 45 
Q 35.0625 48.390625 27.6875 48.390625 
Q 23 48.390625 18.546875 47.265625 
Q 14.109375 46.140625 10.015625 43.890625 
L 10.015625 52.203125 
Q 14.9375 54.109375 19.578125 55.046875 
Q 24.21875 56 28.609375 56 
Q 40.484375 56 46.34375 49.84375 
Q 52.203125 43.703125 52.203125 31.203125 
" id="BitstreamVeraSans-Roman-61"/>
      <path d="M 44.28125 53.078125 
L 44.28125 44.578125 
Q 40.484375 46.53125 36.375 47.5 
Q 32.28125 48.484375 27.875 48.484375 
Q 21.1875 48.484375 17.84375 46.4375 
Q 14.5 44.390625 14.5 40.28125 
Q 14.5 37.15625 16.890625 35.375 
Q 19.28125 33.59375 26.515625 31.984375 
L 29.59375 31.296875 
Q 39.15625 29.25 43.1875 25.515625 
Q 47.21875 21.78125 47.21875 15.09375 
Q 47.21875 7.46875 41.1875 3.015625 
Q 35.15625 -1.421875 24.609375 -1.421875 
Q 20.21875 -1.421875 15.453125 -0.5625 
Q 10.6875 0.296875 5.421875 2 
L 5.421875 11.28125 
Q 10.40625 8.6875 15.234375 7.390625 
Q 20.0625 6.109375 24.8125 6.109375 
Q 31.15625 6.109375 34.5625 8.28125 
Q 37.984375 10.453125 37.984375 14.40625 
Q 37.984375 18.0625 35.515625 20.015625 
Q 33.0625 21.96875 24.703125 23.78125 
L 21.578125 24.515625 
Q 13.234375 26.265625 9.515625 29.90625 
Q 5.8125 33.546875 5.8125 39.890625 
Q 5.8125 47.609375 11.28125 51.796875 
Q 16.75 56 26.8125 56 
Q 31.78125 56 36.171875 55.265625 
Q 40.578125 54.546875 44.28125 53.078125 
" id="BitstreamVeraSans-Roman-73"/>
      <path d="M 8.015625 75.875 
L 15.828125 75.875 
Q 23.140625 64.359375 26.78125 53.3125 
Q 30.421875 42.28125 30.421875 31.390625 
Q 30.421875 20.453125 26.78125 9.375 
Q 23.140625 -1.703125 15.828125 -13.1875 
L 8.015625 -13.1875 
Q 14.5 -2 17.703125 9.0625 
Q 20.90625 20.125 20.90625 31.390625 
Q 20.90625 42.671875 17.703125 53.65625 
Q 14.5 64.65625 8.015625 75.875 
" id="BitstreamVeraSans-Roman-29"/>
     </defs>
     <g transform="translate(166.05515625 401.089780322)scale(0.18 -0.18)">
      <use xlink:href="#BitstreamVeraSans-Roman-6c"/>
      <use x="27.783203125" xlink:href="#BitstreamVeraSans-Roman-6f"/>
      <use x="88.96484375" xlink:href="#BitstreamVeraSans-Roman-67"/>
      <use x="152.44140625" xlink:href="#BitstreamVeraSans-Roman-31"/>
      <use x="216.064453125" xlink:href="#BitstreamVeraSans-Roman-30"/>
      <use x="279.6875" xlink:href="#BitstreamVeraSans-Roman-20"/>
      <use x="311.474609375" xlink:href="#BitstreamVeraSans-Roman-6f"/>
      <use x="372.65625" xlink:href="#BitstreamVeraSans-Roman-66"/>
      <use x="407.861328125" xlink:href="#BitstreamVeraSans-Roman-20"/>
      <use x="439.6484375" xlink:href="#BitstreamVeraSans-Roman-28"/>
      <use x="478.662109375" xlink:href="#BitstreamVeraSans-Roman-23"/>
      <use x="562.451171875" xlink:href="#BitstreamVeraSans-Roman-20"/>
      <use x="594.23828125" xlink:href="#BitstreamVeraSans-Roman-66"/>
      <use x="629.365234375" xlink:href="#BitstreamVeraSans-Roman-2d"/>
      <use x="665.44921875" xlink:href="#BitstreamVeraSans-Roman-65"/>
      <use x="726.97265625" xlink:href="#BitstreamVeraSans-Roman-76"/>
      <use x="786.15234375" xlink:href="#BitstreamVeraSans-Roman-61"/>
      <use x="847.431640625" xlink:href="#BitstreamVeraSans-Roman-6c"/>
      <use x="875.21484375" xlink:href="#BitstreamVeraSans-Roman-73"/>
      <use x="927.314453125" xlink:href="#BitstreamVeraSans-Roman-20"/>
      <use x="959.1015625" xlink:href="#BitstreamVeraSans-Roman-2f"/>
      <use x="992.79296875" xlink:href="#BitstreamVeraSans-Roman-20"/>
      <use x="1024.58007812" xlink:href="#BitstreamVeraSans-Roman-64"/>
      <use x="1088.05664062" xlink:href="#BitstreamVeraSans-Roman-69"/>
      <use x="1115.83984375" xlink:href="#BitstreamVeraSans-Roman-6d"/>
      <use x="1213.25195312" xlink:href="#BitstreamVeraSans-Roman-65"/>
      <use x="1274.77539062" xlink:href="#BitstreamVeraSans-Roman-6e"/>
      <use x="1338.15429688" xlink:href="#BitstreamVeraSans-Roman-73"/>
      <use x="1390.25390625" xlink:href="#BitstreamVeraSans-Roman-69"/>
      <use x="1418.03710938" xlink:href="#BitstreamVeraSans-Roman-6f"/>
      <use x="1479.21875" xlink:href="#BitstreamVeraSans-Roman-6e"/>
      <use x="1542.59765625" xlink:href="#BitstreamVeraSans-Roman-29"/>
     </g>
    </g>
   </g>
   <g id="matplotlib.axis_2">
    <g id="ytick_1">
     <g id="line2d_121">
      <path clip-path="url(#p5a5896fdc4)" d="M 85.2 359.056343 
L 531.6 359.056343 
" style="fill:none;stroke:#000000;stroke-dasharray:1.000000,3.000000;stroke-dashoffset:0.0;stroke-width:0.5;"/>
     </g>
     <g id="line2d_122">
      <defs>
       <path d="M 0 0 
L 4 0 
" id="med273efeb8" style="stroke:#000000;stroke-width:0.5;"/>
      </defs>
      <g>
       <use style="stroke:#000000;stroke-width:0.5;" x="85.2" xlink:href="#med273efeb8" y="359.056342822"/>
      </g>
     </g>
     <g id="line2d_123">
      <defs>
       <path d="M 0 0 
L -4 0 
" id="m31c8423639" style="stroke:#000000;stroke-width:0.5;"/>
      </defs>
      <g>
       <use style="stroke:#000000;stroke-width:0.5;" x="531.6" xlink:href="#m31c8423639" y="359.056342822"/>
      </g>
     </g>
     <g id="text_11">
      <!-- 0.0 -->
      <defs>
       <path d="M 10.6875 12.40625 
L 21 12.40625 
L 21 0 
L 10.6875 0 
z
" id="BitstreamVeraSans-Roman-2e"/>
      </defs>
      <g transform="translate(49.39375 364.575092822)scale(0.2 -0.2)">
       <use xlink:href="#BitstreamVeraSans-Roman-30"/>
       <use x="63.623046875" xlink:href="#BitstreamVeraSans-Roman-2e"/>
       <use x="95.41015625" xlink:href="#BitstreamVeraSans-Roman-30"/>
      </g>
     </g>
    </g>
    <g id="ytick_2">
     <g id="line2d_124">
      <path clip-path="url(#p5a5896fdc4)" d="M 85.2 290.620699 
L 531.6 290.620699 
" style="fill:none;stroke:#000000;stroke-dasharray:1.000000,3.000000;stroke-dashoffset:0.0;stroke-width:0.5;"/>
     </g>
     <g id="line2d_125">
      <g>
       <use style="stroke:#000000;stroke-width:0.5;" x="85.2" xlink:href="#med273efeb8" y="290.620699257"/>
      </g>
     </g>
     <g id="line2d_126">
      <g>
       <use style="stroke:#000000;stroke-width:0.5;" x="531.6" xlink:href="#m31c8423639" y="290.620699257"/>
      </g>
     </g>
     <g id="text_12">
      <!-- 0.2 -->
      <g transform="translate(49.39375 296.139449257)scale(0.2 -0.2)">
       <use xlink:href="#BitstreamVeraSans-Roman-30"/>
       <use x="63.623046875" xlink:href="#BitstreamVeraSans-Roman-2e"/>
       <use x="95.41015625" xlink:href="#BitstreamVeraSans-Roman-32"/>
      </g>
     </g>
    </g>
    <g id="ytick_3">
     <g id="line2d_127">
      <path clip-path="url(#p5a5896fdc4)" d="M 85.2 222.185056 
L 531.6 222.185056 
" style="fill:none;stroke:#000000;stroke-dasharray:1.000000,3.000000;stroke-dashoffset:0.0;stroke-width:0.5;"/>
     </g>
     <g id="line2d_128">
      <g>
       <use style="stroke:#000000;stroke-width:0.5;" x="85.2" xlink:href="#med273efeb8" y="222.185055693"/>
      </g>
     </g>
     <g id="line2d_129">
      <g>
       <use style="stroke:#000000;stroke-width:0.5;" x="531.6" xlink:href="#m31c8423639" y="222.185055693"/>
      </g>
     </g>
     <g id="text_13">
      <!-- 0.4 -->
      <g transform="translate(49.39375 227.703805693)scale(0.2 -0.2)">
       <use xlink:href="#BitstreamVeraSans-Roman-30"/>
       <use x="63.623046875" xlink:href="#BitstreamVeraSans-Roman-2e"/>
       <use x="95.41015625" xlink:href="#BitstreamVeraSans-Roman-34"/>
      </g>
     </g>
    </g>
    <g id="ytick_4">
     <g id="line2d_130">
      <path clip-path="url(#p5a5896fdc4)" d="M 85.2 153.749412 
L 531.6 153.749412 
" style="fill:none;stroke:#000000;stroke-dasharray:1.000000,3.000000;stroke-dashoffset:0.0;stroke-width:0.5;"/>
     </g>
     <g id="line2d_131">
      <g>
       <use style="stroke:#000000;stroke-width:0.5;" x="85.2" xlink:href="#med273efeb8" y="153.749412129"/>
      </g>
     </g>
     <g id="line2d_132">
      <g>
       <use style="stroke:#000000;stroke-width:0.5;" x="531.6" xlink:href="#m31c8423639" y="153.749412129"/>
      </g>
     </g>
     <g id="text_14">
      <!-- 0.6 -->
      <g transform="translate(49.39375 159.268162129)scale(0.2 -0.2)">
       <use xlink:href="#BitstreamVeraSans-Roman-30"/>
       <use x="63.623046875" xlink:href="#BitstreamVeraSans-Roman-2e"/>
       <use x="95.41015625" xlink:href="#BitstreamVeraSans-Roman-36"/>
      </g>
     </g>
    </g>
    <g id="ytick_5">
     <g id="line2d_133">
      <path clip-path="url(#p5a5896fdc4)" d="M 85.2 85.313769 
L 531.6 85.313769 
" style="fill:none;stroke:#000000;stroke-dasharray:1.000000,3.000000;stroke-dashoffset:0.0;stroke-width:0.5;"/>
     </g>
     <g id="line2d_134">
      <g>
       <use style="stroke:#000000;stroke-width:0.5;" x="85.2" xlink:href="#med273efeb8" y="85.3137685644"/>
      </g>
     </g>
     <g id="line2d_135">
      <g>
       <use style="stroke:#000000;stroke-width:0.5;" x="531.6" xlink:href="#m31c8423639" y="85.3137685644"/>
      </g>
     </g>
     <g id="text_15">
      <!-- 0.8 -->
      <g transform="translate(49.39375 90.8325185644)scale(0.2 -0.2)">
       <use xlink:href="#BitstreamVeraSans-Roman-30"/>
       <use x="63.623046875" xlink:href="#BitstreamVeraSans-Roman-2e"/>
       <use x="95.41015625" xlink:href="#BitstreamVeraSans-Roman-38"/>
      </g>
     </g>
    </g>
    <g id="ytick_6">
     <g id="line2d_136">
      <path clip-path="url(#p5a5896fdc4)" d="M 85.2 16.878125 
L 531.6 16.878125 
" style="fill:none;stroke:#000000;stroke-dasharray:1.000000,3.000000;stroke-dashoffset:0.0;stroke-width:0.5;"/>
     </g>
     <g id="line2d_137">
      <g>
       <use style="stroke:#000000;stroke-width:0.5;" x="85.2" xlink:href="#med273efeb8" y="16.878125"/>
      </g>
     </g>
     <g id="line2d_138">
      <g>
       <use style="stroke:#000000;stroke-width:0.5;" x="531.6" xlink:href="#m31c8423639" y="16.878125"/>
      </g>
     </g>
     <g id="text_16">
      <!-- 1.0 -->
      <g transform="translate(49.39375 22.396875)scale(0.2 -0.2)">
       <use xlink:href="#BitstreamVeraSans-Roman-31"/>
       <use x="63.623046875" xlink:href="#BitstreamVeraSans-Roman-2e"/>
       <use x="95.41015625" xlink:href="#BitstreamVeraSans-Roman-30"/>
      </g>
     </g>
    </g>
    <g id="text_17">
     <!-- Proportion of function+target pairs -->
     <defs>
      <path d="M 19.671875 64.796875 
L 19.671875 37.40625 
L 32.078125 37.40625 
Q 38.96875 37.40625 42.71875 40.96875 
Q 46.484375 44.53125 46.484375 51.125 
Q 46.484375 57.671875 42.71875 61.234375 
Q 38.96875 64.796875 32.078125 64.796875 
z
M 9.8125 72.90625 
L 32.078125 72.90625 
Q 44.34375 72.90625 50.609375 67.359375 
Q 56.890625 61.8125 56.890625 51.125 
Q 56.890625 40.328125 50.609375 34.8125 
Q 44.34375 29.296875 32.078125 29.296875 
L 19.671875 29.296875 
L 19.671875 0 
L 9.8125 0 
z
" id="BitstreamVeraSans-Roman-50"/>
      <path d="M 46 62.703125 
L 46 35.5 
L 73.1875 35.5 
L 73.1875 27.203125 
L 46 27.203125 
L 46 0 
L 37.796875 0 
L 37.796875 27.203125 
L 10.59375 27.203125 
L 10.59375 35.5 
L 37.796875 35.5 
L 37.796875 62.703125 
z
" id="BitstreamVeraSans-Roman-2b"/>
      <path d="M 18.109375 8.203125 
L 18.109375 -20.796875 
L 9.078125 -20.796875 
L 9.078125 54.6875 
L 18.109375 54.6875 
L 18.109375 46.390625 
Q 20.953125 51.265625 25.265625 53.625 
Q 29.59375 56 35.59375 56 
Q 45.5625 56 51.78125 48.09375 
Q 58.015625 40.1875 58.015625 27.296875 
Q 58.015625 14.40625 51.78125 6.484375 
Q 45.5625 -1.421875 35.59375 -1.421875 
Q 29.59375 -1.421875 25.265625 0.953125 
Q 20.953125 3.328125 18.109375 8.203125 
M 48.6875 27.296875 
Q 48.6875 37.203125 44.609375 42.84375 
Q 40.53125 48.484375 33.40625 48.484375 
Q 26.265625 48.484375 22.1875 42.84375 
Q 18.109375 37.203125 18.109375 27.296875 
Q 18.109375 17.390625 22.1875 11.75 
Q 26.265625 6.109375 33.40625 6.109375 
Q 40.53125 6.109375 44.609375 11.75 
Q 48.6875 17.390625 48.6875 27.296875 
" id="BitstreamVeraSans-Roman-70"/>
      <path d="M 18.3125 70.21875 
L 18.3125 54.6875 
L 36.8125 54.6875 
L 36.8125 47.703125 
L 18.3125 47.703125 
L 18.3125 18.015625 
Q 18.3125 11.328125 20.140625 9.421875 
Q 21.96875 7.515625 27.59375 7.515625 
L 36.8125 7.515625 
L 36.8125 0 
L 27.59375 0 
Q 17.1875 0 13.234375 3.875 
Q 9.28125 7.765625 9.28125 18.015625 
L 9.28125 47.703125 
L 2.6875 47.703125 
L 2.6875 54.6875 
L 9.28125 54.6875 
L 9.28125 70.21875 
z
" id="BitstreamVeraSans-Roman-74"/>
      <path d="M 8.5 21.578125 
L 8.5 54.6875 
L 17.484375 54.6875 
L 17.484375 21.921875 
Q 17.484375 14.15625 20.5 10.265625 
Q 23.53125 6.390625 29.59375 6.390625 
Q 36.859375 6.390625 41.078125 11.03125 
Q 45.3125 15.671875 45.3125 23.6875 
L 45.3125 54.6875 
L 54.296875 54.6875 
L 54.296875 0 
L 45.3125 0 
L 45.3125 8.40625 
Q 42.046875 3.421875 37.71875 1 
Q 33.40625 -1.421875 27.6875 -1.421875 
Q 18.265625 -1.421875 13.375 4.4375 
Q 8.5 10.296875 8.5 21.578125 
" id="BitstreamVeraSans-Roman-75"/>
      <path d="M 41.109375 46.296875 
Q 39.59375 47.171875 37.8125 47.578125 
Q 36.03125 48 33.890625 48 
Q 26.265625 48 22.1875 43.046875 
Q 18.109375 38.09375 18.109375 28.8125 
L 18.109375 0 
L 9.078125 0 
L 9.078125 54.6875 
L 18.109375 54.6875 
L 18.109375 46.1875 
Q 20.953125 51.171875 25.484375 53.578125 
Q 30.03125 56 36.53125 56 
Q 37.453125 56 38.578125 55.875 
Q 39.703125 55.765625 41.0625 55.515625 
z
" id="BitstreamVeraSans-Roman-72"/>
      <path d="M 48.78125 52.59375 
L 48.78125 44.1875 
Q 44.96875 46.296875 41.140625 47.34375 
Q 37.3125 48.390625 33.40625 48.390625 
Q 24.65625 48.390625 19.8125 42.84375 
Q 14.984375 37.3125 14.984375 27.296875 
Q 14.984375 17.28125 19.8125 11.734375 
Q 24.65625 6.203125 33.40625 6.203125 
Q 37.3125 6.203125 41.140625 7.25 
Q 44.96875 8.296875 48.78125 10.40625 
L 48.78125 2.09375 
Q 45.015625 0.34375 40.984375 -0.53125 
Q 36.96875 -1.421875 32.421875 -1.421875 
Q 20.0625 -1.421875 12.78125 6.34375 
Q 5.515625 14.109375 5.515625 27.296875 
Q 5.515625 40.671875 12.859375 48.328125 
Q 20.21875 56 33.015625 56 
Q 37.15625 56 41.109375 55.140625 
Q 45.0625 54.296875 48.78125 52.59375 
" id="BitstreamVeraSans-Roman-63"/>
     </defs>
     <g transform="translate(40.6503125 344.245717822)rotate(-90.0)scale(0.18 -0.18)">
      <use xlink:href="#BitstreamVeraSans-Roman-50"/>
      <use x="60.287109375" xlink:href="#BitstreamVeraSans-Roman-72"/>
      <use x="101.369140625" xlink:href="#BitstreamVeraSans-Roman-6f"/>
      <use x="162.55078125" xlink:href="#BitstreamVeraSans-Roman-70"/>
      <use x="226.02734375" xlink:href="#BitstreamVeraSans-Roman-6f"/>
      <use x="287.208984375" xlink:href="#BitstreamVeraSans-Roman-72"/>
      <use x="328.322265625" xlink:href="#BitstreamVeraSans-Roman-74"/>
      <use x="367.53125" xlink:href="#BitstreamVeraSans-Roman-69"/>
      <use x="395.314453125" xlink:href="#BitstreamVeraSans-Roman-6f"/>
      <use x="456.49609375" xlink:href="#BitstreamVeraSans-Roman-6e"/>
      <use x="519.875" xlink:href="#BitstreamVeraSans-Roman-20"/>
      <use x="551.662109375" xlink:href="#BitstreamVeraSans-Roman-6f"/>
      <use x="612.84375" xlink:href="#BitstreamVeraSans-Roman-66"/>
      <use x="648.048828125" xlink:href="#BitstreamVeraSans-Roman-20"/>
      <use x="679.8359375" xlink:href="#BitstreamVeraSans-Roman-66"/>
      <use x="715.041015625" xlink:href="#BitstreamVeraSans-Roman-75"/>
      <use x="778.419921875" xlink:href="#BitstreamVeraSans-Roman-6e"/>
      <use x="841.798828125" xlink:href="#BitstreamVeraSans-Roman-63"/>
      <use x="896.779296875" xlink:href="#BitstreamVeraSans-Roman-74"/>
      <use x="935.98828125" xlink:href="#BitstreamVeraSans-Roman-69"/>
      <use x="963.771484375" xlink:href="#BitstreamVeraSans-Roman-6f"/>
      <use x="1024.953125" xlink:href="#BitstreamVeraSans-Roman-6e"/>
      <use x="1088.33203125" xlink:href="#BitstreamVeraSans-Roman-2b"/>
      <use x="1172.12109375" xlink:href="#BitstreamVeraSans-Roman-74"/>
      <use x="1211.33007812" xlink:href="#BitstreamVeraSans-Roman-61"/>
      <use x="1272.609375" xlink:href="#BitstreamVeraSans-Roman-72"/>
      <use x="1313.70703125" xlink:href="#BitstreamVeraSans-Roman-67"/>
      <use x="1377.18359375" xlink:href="#BitstreamVeraSans-Roman-65"/>
      <use x="1438.70703125" xlink:href="#BitstreamVeraSans-Roman-74"/>
      <use x="1477.91601562" xlink:href="#BitstreamVeraSans-Roman-20"/>
      <use x="1509.703125" xlink:href="#BitstreamVeraSans-Roman-70"/>
      <use x="1573.1796875" xlink:href="#BitstreamVeraSans-Roman-61"/>
      <use x="1634.45898438" xlink:href="#BitstreamVeraSans-Roman-69"/>
      <use x="1662.2421875" xlink:href="#BitstreamVeraSans-Roman-72"/>
      <use x="1703.35546875" xlink:href="#BitstreamVeraSans-Roman-73"/>
     </g>
    </g>
   </g>
   <g id="text_18">
    <!-- f7 -->
    <g transform="translate(492.0 356.351840965)scale(0.15 -0.15)">
     <use xlink:href="#BitstreamVeraSans-Roman-66"/>
     <use x="35.205078125" xlink:href="#BitstreamVeraSans-Roman-37"/>
    </g>
   </g>
   <g id="text_19">
    <!-- f8 -->
    <g transform="translate(492.0 246.854811262)scale(0.15 -0.15)">
     <use xlink:href="#BitstreamVeraSans-Roman-66"/>
     <use x="35.205078125" xlink:href="#BitstreamVeraSans-Roman-38"/>
    </g>
   </g>
   <g id="text_20">
    <!-- f17 -->
    <g transform="translate(492.0 137.357781559)scale(0.15 -0.15)">
     <use xlink:href="#BitstreamVeraSans-Roman-66"/>
     <use x="35.205078125" xlink:href="#BitstreamVeraSans-Roman-31"/>
     <use x="98.828125" xlink:href="#BitstreamVeraSans-Roman-37"/>
    </g>
   </g>
   <g id="text_21">
    <!-- f16 -->
    <g transform="translate(492.0 27.8607518564)scale(0.15 -0.15)">
     <use xlink:href="#BitstreamVeraSans-Roman-66"/>
     <use x="35.205078125" xlink:href="#BitstreamVeraSans-Roman-31"/>
     <use x="98.828125" xlink:href="#BitstreamVeraSans-Roman-36"/>
    </g>
   </g>
   <g id="text_22">
    <!-- bbob-biobj -->
    <defs>
     <path d="M 9.421875 54.6875 
L 18.40625 54.6875 
L 18.40625 -0.984375 
Q 18.40625 -11.421875 14.421875 -16.109375 
Q 10.453125 -20.796875 1.609375 -20.796875 
L -1.8125 -20.796875 
L -1.8125 -13.1875 
L 0.59375 -13.1875 
Q 5.71875 -13.1875 7.5625 -10.8125 
Q 9.421875 -8.453125 9.421875 -0.984375 
z
M 9.421875 75.984375 
L 18.40625 75.984375 
L 18.40625 64.59375 
L 9.421875 64.59375 
z
" id="BitstreamVeraSans-Roman-6a"/>
     <path d="M 48.6875 27.296875 
Q 48.6875 37.203125 44.609375 42.84375 
Q 40.53125 48.484375 33.40625 48.484375 
Q 26.265625 48.484375 22.1875 42.84375 
Q 18.109375 37.203125 18.109375 27.296875 
Q 18.109375 17.390625 22.1875 11.75 
Q 26.265625 6.109375 33.40625 6.109375 
Q 40.53125 6.109375 44.609375 11.75 
Q 48.6875 17.390625 48.6875 27.296875 
M 18.109375 46.390625 
Q 20.953125 51.265625 25.265625 53.625 
Q 29.59375 56 35.59375 56 
Q 45.5625 56 51.78125 48.09375 
Q 58.015625 40.1875 58.015625 27.296875 
Q 58.015625 14.40625 51.78125 6.484375 
Q 45.5625 -1.421875 35.59375 -1.421875 
Q 29.59375 -1.421875 25.265625 0.953125 
Q 20.953125 3.328125 18.109375 8.203125 
L 18.109375 0 
L 9.078125 0 
L 9.078125 75.984375 
L 18.109375 75.984375 
z
" id="BitstreamVeraSans-Roman-62"/>
    </defs>
    <g transform="translate(89.664 33.0273396968)scale(0.1666 -0.1666)">
     <use xlink:href="#BitstreamVeraSans-Roman-62"/>
     <use x="63.4765625" xlink:href="#BitstreamVeraSans-Roman-62"/>
     <use x="126.953125" xlink:href="#BitstreamVeraSans-Roman-6f"/>
     <use x="188.134765625" xlink:href="#BitstreamVeraSans-Roman-62"/>
     <use x="251.611328125" xlink:href="#BitstreamVeraSans-Roman-2d"/>
     <use x="287.6953125" xlink:href="#BitstreamVeraSans-Roman-62"/>
     <use x="351.171875" xlink:href="#BitstreamVeraSans-Roman-69"/>
     <use x="378.955078125" xlink:href="#BitstreamVeraSans-Roman-6f"/>
     <use x="440.13671875" xlink:href="#BitstreamVeraSans-Roman-62"/>
     <use x="503.61328125" xlink:href="#BitstreamVeraSans-Roman-6a"/>
    </g>
    <!-- 1-separable 4-multi-modal, 2-D -->
    <defs>
     <path d="M 11.71875 12.40625 
L 22.015625 12.40625 
L 22.015625 4 
L 14.015625 -11.625 
L 7.71875 -11.625 
L 11.71875 4 
z
" id="BitstreamVeraSans-Roman-2c"/>
     <path d="M 19.671875 64.796875 
L 19.671875 8.109375 
L 31.59375 8.109375 
Q 46.6875 8.109375 53.6875 14.9375 
Q 60.6875 21.78125 60.6875 36.53125 
Q 60.6875 51.171875 53.6875 57.984375 
Q 46.6875 64.796875 31.59375 64.796875 
z
M 9.8125 72.90625 
L 30.078125 72.90625 
Q 51.265625 72.90625 61.171875 64.09375 
Q 71.09375 55.28125 71.09375 36.53125 
Q 71.09375 17.671875 61.125 8.828125 
Q 51.171875 0 30.078125 0 
L 9.8125 0 
z
" id="BitstreamVeraSans-Roman-44"/>
    </defs>
    <g transform="translate(89.664 51.6828953218)scale(0.1666 -0.1666)">
     <use xlink:href="#BitstreamVeraSans-Roman-31"/>
     <use x="63.623046875" xlink:href="#BitstreamVeraSans-Roman-2d"/>
     <use x="99.70703125" xlink:href="#BitstreamVeraSans-Roman-73"/>
     <use x="151.806640625" xlink:href="#BitstreamVeraSans-Roman-65"/>
     <use x="213.330078125" xlink:href="#BitstreamVeraSans-Roman-70"/>
     <use x="276.806640625" xlink:href="#BitstreamVeraSans-Roman-61"/>
     <use x="338.0859375" xlink:href="#BitstreamVeraSans-Roman-72"/>
     <use x="379.19921875" xlink:href="#BitstreamVeraSans-Roman-61"/>
     <use x="440.478515625" xlink:href="#BitstreamVeraSans-Roman-62"/>
     <use x="503.955078125" xlink:href="#BitstreamVeraSans-Roman-6c"/>
     <use x="531.73828125" xlink:href="#BitstreamVeraSans-Roman-65"/>
     <use x="593.26171875" xlink:href="#BitstreamVeraSans-Roman-20"/>
     <use x="625.048828125" xlink:href="#BitstreamVeraSans-Roman-34"/>
     <use x="688.671875" xlink:href="#BitstreamVeraSans-Roman-2d"/>
     <use x="724.755859375" xlink:href="#BitstreamVeraSans-Roman-6d"/>
     <use x="822.16796875" xlink:href="#BitstreamVeraSans-Roman-75"/>
     <use x="885.546875" xlink:href="#BitstreamVeraSans-Roman-6c"/>
     <use x="913.330078125" xlink:href="#BitstreamVeraSans-Roman-74"/>
     <use x="952.5390625" xlink:href="#BitstreamVeraSans-Roman-69"/>
     <use x="980.322265625" xlink:href="#BitstreamVeraSans-Roman-2d"/>
     <use x="1016.40625" xlink:href="#BitstreamVeraSans-Roman-6d"/>
     <use x="1113.81835938" xlink:href="#BitstreamVeraSans-Roman-6f"/>
     <use x="1175.0" xlink:href="#BitstreamVeraSans-Roman-64"/>
     <use x="1238.4765625" xlink:href="#BitstreamVeraSans-Roman-61"/>
     <use x="1299.75585938" xlink:href="#BitstreamVeraSans-Roman-6c"/>
     <use x="1327.5390625" xlink:href="#BitstreamVeraSans-Roman-2c"/>
     <use x="1359.32617188" xlink:href="#BitstreamVeraSans-Roman-20"/>
     <use x="1391.11328125" xlink:href="#BitstreamVeraSans-Roman-32"/>
     <use x="1454.73632812" xlink:href="#BitstreamVeraSans-Roman-2d"/>
     <use x="1490.8203125" xlink:href="#BitstreamVeraSans-Roman-44"/>
    </g>
    <!-- 58 targets in 1..-1.0e-4 -->
    <g transform="translate(89.664 70.3384509468)scale(0.1666 -0.1666)">
     <use xlink:href="#BitstreamVeraSans-Roman-35"/>
     <use x="63.623046875" xlink:href="#BitstreamVeraSans-Roman-38"/>
     <use x="127.24609375" xlink:href="#BitstreamVeraSans-Roman-20"/>
     <use x="159.033203125" xlink:href="#BitstreamVeraSans-Roman-74"/>
     <use x="198.2421875" xlink:href="#BitstreamVeraSans-Roman-61"/>
     <use x="259.521484375" xlink:href="#BitstreamVeraSans-Roman-72"/>
     <use x="300.619140625" xlink:href="#BitstreamVeraSans-Roman-67"/>
     <use x="364.095703125" xlink:href="#BitstreamVeraSans-Roman-65"/>
     <use x="425.619140625" xlink:href="#BitstreamVeraSans-Roman-74"/>
     <use x="464.828125" xlink:href="#BitstreamVeraSans-Roman-73"/>
     <use x="516.927734375" xlink:href="#BitstreamVeraSans-Roman-20"/>
     <use x="548.71484375" xlink:href="#BitstreamVeraSans-Roman-69"/>
     <use x="576.498046875" xlink:href="#BitstreamVeraSans-Roman-6e"/>
     <use x="639.876953125" xlink:href="#BitstreamVeraSans-Roman-20"/>
     <use x="671.6640625" xlink:href="#BitstreamVeraSans-Roman-31"/>
     <use x="735.287109375" xlink:href="#BitstreamVeraSans-Roman-2e"/>
     <use x="767.07421875" xlink:href="#BitstreamVeraSans-Roman-2e"/>
     <use x="798.861328125" xlink:href="#BitstreamVeraSans-Roman-2d"/>
     <use x="834.9453125" xlink:href="#BitstreamVeraSans-Roman-31"/>
     <use x="898.568359375" xlink:href="#BitstreamVeraSans-Roman-2e"/>
     <use x="930.35546875" xlink:href="#BitstreamVeraSans-Roman-30"/>
     <use x="993.978515625" xlink:href="#BitstreamVeraSans-Roman-65"/>
     <use x="1055.50195312" xlink:href="#BitstreamVeraSans-Roman-2d"/>
     <use x="1091.5859375" xlink:href="#BitstreamVeraSans-Roman-34"/>
    </g>
    <!-- 5 instances -->
    <g transform="translate(89.664 88.9940065718)scale(0.1666 -0.1666)">
     <use xlink:href="#BitstreamVeraSans-Roman-35"/>
     <use x="63.623046875" xlink:href="#BitstreamVeraSans-Roman-20"/>
     <use x="95.41015625" xlink:href="#BitstreamVeraSans-Roman-69"/>
     <use x="123.193359375" xlink:href="#BitstreamVeraSans-Roman-6e"/>
     <use x="186.572265625" xlink:href="#BitstreamVeraSans-Roman-73"/>
     <use x="238.671875" xlink:href="#BitstreamVeraSans-Roman-74"/>
     <use x="277.880859375" xlink:href="#BitstreamVeraSans-Roman-61"/>
     <use x="339.16015625" xlink:href="#BitstreamVeraSans-Roman-6e"/>
     <use x="402.5390625" xlink:href="#BitstreamVeraSans-Roman-63"/>
     <use x="457.51953125" xlink:href="#BitstreamVeraSans-Roman-65"/>
     <use x="519.04296875" xlink:href="#BitstreamVeraSans-Roman-73"/>
    </g>
   </g>
   <g id="text_23">
    <!-- 1.2 -->
    <g style="fill:#808080;" transform="translate(300.4484375 353.520655322)scale(0.1 -0.1)">
     <use xlink:href="#BitstreamVeraSans-Roman-31"/>
     <use x="63.623046875" xlink:href="#BitstreamVeraSans-Roman-2e"/>
     <use x="95.41015625" xlink:href="#BitstreamVeraSans-Roman-32"/>
    </g>
   </g>
  </g>
 </g>
 <defs>
  <clipPath id="p5a5896fdc4">
   <rect height="345.6" width="446.4" x="85.2" y="13.4563428218"/>
  </clipPath>
 </defs>
</svg>
