<?xml version="1.0" encoding="utf-8" standalone="no"?>
<!DOCTYPE svg PUBLIC "-//W3C//DTD SVG 1.1//EN"
  "http://www.w3.org/Graphics/SVG/1.1/DTD/svg11.dtd">
<!-- Created with matplotlib (http://matplotlib.org/) -->
<svg height="415pt" version="1.1" viewBox="0 0 538 415" width="538pt" xmlns="http://www.w3.org/2000/svg" xmlns:xlink="http://www.w3.org/1999/xlink">
 <defs>
  <style type="text/css">
*{stroke-linecap:butt;stroke-linejoin:round;stroke-miterlimit:100000;}
  </style>
 </defs>
 <g id="figure_1">
  <g id="patch_1">
   <path d="M 0 415.456343 
L 538.8 415.456343 
L 538.8 0 
L 0 0 
z
" style="fill:#ffffff;"/>
  </g>
  <g id="axes_1">
   <g id="patch_2">
    <path d="M 85.2 359.056343 
L 531.6 359.056343 
L 531.6 13.456343 
L 85.2 13.456343 
z
" style="fill:#ffffff;"/>
   </g>
   <g id="line2d_1">
    <defs>
     <path d="M 0 1.5 
C 0.397805 1.5 0.77937 1.341951 1.06066 1.06066 
C 1.341951 0.77937 1.5 0.397805 1.5 0 
C 1.5 -0.397805 1.341951 -0.77937 1.06066 -1.06066 
C 0.77937 -1.341951 0.397805 -1.5 0 -1.5 
C -0.397805 -1.5 -0.77937 -1.341951 -1.06066 -1.06066 
C -1.341951 -0.77937 -1.5 -0.397805 -1.5 0 
C -1.5 0.397805 -1.341951 0.77937 -1.06066 1.06066 
C -0.77937 1.341951 -0.397805 1.5 0 1.5 
z
" id="m966172f029" style="stroke:#000080;stroke-width:0.5;"/>
    </defs>
    <g>
     <use style="fill:#000080;stroke:#000080;stroke-width:0.5;" x="389.041060952" xlink:href="#m966172f029" y="58.1754961164"/>
     <use style="fill:#000080;stroke:#000080;stroke-width:0.5;" x="389.041060952" xlink:href="#m966172f029" y="58.1754961164"/>
    </g>
   </g>
   <g id="line2d_2">
    <path d="M 60.662335 359.056343 
L 60.662335 331.91807 
L 179.223263 331.91807 
L 179.223263 327.788333 
L 180.823122 327.788333 
L 180.823122 323.068634 
L 181.129788 323.068634 
L 181.129788 314.809159 
L 183.350658 314.809159 
L 183.350658 312.44931 
L 187.222796 312.44931 
L 187.222796 306.549685 
L 194.144998 306.549685 
L 194.144998 305.959723 
L 194.593961 305.959723 
L 194.649452 304.189835 
L 194.760022 304.189835 
L 194.870048 297.700249 
L 194.979534 297.700249 
L 194.979534 282.951187 
L 195.678404 282.951187 
L 195.678404 279.411413 
L 195.836623 279.411413 
L 195.836623 278.82145 
L 196.2015 278.82145 
L 196.2015 277.051563 
L 199.732933 277.051563 
L 199.821041 265.842277 
L 200.470994 265.842277 
L 200.470994 264.662352 
L 201.226766 264.662352 
L 201.268013 257.582802 
L 202.742947 257.582802 
L 202.742947 251.683178 
L 203.351779 251.683178 
L 203.351779 247.553441 
L 204.378864 247.553441 
L 204.378864 245.783553 
L 207.108929 245.783553 
L 207.108929 244.013666 
L 207.980048 244.013666 
L 207.980048 243.423704 
L 208.522629 243.423704 
L 208.522629 241.063854 
L 208.700599 241.063854 
L 208.789055 237.524079 
L 209.312559 237.524079 
L 209.312559 236.934117 
L 209.626541 236.934117 
L 209.626541 235.754192 
L 210.075504 235.754192 
L 210.075504 232.214417 
L 210.461077 232.214417 
L 210.461077 229.854567 
L 213.206767 229.854567 
L 213.206767 227.494718 
L 213.943027 227.494718 
L 214.036285 221.005131 
L 214.33671 221.005131 
L 214.33671 219.235243 
L 216.687657 219.235243 
L 216.687657 215.695469 
L 217.33923 215.695469 
L 217.33923 215.105506 
L 217.598596 215.105506 
L 217.598596 213.925581 
L 218.378261 213.925581 
L 218.378261 212.745657 
L 219.680428 212.745657 
L 219.680428 212.155694 
L 220.19842 212.155694 
L 220.19842 211.565732 
L 220.859477 211.565732 
L 220.859477 209.795844 
L 221.013218 209.795844 
L 221.013218 208.615919 
L 221.71701 208.615919 
L 221.71701 208.025957 
L 222.35125 208.025957 
L 222.35125 206.846032 
L 222.827159 206.846032 
L 222.827159 205.666107 
L 224.344045 205.666107 
L 224.344045 204.486182 
L 225.417712 204.486182 
L 225.501417 199.766483 
L 226.904569 199.766483 
L 226.904569 197.996595 
L 230.28394 197.996595 
L 230.351282 193.866858 
L 230.684981 193.866858 
L 230.684981 192.686933 
L 232.313364 192.686933 
L 232.415772 187.967234 
L 233.453875 187.967234 
L 233.453875 185.607384 
L 234.069525 185.607384 
L 234.069525 185.017422 
L 234.417857 185.017422 
L 234.501771 180.887685 
L 235.089572 180.887685 
L 235.089572 177.937872 
L 236.857805 177.937872 
L 236.857805 177.34791 
L 238.143284 177.34791 
L 238.143284 176.167985 
L 239.396195 176.167985 
L 239.418608 172.62821 
L 241.121774 172.62821 
L 241.121774 172.038248 
L 241.856818 172.038248 
L 241.856818 170.268361 
L 242.883977 170.268361 
L 242.883977 169.678398 
L 242.998778 169.678398 
L 242.998778 167.318548 
L 245.562229 167.318548 
L 245.562229 166.728586 
L 250.86826 166.728586 
L 250.86826 164.958699 
L 251.442233 164.958699 
L 251.442233 163.188811 
L 253.76276 163.188811 
L 253.76276 161.418924 
L 260.323314 161.418924 
L 260.323314 159.649037 
L 262.778247 159.649037 
L 262.778247 158.469112 
L 268.60466 158.469112 
L 268.60466 156.109262 
L 271.50483 156.109262 
L 271.50483 155.519299 
L 275.521905 155.519299 
L 275.521905 153.749412 
L 279.245324 153.749412 
L 279.245324 153.15945 
L 280.349879 153.15945 
L 280.349879 151.389562 
L 280.946399 151.389562 
L 280.946399 150.7996 
L 281.688894 150.7996 
L 281.688894 149.029713 
L 283.800366 149.029713 
L 283.800366 148.43975 
L 286.951727 148.43975 
L 286.951727 147.849788 
L 288.043875 147.849788 
L 288.108969 137.230464 
L 288.166297 137.230464 
L 288.166297 133.100727 
L 289.509309 133.100727 
L 289.509309 129.560952 
L 291.716429 129.560952 
L 291.716429 128.970989 
L 295.350766 128.970989 
L 295.350766 124.841252 
L 295.715827 124.841252 
L 295.715827 124.25129 
L 297.963012 124.25129 
L 297.963012 122.481403 
L 298.258618 122.481403 
L 298.258618 120.711515 
L 298.528666 120.711515 
L 298.633775 119.53159 
L 303.322584 119.53159 
L 303.322584 118.941628 
L 316.718718 118.941628 
L 316.718718 116.581778 
L 316.994637 116.581778 
L 316.994637 113.631966 
L 327.171104 113.631966 
L 327.171104 110.092191 
L 342.451662 110.092191 
L 342.529024 103.602604 
L 342.572248 103.602604 
L 342.642291 99.472867 
L 342.716581 99.472867 
L 342.770257 97.70298 
L 342.911578 97.70298 
L 342.911578 97.113017 
L 343.70056 97.113017 
L 343.70077 95.933093 
L 344.232787 95.933093 
L 344.242909 91.213393 
L 344.553235 91.213393 
L 344.553235 90.033468 
L 344.920553 90.033468 
L 344.920752 88.263581 
L 345.255543 88.263581 
L 345.28865 84.723806 
L 345.938341 84.723806 
L 345.938341 83.543881 
L 348.184754 83.543881 
L 348.184754 82.953919 
L 351.508105 82.953919 
L 351.508105 82.363956 
L 354.588197 82.363956 
L 354.588197 81.773994 
L 357.913859 81.773994 
L 358.016067 78.234219 
L 358.04314 78.234219 
L 358.04314 77.644257 
L 358.793305 77.644257 
L 358.798509 74.694445 
L 359.331982 74.694445 
L 359.349616 73.51452 
L 359.698213 73.51452 
L 359.698213 72.924557 
L 361.325501 72.924557 
L 361.325501 72.334595 
L 366.962737 72.334595 
L 366.975146 70.564707 
L 367.347619 70.564707 
L 367.347619 69.974745 
L 367.533685 69.974745 
L 367.537228 66.43497 
L 367.778417 66.43497 
L 367.778417 65.845008 
L 367.911399 65.845008 
L 367.911399 65.255045 
L 370.375002 65.255045 
L 370.375087 64.075121 
L 373.7996 64.075121 
L 373.801002 62.895196 
L 378.687319 62.895196 
L 378.689396 60.535346 
L 378.909991 60.535346 
L 378.909991 59.945383 
L 386.252008 59.945383 
L 386.252008 59.355421 
L 389.039736 59.355421 
L 389.041061 58.175496 
L 445.2 58.175496 
L 445.2 58.175496 
" style="fill:none;stroke:#000080;stroke-linecap:square;stroke-width:1.5;"/>
   </g>
   <g id="line2d_3">
    <defs>
     <path d="M 0 6 
C 1.591219 6 3.117479 5.367802 4.242641 4.242641 
C 5.367802 3.117479 6 1.591219 6 0 
C 6 -1.591219 5.367802 -3.117479 4.242641 -4.242641 
C 3.117479 -5.367802 1.591219 -6 0 -6 
C -1.591219 -6 -3.117479 -5.367802 -4.242641 -4.242641 
C -5.367802 -3.117479 -6 -1.591219 -6 0 
C -6 1.591219 -5.367802 3.117479 -4.242641 4.242641 
C -3.117479 5.367802 -1.591219 6 0 6 
z
" id="m9f19c02ec7" style="stroke:#000080;stroke-width:1.5;"/>
    </defs>
    <g>
     <use style="fill:none;stroke:#000080;stroke-width:1.5;" x="179.223263043" xlink:href="#m9f19c02ec7" y="327.788333262"/>
     <use style="fill:none;stroke:#000080;stroke-width:1.5;" x="222.827158904" xlink:href="#m9f19c02ec7" y="205.666107247"/>
     <use style="fill:none;stroke:#000080;stroke-width:1.5;" x="268.604659827" xlink:href="#m9f19c02ec7" y="156.109261907"/>
     <use style="fill:none;stroke:#000080;stroke-width:1.5;" x="359.698212935" xlink:href="#m9f19c02ec7" y="73.514519674"/>
     <use style="fill:none;stroke:#000080;stroke-width:1.5;" x="389.041060952" xlink:href="#m9f19c02ec7" y="58.1754961164"/>
     <use style="fill:none;stroke:#000080;stroke-width:1.5;" x="445.2" xlink:href="#m9f19c02ec7" y="58.1754961164"/>
    </g>
   </g>
   <g id="line2d_4"/>
   <g id="line2d_5">
    <path clip-path="url(#pc951e68539)" d="M 342.351045 110.092191 
" style="fill:none;stroke:#000080;stroke-linecap:square;"/>
    <defs>
     <path d="M -12 12 
L 12 -12 
M -12 -12 
L 12 12 
" id="m2b9d41c87f" style="stroke:#000080;stroke-width:3.0;"/>
    </defs>
    <g clip-path="url(#pc951e68539)">
     <use style="fill:#000080;stroke:#000080;stroke-width:3.0;" x="342.351045195" xlink:href="#m2b9d41c87f" y="110.092191234"/>
    </g>
   </g>
   <g id="line2d_6">
    <defs>
     <path d="M 0 1.5 
C 0.397805 1.5 0.77937 1.341951 1.06066 1.06066 
C 1.341951 0.77937 1.5 0.397805 1.5 0 
C 1.5 -0.397805 1.341951 -0.77937 1.06066 -1.06066 
C 0.77937 -1.341951 0.397805 -1.5 0 -1.5 
C -0.397805 -1.5 -0.77937 -1.341951 -1.06066 -1.06066 
C -1.341951 -0.77937 -1.5 -0.397805 -1.5 0 
C -1.5 0.397805 -1.341951 0.77937 -1.06066 1.06066 
C -0.77937 1.341951 -0.397805 1.5 0 1.5 
z
" id="mc88d0f50ed" style="stroke:#ff00ff;stroke-width:0.5;"/>
    </defs>
    <g>
     <use style="fill:#ff00ff;stroke:#ff00ff;stroke-width:0.5;" x="383.014432508" xlink:href="#mc88d0f50ed" y="58.1754961164"/>
     <use style="fill:#ff00ff;stroke:#ff00ff;stroke-width:0.5;" x="383.014432508" xlink:href="#mc88d0f50ed" y="58.1754961164"/>
    </g>
   </g>
   <g id="line2d_7">
    <path d="M 60.662335 359.056343 
L 60.662335 333.687958 
L 196.913842 333.687958 
L 196.913842 333.097995 
L 199.864964 333.097995 
L 199.864964 331.328108 
L 201.019382 331.328108 
L 201.061013 328.968258 
L 201.473112 328.968258 
L 201.473112 327.788333 
L 201.635846 327.788333 
L 201.635846 325.428483 
L 202.037568 325.428483 
L 202.037568 324.838521 
L 203.797754 324.838521 
L 203.871225 316.579047 
L 204.017446 316.579047 
L 204.017446 314.809159 
L 204.557403 314.809159 
L 204.557403 310.08946 
L 205.802408 310.08946 
L 205.903093 300.650061 
L 207.140633 300.650061 
L 207.140633 295.340399 
L 207.392654 295.340399 
L 207.392654 291.800624 
L 207.67282 291.800624 
L 207.67282 287.080925 
L 207.888323 287.080925 
L 207.888323 286.490962 
L 208.04099 286.490962 
L 208.04099 282.361225 
L 208.192621 282.361225 
L 208.192621 275.871638 
L 208.611791 275.871638 
L 208.700599 271.741901 
L 208.730124 271.741901 
L 208.730124 269.972014 
L 209.139418 269.972014 
L 209.139418 268.792089 
L 209.341286 268.792089 
L 209.341286 267.612164 
L 209.512876 267.612164 
L 209.512876 264.662352 
L 209.85215 264.662352 
L 209.93617 259.942652 
L 210.351591 259.942652 
L 210.461077 251.683178 
L 210.597184 251.683178 
L 210.705476 245.193591 
L 211.027236 245.193591 
L 211.027236 244.013666 
L 211.423026 244.013666 
L 211.501349 238.704004 
L 211.837611 238.704004 
L 211.837611 238.114042 
L 212.118239 238.114042 
L 212.118239 237.524079 
L 212.718548 237.524079 
L 212.718548 235.164229 
L 212.866138 235.164229 
L 212.866138 231.624455 
L 213.012758 231.624455 
L 213.061419 224.544905 
L 213.230901 224.544905 
L 213.279089 221.595093 
L 213.351176 221.595093 
L 213.399106 219.235243 
L 213.660895 219.235243 
L 213.660895 215.105506 
L 213.943027 215.105506 
L 214.013007 212.745657 
L 215.037212 212.745657 
L 215.103851 209.205882 
L 215.477762 209.205882 
L 215.477762 206.846032 
L 215.673209 206.846032 
L 215.673209 190.917046 
L 215.802564 190.917046 
L 215.802564 189.737121 
L 215.931173 189.737121 
L 215.931173 187.967234 
L 216.893323 187.967234 
L 216.893323 185.607384 
L 217.03617 185.607384 
L 217.03617 185.017422 
L 217.157888 185.017422 
L 217.157888 184.427459 
L 217.598596 184.427459 
L 217.598596 182.067609 
L 217.854984 182.067609 
L 217.854984 181.477647 
L 218.644839 181.477647 
L 218.644839 179.117797 
L 218.833322 179.117797 
L 218.833322 176.167985 
L 219.698491 176.167985 
L 219.698491 175.578023 
L 220.216069 175.578023 
L 220.216069 170.858323 
L 220.426779 170.858323 
L 220.426779 167.908511 
L 220.548782 167.908511 
L 220.548782 165.548661 
L 220.739164 165.548661 
L 220.842329 160.828961 
L 221.098175 160.828961 
L 221.098175 153.749412 
L 221.88136 153.749412 
L 221.963084 151.389562 
L 222.093224 151.389562 
L 222.093224 149.029713 
L 222.590472 149.029713 
L 222.590472 147.849788 
L 222.983568 147.849788 
L 222.983568 146.0799 
L 223.628782 146.0799 
L 223.628782 143.720051 
L 223.794731 143.720051 
L 223.794731 141.950163 
L 224.894485 141.950163 
L 224.894485 138.410389 
L 227.62512 138.410389 
L 227.62512 136.050539 
L 229.366085 136.050539 
L 229.366085 132.510764 
L 230.817077 132.510764 
L 230.817077 131.920802 
L 231.498046 131.920802 
L 231.498046 130.740877 
L 232.568509 130.740877 
L 232.568509 129.560952 
L 234.286693 129.560952 
L 234.286693 127.791065 
L 234.650178 127.791065 
L 234.650178 126.61114 
L 237.313725 126.61114 
L 237.313725 124.25129 
L 237.469086 124.25129 
L 237.469086 121.301478 
L 240.102503 121.301478 
L 240.102503 118.941628 
L 244.741969 118.941628 
L 244.741969 117.761703 
L 245.894377 117.761703 
L 245.894377 115.401853 
L 248.847464 115.401853 
L 248.847464 114.221928 
L 258.101804 114.221928 
L 258.101804 109.502229 
L 260.317455 109.502229 
L 260.317455 107.142379 
L 273.447058 107.142379 
L 273.447058 105.962454 
L 276.4415 105.962454 
L 276.4415 104.192567 
L 288.473185 104.192567 
L 288.473185 101.242755 
L 290.072982 101.242755 
L 290.072982 99.472867 
L 291.27175 99.472867 
L 291.27175 95.933093 
L 303.493224 95.933093 
L 303.493224 94.753168 
L 303.702921 94.753168 
L 303.702921 94.163205 
L 308.427599 94.163205 
L 308.427599 91.213393 
L 308.662578 91.213393 
L 308.662578 88.263581 
L 309.158824 88.263581 
L 309.158824 87.083656 
L 311.849494 87.083656 
L 311.849494 85.903731 
L 320.997767 85.903731 
L 320.997767 83.543881 
L 324.022037 83.543881 
L 324.022037 82.363956 
L 326.337034 82.363956 
L 326.381653 80.004107 
L 333.872977 80.004107 
L 333.872977 78.824182 
L 341.250207 78.824182 
L 341.250207 76.464332 
L 342.452403 76.464332 
L 342.552786 71.744632 
L 342.631857 71.744632 
L 342.646625 69.974745 
L 342.859042 69.974745 
L 342.859042 68.79482 
L 343.806658 68.79482 
L 343.806658 68.204858 
L 344.26799 68.204858 
L 344.26799 67.614895 
L 344.511858 67.614895 
L 344.511858 67.024933 
L 345.963679 67.024933 
L 345.963679 66.43497 
L 346.906666 66.43497 
L 346.906666 65.845008 
L 347.428062 65.845008 
L 347.428062 64.075121 
L 349.616181 64.075121 
L 349.616181 63.485158 
L 351.231084 63.485158 
L 351.245782 61.125308 
L 357.914415 61.125308 
L 357.914415 60.535346 
L 368.462246 60.535346 
L 368.462246 59.945383 
L 373.442235 59.945383 
L 373.442235 59.355421 
L 375.363699 59.355421 
L 375.363699 58.765459 
L 383.014433 58.765459 
L 383.014433 58.175496 
L 445.2 58.175496 
L 445.2 58.175496 
" style="fill:none;stroke:#ff00ff;stroke-linecap:square;stroke-width:1.5;"/>
   </g>
   <g id="line2d_8">
    <defs>
     <path d="M -0 8.485281 
L 5.091169 0 
L 0 -8.485281 
L -5.091169 -0 
z
" id="m5cabf4740c" style="stroke:#ff00ff;stroke-linejoin:miter;stroke-width:1.5;"/>
    </defs>
    <g>
     <use style="fill:none;stroke:#ff00ff;stroke-linejoin:miter;stroke-width:1.5;" x="60.6623354716" xlink:href="#m5cabf4740c" y="333.687957707"/>
     <use style="fill:none;stroke:#ff00ff;stroke-linejoin:miter;stroke-width:1.5;" x="215.477761813" xlink:href="#m5cabf4740c" y="206.846032136"/>
     <use style="fill:none;stroke:#ff00ff;stroke-linejoin:miter;stroke-width:1.5;" x="237.313724545" xlink:href="#m5cabf4740c" y="126.611139681"/>
     <use style="fill:none;stroke:#ff00ff;stroke-linejoin:miter;stroke-width:1.5;" x="344.51185849" xlink:href="#m5cabf4740c" y="67.0249327842"/>
     <use style="fill:none;stroke:#ff00ff;stroke-linejoin:miter;stroke-width:1.5;" x="383.014432508" xlink:href="#m5cabf4740c" y="58.1754961164"/>
     <use style="fill:none;stroke:#ff00ff;stroke-linejoin:miter;stroke-width:1.5;" x="445.2" xlink:href="#m5cabf4740c" y="58.1754961164"/>
    </g>
   </g>
   <g id="line2d_9"/>
   <g id="line2d_10">
    <path clip-path="url(#pc951e68539)" d="M 342.35112 76.464332 
" style="fill:none;stroke:#ff00ff;stroke-linecap:square;"/>
    <defs>
     <path d="M -12 12 
L 12 -12 
M -12 -12 
L 12 12 
" id="mbbf04326a1" style="stroke:#ff00ff;stroke-width:3.0;"/>
    </defs>
    <g clip-path="url(#pc951e68539)">
     <use style="fill:#ff00ff;stroke:#ff00ff;stroke-width:3.0;" x="342.351119618" xlink:href="#mbbf04326a1" y="76.4643318966"/>
    </g>
   </g>
   <g id="line2d_11">
    <defs>
     <path d="M 0 1.5 
C 0.397805 1.5 0.77937 1.341951 1.06066 1.06066 
C 1.341951 0.77937 1.5 0.397805 1.5 0 
C 1.5 -0.397805 1.341951 -0.77937 1.06066 -1.06066 
C 0.77937 -1.341951 0.397805 -1.5 0 -1.5 
C -0.397805 -1.5 -0.77937 -1.341951 -1.06066 -1.06066 
C -1.341951 -0.77937 -1.5 -0.397805 -1.5 0 
C -1.5 0.397805 -1.341951 0.77937 -1.06066 1.06066 
C -0.77937 1.341951 -0.397805 1.5 0 1.5 
z
" id="maa523111b6" style="stroke:#ffa500;stroke-width:0.5;"/>
    </defs>
    <g>
     <use style="fill:#ffa500;stroke:#ffa500;stroke-width:0.5;" x="406.355321442" xlink:href="#maa523111b6" y="128.970989459"/>
     <use style="fill:#ffa500;stroke:#ffa500;stroke-width:0.5;" x="406.355321442" xlink:href="#maa523111b6" y="128.970989459"/>
    </g>
   </g>
   <g id="line2d_12">
    <path d="M 60.662335 359.056343 
L 60.662335 349.026981 
L 190.320865 349.026981 
L 190.320865 343.127357 
L 191.113913 343.127357 
L 191.113913 342.537394 
L 195.731269 342.537394 
L 195.731269 341.947432 
L 199.196864 341.947432 
L 199.196864 337.817695 
L 199.466507 337.817695 
L 199.466507 336.047807 
L 200.72577 336.047807 
L 200.72577 334.867883 
L 202.314536 334.867883 
L 202.314536 332.508033 
L 202.819965 332.508033 
L 202.819965 328.968258 
L 204.162715 328.968258 
L 204.162715 328.378296 
L 204.342984 328.378296 
L 204.342984 327.788333 
L 204.663845 327.788333 
L 204.734526 321.888709 
L 205.257621 321.888709 
L 205.257621 319.528859 
L 205.701268 319.528859 
L 205.701268 318.348934 
L 206.136273 318.348934 
L 206.136273 317.758972 
L 207.235474 317.758972 
L 207.235474 315.399122 
L 207.548735 315.399122 
L 207.548735 313.039272 
L 207.91894 313.039272 
L 208.01054 310.679422 
L 208.313189 310.679422 
L 208.403189 308.319573 
L 208.759609 308.319573 
L 208.818463 303.009911 
L 210.019874 303.009911 
L 210.019874 300.060098 
L 210.597184 300.060098 
L 210.597184 299.470136 
L 211.631281 299.470136 
L 211.631281 296.520324 
L 212.295002 296.520324 
L 212.295002 295.930361 
L 213.037102 295.930361 
L 213.037102 291.210662 
L 213.470808 291.210662 
L 213.470808 290.030737 
L 213.802407 290.030737 
L 213.802407 287.080925 
L 213.919652 287.080925 
L 213.919652 286.490962 
L 215.543101 286.490962 
L 215.586555 281.1813 
L 215.781057 281.1813 
L 215.888386 279.411413 
L 215.995201 279.411413 
L 215.995201 277.641525 
L 217.015819 277.641525 
L 217.015819 275.871638 
L 217.218499 275.871638 
L 217.218499 275.281676 
L 217.697555 275.281676 
L 217.697555 272.921826 
L 218.549997 272.921826 
L 218.549997 271.741901 
L 219.535394 271.741901 
L 219.535394 268.202126 
L 219.752594 268.202126 
L 219.842474 262.892464 
L 220.962089 262.892464 
L 220.979145 261.122577 
L 222.15801 261.122577 
L 222.15801 258.762727 
L 222.3993 258.762727 
L 222.3993 257.582802 
L 223.308505 257.582802 
L 223.308505 256.402877 
L 223.56813 256.402877 
L 223.628782 252.27314 
L 223.794731 252.27314 
L 223.794731 250.503253 
L 224.822829 250.503253 
L 224.822829 249.323328 
L 224.951644 249.323328 
L 224.951644 248.733366 
L 225.1647 248.733366 
L 225.1647 247.553441 
L 225.277504 247.553441 
L 225.277504 244.603629 
L 226.508779 244.603629 
L 226.508779 241.063854 
L 227.229119 241.063854 
L 227.229119 239.293967 
L 229.154265 239.293967 
L 229.154265 236.934117 
L 229.552699 236.934117 
L 229.552699 235.754192 
L 229.737766 235.754192 
L 229.737766 233.394342 
L 230.193833 233.394342 
L 230.193833 232.80438 
L 232.880894 232.80438 
L 232.880894 229.854567 
L 233.945837 229.854567 
L 233.945837 228.08468 
L 235.044203 228.08468 
L 235.044203 227.494718 
L 235.413536 227.494718 
L 235.413536 226.314793 
L 237.485377 226.314793 
L 237.485377 225.72483 
L 238.68226 225.72483 
L 238.68226 225.134868 
L 241.580614 225.134868 
L 241.580614 223.954943 
L 245.10961 223.954943 
L 245.10961 222.775018 
L 248.085541 222.775018 
L 248.085541 221.005131 
L 253.609009 221.005131 
L 253.609009 220.415168 
L 255.896883 220.415168 
L 255.896883 217.465356 
L 256.499287 217.465356 
L 256.499287 216.875394 
L 261.490181 216.875394 
L 261.490181 216.285431 
L 262.201464 216.285431 
L 262.201464 213.925581 
L 263.155517 213.925581 
L 263.155517 212.745657 
L 265.615574 212.745657 
L 265.615574 208.025957 
L 272.402601 208.025957 
L 272.402601 206.25607 
L 275.901299 206.25607 
L 275.901299 205.076145 
L 276.539489 205.076145 
L 276.539489 202.126333 
L 278.00115 202.126333 
L 278.00115 200.946408 
L 281.102893 200.946408 
L 281.102893 200.356445 
L 282.078194 200.356445 
L 282.078194 199.17652 
L 290.149387 199.17652 
L 290.149387 197.406633 
L 291.76235 197.406633 
L 291.76235 195.046783 
L 292.001185 195.046783 
L 292.001185 193.866858 
L 292.77615 193.866858 
L 292.77615 193.276896 
L 293.722957 193.276896 
L 293.722957 192.686933 
L 294.09085 192.686933 
L 294.155981 190.327084 
L 294.688545 190.327084 
L 294.688545 188.557196 
L 295.026136 188.557196 
L 295.026136 187.377271 
L 295.474331 187.377271 
L 295.474331 184.427459 
L 296.799986 184.427459 
L 296.878788 180.887685 
L 297.113539 180.887685 
L 297.113539 180.297722 
L 298.06 180.297722 
L 298.06 177.937872 
L 298.376733 177.937872 
L 298.376733 173.808135 
L 298.736294 173.808135 
L 298.736294 172.038248 
L 299.10461 172.038248 
L 299.10461 170.858323 
L 300.587196 170.858323 
L 300.587196 169.678398 
L 301.781527 169.678398 
L 301.781527 168.498473 
L 304.390605 168.498473 
L 304.390605 167.318548 
L 310.442866 167.318548 
L 310.442866 164.958699 
L 315.913457 164.958699 
L 315.913457 163.188811 
L 320.673267 163.188811 
L 320.673267 161.418924 
L 323.451244 161.418924 
L 323.451244 160.238999 
L 324.40127 160.238999 
L 324.40127 158.469112 
L 329.393325 158.469112 
L 329.393325 157.289187 
L 330.18836 157.289187 
L 330.18836 156.699224 
L 333.326456 156.699224 
L 333.326456 155.519299 
L 337.414775 155.519299 
L 337.414775 154.929337 
L 339.714613 154.929337 
L 339.803459 150.209637 
L 342.524889 150.209637 
L 342.524889 149.619675 
L 342.824532 149.619675 
L 342.824532 149.029713 
L 343.059294 149.029713 
L 343.059294 148.43975 
L 343.80631 148.43975 
L 343.80631 147.849788 
L 344.655099 147.849788 
L 344.749684 146.0799 
L 344.787353 146.0799 
L 344.78762 144.899975 
L 348.316649 144.899975 
L 348.316649 144.310013 
L 352.280658 144.310013 
L 352.280849 143.130088 
L 353.77334 143.130088 
L 353.77334 141.950163 
L 355.500711 141.950163 
L 355.500711 141.360201 
L 356.553407 141.360201 
L 356.553525 140.180276 
L 357.259648 140.180276 
L 357.259763 139.000351 
L 359.08412 139.000351 
L 359.08412 138.410389 
L 362.344468 138.410389 
L 362.344559 136.640501 
L 363.344801 136.640501 
L 363.344801 136.050539 
L 370.710398 136.050539 
L 370.71044 134.870614 
L 372.683964 134.870614 
L 372.683964 134.280651 
L 373.948824 134.280651 
L 373.948951 133.100727 
L 375.684041 133.100727 
L 375.684041 132.510764 
L 378.070929 132.510764 
L 378.070929 131.920802 
L 378.807351 131.920802 
L 378.807351 131.330839 
L 380.668714 131.330839 
L 380.668714 130.740877 
L 384.36302 130.740877 
L 384.36302 130.150914 
L 386.17839 130.150914 
L 386.17839 129.560952 
L 406.355321 129.560952 
L 406.355321 128.970989 
L 445.2 128.970989 
L 445.2 128.970989 
" style="fill:none;stroke:#ffa500;stroke-linecap:square;stroke-width:1.5;"/>
   </g>
   <g id="line2d_13">
    <defs>
     <path d="M 0 -6 
L -1.347084 -1.854102 
L -5.706339 -1.854102 
L -2.179628 0.708204 
L -3.526712 4.854102 
L -0 2.291796 
L 3.526712 4.854102 
L 2.179628 0.708204 
L 5.706339 -1.854102 
L 1.347084 -1.854102 
z
" id="m8ff242161a" style="stroke:#ffa500;stroke-linejoin:bevel;stroke-width:1.5;"/>
    </defs>
    <g>
     <use style="fill:none;stroke:#ffa500;stroke-linejoin:bevel;stroke-width:1.5;" x="202.819965137" xlink:href="#m8ff242161a" y="328.968258151"/>
     <use style="fill:none;stroke:#ffa500;stroke-linejoin:bevel;stroke-width:1.5;" x="229.154264736" xlink:href="#m8ff242161a" y="239.293966584"/>
     <use style="fill:none;stroke:#ffa500;stroke-linejoin:bevel;stroke-width:1.5;" x="315.913457401" xlink:href="#m8ff242161a" y="163.188811241"/>
     <use style="fill:none;stroke:#ffa500;stroke-linejoin:bevel;stroke-width:1.5;" x="406.355321442" xlink:href="#m8ff242161a" y="129.560951903"/>
     <use style="fill:none;stroke:#ffa500;stroke-linejoin:bevel;stroke-width:1.5;" x="406.355321442" xlink:href="#m8ff242161a" y="128.970989459"/>
     <use style="fill:none;stroke:#ffa500;stroke-linejoin:bevel;stroke-width:1.5;" x="445.2" xlink:href="#m8ff242161a" y="128.970989459"/>
    </g>
   </g>
   <g id="line2d_14"/>
   <g id="line2d_15">
    <path clip-path="url(#pc951e68539)" d="M 342.351417 150.209637 
" style="fill:none;stroke:#ffa500;stroke-linecap:square;"/>
    <defs>
     <path d="M -12 12 
L 12 -12 
M -12 -12 
L 12 12 
" id="me905cd0516" style="stroke:#ffa500;stroke-width:3.0;"/>
    </defs>
    <g clip-path="url(#pc951e68539)">
     <use style="fill:#ffa500;stroke:#ffa500;stroke-width:3.0;" x="342.351417308" xlink:href="#me905cd0516" y="150.209637462"/>
    </g>
   </g>
   <g id="line2d_16">
    <defs>
     <path d="M 0 1.5 
C 0.397805 1.5 0.77937 1.341951 1.06066 1.06066 
C 1.341951 0.77937 1.5 0.397805 1.5 0 
C 1.5 -0.397805 1.341951 -0.77937 1.06066 -1.06066 
C 0.77937 -1.341951 0.397805 -1.5 0 -1.5 
C -0.397805 -1.5 -0.77937 -1.341951 -1.06066 -1.06066 
C -1.341951 -0.77937 -1.5 -0.397805 -1.5 0 
C -1.5 0.397805 -1.341951 0.77937 -1.06066 1.06066 
C -0.77937 1.341951 -0.397805 1.5 0 1.5 
z
" id="m1d9e54e837" style="stroke:#6495ed;stroke-width:0.5;"/>
    </defs>
    <g>
     <use style="fill:#6495ed;stroke:#6495ed;stroke-width:0.5;" x="407.882800888" xlink:href="#m1d9e54e837" y="99.4728672328"/>
     <use style="fill:#6495ed;stroke:#6495ed;stroke-width:0.5;" x="407.882800888" xlink:href="#m1d9e54e837" y="99.4728672328"/>
    </g>
   </g>
   <g id="line2d_17">
    <path d="M 60.662335 359.056343 
L 60.662335 354.336643 
L 107.106963 354.336643 
L 107.106963 352.566756 
L 194.704806 352.566756 
L 194.704806 351.386831 
L 195.034077 351.386831 
L 195.034077 349.616944 
L 196.81346 349.616944 
L 196.81346 349.026981 
L 197.458026 349.026981 
L 197.555559 346.667131 
L 197.652669 346.667131 
L 197.652669 339.587582 
L 199.600118 339.587582 
L 199.600118 336.63777 
L 199.864964 336.63777 
L 199.864964 335.457845 
L 200.299514 335.457845 
L 200.299514 333.097995 
L 200.556243 333.097995 
L 200.556243 324.838521 
L 201.102567 324.838521 
L 201.102567 323.658596 
L 203.23888 323.658596 
L 203.23888 320.118821 
L 204.162715 320.118821 
L 204.162715 318.938897 
L 204.521809 318.938897 
L 204.521809 317.758972 
L 205.360786 317.758972 
L 205.360786 314.219197 
L 205.599667 314.219197 
L 205.633585 306.549685 
L 205.802408 306.549685 
L 205.802408 305.36976 
L 207.172292 305.36976 
L 207.266999 298.880173 
L 207.486434 298.880173 
L 207.486434 297.110286 
L 207.91894 297.110286 
L 207.91894 296.520324 
L 208.58211 296.520324 
L 208.58211 295.930361 
L 209.283795 295.930361 
L 209.283795 291.800624 
L 210.186348 291.800624 
L 210.186348 290.620699 
L 210.433756 290.620699 
L 210.433756 287.080925 
L 210.678452 287.080925 
L 210.732467 284.721075 
L 210.866936 284.721075 
L 210.920497 274.101751 
L 211.080415 274.101751 
L 211.080415 269.972014 
L 211.657176 269.972014 
L 211.657176 268.792089 
L 212.644386 268.792089 
L 212.644386 267.612164 
L 212.915118 267.612164 
L 213.012758 264.662352 
L 213.279089 264.662352 
L 213.279089 261.712539 
L 213.494657 261.712539 
L 213.566054 258.172765 
L 214.059538 258.172765 
L 214.059538 255.812915 
L 214.359653 255.812915 
L 214.359653 254.63299 
L 214.542355 254.63299 
L 214.542355 252.863103 
L 215.08166 252.863103 
L 215.08166 249.913291 
L 215.236536 249.913291 
L 215.236536 247.553441 
L 215.673209 247.553441 
L 215.673209 246.373516 
L 215.888386 246.373516 
L 215.888386 244.013666 
L 216.037785 244.013666 
L 216.143891 236.344154 
L 216.333619 236.344154 
L 216.333619 232.80438 
L 217.17811 232.80438 
L 217.17811 232.214417 
L 218.050223 232.214417 
L 218.050223 230.44453 
L 218.339917 230.44453 
L 218.339917 229.264605 
L 218.96432 229.264605 
L 218.96432 228.08468 
L 219.075996 228.08468 
L 219.075996 226.314793 
L 219.224034 226.314793 
L 219.224034 225.72483 
L 219.589892 225.72483 
L 219.589892 225.134868 
L 220.513992 225.134868 
L 220.513992 224.544905 
L 221.04724 224.544905 
L 221.04724 222.185056 
L 221.468194 222.185056 
L 221.484868 218.055319 
L 221.88136 218.055319 
L 221.88136 216.285431 
L 222.858528 216.285431 
L 222.858528 214.515544 
L 224.152578 214.515544 
L 224.152578 213.335619 
L 225.956268 213.335619 
L 225.956268 209.795844 
L 228.200091 209.795844 
L 228.200091 208.615919 
L 228.433326 208.615919 
L 228.433326 206.846032 
L 228.964278 206.846032 
L 228.964278 205.666107 
L 232.024098 205.666107 
L 232.024098 204.486182 
L 233.405055 204.486182 
L 233.405055 202.716295 
L 234.548254 202.716295 
L 234.548254 201.53637 
L 237.379272 201.53637 
L 237.379272 200.356445 
L 239.744783 200.356445 
L 239.744783 199.17652 
L 240.716812 199.17652 
L 240.716812 197.996595 
L 242.457918 197.996595 
L 242.457918 195.636746 
L 244.718421 195.636746 
L 244.718421 193.866858 
L 246.172043 193.866858 
L 246.172043 192.686933 
L 249.076395 192.686933 
L 249.076395 190.917046 
L 249.862003 190.917046 
L 249.862003 189.737121 
L 252.823968 189.737121 
L 252.823968 188.557196 
L 253.938859 188.557196 
L 253.938859 187.377271 
L 256.785927 187.377271 
L 256.785927 185.607384 
L 261.038099 185.607384 
L 261.038099 183.247534 
L 266.398945 183.247534 
L 266.398945 182.657572 
L 271.769551 182.657572 
L 271.769551 181.477647 
L 272.010354 181.477647 
L 272.010354 179.70776 
L 272.492803 179.70776 
L 272.492803 174.98806 
L 273.321391 174.98806 
L 273.321391 173.218173 
L 276.679336 173.218173 
L 276.679336 170.858323 
L 277.526287 170.858323 
L 277.526287 170.268361 
L 283.623583 170.268361 
L 283.623583 166.728586 
L 284.752348 166.728586 
L 284.752348 164.368736 
L 286.587832 164.368736 
L 286.587832 162.008886 
L 291.270285 162.008886 
L 291.270285 157.879149 
L 292.400389 157.879149 
L 292.400389 157.289187 
L 295.032947 157.289187 
L 295.102182 153.749412 
L 299.046231 153.749412 
L 299.046231 152.569487 
L 300.227513 152.569487 
L 300.227513 151.979525 
L 301.050214 151.979525 
L 301.050214 150.7996 
L 301.370899 150.7996 
L 301.370899 149.029713 
L 301.899297 149.029713 
L 301.899297 148.43975 
L 305.032437 148.43975 
L 305.032437 147.259825 
L 309.06521 147.259825 
L 309.06521 144.899975 
L 311.914718 144.899975 
L 311.914718 144.310013 
L 313.218609 144.310013 
L 313.218609 142.540126 
L 313.792347 142.540126 
L 313.792347 140.180276 
L 314.845201 140.180276 
L 314.845201 139.590313 
L 317.354418 139.590313 
L 317.354418 138.410389 
L 326.621643 138.410389 
L 326.621643 136.640501 
L 328.247024 136.640501 
L 328.247024 134.280651 
L 328.718383 134.280651 
L 328.718383 133.100727 
L 335.542552 133.100727 
L 335.542552 131.330839 
L 337.439083 131.330839 
L 337.439083 130.150914 
L 338.548579 130.150914 
L 338.548579 128.381027 
L 340.420309 128.381027 
L 340.420309 126.61114 
L 340.952781 126.61114 
L 340.952781 123.661327 
L 347.441872 123.661327 
L 347.441872 123.071365 
L 347.837543 123.071365 
L 347.837543 122.481403 
L 348.071094 122.481403 
L 348.071094 121.89144 
L 348.663111 121.89144 
L 348.663167 120.711515 
L 352.041053 120.711515 
L 352.041101 119.53159 
L 355.511531 119.53159 
L 355.511737 116.581778 
L 356.01258 116.581778 
L 356.01258 115.401853 
L 356.888464 115.401853 
L 356.888464 114.221928 
L 357.14478 114.221928 
L 357.14478 113.631966 
L 360.523029 113.631966 
L 360.523029 113.042003 
L 361.21115 113.042003 
L 361.211214 110.682154 
L 365.368546 110.682154 
L 365.368812 108.322304 
L 365.692231 108.322304 
L 365.692231 107.732341 
L 366.263698 107.732341 
L 366.264004 106.552417 
L 372.184052 106.552417 
L 372.184169 104.192567 
L 381.623486 104.192567 
L 381.623486 103.012642 
L 388.56378 103.012642 
L 388.56378 102.422679 
L 390.93145 102.422679 
L 390.931526 101.242755 
L 391.22045 101.242755 
L 391.22045 100.652792 
L 393.594445 100.652792 
L 393.594445 100.06283 
L 407.882801 100.06283 
L 407.882801 99.472867 
L 445.2 99.472867 
L 445.2 99.472867 
" style="fill:none;stroke:#6495ed;stroke-linecap:square;stroke-width:1.5;"/>
   </g>
   <g id="line2d_18">
    <defs>
     <path d="M -0 6 
L 6 -6 
L -6 -6 
z
" id="m40b65efc75" style="stroke:#6495ed;stroke-linejoin:miter;stroke-width:1.5;"/>
    </defs>
    <g>
     <use style="fill:none;stroke:#6495ed;stroke-linejoin:miter;stroke-width:1.5;" x="204.162715336" xlink:href="#m40b65efc75" y="318.938896594"/>
     <use style="fill:none;stroke:#6495ed;stroke-linejoin:miter;stroke-width:1.5;" x="221.047239969" xlink:href="#m40b65efc75" y="222.185055693"/>
     <use style="fill:none;stroke:#6495ed;stroke-linejoin:miter;stroke-width:1.5;" x="295.102182464" xlink:href="#m40b65efc75" y="154.929337018"/>
     <use style="fill:none;stroke:#6495ed;stroke-linejoin:miter;stroke-width:1.5;" x="381.623485936" xlink:href="#m40b65efc75" y="103.0126419"/>
     <use style="fill:none;stroke:#6495ed;stroke-linejoin:miter;stroke-width:1.5;" x="407.882800888" xlink:href="#m40b65efc75" y="99.4728672328"/>
     <use style="fill:none;stroke:#6495ed;stroke-linejoin:miter;stroke-width:1.5;" x="445.2" xlink:href="#m40b65efc75" y="99.4728672328"/>
    </g>
   </g>
   <g id="line2d_19"/>
   <g id="line2d_20">
    <path clip-path="url(#pc951e68539)" d="M 342.351641 123.661327 
" style="fill:none;stroke:#6495ed;stroke-linecap:square;"/>
    <defs>
     <path d="M -12 12 
L 12 -12 
M -12 -12 
L 12 12 
" id="m2c7a3fe384" style="stroke:#6495ed;stroke-width:3.0;"/>
    </defs>
    <g clip-path="url(#pc951e68539)">
     <use style="fill:#6495ed;stroke:#6495ed;stroke-width:3.0;" x="342.351640573" xlink:href="#m2c7a3fe384" y="123.661327458"/>
    </g>
   </g>
   <g id="line2d_21">
    <path d="M 445.2 128.970989 
L 484.8 352.212778 
" style="fill:none;stroke:#ffa500;stroke-linecap:square;stroke-width:1.5;"/>
    <g>
     <use style="fill:none;stroke:#ffa500;stroke-linejoin:bevel;stroke-width:1.5;" x="445.2" xlink:href="#m8ff242161a" y="128.970989459"/>
     <use style="fill:none;stroke:#ffa500;stroke-linejoin:bevel;stroke-width:1.5;" x="484.8" xlink:href="#m8ff242161a" y="352.212778465"/>
    </g>
   </g>
   <g id="line2d_22">
    <path d="M 445.2 99.472867 
L 484.8 242.715749 
" style="fill:none;stroke:#6495ed;stroke-linecap:square;stroke-width:1.5;"/>
    <g>
     <use style="fill:none;stroke:#6495ed;stroke-linejoin:miter;stroke-width:1.5;" x="445.2" xlink:href="#m40b65efc75" y="99.4728672328"/>
     <use style="fill:none;stroke:#6495ed;stroke-linejoin:miter;stroke-width:1.5;" x="484.8" xlink:href="#m40b65efc75" y="242.715748762"/>
    </g>
   </g>
   <g id="line2d_23">
    <path d="M 445.2 58.175496 
L 484.8 133.218719 
" style="fill:none;stroke:#000080;stroke-linecap:square;stroke-width:1.5;"/>
    <g>
     <use style="fill:none;stroke:#000080;stroke-width:1.5;" x="445.2" xlink:href="#m9f19c02ec7" y="58.1754961164"/>
     <use style="fill:none;stroke:#000080;stroke-width:1.5;" x="484.8" xlink:href="#m9f19c02ec7" y="133.218719059"/>
    </g>
   </g>
   <g id="line2d_24">
    <path d="M 445.2 58.175496 
L 484.8 23.721689 
" style="fill:none;stroke:#ff00ff;stroke-linecap:square;stroke-width:1.5;"/>
    <g>
     <use style="fill:none;stroke:#ff00ff;stroke-linejoin:miter;stroke-width:1.5;" x="445.2" xlink:href="#m5cabf4740c" y="58.1754961164"/>
     <use style="fill:none;stroke:#ff00ff;stroke-linejoin:miter;stroke-width:1.5;" x="484.8" xlink:href="#m5cabf4740c" y="23.7216893564"/>
    </g>
   </g>
   <g id="line2d_25">
    <path d="M 445.2 359.056343 
L 445.2 16.878125 
" style="fill:none;stroke:#000000;stroke-linecap:square;"/>
   </g>
   <g id="patch_3">
    <path d="M 85.2 13.456343 
L 531.6 13.456343 
" style="fill:none;stroke:#000000;stroke-linecap:square;stroke-linejoin:miter;"/>
   </g>
   <g id="patch_4">
    <path d="M 531.6 359.056343 
L 531.6 13.456343 
" style="fill:none;stroke:#000000;stroke-linecap:square;stroke-linejoin:miter;"/>
   </g>
   <g id="patch_5">
    <path d="M 85.2 359.056343 
L 531.6 359.056343 
" style="fill:none;stroke:#000000;stroke-linecap:square;stroke-linejoin:miter;"/>
   </g>
   <g id="patch_6">
    <path d="M 85.2 359.056343 
L 85.2 13.456343 
" style="fill:none;stroke:#000000;stroke-linecap:square;stroke-linejoin:miter;"/>
   </g>
   <g id="matplotlib.axis_1">
    <g id="xtick_1">
     <g id="line2d_26">
      <path clip-path="url(#pc951e68539)" d="M 85.2 359.056343 
L 85.2 13.456343 
" style="fill:none;stroke:#000000;stroke-dasharray:1.000000,3.000000;stroke-dashoffset:0.0;stroke-width:0.5;"/>
     </g>
     <g id="line2d_27">
      <defs>
       <path d="M 0 0 
L 0 -4 
" id="m6d0d270e33" style="stroke:#000000;stroke-width:0.5;"/>
      </defs>
      <g>
       <use style="stroke:#000000;stroke-width:0.5;" x="85.2" xlink:href="#m6d0d270e33" y="359.056342822"/>
      </g>
     </g>
     <g id="line2d_28">
      <defs>
       <path d="M 0 0 
L 0 4 
" id="m9fb5cdcebe" style="stroke:#000000;stroke-width:0.5;"/>
      </defs>
      <g>
       <use style="stroke:#000000;stroke-width:0.5;" x="85.2" xlink:href="#m9fb5cdcebe" y="13.4563428218"/>
      </g>
     </g>
     <g id="text_1">
      <!-- 0 -->
      <defs>
       <path d="M 31.78125 66.40625 
Q 24.171875 66.40625 20.328125 58.90625 
Q 16.5 51.421875 16.5 36.375 
Q 16.5 21.390625 20.328125 13.890625 
Q 24.171875 6.390625 31.78125 6.390625 
Q 39.453125 6.390625 43.28125 13.890625 
Q 47.125 21.390625 47.125 36.375 
Q 47.125 51.421875 43.28125 58.90625 
Q 39.453125 66.40625 31.78125 66.40625 
M 31.78125 74.21875 
Q 44.046875 74.21875 50.515625 64.515625 
Q 56.984375 54.828125 56.984375 36.375 
Q 56.984375 17.96875 50.515625 8.265625 
Q 44.046875 -1.421875 31.78125 -1.421875 
Q 19.53125 -1.421875 13.0625 8.265625 
Q 6.59375 17.96875 6.59375 36.375 
Q 6.59375 54.828125 13.0625 64.515625 
Q 19.53125 74.21875 31.78125 74.21875 
" id="BitstreamVeraSans-Roman-30"/>
      </defs>
      <g transform="translate(78.8375 378.253217822)scale(0.2 -0.2)">
       <use xlink:href="#BitstreamVeraSans-Roman-30"/>
      </g>
     </g>
    </g>
    <g id="xtick_2">
     <g id="line2d_29">
      <path clip-path="url(#pc951e68539)" d="M 136.628571 359.056343 
L 136.628571 13.456343 
" style="fill:none;stroke:#000000;stroke-dasharray:1.000000,3.000000;stroke-dashoffset:0.0;stroke-width:0.5;"/>
     </g>
     <g id="line2d_30">
      <g>
       <use style="stroke:#000000;stroke-width:0.5;" x="136.628571429" xlink:href="#m6d0d270e33" y="359.056342822"/>
      </g>
     </g>
     <g id="line2d_31">
      <g>
       <use style="stroke:#000000;stroke-width:0.5;" x="136.628571429" xlink:href="#m9fb5cdcebe" y="13.4563428218"/>
      </g>
     </g>
     <g id="text_2">
      <!-- 1 -->
      <defs>
       <path d="M 12.40625 8.296875 
L 28.515625 8.296875 
L 28.515625 63.921875 
L 10.984375 60.40625 
L 10.984375 69.390625 
L 28.421875 72.90625 
L 38.28125 72.90625 
L 38.28125 8.296875 
L 54.390625 8.296875 
L 54.390625 0 
L 12.40625 0 
z
" id="BitstreamVeraSans-Roman-31"/>
      </defs>
      <g transform="translate(130.266071429 378.253217822)scale(0.2 -0.2)">
       <use xlink:href="#BitstreamVeraSans-Roman-31"/>
      </g>
     </g>
    </g>
    <g id="xtick_3">
     <g id="line2d_32">
      <path clip-path="url(#pc951e68539)" d="M 188.057143 359.056343 
L 188.057143 13.456343 
" style="fill:none;stroke:#000000;stroke-dasharray:1.000000,3.000000;stroke-dashoffset:0.0;stroke-width:0.5;"/>
     </g>
     <g id="line2d_33">
      <g>
       <use style="stroke:#000000;stroke-width:0.5;" x="188.057142857" xlink:href="#m6d0d270e33" y="359.056342822"/>
      </g>
     </g>
     <g id="line2d_34">
      <g>
       <use style="stroke:#000000;stroke-width:0.5;" x="188.057142857" xlink:href="#m9fb5cdcebe" y="13.4563428218"/>
      </g>
     </g>
     <g id="text_3">
      <!-- 2 -->
      <defs>
       <path d="M 19.1875 8.296875 
L 53.609375 8.296875 
L 53.609375 0 
L 7.328125 0 
L 7.328125 8.296875 
Q 12.9375 14.109375 22.625 23.890625 
Q 32.328125 33.6875 34.8125 36.53125 
Q 39.546875 41.84375 41.421875 45.53125 
Q 43.3125 49.21875 43.3125 52.78125 
Q 43.3125 58.59375 39.234375 62.25 
Q 35.15625 65.921875 28.609375 65.921875 
Q 23.96875 65.921875 18.8125 64.3125 
Q 13.671875 62.703125 7.8125 59.421875 
L 7.8125 69.390625 
Q 13.765625 71.78125 18.9375 73 
Q 24.125 74.21875 28.421875 74.21875 
Q 39.75 74.21875 46.484375 68.546875 
Q 53.21875 62.890625 53.21875 53.421875 
Q 53.21875 48.921875 51.53125 44.890625 
Q 49.859375 40.875 45.40625 35.40625 
Q 44.1875 33.984375 37.640625 27.21875 
Q 31.109375 20.453125 19.1875 8.296875 
" id="BitstreamVeraSans-Roman-32"/>
      </defs>
      <g transform="translate(181.694642857 378.253217822)scale(0.2 -0.2)">
       <use xlink:href="#BitstreamVeraSans-Roman-32"/>
      </g>
     </g>
    </g>
    <g id="xtick_4">
     <g id="line2d_35">
      <path clip-path="url(#pc951e68539)" d="M 239.485714 359.056343 
L 239.485714 13.456343 
" style="fill:none;stroke:#000000;stroke-dasharray:1.000000,3.000000;stroke-dashoffset:0.0;stroke-width:0.5;"/>
     </g>
     <g id="line2d_36">
      <g>
       <use style="stroke:#000000;stroke-width:0.5;" x="239.485714286" xlink:href="#m6d0d270e33" y="359.056342822"/>
      </g>
     </g>
     <g id="line2d_37">
      <g>
       <use style="stroke:#000000;stroke-width:0.5;" x="239.485714286" xlink:href="#m9fb5cdcebe" y="13.4563428218"/>
      </g>
     </g>
     <g id="text_4">
      <!-- 3 -->
      <defs>
       <path d="M 40.578125 39.3125 
Q 47.65625 37.796875 51.625 33 
Q 55.609375 28.21875 55.609375 21.1875 
Q 55.609375 10.40625 48.1875 4.484375 
Q 40.765625 -1.421875 27.09375 -1.421875 
Q 22.515625 -1.421875 17.65625 -0.515625 
Q 12.796875 0.390625 7.625 2.203125 
L 7.625 11.71875 
Q 11.71875 9.328125 16.59375 8.109375 
Q 21.484375 6.890625 26.8125 6.890625 
Q 36.078125 6.890625 40.9375 10.546875 
Q 45.796875 14.203125 45.796875 21.1875 
Q 45.796875 27.640625 41.28125 31.265625 
Q 36.765625 34.90625 28.71875 34.90625 
L 20.21875 34.90625 
L 20.21875 43.015625 
L 29.109375 43.015625 
Q 36.375 43.015625 40.234375 45.921875 
Q 44.09375 48.828125 44.09375 54.296875 
Q 44.09375 59.90625 40.109375 62.90625 
Q 36.140625 65.921875 28.71875 65.921875 
Q 24.65625 65.921875 20.015625 65.03125 
Q 15.375 64.15625 9.8125 62.3125 
L 9.8125 71.09375 
Q 15.4375 72.65625 20.34375 73.4375 
Q 25.25 74.21875 29.59375 74.21875 
Q 40.828125 74.21875 47.359375 69.109375 
Q 53.90625 64.015625 53.90625 55.328125 
Q 53.90625 49.265625 50.4375 45.09375 
Q 46.96875 40.921875 40.578125 39.3125 
" id="BitstreamVeraSans-Roman-33"/>
      </defs>
      <g transform="translate(233.123214286 378.253217822)scale(0.2 -0.2)">
       <use xlink:href="#BitstreamVeraSans-Roman-33"/>
      </g>
     </g>
    </g>
    <g id="xtick_5">
     <g id="line2d_38">
      <path clip-path="url(#pc951e68539)" d="M 290.914286 359.056343 
L 290.914286 13.456343 
" style="fill:none;stroke:#000000;stroke-dasharray:1.000000,3.000000;stroke-dashoffset:0.0;stroke-width:0.5;"/>
     </g>
     <g id="line2d_39">
      <g>
       <use style="stroke:#000000;stroke-width:0.5;" x="290.914285714" xlink:href="#m6d0d270e33" y="359.056342822"/>
      </g>
     </g>
     <g id="line2d_40">
      <g>
       <use style="stroke:#000000;stroke-width:0.5;" x="290.914285714" xlink:href="#m9fb5cdcebe" y="13.4563428218"/>
      </g>
     </g>
     <g id="text_5">
      <!-- 4 -->
      <defs>
       <path d="M 37.796875 64.3125 
L 12.890625 25.390625 
L 37.796875 25.390625 
z
M 35.203125 72.90625 
L 47.609375 72.90625 
L 47.609375 25.390625 
L 58.015625 25.390625 
L 58.015625 17.1875 
L 47.609375 17.1875 
L 47.609375 0 
L 37.796875 0 
L 37.796875 17.1875 
L 4.890625 17.1875 
L 4.890625 26.703125 
z
" id="BitstreamVeraSans-Roman-34"/>
      </defs>
      <g transform="translate(284.551785714 378.253217822)scale(0.2 -0.2)">
       <use xlink:href="#BitstreamVeraSans-Roman-34"/>
      </g>
     </g>
    </g>
    <g id="xtick_6">
     <g id="line2d_41">
      <path clip-path="url(#pc951e68539)" d="M 342.342857 359.056343 
L 342.342857 13.456343 
" style="fill:none;stroke:#000000;stroke-dasharray:1.000000,3.000000;stroke-dashoffset:0.0;stroke-width:0.5;"/>
     </g>
     <g id="line2d_42">
      <g>
       <use style="stroke:#000000;stroke-width:0.5;" x="342.342857143" xlink:href="#m6d0d270e33" y="359.056342822"/>
      </g>
     </g>
     <g id="line2d_43">
      <g>
       <use style="stroke:#000000;stroke-width:0.5;" x="342.342857143" xlink:href="#m9fb5cdcebe" y="13.4563428218"/>
      </g>
     </g>
     <g id="text_6">
      <!-- 5 -->
      <defs>
       <path d="M 10.796875 72.90625 
L 49.515625 72.90625 
L 49.515625 64.59375 
L 19.828125 64.59375 
L 19.828125 46.734375 
Q 21.96875 47.46875 24.109375 47.828125 
Q 26.265625 48.1875 28.421875 48.1875 
Q 40.625 48.1875 47.75 41.5 
Q 54.890625 34.8125 54.890625 23.390625 
Q 54.890625 11.625 47.5625 5.09375 
Q 40.234375 -1.421875 26.90625 -1.421875 
Q 22.3125 -1.421875 17.546875 -0.640625 
Q 12.796875 0.140625 7.71875 1.703125 
L 7.71875 11.625 
Q 12.109375 9.234375 16.796875 8.0625 
Q 21.484375 6.890625 26.703125 6.890625 
Q 35.15625 6.890625 40.078125 11.328125 
Q 45.015625 15.765625 45.015625 23.390625 
Q 45.015625 31 40.078125 35.4375 
Q 35.15625 39.890625 26.703125 39.890625 
Q 22.75 39.890625 18.8125 39.015625 
Q 14.890625 38.140625 10.796875 36.28125 
z
" id="BitstreamVeraSans-Roman-35"/>
      </defs>
      <g transform="translate(335.980357143 378.253217822)scale(0.2 -0.2)">
       <use xlink:href="#BitstreamVeraSans-Roman-35"/>
      </g>
     </g>
    </g>
    <g id="xtick_7">
     <g id="line2d_44">
      <path clip-path="url(#pc951e68539)" d="M 393.771429 359.056343 
L 393.771429 13.456343 
" style="fill:none;stroke:#000000;stroke-dasharray:1.000000,3.000000;stroke-dashoffset:0.0;stroke-width:0.5;"/>
     </g>
     <g id="line2d_45">
      <g>
       <use style="stroke:#000000;stroke-width:0.5;" x="393.771428571" xlink:href="#m6d0d270e33" y="359.056342822"/>
      </g>
     </g>
     <g id="line2d_46">
      <g>
       <use style="stroke:#000000;stroke-width:0.5;" x="393.771428571" xlink:href="#m9fb5cdcebe" y="13.4563428218"/>
      </g>
     </g>
     <g id="text_7">
      <!-- 6 -->
      <defs>
       <path d="M 33.015625 40.375 
Q 26.375 40.375 22.484375 35.828125 
Q 18.609375 31.296875 18.609375 23.390625 
Q 18.609375 15.53125 22.484375 10.953125 
Q 26.375 6.390625 33.015625 6.390625 
Q 39.65625 6.390625 43.53125 10.953125 
Q 47.40625 15.53125 47.40625 23.390625 
Q 47.40625 31.296875 43.53125 35.828125 
Q 39.65625 40.375 33.015625 40.375 
M 52.59375 71.296875 
L 52.59375 62.3125 
Q 48.875 64.0625 45.09375 64.984375 
Q 41.3125 65.921875 37.59375 65.921875 
Q 27.828125 65.921875 22.671875 59.328125 
Q 17.53125 52.734375 16.796875 39.40625 
Q 19.671875 43.65625 24.015625 45.921875 
Q 28.375 48.1875 33.59375 48.1875 
Q 44.578125 48.1875 50.953125 41.515625 
Q 57.328125 34.859375 57.328125 23.390625 
Q 57.328125 12.15625 50.6875 5.359375 
Q 44.046875 -1.421875 33.015625 -1.421875 
Q 20.359375 -1.421875 13.671875 8.265625 
Q 6.984375 17.96875 6.984375 36.375 
Q 6.984375 53.65625 15.1875 63.9375 
Q 23.390625 74.21875 37.203125 74.21875 
Q 40.921875 74.21875 44.703125 73.484375 
Q 48.484375 72.75 52.59375 71.296875 
" id="BitstreamVeraSans-Roman-36"/>
      </defs>
      <g transform="translate(387.408928571 378.253217822)scale(0.2 -0.2)">
       <use xlink:href="#BitstreamVeraSans-Roman-36"/>
      </g>
     </g>
    </g>
    <g id="xtick_8">
     <g id="line2d_47">
      <path clip-path="url(#pc951e68539)" d="M 445.2 359.056343 
L 445.2 13.456343 
" style="fill:none;stroke:#000000;stroke-dasharray:1.000000,3.000000;stroke-dashoffset:0.0;stroke-width:0.5;"/>
     </g>
     <g id="line2d_48">
      <g>
       <use style="stroke:#000000;stroke-width:0.5;" x="445.2" xlink:href="#m6d0d270e33" y="359.056342822"/>
      </g>
     </g>
     <g id="line2d_49">
      <g>
       <use style="stroke:#000000;stroke-width:0.5;" x="445.2" xlink:href="#m9fb5cdcebe" y="13.4563428218"/>
      </g>
     </g>
     <g id="text_8">
      <!-- 7 -->
      <defs>
       <path d="M 8.203125 72.90625 
L 55.078125 72.90625 
L 55.078125 68.703125 
L 28.609375 0 
L 18.3125 0 
L 43.21875 64.59375 
L 8.203125 64.59375 
z
" id="BitstreamVeraSans-Roman-37"/>
      </defs>
      <g transform="translate(438.8375 378.253217822)scale(0.2 -0.2)">
       <use xlink:href="#BitstreamVeraSans-Roman-37"/>
      </g>
     </g>
    </g>
    <g id="xtick_9">
     <g id="line2d_50">
      <path clip-path="url(#pc951e68539)" d="M 496.628571 359.056343 
L 496.628571 13.456343 
" style="fill:none;stroke:#000000;stroke-dasharray:1.000000,3.000000;stroke-dashoffset:0.0;stroke-width:0.5;"/>
     </g>
     <g id="line2d_51">
      <g>
       <use style="stroke:#000000;stroke-width:0.5;" x="496.628571429" xlink:href="#m6d0d270e33" y="359.056342822"/>
      </g>
     </g>
     <g id="line2d_52">
      <g>
       <use style="stroke:#000000;stroke-width:0.5;" x="496.628571429" xlink:href="#m9fb5cdcebe" y="13.4563428218"/>
      </g>
     </g>
     <g id="text_9">
      <!-- 8 -->
      <defs>
       <path d="M 31.78125 34.625 
Q 24.75 34.625 20.71875 30.859375 
Q 16.703125 27.09375 16.703125 20.515625 
Q 16.703125 13.921875 20.71875 10.15625 
Q 24.75 6.390625 31.78125 6.390625 
Q 38.8125 6.390625 42.859375 10.171875 
Q 46.921875 13.96875 46.921875 20.515625 
Q 46.921875 27.09375 42.890625 30.859375 
Q 38.875 34.625 31.78125 34.625 
M 21.921875 38.8125 
Q 15.578125 40.375 12.03125 44.71875 
Q 8.5 49.078125 8.5 55.328125 
Q 8.5 64.0625 14.71875 69.140625 
Q 20.953125 74.21875 31.78125 74.21875 
Q 42.671875 74.21875 48.875 69.140625 
Q 55.078125 64.0625 55.078125 55.328125 
Q 55.078125 49.078125 51.53125 44.71875 
Q 48 40.375 41.703125 38.8125 
Q 48.828125 37.15625 52.796875 32.3125 
Q 56.78125 27.484375 56.78125 20.515625 
Q 56.78125 9.90625 50.3125 4.234375 
Q 43.84375 -1.421875 31.78125 -1.421875 
Q 19.734375 -1.421875 13.25 4.234375 
Q 6.78125 9.90625 6.78125 20.515625 
Q 6.78125 27.484375 10.78125 32.3125 
Q 14.796875 37.15625 21.921875 38.8125 
M 18.3125 54.390625 
Q 18.3125 48.734375 21.84375 45.5625 
Q 25.390625 42.390625 31.78125 42.390625 
Q 38.140625 42.390625 41.71875 45.5625 
Q 45.3125 48.734375 45.3125 54.390625 
Q 45.3125 60.0625 41.71875 63.234375 
Q 38.140625 66.40625 31.78125 66.40625 
Q 25.390625 66.40625 21.84375 63.234375 
Q 18.3125 60.0625 18.3125 54.390625 
" id="BitstreamVeraSans-Roman-38"/>
      </defs>
      <g transform="translate(490.266071429 378.253217822)scale(0.2 -0.2)">
       <use xlink:href="#BitstreamVeraSans-Roman-38"/>
      </g>
     </g>
    </g>
    <g id="xtick_10">
     <g id="line2d_53">
      <defs>
       <path d="M 0 0 
L 0 -2 
" id="ma79abbfb79" style="stroke:#000000;stroke-width:0.5;"/>
      </defs>
      <g>
       <use style="stroke:#000000;stroke-width:0.5;" x="100.681542634" xlink:href="#ma79abbfb79" y="359.056342822"/>
      </g>
     </g>
     <g id="line2d_54">
      <defs>
       <path d="M 0 0 
L 0 2 
" id="mdd972a16bb" style="stroke:#000000;stroke-width:0.5;"/>
      </defs>
      <g>
       <use style="stroke:#000000;stroke-width:0.5;" x="100.681542634" xlink:href="#mdd972a16bb" y="13.4563428218"/>
      </g>
     </g>
    </g>
    <g id="xtick_11">
     <g id="line2d_55">
      <g>
       <use style="stroke:#000000;stroke-width:0.5;" x="116.163085268" xlink:href="#ma79abbfb79" y="359.056342822"/>
      </g>
     </g>
     <g id="line2d_56">
      <g>
       <use style="stroke:#000000;stroke-width:0.5;" x="116.163085268" xlink:href="#mdd972a16bb" y="13.4563428218"/>
      </g>
     </g>
    </g>
    <g id="xtick_12">
     <g id="line2d_57">
      <g>
       <use style="stroke:#000000;stroke-width:0.5;" x="125.219207163" xlink:href="#ma79abbfb79" y="359.056342822"/>
      </g>
     </g>
     <g id="line2d_58">
      <g>
       <use style="stroke:#000000;stroke-width:0.5;" x="125.219207163" xlink:href="#mdd972a16bb" y="13.4563428218"/>
      </g>
     </g>
    </g>
    <g id="xtick_13">
     <g id="line2d_59">
      <g>
       <use style="stroke:#000000;stroke-width:0.5;" x="131.644627902" xlink:href="#ma79abbfb79" y="359.056342822"/>
      </g>
     </g>
     <g id="line2d_60">
      <g>
       <use style="stroke:#000000;stroke-width:0.5;" x="131.644627902" xlink:href="#mdd972a16bb" y="13.4563428218"/>
      </g>
     </g>
    </g>
    <g id="xtick_14">
     <g id="line2d_61">
      <g>
       <use style="stroke:#000000;stroke-width:0.5;" x="152.110114063" xlink:href="#ma79abbfb79" y="359.056342822"/>
      </g>
     </g>
     <g id="line2d_62">
      <g>
       <use style="stroke:#000000;stroke-width:0.5;" x="152.110114063" xlink:href="#mdd972a16bb" y="13.4563428218"/>
      </g>
     </g>
    </g>
    <g id="xtick_15">
     <g id="line2d_63">
      <g>
       <use style="stroke:#000000;stroke-width:0.5;" x="167.591656697" xlink:href="#ma79abbfb79" y="359.056342822"/>
      </g>
     </g>
     <g id="line2d_64">
      <g>
       <use style="stroke:#000000;stroke-width:0.5;" x="167.591656697" xlink:href="#mdd972a16bb" y="13.4563428218"/>
      </g>
     </g>
    </g>
    <g id="xtick_16">
     <g id="line2d_65">
      <g>
       <use style="stroke:#000000;stroke-width:0.5;" x="176.647778591" xlink:href="#ma79abbfb79" y="359.056342822"/>
      </g>
     </g>
     <g id="line2d_66">
      <g>
       <use style="stroke:#000000;stroke-width:0.5;" x="176.647778591" xlink:href="#mdd972a16bb" y="13.4563428218"/>
      </g>
     </g>
    </g>
    <g id="xtick_17">
     <g id="line2d_67">
      <g>
       <use style="stroke:#000000;stroke-width:0.5;" x="183.073199331" xlink:href="#ma79abbfb79" y="359.056342822"/>
      </g>
     </g>
     <g id="line2d_68">
      <g>
       <use style="stroke:#000000;stroke-width:0.5;" x="183.073199331" xlink:href="#mdd972a16bb" y="13.4563428218"/>
      </g>
     </g>
    </g>
    <g id="xtick_18">
     <g id="line2d_69">
      <g>
       <use style="stroke:#000000;stroke-width:0.5;" x="203.538685491" xlink:href="#ma79abbfb79" y="359.056342822"/>
      </g>
     </g>
     <g id="line2d_70">
      <g>
       <use style="stroke:#000000;stroke-width:0.5;" x="203.538685491" xlink:href="#mdd972a16bb" y="13.4563428218"/>
      </g>
     </g>
    </g>
    <g id="xtick_19">
     <g id="line2d_71">
      <g>
       <use style="stroke:#000000;stroke-width:0.5;" x="219.020228125" xlink:href="#ma79abbfb79" y="359.056342822"/>
      </g>
     </g>
     <g id="line2d_72">
      <g>
       <use style="stroke:#000000;stroke-width:0.5;" x="219.020228125" xlink:href="#mdd972a16bb" y="13.4563428218"/>
      </g>
     </g>
    </g>
    <g id="xtick_20">
     <g id="line2d_73">
      <g>
       <use style="stroke:#000000;stroke-width:0.5;" x="228.07635002" xlink:href="#ma79abbfb79" y="359.056342822"/>
      </g>
     </g>
     <g id="line2d_74">
      <g>
       <use style="stroke:#000000;stroke-width:0.5;" x="228.07635002" xlink:href="#mdd972a16bb" y="13.4563428218"/>
      </g>
     </g>
    </g>
    <g id="xtick_21">
     <g id="line2d_75">
      <g>
       <use style="stroke:#000000;stroke-width:0.5;" x="234.50177076" xlink:href="#ma79abbfb79" y="359.056342822"/>
      </g>
     </g>
     <g id="line2d_76">
      <g>
       <use style="stroke:#000000;stroke-width:0.5;" x="234.50177076" xlink:href="#mdd972a16bb" y="13.4563428218"/>
      </g>
     </g>
    </g>
    <g id="xtick_22">
     <g id="line2d_77">
      <g>
       <use style="stroke:#000000;stroke-width:0.5;" x="254.96725692" xlink:href="#ma79abbfb79" y="359.056342822"/>
      </g>
     </g>
     <g id="line2d_78">
      <g>
       <use style="stroke:#000000;stroke-width:0.5;" x="254.96725692" xlink:href="#mdd972a16bb" y="13.4563428218"/>
      </g>
     </g>
    </g>
    <g id="xtick_23">
     <g id="line2d_79">
      <g>
       <use style="stroke:#000000;stroke-width:0.5;" x="270.448799554" xlink:href="#ma79abbfb79" y="359.056342822"/>
      </g>
     </g>
     <g id="line2d_80">
      <g>
       <use style="stroke:#000000;stroke-width:0.5;" x="270.448799554" xlink:href="#mdd972a16bb" y="13.4563428218"/>
      </g>
     </g>
    </g>
    <g id="xtick_24">
     <g id="line2d_81">
      <g>
       <use style="stroke:#000000;stroke-width:0.5;" x="279.504921448" xlink:href="#ma79abbfb79" y="359.056342822"/>
      </g>
     </g>
     <g id="line2d_82">
      <g>
       <use style="stroke:#000000;stroke-width:0.5;" x="279.504921448" xlink:href="#mdd972a16bb" y="13.4563428218"/>
      </g>
     </g>
    </g>
    <g id="xtick_25">
     <g id="line2d_83">
      <g>
       <use style="stroke:#000000;stroke-width:0.5;" x="285.930342188" xlink:href="#ma79abbfb79" y="359.056342822"/>
      </g>
     </g>
     <g id="line2d_84">
      <g>
       <use style="stroke:#000000;stroke-width:0.5;" x="285.930342188" xlink:href="#mdd972a16bb" y="13.4563428218"/>
      </g>
     </g>
    </g>
    <g id="xtick_26">
     <g id="line2d_85">
      <g>
       <use style="stroke:#000000;stroke-width:0.5;" x="306.395828348" xlink:href="#ma79abbfb79" y="359.056342822"/>
      </g>
     </g>
     <g id="line2d_86">
      <g>
       <use style="stroke:#000000;stroke-width:0.5;" x="306.395828348" xlink:href="#mdd972a16bb" y="13.4563428218"/>
      </g>
     </g>
    </g>
    <g id="xtick_27">
     <g id="line2d_87">
      <g>
       <use style="stroke:#000000;stroke-width:0.5;" x="321.877370983" xlink:href="#ma79abbfb79" y="359.056342822"/>
      </g>
     </g>
     <g id="line2d_88">
      <g>
       <use style="stroke:#000000;stroke-width:0.5;" x="321.877370983" xlink:href="#mdd972a16bb" y="13.4563428218"/>
      </g>
     </g>
    </g>
    <g id="xtick_28">
     <g id="line2d_89">
      <g>
       <use style="stroke:#000000;stroke-width:0.5;" x="330.933492877" xlink:href="#ma79abbfb79" y="359.056342822"/>
      </g>
     </g>
     <g id="line2d_90">
      <g>
       <use style="stroke:#000000;stroke-width:0.5;" x="330.933492877" xlink:href="#mdd972a16bb" y="13.4563428218"/>
      </g>
     </g>
    </g>
    <g id="xtick_29">
     <g id="line2d_91">
      <g>
       <use style="stroke:#000000;stroke-width:0.5;" x="337.358913617" xlink:href="#ma79abbfb79" y="359.056342822"/>
      </g>
     </g>
     <g id="line2d_92">
      <g>
       <use style="stroke:#000000;stroke-width:0.5;" x="337.358913617" xlink:href="#mdd972a16bb" y="13.4563428218"/>
      </g>
     </g>
    </g>
    <g id="xtick_30">
     <g id="line2d_93">
      <g>
       <use style="stroke:#000000;stroke-width:0.5;" x="357.824399777" xlink:href="#ma79abbfb79" y="359.056342822"/>
      </g>
     </g>
     <g id="line2d_94">
      <g>
       <use style="stroke:#000000;stroke-width:0.5;" x="357.824399777" xlink:href="#mdd972a16bb" y="13.4563428218"/>
      </g>
     </g>
    </g>
    <g id="xtick_31">
     <g id="line2d_95">
      <g>
       <use style="stroke:#000000;stroke-width:0.5;" x="373.305942411" xlink:href="#ma79abbfb79" y="359.056342822"/>
      </g>
     </g>
     <g id="line2d_96">
      <g>
       <use style="stroke:#000000;stroke-width:0.5;" x="373.305942411" xlink:href="#mdd972a16bb" y="13.4563428218"/>
      </g>
     </g>
    </g>
    <g id="xtick_32">
     <g id="line2d_97">
      <g>
       <use style="stroke:#000000;stroke-width:0.5;" x="382.362064305" xlink:href="#ma79abbfb79" y="359.056342822"/>
      </g>
     </g>
     <g id="line2d_98">
      <g>
       <use style="stroke:#000000;stroke-width:0.5;" x="382.362064305" xlink:href="#mdd972a16bb" y="13.4563428218"/>
      </g>
     </g>
    </g>
    <g id="xtick_33">
     <g id="line2d_99">
      <g>
       <use style="stroke:#000000;stroke-width:0.5;" x="388.787485045" xlink:href="#ma79abbfb79" y="359.056342822"/>
      </g>
     </g>
     <g id="line2d_100">
      <g>
       <use style="stroke:#000000;stroke-width:0.5;" x="388.787485045" xlink:href="#mdd972a16bb" y="13.4563428218"/>
      </g>
     </g>
    </g>
    <g id="xtick_34">
     <g id="line2d_101">
      <g>
       <use style="stroke:#000000;stroke-width:0.5;" x="409.252971206" xlink:href="#ma79abbfb79" y="359.056342822"/>
      </g>
     </g>
     <g id="line2d_102">
      <g>
       <use style="stroke:#000000;stroke-width:0.5;" x="409.252971206" xlink:href="#mdd972a16bb" y="13.4563428218"/>
      </g>
     </g>
    </g>
    <g id="xtick_35">
     <g id="line2d_103">
      <g>
       <use style="stroke:#000000;stroke-width:0.5;" x="424.73451384" xlink:href="#ma79abbfb79" y="359.056342822"/>
      </g>
     </g>
     <g id="line2d_104">
      <g>
       <use style="stroke:#000000;stroke-width:0.5;" x="424.73451384" xlink:href="#mdd972a16bb" y="13.4563428218"/>
      </g>
     </g>
    </g>
    <g id="xtick_36">
     <g id="line2d_105">
      <g>
       <use style="stroke:#000000;stroke-width:0.5;" x="433.790635734" xlink:href="#ma79abbfb79" y="359.056342822"/>
      </g>
     </g>
     <g id="line2d_106">
      <g>
       <use style="stroke:#000000;stroke-width:0.5;" x="433.790635734" xlink:href="#mdd972a16bb" y="13.4563428218"/>
      </g>
     </g>
    </g>
    <g id="xtick_37">
     <g id="line2d_107">
      <g>
       <use style="stroke:#000000;stroke-width:0.5;" x="440.216056474" xlink:href="#ma79abbfb79" y="359.056342822"/>
      </g>
     </g>
     <g id="line2d_108">
      <g>
       <use style="stroke:#000000;stroke-width:0.5;" x="440.216056474" xlink:href="#mdd972a16bb" y="13.4563428218"/>
      </g>
     </g>
    </g>
    <g id="xtick_38">
     <g id="line2d_109">
      <g>
       <use style="stroke:#000000;stroke-width:0.5;" x="460.681542634" xlink:href="#ma79abbfb79" y="359.056342822"/>
      </g>
     </g>
     <g id="line2d_110">
      <g>
       <use style="stroke:#000000;stroke-width:0.5;" x="460.681542634" xlink:href="#mdd972a16bb" y="13.4563428218"/>
      </g>
     </g>
    </g>
    <g id="xtick_39">
     <g id="line2d_111">
      <g>
       <use style="stroke:#000000;stroke-width:0.5;" x="476.163085268" xlink:href="#ma79abbfb79" y="359.056342822"/>
      </g>
     </g>
     <g id="line2d_112">
      <g>
       <use style="stroke:#000000;stroke-width:0.5;" x="476.163085268" xlink:href="#mdd972a16bb" y="13.4563428218"/>
      </g>
     </g>
    </g>
    <g id="xtick_40">
     <g id="line2d_113">
      <g>
       <use style="stroke:#000000;stroke-width:0.5;" x="485.219207163" xlink:href="#ma79abbfb79" y="359.056342822"/>
      </g>
     </g>
     <g id="line2d_114">
      <g>
       <use style="stroke:#000000;stroke-width:0.5;" x="485.219207163" xlink:href="#mdd972a16bb" y="13.4563428218"/>
      </g>
     </g>
    </g>
    <g id="xtick_41">
     <g id="line2d_115">
      <g>
       <use style="stroke:#000000;stroke-width:0.5;" x="491.644627902" xlink:href="#ma79abbfb79" y="359.056342822"/>
      </g>
     </g>
     <g id="line2d_116">
      <g>
       <use style="stroke:#000000;stroke-width:0.5;" x="491.644627902" xlink:href="#mdd972a16bb" y="13.4563428218"/>
      </g>
     </g>
    </g>
    <g id="xtick_42">
     <g id="line2d_117">
      <g>
       <use style="stroke:#000000;stroke-width:0.5;" x="512.110114063" xlink:href="#ma79abbfb79" y="359.056342822"/>
      </g>
     </g>
     <g id="line2d_118">
      <g>
       <use style="stroke:#000000;stroke-width:0.5;" x="512.110114063" xlink:href="#mdd972a16bb" y="13.4563428218"/>
      </g>
     </g>
    </g>
    <g id="xtick_43">
     <g id="line2d_119">
      <g>
       <use style="stroke:#000000;stroke-width:0.5;" x="527.591656697" xlink:href="#ma79abbfb79" y="359.056342822"/>
      </g>
     </g>
     <g id="line2d_120">
      <g>
       <use style="stroke:#000000;stroke-width:0.5;" x="527.591656697" xlink:href="#mdd972a16bb" y="13.4563428218"/>
      </g>
     </g>
    </g>
    <g id="text_10">
     <!-- log10 of (# f-evals / dimension) -->
     <defs>
      <path id="BitstreamVeraSans-Roman-20"/>
      <path d="M 51.125 44 
L 36.921875 44 
L 32.8125 27.6875 
L 47.125 27.6875 
z
M 43.796875 71.78125 
L 38.71875 51.515625 
L 52.984375 51.515625 
L 58.109375 71.78125 
L 65.921875 71.78125 
L 60.890625 51.515625 
L 76.125 51.515625 
L 76.125 44 
L 58.984375 44 
L 54.984375 27.6875 
L 70.515625 27.6875 
L 70.515625 20.21875 
L 53.078125 20.21875 
L 48 0 
L 40.1875 0 
L 45.21875 20.21875 
L 30.90625 20.21875 
L 25.875 0 
L 18.015625 0 
L 23.09375 20.21875 
L 7.71875 20.21875 
L 7.71875 27.6875 
L 24.90625 27.6875 
L 29 44 
L 13.28125 44 
L 13.28125 51.515625 
L 30.90625 51.515625 
L 35.890625 71.78125 
z
" id="BitstreamVeraSans-Roman-23"/>
      <path d="M 52 44.1875 
Q 55.375 50.25 60.0625 53.125 
Q 64.75 56 71.09375 56 
Q 79.640625 56 84.28125 50.015625 
Q 88.921875 44.046875 88.921875 33.015625 
L 88.921875 0 
L 79.890625 0 
L 79.890625 32.71875 
Q 79.890625 40.578125 77.09375 44.375 
Q 74.3125 48.1875 68.609375 48.1875 
Q 61.625 48.1875 57.5625 43.546875 
Q 53.515625 38.921875 53.515625 30.90625 
L 53.515625 0 
L 44.484375 0 
L 44.484375 32.71875 
Q 44.484375 40.625 41.703125 44.40625 
Q 38.921875 48.1875 33.109375 48.1875 
Q 26.21875 48.1875 22.15625 43.53125 
Q 18.109375 38.875 18.109375 30.90625 
L 18.109375 0 
L 9.078125 0 
L 9.078125 54.6875 
L 18.109375 54.6875 
L 18.109375 46.1875 
Q 21.1875 51.21875 25.484375 53.609375 
Q 29.78125 56 35.6875 56 
Q 41.65625 56 45.828125 52.96875 
Q 50 49.953125 52 44.1875 
" id="BitstreamVeraSans-Roman-6d"/>
      <path d="M 54.890625 33.015625 
L 54.890625 0 
L 45.90625 0 
L 45.90625 32.71875 
Q 45.90625 40.484375 42.875 44.328125 
Q 39.84375 48.1875 33.796875 48.1875 
Q 26.515625 48.1875 22.3125 43.546875 
Q 18.109375 38.921875 18.109375 30.90625 
L 18.109375 0 
L 9.078125 0 
L 9.078125 54.6875 
L 18.109375 54.6875 
L 18.109375 46.1875 
Q 21.34375 51.125 25.703125 53.5625 
Q 30.078125 56 35.796875 56 
Q 45.21875 56 50.046875 50.171875 
Q 54.890625 44.34375 54.890625 33.015625 
" id="BitstreamVeraSans-Roman-6e"/>
      <path d="M 31 75.875 
Q 24.46875 64.65625 21.28125 53.65625 
Q 18.109375 42.671875 18.109375 31.390625 
Q 18.109375 20.125 21.3125 9.0625 
Q 24.515625 -2 31 -13.1875 
L 23.1875 -13.1875 
Q 15.875 -1.703125 12.234375 9.375 
Q 8.59375 20.453125 8.59375 31.390625 
Q 8.59375 42.28125 12.203125 53.3125 
Q 15.828125 64.359375 23.1875 75.875 
z
" id="BitstreamVeraSans-Roman-28"/>
      <path d="M 30.609375 48.390625 
Q 23.390625 48.390625 19.1875 42.75 
Q 14.984375 37.109375 14.984375 27.296875 
Q 14.984375 17.484375 19.15625 11.84375 
Q 23.34375 6.203125 30.609375 6.203125 
Q 37.796875 6.203125 41.984375 11.859375 
Q 46.1875 17.53125 46.1875 27.296875 
Q 46.1875 37.015625 41.984375 42.703125 
Q 37.796875 48.390625 30.609375 48.390625 
M 30.609375 56 
Q 42.328125 56 49.015625 48.375 
Q 55.71875 40.765625 55.71875 27.296875 
Q 55.71875 13.875 49.015625 6.21875 
Q 42.328125 -1.421875 30.609375 -1.421875 
Q 18.84375 -1.421875 12.171875 6.21875 
Q 5.515625 13.875 5.515625 27.296875 
Q 5.515625 40.765625 12.171875 48.375 
Q 18.84375 56 30.609375 56 
" id="BitstreamVeraSans-Roman-6f"/>
      <path d="M 9.421875 75.984375 
L 18.40625 75.984375 
L 18.40625 0 
L 9.421875 0 
z
" id="BitstreamVeraSans-Roman-6c"/>
      <path d="M 2.984375 54.6875 
L 12.5 54.6875 
L 29.59375 8.796875 
L 46.6875 54.6875 
L 56.203125 54.6875 
L 35.6875 0 
L 23.484375 0 
z
" id="BitstreamVeraSans-Roman-76"/>
      <path d="M 9.421875 54.6875 
L 18.40625 54.6875 
L 18.40625 0 
L 9.421875 0 
z
M 9.421875 75.984375 
L 18.40625 75.984375 
L 18.40625 64.59375 
L 9.421875 64.59375 
z
" id="BitstreamVeraSans-Roman-69"/>
      <path d="M 4.890625 31.390625 
L 31.203125 31.390625 
L 31.203125 23.390625 
L 4.890625 23.390625 
z
" id="BitstreamVeraSans-Roman-2d"/>
      <path d="M 25.390625 72.90625 
L 33.6875 72.90625 
L 8.296875 -9.28125 
L 0 -9.28125 
z
" id="BitstreamVeraSans-Roman-2f"/>
      <path d="M 56.203125 29.59375 
L 56.203125 25.203125 
L 14.890625 25.203125 
Q 15.484375 15.921875 20.484375 11.0625 
Q 25.484375 6.203125 34.421875 6.203125 
Q 39.59375 6.203125 44.453125 7.46875 
Q 49.3125 8.734375 54.109375 11.28125 
L 54.109375 2.78125 
Q 49.265625 0.734375 44.1875 -0.34375 
Q 39.109375 -1.421875 33.890625 -1.421875 
Q 20.796875 -1.421875 13.15625 6.1875 
Q 5.515625 13.8125 5.515625 26.8125 
Q 5.515625 40.234375 12.765625 48.109375 
Q 20.015625 56 32.328125 56 
Q 43.359375 56 49.78125 48.890625 
Q 56.203125 41.796875 56.203125 29.59375 
M 47.21875 32.234375 
Q 47.125 39.59375 43.09375 43.984375 
Q 39.0625 48.390625 32.421875 48.390625 
Q 24.90625 48.390625 20.390625 44.140625 
Q 15.875 39.890625 15.1875 32.171875 
z
" id="BitstreamVeraSans-Roman-65"/>
      <path d="M 45.40625 46.390625 
L 45.40625 75.984375 
L 54.390625 75.984375 
L 54.390625 0 
L 45.40625 0 
L 45.40625 8.203125 
Q 42.578125 3.328125 38.25 0.953125 
Q 33.9375 -1.421875 27.875 -1.421875 
Q 17.96875 -1.421875 11.734375 6.484375 
Q 5.515625 14.40625 5.515625 27.296875 
Q 5.515625 40.1875 11.734375 48.09375 
Q 17.96875 56 27.875 56 
Q 33.9375 56 38.25 53.625 
Q 42.578125 51.265625 45.40625 46.390625 
M 14.796875 27.296875 
Q 14.796875 17.390625 18.875 11.75 
Q 22.953125 6.109375 30.078125 6.109375 
Q 37.203125 6.109375 41.296875 11.75 
Q 45.40625 17.390625 45.40625 27.296875 
Q 45.40625 37.203125 41.296875 42.84375 
Q 37.203125 48.484375 30.078125 48.484375 
Q 22.953125 48.484375 18.875 42.84375 
Q 14.796875 37.203125 14.796875 27.296875 
" id="BitstreamVeraSans-Roman-64"/>
      <path d="M 45.40625 27.984375 
Q 45.40625 37.75 41.375 43.109375 
Q 37.359375 48.484375 30.078125 48.484375 
Q 22.859375 48.484375 18.828125 43.109375 
Q 14.796875 37.75 14.796875 27.984375 
Q 14.796875 18.265625 18.828125 12.890625 
Q 22.859375 7.515625 30.078125 7.515625 
Q 37.359375 7.515625 41.375 12.890625 
Q 45.40625 18.265625 45.40625 27.984375 
M 54.390625 6.78125 
Q 54.390625 -7.171875 48.1875 -13.984375 
Q 42 -20.796875 29.203125 -20.796875 
Q 24.46875 -20.796875 20.265625 -20.09375 
Q 16.0625 -19.390625 12.109375 -17.921875 
L 12.109375 -9.1875 
Q 16.0625 -11.328125 19.921875 -12.34375 
Q 23.78125 -13.375 27.78125 -13.375 
Q 36.625 -13.375 41.015625 -8.765625 
Q 45.40625 -4.15625 45.40625 5.171875 
L 45.40625 9.625 
Q 42.625 4.78125 38.28125 2.390625 
Q 33.9375 0 27.875 0 
Q 17.828125 0 11.671875 7.65625 
Q 5.515625 15.328125 5.515625 27.984375 
Q 5.515625 40.671875 11.671875 48.328125 
Q 17.828125 56 27.875 56 
Q 33.9375 56 38.28125 53.609375 
Q 42.625 51.21875 45.40625 46.390625 
L 45.40625 54.6875 
L 54.390625 54.6875 
z
" id="BitstreamVeraSans-Roman-67"/>
      <path d="M 37.109375 75.984375 
L 37.109375 68.5 
L 28.515625 68.5 
Q 23.6875 68.5 21.796875 66.546875 
Q 19.921875 64.59375 19.921875 59.515625 
L 19.921875 54.6875 
L 34.71875 54.6875 
L 34.71875 47.703125 
L 19.921875 47.703125 
L 19.921875 0 
L 10.890625 0 
L 10.890625 47.703125 
L 2.296875 47.703125 
L 2.296875 54.6875 
L 10.890625 54.6875 
L 10.890625 58.5 
Q 10.890625 67.625 15.140625 71.796875 
Q 19.390625 75.984375 28.609375 75.984375 
z
" id="BitstreamVeraSans-Roman-66"/>
      <path d="M 34.28125 27.484375 
Q 23.390625 27.484375 19.1875 25 
Q 14.984375 22.515625 14.984375 16.5 
Q 14.984375 11.71875 18.140625 8.90625 
Q 21.296875 6.109375 26.703125 6.109375 
Q 34.1875 6.109375 38.703125 11.40625 
Q 43.21875 16.703125 43.21875 25.484375 
L 43.21875 27.484375 
z
M 52.203125 31.203125 
L 52.203125 0 
L 43.21875 0 
L 43.21875 8.296875 
Q 40.140625 3.328125 35.546875 0.953125 
Q 30.953125 -1.421875 24.3125 -1.421875 
Q 15.921875 -1.421875 10.953125 3.296875 
Q 6 8.015625 6 15.921875 
Q 6 25.140625 12.171875 29.828125 
Q 18.359375 34.515625 30.609375 34.515625 
L 43.21875 34.515625 
L 43.21875 35.40625 
Q 43.21875 41.609375 39.140625 45 
Q 35.0625 48.390625 27.6875 48.390625 
Q 23 48.390625 18.546875 47.265625 
Q 14.109375 46.140625 10.015625 43.890625 
L 10.015625 52.203125 
Q 14.9375 54.109375 19.578125 55.046875 
Q 24.21875 56 28.609375 56 
Q 40.484375 56 46.34375 49.84375 
Q 52.203125 43.703125 52.203125 31.203125 
" id="BitstreamVeraSans-Roman-61"/>
      <path d="M 44.28125 53.078125 
L 44.28125 44.578125 
Q 40.484375 46.53125 36.375 47.5 
Q 32.28125 48.484375 27.875 48.484375 
Q 21.1875 48.484375 17.84375 46.4375 
Q 14.5 44.390625 14.5 40.28125 
Q 14.5 37.15625 16.890625 35.375 
Q 19.28125 33.59375 26.515625 31.984375 
L 29.59375 31.296875 
Q 39.15625 29.25 43.1875 25.515625 
Q 47.21875 21.78125 47.21875 15.09375 
Q 47.21875 7.46875 41.1875 3.015625 
Q 35.15625 -1.421875 24.609375 -1.421875 
Q 20.21875 -1.421875 15.453125 -0.5625 
Q 10.6875 0.296875 5.421875 2 
L 5.421875 11.28125 
Q 10.40625 8.6875 15.234375 7.390625 
Q 20.0625 6.109375 24.8125 6.109375 
Q 31.15625 6.109375 34.5625 8.28125 
Q 37.984375 10.453125 37.984375 14.40625 
Q 37.984375 18.0625 35.515625 20.015625 
Q 33.0625 21.96875 24.703125 23.78125 
L 21.578125 24.515625 
Q 13.234375 26.265625 9.515625 29.90625 
Q 5.8125 33.546875 5.8125 39.890625 
Q 5.8125 47.609375 11.28125 51.796875 
Q 16.75 56 26.8125 56 
Q 31.78125 56 36.171875 55.265625 
Q 40.578125 54.546875 44.28125 53.078125 
" id="BitstreamVeraSans-Roman-73"/>
      <path d="M 8.015625 75.875 
L 15.828125 75.875 
Q 23.140625 64.359375 26.78125 53.3125 
Q 30.421875 42.28125 30.421875 31.390625 
Q 30.421875 20.453125 26.78125 9.375 
Q 23.140625 -1.703125 15.828125 -13.1875 
L 8.015625 -13.1875 
Q 14.5 -2 17.703125 9.0625 
Q 20.90625 20.125 20.90625 31.390625 
Q 20.90625 42.671875 17.703125 53.65625 
Q 14.5 64.65625 8.015625 75.875 
" id="BitstreamVeraSans-Roman-29"/>
     </defs>
     <g transform="translate(166.05515625 401.089780322)scale(0.18 -0.18)">
      <use xlink:href="#BitstreamVeraSans-Roman-6c"/>
      <use x="27.783203125" xlink:href="#BitstreamVeraSans-Roman-6f"/>
      <use x="88.96484375" xlink:href="#BitstreamVeraSans-Roman-67"/>
      <use x="152.44140625" xlink:href="#BitstreamVeraSans-Roman-31"/>
      <use x="216.064453125" xlink:href="#BitstreamVeraSans-Roman-30"/>
      <use x="279.6875" xlink:href="#BitstreamVeraSans-Roman-20"/>
      <use x="311.474609375" xlink:href="#BitstreamVeraSans-Roman-6f"/>
      <use x="372.65625" xlink:href="#BitstreamVeraSans-Roman-66"/>
      <use x="407.861328125" xlink:href="#BitstreamVeraSans-Roman-20"/>
      <use x="439.6484375" xlink:href="#BitstreamVeraSans-Roman-28"/>
      <use x="478.662109375" xlink:href="#BitstreamVeraSans-Roman-23"/>
      <use x="562.451171875" xlink:href="#BitstreamVeraSans-Roman-20"/>
      <use x="594.23828125" xlink:href="#BitstreamVeraSans-Roman-66"/>
      <use x="629.365234375" xlink:href="#BitstreamVeraSans-Roman-2d"/>
      <use x="665.44921875" xlink:href="#BitstreamVeraSans-Roman-65"/>
      <use x="726.97265625" xlink:href="#BitstreamVeraSans-Roman-76"/>
      <use x="786.15234375" xlink:href="#BitstreamVeraSans-Roman-61"/>
      <use x="847.431640625" xlink:href="#BitstreamVeraSans-Roman-6c"/>
      <use x="875.21484375" xlink:href="#BitstreamVeraSans-Roman-73"/>
      <use x="927.314453125" xlink:href="#BitstreamVeraSans-Roman-20"/>
      <use x="959.1015625" xlink:href="#BitstreamVeraSans-Roman-2f"/>
      <use x="992.79296875" xlink:href="#BitstreamVeraSans-Roman-20"/>
      <use x="1024.58007812" xlink:href="#BitstreamVeraSans-Roman-64"/>
      <use x="1088.05664062" xlink:href="#BitstreamVeraSans-Roman-69"/>
      <use x="1115.83984375" xlink:href="#BitstreamVeraSans-Roman-6d"/>
      <use x="1213.25195312" xlink:href="#BitstreamVeraSans-Roman-65"/>
      <use x="1274.77539062" xlink:href="#BitstreamVeraSans-Roman-6e"/>
      <use x="1338.15429688" xlink:href="#BitstreamVeraSans-Roman-73"/>
      <use x="1390.25390625" xlink:href="#BitstreamVeraSans-Roman-69"/>
      <use x="1418.03710938" xlink:href="#BitstreamVeraSans-Roman-6f"/>
      <use x="1479.21875" xlink:href="#BitstreamVeraSans-Roman-6e"/>
      <use x="1542.59765625" xlink:href="#BitstreamVeraSans-Roman-29"/>
     </g>
    </g>
   </g>
   <g id="matplotlib.axis_2">
    <g id="ytick_1">
     <g id="line2d_121">
      <path clip-path="url(#pc951e68539)" d="M 85.2 359.056343 
L 531.6 359.056343 
" style="fill:none;stroke:#000000;stroke-dasharray:1.000000,3.000000;stroke-dashoffset:0.0;stroke-width:0.5;"/>
     </g>
     <g id="line2d_122">
      <defs>
       <path d="M 0 0 
L 4 0 
" id="m9a3e1b0d4c" style="stroke:#000000;stroke-width:0.5;"/>
      </defs>
      <g>
       <use style="stroke:#000000;stroke-width:0.5;" x="85.2" xlink:href="#m9a3e1b0d4c" y="359.056342822"/>
      </g>
     </g>
     <g id="line2d_123">
      <defs>
       <path d="M 0 0 
L -4 0 
" id="mf34cd2f70a" style="stroke:#000000;stroke-width:0.5;"/>
      </defs>
      <g>
       <use style="stroke:#000000;stroke-width:0.5;" x="531.6" xlink:href="#mf34cd2f70a" y="359.056342822"/>
      </g>
     </g>
     <g id="text_11">
      <!-- 0.0 -->
      <defs>
       <path d="M 10.6875 12.40625 
L 21 12.40625 
L 21 0 
L 10.6875 0 
z
" id="BitstreamVeraSans-Roman-2e"/>
      </defs>
      <g transform="translate(49.39375 364.575092822)scale(0.2 -0.2)">
       <use xlink:href="#BitstreamVeraSans-Roman-30"/>
       <use x="63.623046875" xlink:href="#BitstreamVeraSans-Roman-2e"/>
       <use x="95.41015625" xlink:href="#BitstreamVeraSans-Roman-30"/>
      </g>
     </g>
    </g>
    <g id="ytick_2">
     <g id="line2d_124">
      <path clip-path="url(#pc951e68539)" d="M 85.2 290.620699 
L 531.6 290.620699 
" style="fill:none;stroke:#000000;stroke-dasharray:1.000000,3.000000;stroke-dashoffset:0.0;stroke-width:0.5;"/>
     </g>
     <g id="line2d_125">
      <g>
       <use style="stroke:#000000;stroke-width:0.5;" x="85.2" xlink:href="#m9a3e1b0d4c" y="290.620699257"/>
      </g>
     </g>
     <g id="line2d_126">
      <g>
       <use style="stroke:#000000;stroke-width:0.5;" x="531.6" xlink:href="#mf34cd2f70a" y="290.620699257"/>
      </g>
     </g>
     <g id="text_12">
      <!-- 0.2 -->
      <g transform="translate(49.39375 296.139449257)scale(0.2 -0.2)">
       <use xlink:href="#BitstreamVeraSans-Roman-30"/>
       <use x="63.623046875" xlink:href="#BitstreamVeraSans-Roman-2e"/>
       <use x="95.41015625" xlink:href="#BitstreamVeraSans-Roman-32"/>
      </g>
     </g>
    </g>
    <g id="ytick_3">
     <g id="line2d_127">
      <path clip-path="url(#pc951e68539)" d="M 85.2 222.185056 
L 531.6 222.185056 
" style="fill:none;stroke:#000000;stroke-dasharray:1.000000,3.000000;stroke-dashoffset:0.0;stroke-width:0.5;"/>
     </g>
     <g id="line2d_128">
      <g>
       <use style="stroke:#000000;stroke-width:0.5;" x="85.2" xlink:href="#m9a3e1b0d4c" y="222.185055693"/>
      </g>
     </g>
     <g id="line2d_129">
      <g>
       <use style="stroke:#000000;stroke-width:0.5;" x="531.6" xlink:href="#mf34cd2f70a" y="222.185055693"/>
      </g>
     </g>
     <g id="text_13">
      <!-- 0.4 -->
      <g transform="translate(49.39375 227.703805693)scale(0.2 -0.2)">
       <use xlink:href="#BitstreamVeraSans-Roman-30"/>
       <use x="63.623046875" xlink:href="#BitstreamVeraSans-Roman-2e"/>
       <use x="95.41015625" xlink:href="#BitstreamVeraSans-Roman-34"/>
      </g>
     </g>
    </g>
    <g id="ytick_4">
     <g id="line2d_130">
      <path clip-path="url(#pc951e68539)" d="M 85.2 153.749412 
L 531.6 153.749412 
" style="fill:none;stroke:#000000;stroke-dasharray:1.000000,3.000000;stroke-dashoffset:0.0;stroke-width:0.5;"/>
     </g>
     <g id="line2d_131">
      <g>
       <use style="stroke:#000000;stroke-width:0.5;" x="85.2" xlink:href="#m9a3e1b0d4c" y="153.749412129"/>
      </g>
     </g>
     <g id="line2d_132">
      <g>
       <use style="stroke:#000000;stroke-width:0.5;" x="531.6" xlink:href="#mf34cd2f70a" y="153.749412129"/>
      </g>
     </g>
     <g id="text_14">
      <!-- 0.6 -->
      <g transform="translate(49.39375 159.268162129)scale(0.2 -0.2)">
       <use xlink:href="#BitstreamVeraSans-Roman-30"/>
       <use x="63.623046875" xlink:href="#BitstreamVeraSans-Roman-2e"/>
       <use x="95.41015625" xlink:href="#BitstreamVeraSans-Roman-36"/>
      </g>
     </g>
    </g>
    <g id="ytick_5">
     <g id="line2d_133">
      <path clip-path="url(#pc951e68539)" d="M 85.2 85.313769 
L 531.6 85.313769 
" style="fill:none;stroke:#000000;stroke-dasharray:1.000000,3.000000;stroke-dashoffset:0.0;stroke-width:0.5;"/>
     </g>
     <g id="line2d_134">
      <g>
       <use style="stroke:#000000;stroke-width:0.5;" x="85.2" xlink:href="#m9a3e1b0d4c" y="85.3137685644"/>
      </g>
     </g>
     <g id="line2d_135">
      <g>
       <use style="stroke:#000000;stroke-width:0.5;" x="531.6" xlink:href="#mf34cd2f70a" y="85.3137685644"/>
      </g>
     </g>
     <g id="text_15">
      <!-- 0.8 -->
      <g transform="translate(49.39375 90.8325185644)scale(0.2 -0.2)">
       <use xlink:href="#BitstreamVeraSans-Roman-30"/>
       <use x="63.623046875" xlink:href="#BitstreamVeraSans-Roman-2e"/>
       <use x="95.41015625" xlink:href="#BitstreamVeraSans-Roman-38"/>
      </g>
     </g>
    </g>
    <g id="ytick_6">
     <g id="line2d_136">
      <path clip-path="url(#pc951e68539)" d="M 85.2 16.878125 
L 531.6 16.878125 
" style="fill:none;stroke:#000000;stroke-dasharray:1.000000,3.000000;stroke-dashoffset:0.0;stroke-width:0.5;"/>
     </g>
     <g id="line2d_137">
      <g>
       <use style="stroke:#000000;stroke-width:0.5;" x="85.2" xlink:href="#m9a3e1b0d4c" y="16.878125"/>
      </g>
     </g>
     <g id="line2d_138">
      <g>
       <use style="stroke:#000000;stroke-width:0.5;" x="531.6" xlink:href="#mf34cd2f70a" y="16.878125"/>
      </g>
     </g>
     <g id="text_16">
      <!-- 1.0 -->
      <g transform="translate(49.39375 22.396875)scale(0.2 -0.2)">
       <use xlink:href="#BitstreamVeraSans-Roman-31"/>
       <use x="63.623046875" xlink:href="#BitstreamVeraSans-Roman-2e"/>
       <use x="95.41015625" xlink:href="#BitstreamVeraSans-Roman-30"/>
      </g>
     </g>
    </g>
    <g id="text_17">
     <!-- Proportion of function+target pairs -->
     <defs>
      <path d="M 19.671875 64.796875 
L 19.671875 37.40625 
L 32.078125 37.40625 
Q 38.96875 37.40625 42.71875 40.96875 
Q 46.484375 44.53125 46.484375 51.125 
Q 46.484375 57.671875 42.71875 61.234375 
Q 38.96875 64.796875 32.078125 64.796875 
z
M 9.8125 72.90625 
L 32.078125 72.90625 
Q 44.34375 72.90625 50.609375 67.359375 
Q 56.890625 61.8125 56.890625 51.125 
Q 56.890625 40.328125 50.609375 34.8125 
Q 44.34375 29.296875 32.078125 29.296875 
L 19.671875 29.296875 
L 19.671875 0 
L 9.8125 0 
z
" id="BitstreamVeraSans-Roman-50"/>
      <path d="M 46 62.703125 
L 46 35.5 
L 73.1875 35.5 
L 73.1875 27.203125 
L 46 27.203125 
L 46 0 
L 37.796875 0 
L 37.796875 27.203125 
L 10.59375 27.203125 
L 10.59375 35.5 
L 37.796875 35.5 
L 37.796875 62.703125 
z
" id="BitstreamVeraSans-Roman-2b"/>
      <path d="M 18.109375 8.203125 
L 18.109375 -20.796875 
L 9.078125 -20.796875 
L 9.078125 54.6875 
L 18.109375 54.6875 
L 18.109375 46.390625 
Q 20.953125 51.265625 25.265625 53.625 
Q 29.59375 56 35.59375 56 
Q 45.5625 56 51.78125 48.09375 
Q 58.015625 40.1875 58.015625 27.296875 
Q 58.015625 14.40625 51.78125 6.484375 
Q 45.5625 -1.421875 35.59375 -1.421875 
Q 29.59375 -1.421875 25.265625 0.953125 
Q 20.953125 3.328125 18.109375 8.203125 
M 48.6875 27.296875 
Q 48.6875 37.203125 44.609375 42.84375 
Q 40.53125 48.484375 33.40625 48.484375 
Q 26.265625 48.484375 22.1875 42.84375 
Q 18.109375 37.203125 18.109375 27.296875 
Q 18.109375 17.390625 22.1875 11.75 
Q 26.265625 6.109375 33.40625 6.109375 
Q 40.53125 6.109375 44.609375 11.75 
Q 48.6875 17.390625 48.6875 27.296875 
" id="BitstreamVeraSans-Roman-70"/>
      <path d="M 18.3125 70.21875 
L 18.3125 54.6875 
L 36.8125 54.6875 
L 36.8125 47.703125 
L 18.3125 47.703125 
L 18.3125 18.015625 
Q 18.3125 11.328125 20.140625 9.421875 
Q 21.96875 7.515625 27.59375 7.515625 
L 36.8125 7.515625 
L 36.8125 0 
L 27.59375 0 
Q 17.1875 0 13.234375 3.875 
Q 9.28125 7.765625 9.28125 18.015625 
L 9.28125 47.703125 
L 2.6875 47.703125 
L 2.6875 54.6875 
L 9.28125 54.6875 
L 9.28125 70.21875 
z
" id="BitstreamVeraSans-Roman-74"/>
      <path d="M 8.5 21.578125 
L 8.5 54.6875 
L 17.484375 54.6875 
L 17.484375 21.921875 
Q 17.484375 14.15625 20.5 10.265625 
Q 23.53125 6.390625 29.59375 6.390625 
Q 36.859375 6.390625 41.078125 11.03125 
Q 45.3125 15.671875 45.3125 23.6875 
L 45.3125 54.6875 
L 54.296875 54.6875 
L 54.296875 0 
L 45.3125 0 
L 45.3125 8.40625 
Q 42.046875 3.421875 37.71875 1 
Q 33.40625 -1.421875 27.6875 -1.421875 
Q 18.265625 -1.421875 13.375 4.4375 
Q 8.5 10.296875 8.5 21.578125 
" id="BitstreamVeraSans-Roman-75"/>
      <path d="M 41.109375 46.296875 
Q 39.59375 47.171875 37.8125 47.578125 
Q 36.03125 48 33.890625 48 
Q 26.265625 48 22.1875 43.046875 
Q 18.109375 38.09375 18.109375 28.8125 
L 18.109375 0 
L 9.078125 0 
L 9.078125 54.6875 
L 18.109375 54.6875 
L 18.109375 46.1875 
Q 20.953125 51.171875 25.484375 53.578125 
Q 30.03125 56 36.53125 56 
Q 37.453125 56 38.578125 55.875 
Q 39.703125 55.765625 41.0625 55.515625 
z
" id="BitstreamVeraSans-Roman-72"/>
      <path d="M 48.78125 52.59375 
L 48.78125 44.1875 
Q 44.96875 46.296875 41.140625 47.34375 
Q 37.3125 48.390625 33.40625 48.390625 
Q 24.65625 48.390625 19.8125 42.84375 
Q 14.984375 37.3125 14.984375 27.296875 
Q 14.984375 17.28125 19.8125 11.734375 
Q 24.65625 6.203125 33.40625 6.203125 
Q 37.3125 6.203125 41.140625 7.25 
Q 44.96875 8.296875 48.78125 10.40625 
L 48.78125 2.09375 
Q 45.015625 0.34375 40.984375 -0.53125 
Q 36.96875 -1.421875 32.421875 -1.421875 
Q 20.0625 -1.421875 12.78125 6.34375 
Q 5.515625 14.109375 5.515625 27.296875 
Q 5.515625 40.671875 12.859375 48.328125 
Q 20.21875 56 33.015625 56 
Q 37.15625 56 41.109375 55.140625 
Q 45.0625 54.296875 48.78125 52.59375 
" id="BitstreamVeraSans-Roman-63"/>
     </defs>
     <g transform="translate(40.6503125 344.245717822)rotate(-90.0)scale(0.18 -0.18)">
      <use xlink:href="#BitstreamVeraSans-Roman-50"/>
      <use x="60.287109375" xlink:href="#BitstreamVeraSans-Roman-72"/>
      <use x="101.369140625" xlink:href="#BitstreamVeraSans-Roman-6f"/>
      <use x="162.55078125" xlink:href="#BitstreamVeraSans-Roman-70"/>
      <use x="226.02734375" xlink:href="#BitstreamVeraSans-Roman-6f"/>
      <use x="287.208984375" xlink:href="#BitstreamVeraSans-Roman-72"/>
      <use x="328.322265625" xlink:href="#BitstreamVeraSans-Roman-74"/>
      <use x="367.53125" xlink:href="#BitstreamVeraSans-Roman-69"/>
      <use x="395.314453125" xlink:href="#BitstreamVeraSans-Roman-6f"/>
      <use x="456.49609375" xlink:href="#BitstreamVeraSans-Roman-6e"/>
      <use x="519.875" xlink:href="#BitstreamVeraSans-Roman-20"/>
      <use x="551.662109375" xlink:href="#BitstreamVeraSans-Roman-6f"/>
      <use x="612.84375" xlink:href="#BitstreamVeraSans-Roman-66"/>
      <use x="648.048828125" xlink:href="#BitstreamVeraSans-Roman-20"/>
      <use x="679.8359375" xlink:href="#BitstreamVeraSans-Roman-66"/>
      <use x="715.041015625" xlink:href="#BitstreamVeraSans-Roman-75"/>
      <use x="778.419921875" xlink:href="#BitstreamVeraSans-Roman-6e"/>
      <use x="841.798828125" xlink:href="#BitstreamVeraSans-Roman-63"/>
      <use x="896.779296875" xlink:href="#BitstreamVeraSans-Roman-74"/>
      <use x="935.98828125" xlink:href="#BitstreamVeraSans-Roman-69"/>
      <use x="963.771484375" xlink:href="#BitstreamVeraSans-Roman-6f"/>
      <use x="1024.953125" xlink:href="#BitstreamVeraSans-Roman-6e"/>
      <use x="1088.33203125" xlink:href="#BitstreamVeraSans-Roman-2b"/>
      <use x="1172.12109375" xlink:href="#BitstreamVeraSans-Roman-74"/>
      <use x="1211.33007812" xlink:href="#BitstreamVeraSans-Roman-61"/>
      <use x="1272.609375" xlink:href="#BitstreamVeraSans-Roman-72"/>
      <use x="1313.70703125" xlink:href="#BitstreamVeraSans-Roman-67"/>
      <use x="1377.18359375" xlink:href="#BitstreamVeraSans-Roman-65"/>
      <use x="1438.70703125" xlink:href="#BitstreamVeraSans-Roman-74"/>
      <use x="1477.91601562" xlink:href="#BitstreamVeraSans-Roman-20"/>
      <use x="1509.703125" xlink:href="#BitstreamVeraSans-Roman-70"/>
      <use x="1573.1796875" xlink:href="#BitstreamVeraSans-Roman-61"/>
      <use x="1634.45898438" xlink:href="#BitstreamVeraSans-Roman-69"/>
      <use x="1662.2421875" xlink:href="#BitstreamVeraSans-Roman-72"/>
      <use x="1703.35546875" xlink:href="#BitstreamVeraSans-Roman-73"/>
     </g>
    </g>
   </g>
   <g id="text_18">
    <!-- f3 -->
    <g transform="translate(492.0 356.351840965)scale(0.15 -0.15)">
     <use xlink:href="#BitstreamVeraSans-Roman-66"/>
     <use x="35.205078125" xlink:href="#BitstreamVeraSans-Roman-33"/>
    </g>
   </g>
   <g id="text_19">
    <!-- f4 -->
    <g transform="translate(492.0 246.854811262)scale(0.15 -0.15)">
     <use xlink:href="#BitstreamVeraSans-Roman-66"/>
     <use x="35.205078125" xlink:href="#BitstreamVeraSans-Roman-34"/>
    </g>
   </g>
   <g id="text_20">
    <!-- f12 -->
    <g transform="translate(492.0 137.357781559)scale(0.15 -0.15)">
     <use xlink:href="#BitstreamVeraSans-Roman-66"/>
     <use x="35.205078125" xlink:href="#BitstreamVeraSans-Roman-31"/>
     <use x="98.828125" xlink:href="#BitstreamVeraSans-Roman-32"/>
    </g>
   </g>
   <g id="text_21">
    <!-- f13 -->
    <g transform="translate(492.0 27.8607518564)scale(0.15 -0.15)">
     <use xlink:href="#BitstreamVeraSans-Roman-66"/>
     <use x="35.205078125" xlink:href="#BitstreamVeraSans-Roman-31"/>
     <use x="98.828125" xlink:href="#BitstreamVeraSans-Roman-33"/>
    </g>
   </g>
   <g id="text_22">
    <!-- bbob-biobj -->
    <defs>
     <path d="M 9.421875 54.6875 
L 18.40625 54.6875 
L 18.40625 -0.984375 
Q 18.40625 -11.421875 14.421875 -16.109375 
Q 10.453125 -20.796875 1.609375 -20.796875 
L -1.8125 -20.796875 
L -1.8125 -13.1875 
L 0.59375 -13.1875 
Q 5.71875 -13.1875 7.5625 -10.8125 
Q 9.421875 -8.453125 9.421875 -0.984375 
z
M 9.421875 75.984375 
L 18.40625 75.984375 
L 18.40625 64.59375 
L 9.421875 64.59375 
z
" id="BitstreamVeraSans-Roman-6a"/>
     <path d="M 48.6875 27.296875 
Q 48.6875 37.203125 44.609375 42.84375 
Q 40.53125 48.484375 33.40625 48.484375 
Q 26.265625 48.484375 22.1875 42.84375 
Q 18.109375 37.203125 18.109375 27.296875 
Q 18.109375 17.390625 22.1875 11.75 
Q 26.265625 6.109375 33.40625 6.109375 
Q 40.53125 6.109375 44.609375 11.75 
Q 48.6875 17.390625 48.6875 27.296875 
M 18.109375 46.390625 
Q 20.953125 51.265625 25.265625 53.625 
Q 29.59375 56 35.59375 56 
Q 45.5625 56 51.78125 48.09375 
Q 58.015625 40.1875 58.015625 27.296875 
Q 58.015625 14.40625 51.78125 6.484375 
Q 45.5625 -1.421875 35.59375 -1.421875 
Q 29.59375 -1.421875 25.265625 0.953125 
Q 20.953125 3.328125 18.109375 8.203125 
L 18.109375 0 
L 9.078125 0 
L 9.078125 75.984375 
L 18.109375 75.984375 
z
" id="BitstreamVeraSans-Roman-62"/>
    </defs>
    <g transform="translate(89.664 33.0273396968)scale(0.1666 -0.1666)">
     <use xlink:href="#BitstreamVeraSans-Roman-62"/>
     <use x="63.4765625" xlink:href="#BitstreamVeraSans-Roman-62"/>
     <use x="126.953125" xlink:href="#BitstreamVeraSans-Roman-6f"/>
     <use x="188.134765625" xlink:href="#BitstreamVeraSans-Roman-62"/>
     <use x="251.611328125" xlink:href="#BitstreamVeraSans-Roman-2d"/>
     <use x="287.6953125" xlink:href="#BitstreamVeraSans-Roman-62"/>
     <use x="351.171875" xlink:href="#BitstreamVeraSans-Roman-69"/>
     <use x="378.955078125" xlink:href="#BitstreamVeraSans-Roman-6f"/>
     <use x="440.13671875" xlink:href="#BitstreamVeraSans-Roman-62"/>
     <use x="503.61328125" xlink:href="#BitstreamVeraSans-Roman-6a"/>
    </g>
    <!-- 1-separable 2-moderate, 3-D -->
    <defs>
     <path d="M 11.71875 12.40625 
L 22.015625 12.40625 
L 22.015625 4 
L 14.015625 -11.625 
L 7.71875 -11.625 
L 11.71875 4 
z
" id="BitstreamVeraSans-Roman-2c"/>
     <path d="M 19.671875 64.796875 
L 19.671875 8.109375 
L 31.59375 8.109375 
Q 46.6875 8.109375 53.6875 14.9375 
Q 60.6875 21.78125 60.6875 36.53125 
Q 60.6875 51.171875 53.6875 57.984375 
Q 46.6875 64.796875 31.59375 64.796875 
z
M 9.8125 72.90625 
L 30.078125 72.90625 
Q 51.265625 72.90625 61.171875 64.09375 
Q 71.09375 55.28125 71.09375 36.53125 
Q 71.09375 17.671875 61.125 8.828125 
Q 51.171875 0 30.078125 0 
L 9.8125 0 
z
" id="BitstreamVeraSans-Roman-44"/>
    </defs>
    <g transform="translate(89.664 51.6828953218)scale(0.1666 -0.1666)">
     <use xlink:href="#BitstreamVeraSans-Roman-31"/>
     <use x="63.623046875" xlink:href="#BitstreamVeraSans-Roman-2d"/>
     <use x="99.70703125" xlink:href="#BitstreamVeraSans-Roman-73"/>
     <use x="151.806640625" xlink:href="#BitstreamVeraSans-Roman-65"/>
     <use x="213.330078125" xlink:href="#BitstreamVeraSans-Roman-70"/>
     <use x="276.806640625" xlink:href="#BitstreamVeraSans-Roman-61"/>
     <use x="338.0859375" xlink:href="#BitstreamVeraSans-Roman-72"/>
     <use x="379.19921875" xlink:href="#BitstreamVeraSans-Roman-61"/>
     <use x="440.478515625" xlink:href="#BitstreamVeraSans-Roman-62"/>
     <use x="503.955078125" xlink:href="#BitstreamVeraSans-Roman-6c"/>
     <use x="531.73828125" xlink:href="#BitstreamVeraSans-Roman-65"/>
     <use x="593.26171875" xlink:href="#BitstreamVeraSans-Roman-20"/>
     <use x="625.048828125" xlink:href="#BitstreamVeraSans-Roman-32"/>
     <use x="688.671875" xlink:href="#BitstreamVeraSans-Roman-2d"/>
     <use x="724.755859375" xlink:href="#BitstreamVeraSans-Roman-6d"/>
     <use x="822.16796875" xlink:href="#BitstreamVeraSans-Roman-6f"/>
     <use x="883.349609375" xlink:href="#BitstreamVeraSans-Roman-64"/>
     <use x="946.826171875" xlink:href="#BitstreamVeraSans-Roman-65"/>
     <use x="1008.34960938" xlink:href="#BitstreamVeraSans-Roman-72"/>
     <use x="1049.46289062" xlink:href="#BitstreamVeraSans-Roman-61"/>
     <use x="1110.7421875" xlink:href="#BitstreamVeraSans-Roman-74"/>
     <use x="1149.95117188" xlink:href="#BitstreamVeraSans-Roman-65"/>
     <use x="1211.47460938" xlink:href="#BitstreamVeraSans-Roman-2c"/>
     <use x="1243.26171875" xlink:href="#BitstreamVeraSans-Roman-20"/>
     <use x="1275.04882812" xlink:href="#BitstreamVeraSans-Roman-33"/>
     <use x="1338.671875" xlink:href="#BitstreamVeraSans-Roman-2d"/>
     <use x="1374.75585938" xlink:href="#BitstreamVeraSans-Roman-44"/>
    </g>
    <!-- 58 targets in 1..-1.0e-4 -->
    <g transform="translate(89.664 70.3384509468)scale(0.1666 -0.1666)">
     <use xlink:href="#BitstreamVeraSans-Roman-35"/>
     <use x="63.623046875" xlink:href="#BitstreamVeraSans-Roman-38"/>
     <use x="127.24609375" xlink:href="#BitstreamVeraSans-Roman-20"/>
     <use x="159.033203125" xlink:href="#BitstreamVeraSans-Roman-74"/>
     <use x="198.2421875" xlink:href="#BitstreamVeraSans-Roman-61"/>
     <use x="259.521484375" xlink:href="#BitstreamVeraSans-Roman-72"/>
     <use x="300.619140625" xlink:href="#BitstreamVeraSans-Roman-67"/>
     <use x="364.095703125" xlink:href="#BitstreamVeraSans-Roman-65"/>
     <use x="425.619140625" xlink:href="#BitstreamVeraSans-Roman-74"/>
     <use x="464.828125" xlink:href="#BitstreamVeraSans-Roman-73"/>
     <use x="516.927734375" xlink:href="#BitstreamVeraSans-Roman-20"/>
     <use x="548.71484375" xlink:href="#BitstreamVeraSans-Roman-69"/>
     <use x="576.498046875" xlink:href="#BitstreamVeraSans-Roman-6e"/>
     <use x="639.876953125" xlink:href="#BitstreamVeraSans-Roman-20"/>
     <use x="671.6640625" xlink:href="#BitstreamVeraSans-Roman-31"/>
     <use x="735.287109375" xlink:href="#BitstreamVeraSans-Roman-2e"/>
     <use x="767.07421875" xlink:href="#BitstreamVeraSans-Roman-2e"/>
     <use x="798.861328125" xlink:href="#BitstreamVeraSans-Roman-2d"/>
     <use x="834.9453125" xlink:href="#BitstreamVeraSans-Roman-31"/>
     <use x="898.568359375" xlink:href="#BitstreamVeraSans-Roman-2e"/>
     <use x="930.35546875" xlink:href="#BitstreamVeraSans-Roman-30"/>
     <use x="993.978515625" xlink:href="#BitstreamVeraSans-Roman-65"/>
     <use x="1055.50195312" xlink:href="#BitstreamVeraSans-Roman-2d"/>
     <use x="1091.5859375" xlink:href="#BitstreamVeraSans-Roman-34"/>
    </g>
    <!-- 5 instances -->
    <g transform="translate(89.664 88.9940065718)scale(0.1666 -0.1666)">
     <use xlink:href="#BitstreamVeraSans-Roman-35"/>
     <use x="63.623046875" xlink:href="#BitstreamVeraSans-Roman-20"/>
     <use x="95.41015625" xlink:href="#BitstreamVeraSans-Roman-69"/>
     <use x="123.193359375" xlink:href="#BitstreamVeraSans-Roman-6e"/>
     <use x="186.572265625" xlink:href="#BitstreamVeraSans-Roman-73"/>
     <use x="238.671875" xlink:href="#BitstreamVeraSans-Roman-74"/>
     <use x="277.880859375" xlink:href="#BitstreamVeraSans-Roman-61"/>
     <use x="339.16015625" xlink:href="#BitstreamVeraSans-Roman-6e"/>
     <use x="402.5390625" xlink:href="#BitstreamVeraSans-Roman-63"/>
     <use x="457.51953125" xlink:href="#BitstreamVeraSans-Roman-65"/>
     <use x="519.04296875" xlink:href="#BitstreamVeraSans-Roman-73"/>
    </g>
   </g>
   <g id="text_23">
    <!-- 1.2 -->
    <g style="fill:#808080;" transform="translate(300.4484375 353.520655322)scale(0.1 -0.1)">
     <use xlink:href="#BitstreamVeraSans-Roman-31"/>
     <use x="63.623046875" xlink:href="#BitstreamVeraSans-Roman-2e"/>
     <use x="95.41015625" xlink:href="#BitstreamVeraSans-Roman-32"/>
    </g>
   </g>
  </g>
 </g>
 <defs>
  <clipPath id="pc951e68539">
   <rect height="345.6" width="446.4" x="85.2" y="13.4563428218"/>
  </clipPath>
 </defs>
</svg>
