<?xml version="1.0" encoding="utf-8" standalone="no"?>
<!DOCTYPE svg PUBLIC "-//W3C//DTD SVG 1.1//EN"
  "http://www.w3.org/Graphics/SVG/1.1/DTD/svg11.dtd">
<!-- Created with matplotlib (http://matplotlib.org/) -->
<svg height="415pt" version="1.1" viewBox="0 0 538 415" width="538pt" xmlns="http://www.w3.org/2000/svg" xmlns:xlink="http://www.w3.org/1999/xlink">
 <defs>
  <style type="text/css">
*{stroke-linecap:butt;stroke-linejoin:round;stroke-miterlimit:100000;}
  </style>
 </defs>
 <g id="figure_1">
  <g id="patch_1">
   <path d="M 0 415.456343 
L 538.8 415.456343 
L 538.8 0 
L 0 0 
z
" style="fill:#ffffff;"/>
  </g>
  <g id="axes_1">
   <g id="patch_2">
    <path d="M 85.2 359.056343 
L 531.6 359.056343 
L 531.6 13.456343 
L 85.2 13.456343 
z
" style="fill:#ffffff;"/>
   </g>
   <g id="line2d_1">
    <defs>
     <path d="M 0 1.5 
C 0.397805 1.5 0.77937 1.341951 1.06066 1.06066 
C 1.341951 0.77937 1.5 0.397805 1.5 0 
C 1.5 -0.397805 1.341951 -0.77937 1.06066 -1.06066 
C 0.77937 -1.341951 0.397805 -1.5 0 -1.5 
C -0.397805 -1.5 -0.77937 -1.341951 -1.06066 -1.06066 
C -1.341951 -0.77937 -1.5 -0.397805 -1.5 0 
C -1.5 0.397805 -1.341951 0.77937 -1.06066 1.06066 
C -0.77937 1.341951 -0.397805 1.5 0 1.5 
z
" id="m45be5c3127" style="stroke:#00bfbf;stroke-width:0.5;"/>
    </defs>
    <g>
     <use style="fill:#00bfbf;stroke:#00bfbf;stroke-width:0.5;" x="325.80764359" xlink:href="#m45be5c3127" y="224.839886693"/>
     <use style="fill:#00bfbf;stroke:#00bfbf;stroke-width:0.5;" x="325.80764359" xlink:href="#m45be5c3127" y="224.839886693"/>
    </g>
   </g>
   <g id="line2d_2">
    <path d="M 69.718457 359.056343 
L 69.718457 343.127357 
L 131.644628 343.127357 
L 131.644628 338.407657 
L 156.642827 338.407657 
L 156.642827 335.605336 
L 159.222824 335.605336 
L 159.222824 331.328108 
L 185.0747 331.328108 
L 185.0747 331.033127 
L 190.488422 331.033127 
L 190.488422 329.853202 
L 194.677146 329.853202 
L 194.677146 329.558221 
L 194.924858 329.558221 
L 194.924858 329.41073 
L 195.572299 329.41073 
L 195.572299 328.673277 
L 196.123812 328.673277 
L 196.123812 328.230805 
L 196.356069 328.230805 
L 196.356069 326.313427 
L 196.585935 326.313427 
L 196.585935 325.575974 
L 197.187591 325.575974 
L 197.187591 325.133502 
L 197.917563 325.133502 
L 197.917563 323.806087 
L 198.832201 323.806087 
L 198.832201 323.658596 
L 201.797403 323.658596 
L 201.797403 323.511106 
L 202.858375 323.511106 
L 202.858375 323.363615 
L 203.257737 323.363615 
L 203.257737 323.216124 
L 203.594454 323.216124 
L 203.594454 323.068634 
L 205.257621 323.068634 
L 205.257621 321.741218 
L 205.514646 321.741218 
L 205.565697 321.151256 
L 206.660289 321.151256 
L 206.660289 320.561293 
L 206.853668 320.561293 
L 206.853668 320.413803 
L 207.140633 320.413803 
L 207.140633 319.971331 
L 208.116934 319.971331 
L 208.116934 319.528859 
L 209.398629 319.528859 
L 209.398629 319.233878 
L 210.570029 319.233878 
L 210.570029 318.496425 
L 211.173175 318.496425 
L 211.173175 318.201444 
L 211.291874 318.201444 
L 211.291874 317.906462 
L 211.449164 317.906462 
L 211.449164 317.46399 
L 212.067478 317.46399 
L 212.067478 317.169009 
L 213.434985 317.169009 
L 213.434985 317.021519 
L 213.577931 317.021519 
L 213.649062 313.924216 
L 215.092758 313.924216 
L 215.159232 313.039272 
L 215.291589 313.039272 
L 215.291589 312.301819 
L 215.586555 312.301819 
L 215.586555 312.006838 
L 217.005637 312.006838 
L 217.005637 311.269385 
L 218.597468 311.269385 
L 218.654301 309.057026 
L 218.880195 309.057026 
L 218.880195 308.319573 
L 219.159388 308.319573 
L 219.159388 308.172082 
L 220.505286 308.172082 
L 220.505286 307.434629 
L 221.351124 307.434629 
L 221.401372 306.992157 
L 222.669647 306.992157 
L 222.693344 305.959723 
L 223.598477 305.959723 
L 223.598477 305.812232 
L 224.901638 305.812232 
L 224.901638 305.36976 
L 225.284535 305.36976 
L 225.305616 302.86242 
L 225.928963 302.86242 
L 225.928963 302.567439 
L 226.930707 302.567439 
L 226.950291 298.880173 
L 227.280612 298.880173 
L 227.319154 297.847739 
L 227.510873 297.847739 
L 227.510873 297.552758 
L 227.851874 297.552758 
L 227.851874 296.815305 
L 228.16922 296.815305 
L 228.16922 295.930361 
L 228.372184 295.930361 
L 228.372184 295.487889 
L 228.500389 295.487889 
L 228.500389 293.27553 
L 229.130605 293.27553 
L 229.148352 292.538077 
L 230.457494 292.538077 
L 230.457494 291.505643 
L 231.16556 291.505643 
L 231.16556 290.91568 
L 231.598954 290.91568 
L 231.678297 289.883246 
L 231.74157 289.883246 
L 231.74157 289.145793 
L 231.992882 289.145793 
L 231.992882 288.850812 
L 232.578655 288.850812 
L 232.578655 288.703321 
L 233.179098 288.703321 
L 233.179098 287.818378 
L 234.305478 287.818378 
L 234.305478 287.670887 
L 235.18906 287.670887 
L 235.18906 286.933434 
L 235.431397 286.933434 
L 235.431397 286.785943 
L 235.921426 286.785943 
L 236.025979 283.688641 
L 237.804716 283.688641 
L 237.804716 283.393659 
L 238.056146 283.393659 
L 238.056146 282.508716 
L 238.304777 282.508716 
L 238.304777 282.213734 
L 239.496879 282.213734 
L 239.496879 281.623772 
L 239.752141 281.623772 
L 239.752141 278.378979 
L 239.917058 278.378979 
L 239.917058 276.166619 
L 240.275645 276.166619 
L 240.340228 274.101751 
L 242.704216 274.101751 
L 242.762154 271.59441 
L 242.935073 271.59441 
L 242.935073 270.414486 
L 243.492653 270.414486 
L 243.492653 270.119504 
L 244.063963 270.119504 
L 244.063963 269.824523 
L 245.095136 269.824523 
L 245.155864 269.529542 
L 245.225067 269.529542 
L 245.285444 268.644598 
L 245.737363 268.644598 
L 245.787953 267.317183 
L 246.138905 267.317183 
L 246.15548 266.874711 
L 246.26292 266.874711 
L 246.26292 266.432239 
L 246.630888 266.432239 
L 246.630888 266.284748 
L 247.080497 266.284748 
L 247.143994 265.694786 
L 247.223112 265.694786 
L 247.223112 265.547295 
L 247.614555 265.547295 
L 247.614555 265.252314 
L 247.869199 265.252314 
L 247.869199 265.104824 
L 248.279728 265.104824 
L 248.279728 264.662352 
L 248.57903 264.662352 
L 248.57903 264.514861 
L 249.151381 264.514861 
L 249.151381 263.482427 
L 249.367669 263.482427 
L 249.367669 263.334936 
L 249.723559 263.334936 
L 249.730619 262.892464 
L 249.934402 262.892464 
L 249.934402 262.597483 
L 250.177896 262.597483 
L 250.177896 261.712539 
L 250.302095 261.712539 
L 250.302095 261.122577 
L 251.05975 261.122577 
L 251.05975 260.385124 
L 251.343941 260.385124 
L 251.343941 260.237633 
L 251.520556 260.237633 
L 251.579119 259.50018 
L 251.682853 259.50018 
L 251.682853 259.205199 
L 251.927307 259.205199 
L 251.927307 258.910218 
L 252.181769 258.910218 
L 252.181769 258.762727 
L 252.669783 258.762727 
L 252.669783 258.615237 
L 253.062391 258.615237 
L 253.17158 258.025274 
L 253.394361 258.025274 
L 253.442239 256.697859 
L 254.27543 256.697859 
L 254.27543 256.255387 
L 254.396052 256.255387 
L 254.396052 256.107896 
L 254.516027 256.107896 
L 254.516027 255.812915 
L 255.100867 255.812915 
L 255.100867 255.665424 
L 255.228165 255.665424 
L 255.310796 252.863103 
L 255.524217 252.863103 
L 255.524217 251.683178 
L 256.660327 251.683178 
L 256.768763 250.798234 
L 256.784211 250.798234 
L 256.876675 249.913291 
L 258.132517 249.913291 
L 258.132517 249.7658 
L 258.421399 249.7658 
L 258.450083 249.175838 
L 258.649845 249.175838 
L 258.720758 248.880856 
L 259.183219 248.880856 
L 259.275494 248.438384 
L 259.504528 248.438384 
L 259.504528 248.290894 
L 259.897532 248.290894 
L 259.902009 247.995913 
L 260.089251 247.995913 
L 260.089251 247.553441 
L 260.419756 247.553441 
L 260.419756 246.668497 
L 260.766987 246.668497 
L 260.852957 246.373516 
L 261.04519 246.373516 
L 261.121622 245.636063 
L 261.591411 245.636063 
L 261.591411 245.341082 
L 261.769184 245.341082 
L 261.769184 245.193591 
L 261.916936 245.193591 
L 261.916936 245.0461 
L 262.136748 245.0461 
L 262.136748 244.751119 
L 262.862056 244.751119 
L 262.862056 244.456138 
L 263.107736 244.456138 
L 263.107736 243.866176 
L 263.651775 243.866176 
L 263.731118 243.571194 
L 263.810181 243.571194 
L 263.810181 243.423704 
L 264.282447 243.423704 
L 264.337573 242.096288 
L 264.480267 242.096288 
L 264.480267 241.653816 
L 265.247429 241.653816 
L 265.331846 240.473891 
L 265.394949 240.473891 
L 265.394949 239.736438 
L 266.260175 239.736438 
L 266.283737 239.441457 
L 266.627593 239.441457 
L 266.670618 238.998985 
L 268.179157 238.998985 
L 268.185337 238.556514 
L 268.323941 238.556514 
L 268.379143 237.81906 
L 268.848927 237.81906 
L 268.956639 236.934117 
L 269.117238 236.934117 
L 269.117238 236.786626 
L 269.235461 236.786626 
L 269.235461 236.491645 
L 269.46421 236.491645 
L 269.46421 236.344154 
L 270.294715 236.344154 
L 270.294715 236.196664 
L 270.706948 236.196664 
L 270.748307 235.606701 
L 270.855483 235.606701 
L 270.855483 235.164229 
L 271.434595 235.164229 
L 271.490623 234.721758 
L 271.54651 234.721758 
L 271.54651 234.131795 
L 272.376152 234.131795 
L 272.376152 233.689323 
L 273.269777 233.689323 
L 273.269777 233.541833 
L 273.526661 233.541833 
L 273.526661 233.394342 
L 273.691461 233.394342 
L 273.691461 233.246852 
L 273.847862 233.246852 
L 273.847862 233.099361 
L 274.114809 233.099361 
L 274.114809 232.95187 
L 274.890162 232.95187 
L 274.992905 232.509398 
L 275.408161 232.509398 
L 275.408161 232.361908 
L 275.723434 232.361908 
L 275.723434 232.066927 
L 276.319479 232.066927 
L 276.364512 231.329474 
L 276.897939 231.329474 
L 276.912576 231.034492 
L 277.153747 231.034492 
L 277.153747 230.739511 
L 277.914045 230.739511 
L 277.914045 230.44453 
L 278.540747 230.44453 
L 278.540747 230.297039 
L 279.488164 230.297039 
L 279.488164 230.002058 
L 279.861287 230.002058 
L 279.861287 229.854567 
L 280.282272 229.854567 
L 280.325373 229.412096 
L 281.503018 229.412096 
L 281.503018 229.264605 
L 282.31031 229.264605 
L 282.31031 229.117114 
L 283.228509 229.117114 
L 283.228509 228.969624 
L 283.656064 228.969624 
L 283.656064 228.674643 
L 284.705209 228.674643 
L 284.705209 228.527152 
L 285.406347 228.527152 
L 285.406347 228.232171 
L 285.753757 228.232171 
L 285.753757 228.08468 
L 286.207801 228.08468 
L 286.207801 227.93719 
L 286.578341 227.93719 
L 286.610862 227.347227 
L 287.956079 227.347227 
L 287.956079 227.199736 
L 288.609384 227.199736 
L 288.609384 227.052246 
L 289.169381 227.052246 
L 289.169381 226.904755 
L 290.59372 226.904755 
L 290.59372 226.757265 
L 290.824766 226.757265 
L 290.824766 226.609774 
L 291.510424 226.609774 
L 291.510424 226.462283 
L 292.734328 226.462283 
L 292.734328 226.314793 
L 292.976965 226.314793 
L 292.976965 226.167302 
L 293.314494 226.167302 
L 293.314494 226.019812 
L 293.608428 226.019812 
L 293.608428 225.872321 
L 293.976574 225.872321 
L 293.976574 225.72483 
L 294.9548 225.72483 
L 294.9548 225.57734 
L 296.922352 225.57734 
L 296.922352 225.429849 
L 298.585243 225.429849 
L 298.585243 225.282359 
L 300.132862 225.282359 
L 300.132862 225.134868 
L 308.716661 225.134868 
L 308.716661 224.987377 
L 325.807644 224.987377 
L 325.807644 224.839887 
L 445.2 224.839887 
L 445.2 224.839887 
" style="fill:none;stroke:#00bfbf;stroke-linecap:square;stroke-width:1.5;"/>
   </g>
   <g id="line2d_3">
    <defs>
     <path d="M -6 0 
L 6 0 
M 0 6 
L 0 -6 
" id="mabed136b84" style="stroke:#00bfbf;stroke-width:1.5;"/>
    </defs>
    <g>
     <use style="fill:none;stroke:#00bfbf;stroke-width:1.5;" x="131.644627902" xlink:href="#mabed136b84" y="338.407657264"/>
     <use style="fill:none;stroke:#00bfbf;stroke-width:1.5;" x="217.005636752" xlink:href="#mabed136b84" y="312.006837871"/>
     <use style="fill:none;stroke:#00bfbf;stroke-width:1.5;" x="250.302095305" xlink:href="#mabed136b84" y="261.122577031"/>
     <use style="fill:none;stroke:#00bfbf;stroke-width:1.5;" x="308.716661258" xlink:href="#mabed136b84" y="225.134867916"/>
     <use style="fill:none;stroke:#00bfbf;stroke-width:1.5;" x="325.80764359" xlink:href="#mabed136b84" y="224.839886693"/>
     <use style="fill:none;stroke:#00bfbf;stroke-width:1.5;" x="445.2" xlink:href="#mabed136b84" y="224.839886693"/>
    </g>
   </g>
   <g id="line2d_4"/>
   <g id="line2d_5">
    <path clip-path="url(#p55bc2ce734)" d="M 239.741103 281.623772 
" style="fill:none;stroke:#00bfbf;stroke-linecap:square;"/>
    <defs>
     <path d="M -12 12 
L 12 -12 
M -12 -12 
L 12 12 
" id="mab66114c77" style="stroke:#00bfbf;stroke-width:3.0;"/>
    </defs>
    <g clip-path="url(#p55bc2ce734)">
     <use style="fill:#00bfbf;stroke:#00bfbf;stroke-width:3.0;" x="239.741102765" xlink:href="#mab66114c77" y="281.623771978"/>
    </g>
   </g>
   <g id="line2d_6">
    <defs>
     <path d="M 0 1.5 
C 0.397805 1.5 0.77937 1.341951 1.06066 1.06066 
C 1.341951 0.77937 1.5 0.397805 1.5 0 
C 1.5 -0.397805 1.341951 -0.77937 1.06066 -1.06066 
C 0.77937 -1.341951 0.397805 -1.5 0 -1.5 
C -0.397805 -1.5 -0.77937 -1.341951 -1.06066 -1.06066 
C -1.341951 -0.77937 -1.5 -0.397805 -1.5 0 
C -1.5 0.397805 -1.341951 0.77937 -1.06066 1.06066 
C -0.77937 1.341951 -0.397805 1.5 0 1.5 
z
" id="md1e396b59a" style="stroke:#008000;stroke-width:0.5;"/>
    </defs>
    <g>
     <use style="fill:#008000;stroke:#008000;stroke-width:0.5;" x="308.452396846" xlink:href="#md1e396b59a" y="229.264605027"/>
     <use style="fill:#008000;stroke:#008000;stroke-width:0.5;" x="308.452396846" xlink:href="#md1e396b59a" y="229.264605027"/>
    </g>
   </g>
   <g id="line2d_7">
    <path d="M 60.662335 359.056343 
L 60.662335 341.947432 
L 172.275795 341.947432 
L 172.275795 341.357469 
L 192.801565 341.357469 
L 192.801565 340.914998 
L 197.893611 340.914998 
L 197.893611 340.767507 
L 203.650083 340.767507 
L 203.650083 340.472526 
L 204.557403 340.472526 
L 204.557403 338.555148 
L 206.660289 338.555148 
L 206.660289 338.112676 
L 206.981663 338.112676 
L 206.981663 337.375223 
L 207.455218 337.375223 
L 207.486434 336.342789 
L 208.01054 336.342789 
L 208.01054 336.047807 
L 208.641433 336.047807 
L 208.641433 335.310354 
L 209.626541 335.310354 
L 209.626541 333.982939 
L 212.963992 333.982939 
L 212.963992 333.835448 
L 213.446933 333.835448 
L 213.446933 333.540467 
L 214.655789 333.540467 
L 214.655789 332.213052 
L 215.08166 332.213052 
L 215.08166 330.443164 
L 215.324556 330.443164 
L 215.324556 329.705711 
L 215.759529 329.705711 
L 215.759529 329.263239 
L 215.931173 329.263239 
L 215.931173 328.820768 
L 216.417428 328.820768 
L 216.417428 328.378296 
L 217.913735 328.378296 
L 217.913735 328.083314 
L 218.870829 328.083314 
L 218.870829 327.640843 
L 219.168635 327.640843 
L 219.187117 325.723465 
L 219.316062 325.723465 
L 219.316062 325.280993 
L 219.914118 325.280993 
L 220.021156 324.396049 
L 222.270937 324.396049 
L 222.270937 323.953577 
L 223.293138 323.953577 
L 223.323861 322.626162 
L 223.522533 322.626162 
L 223.522533 322.18369 
L 224.152578 322.18369 
L 224.152578 321.446237 
L 224.80847 321.446237 
L 224.80847 319.82384 
L 225.277504 319.82384 
L 225.277504 316.874028 
L 225.901625 316.874028 
L 225.901625 316.726537 
L 226.40204 316.726537 
L 226.508779 314.219197 
L 227.138719 314.219197 
L 227.138719 313.481744 
L 227.26775 313.481744 
L 227.37044 312.44931 
L 227.510873 312.44931 
L 227.510873 312.006838 
L 228.212427 312.006838 
L 228.212427 311.269385 
L 228.518645 311.269385 
L 228.579387 308.614554 
L 229.319187 308.614554 
L 229.319187 308.467063 
L 229.806772 308.467063 
L 229.806772 307.58212 
L 230.035267 307.58212 
L 230.035267 306.549685 
L 230.46307 306.549685 
L 230.46307 305.074779 
L 230.806099 305.074779 
L 230.806099 304.927289 
L 231.327058 304.927289 
L 231.327058 304.484817 
L 231.529961 304.484817 
L 231.529961 304.189835 
L 231.646594 304.189835 
L 231.646594 303.599873 
L 232.870885 303.599873 
L 232.930872 300.50257 
L 233.2087 300.50257 
L 233.238264 298.585192 
L 233.590006 298.585192 
L 233.590006 296.225342 
L 233.831052 296.225342 
L 233.831052 294.455455 
L 234.473834 294.455455 
L 234.473834 293.865493 
L 234.998741 293.865493 
L 234.998741 292.685568 
L 235.207102 292.685568 
L 235.261138 291.210662 
L 235.697612 291.210662 
L 235.697612 290.76819 
L 235.864588 290.76819 
L 235.864588 290.325718 
L 236.554265 290.325718 
L 236.554265 290.178227 
L 237.590981 290.178227 
L 237.590981 290.030737 
L 237.912818 290.030737 
L 237.992558 287.965868 
L 238.079945 287.965868 
L 238.079945 287.228415 
L 238.69769 287.228415 
L 238.69769 286.638453 
L 239.663685 286.638453 
L 239.663685 283.836131 
L 240.723856 283.836131 
L 240.723856 283.688641 
L 242.858385 283.688641 
L 242.858385 283.54115 
L 243.872087 283.54115 
L 243.872087 283.098678 
L 244.308263 283.098678 
L 244.404045 282.361225 
L 244.629895 282.361225 
L 244.629895 281.476281 
L 245.562229 281.476281 
L 245.562229 281.328791 
L 245.675376 281.328791 
L 245.675376 281.1813 
L 245.966903 281.1813 
L 246.072481 280.296356 
L 246.133377 280.296356 
L 246.243674 279.706394 
L 246.413566 279.706394 
L 246.413566 279.116432 
L 246.813964 279.116432 
L 246.813964 278.968941 
L 247.16512 278.968941 
L 247.207311 276.756582 
L 248.09567 276.756582 
L 248.09567 276.609091 
L 248.422397 276.609091 
L 248.497121 276.019129 
L 248.70503 276.019129 
L 248.70503 275.576657 
L 248.842568 275.576657 
L 248.925662 274.839204 
L 249.086085 274.839204 
L 249.086085 274.396732 
L 249.479793 274.396732 
L 249.517834 273.80677 
L 249.674074 273.80677 
L 249.674074 273.659279 
L 249.791715 273.659279 
L 249.880709 272.331863 
L 250.251579 272.331863 
L 250.279147 271.151939 
L 250.562048 271.151939 
L 250.562048 271.004448 
L 250.751674 271.004448 
L 250.84141 270.414486 
L 251.01092 270.414486 
L 251.01092 269.972014 
L 251.35926 269.972014 
L 251.442233 269.529542 
L 252.001825 269.529542 
L 252.027317 268.644598 
L 252.145896 268.644598 
L 252.158563 268.054636 
L 252.310017 268.054636 
L 252.414592 266.137258 
L 252.696584 266.137258 
L 252.696584 265.989767 
L 252.930248 265.989767 
L 253.023845 264.662352 
L 253.048198 264.662352 
L 253.048198 264.36737 
L 253.322351 264.36737 
L 253.322351 264.21988 
L 253.640634 264.21988 
L 253.640634 264.072389 
L 254.129045 264.072389 
L 254.129045 263.777408 
L 254.283108 263.777408 
L 254.363568 262.449993 
L 254.663679 262.449993 
L 254.663679 262.155011 
L 255.141534 262.155011 
L 255.141534 260.237633 
L 255.677997 260.237633 
L 255.677997 260.090143 
L 257.63763 260.090143 
L 257.693711 259.647671 
L 257.762794 259.647671 
L 257.762794 259.35269 
L 258.515282 259.35269 
L 258.515282 259.057708 
L 259.157005 259.057708 
L 259.206324 258.025274 
L 259.954178 258.025274 
L 259.954178 257.877784 
L 260.11735 257.877784 
L 260.199964 257.582802 
L 260.608509 257.582802 
L 260.608509 257.435312 
L 261.06078 257.435312 
L 261.06078 257.140331 
L 261.249835 257.140331 
L 261.249835 256.99284 
L 261.367536 256.99284 
L 261.367536 256.845349 
L 261.529063 256.845349 
L 261.529063 256.255387 
L 261.747211 256.255387 
L 261.747211 256.107896 
L 262.152945 256.107896 
L 262.252565 255.370443 
L 262.349068 255.370443 
L 262.41584 254.4855 
L 262.746737 254.4855 
L 262.82281 254.043028 
L 263.000177 254.043028 
L 263.000177 253.895537 
L 263.207058 253.895537 
L 263.207058 253.453065 
L 263.52652 253.453065 
L 263.62779 253.158084 
L 263.653036 253.158084 
L 263.680774 252.715612 
L 263.878975 252.715612 
L 263.878975 252.420631 
L 264.196425 252.420631 
L 264.196425 251.830669 
L 265.891178 251.830669 
L 265.977749 251.388197 
L 266.680536 251.388197 
L 266.680536 251.240706 
L 266.986891 251.240706 
L 266.986891 250.503253 
L 267.547043 250.503253 
L 267.633773 250.208272 
L 267.69281 250.208272 
L 267.797848 249.7658 
L 267.969047 249.7658 
L 267.98568 249.323328 
L 268.122426 249.323328 
L 268.122426 249.175838 
L 268.651105 249.175838 
L 268.651105 248.290894 
L 269.10637 248.290894 
L 269.179383 247.553441 
L 269.250195 247.553441 
L 269.250195 247.110969 
L 269.54285 247.110969 
L 269.59899 246.373516 
L 269.693529 246.373516 
L 269.730079 246.078535 
L 270.62123 246.078535 
L 270.62123 245.783553 
L 271.904232 245.783553 
L 271.904232 245.488572 
L 272.746134 245.488572 
L 272.746134 245.0461 
L 273.628593 245.0461 
L 273.628593 244.89861 
L 274.042825 244.89861 
L 274.042825 244.751119 
L 274.405904 244.751119 
L 274.514773 244.013666 
L 274.746291 244.013666 
L 274.746291 243.423704 
L 274.865739 243.423704 
L 274.865739 243.276213 
L 275.016432 243.276213 
L 275.016432 242.981232 
L 275.265348 242.981232 
L 275.265348 242.833741 
L 276.637051 242.833741 
L 276.637051 242.686251 
L 277.32062 242.686251 
L 277.321988 242.243779 
L 277.767663 242.243779 
L 277.767663 242.096288 
L 277.954647 242.096288 
L 278.056825 241.653816 
L 278.382777 241.653816 
L 278.382777 240.916363 
L 278.686026 240.916363 
L 278.772101 239.441457 
L 278.804134 239.441457 
L 278.804134 239.293967 
L 278.963612 239.293967 
L 278.963612 239.146476 
L 279.676736 239.146476 
L 279.676736 238.704004 
L 280.54023 238.704004 
L 280.585201 238.114042 
L 281.115596 238.114042 
L 281.115596 237.81906 
L 282.307027 237.81906 
L 282.346395 237.081607 
L 282.509688 237.081607 
L 282.509688 236.934117 
L 284.358445 236.934117 
L 284.358445 236.786626 
L 285.138461 236.786626 
L 285.138461 236.491645 
L 285.392528 236.491645 
L 285.426821 235.754192 
L 285.569144 235.754192 
L 285.596556 235.31172 
L 285.735927 235.31172 
L 285.735927 235.164229 
L 286.786647 235.164229 
L 286.786647 234.869248 
L 287.189605 234.869248 
L 287.189605 234.721758 
L 287.878174 234.721758 
L 287.878174 234.426776 
L 288.103059 234.426776 
L 288.103059 234.279286 
L 288.259561 234.279286 
L 288.259561 234.131795 
L 288.40748 234.131795 
L 288.40748 233.984305 
L 289.701929 233.984305 
L 289.701929 233.394342 
L 290.318244 233.394342 
L 290.318244 233.246852 
L 290.547223 233.246852 
L 290.547223 232.80438 
L 290.660462 232.80438 
L 290.660462 232.509398 
L 291.960017 232.509398 
L 291.960017 232.361908 
L 292.517801 232.361908 
L 292.517801 232.214417 
L 292.725405 232.214417 
L 292.828146 231.771945 
L 292.847955 231.771945 
L 292.847955 231.624455 
L 294.010626 231.624455 
L 294.010626 231.476964 
L 294.687288 231.476964 
L 294.687288 231.181983 
L 294.803937 231.181983 
L 294.803937 231.034492 
L 296.511541 231.034492 
L 296.511541 230.739511 
L 297.621025 230.739511 
L 297.621025 230.44453 
L 298.197982 230.44453 
L 298.217317 230.002058 
L 299.22861 230.002058 
L 299.22861 229.854567 
L 299.632842 229.854567 
L 299.632842 229.707077 
L 301.400714 229.707077 
L 301.400714 229.559586 
L 305.198402 229.559586 
L 305.198402 229.412096 
L 308.452397 229.412096 
L 308.452397 229.264605 
L 445.2 229.264605 
L 445.2 229.264605 
" style="fill:none;stroke:#008000;stroke-linecap:square;stroke-width:1.5;"/>
   </g>
   <g id="line2d_8">
    <defs>
     <path d="M -0 6 
L 6 -6 
L -6 -6 
z
" id="m44c1c362bc" style="stroke:#008000;stroke-linejoin:miter;stroke-width:1.5;"/>
    </defs>
    <g>
     <use style="fill:none;stroke:#008000;stroke-linejoin:miter;stroke-width:1.5;" x="172.27579512" xlink:href="#m44c1c362bc" y="341.357469486"/>
     <use style="fill:none;stroke:#008000;stroke-linejoin:miter;stroke-width:1.5;" x="237.928789137" xlink:href="#m44c1c362bc" y="289.883246202"/>
     <use style="fill:none;stroke:#008000;stroke-linejoin:miter;stroke-width:1.5;" x="274.746291181" xlink:href="#m44c1c362bc" y="244.01366614"/>
     <use style="fill:none;stroke:#008000;stroke-linejoin:miter;stroke-width:1.5;" x="308.452396846" xlink:href="#m44c1c362bc" y="229.264605027"/>
     <use style="fill:none;stroke:#008000;stroke-linejoin:miter;stroke-width:1.5;" x="308.452396846" xlink:href="#m44c1c362bc" y="229.264605027"/>
     <use style="fill:none;stroke:#008000;stroke-linejoin:miter;stroke-width:1.5;" x="445.2" xlink:href="#m44c1c362bc" y="229.264605027"/>
    </g>
   </g>
   <g id="line2d_9"/>
   <g id="line2d_10">
    <path clip-path="url(#p55bc2ce734)" d="M 239.656297 286.638453 
" style="fill:none;stroke:#008000;stroke-linecap:square;"/>
    <defs>
     <path d="M -12 12 
L 12 -12 
M -12 -12 
L 12 12 
" id="mc777500958" style="stroke:#008000;stroke-width:3.0;"/>
    </defs>
    <g clip-path="url(#p55bc2ce734)">
     <use style="fill:#008000;stroke:#008000;stroke-width:3.0;" x="239.656297326" xlink:href="#mc777500958" y="286.638452757"/>
    </g>
   </g>
   <g id="line2d_11">
    <defs>
     <path d="M 0 1.5 
C 0.397805 1.5 0.77937 1.341951 1.06066 1.06066 
C 1.341951 0.77937 1.5 0.397805 1.5 0 
C 1.5 -0.397805 1.341951 -0.77937 1.06066 -1.06066 
C 0.77937 -1.341951 0.397805 -1.5 0 -1.5 
C -0.397805 -1.5 -0.77937 -1.341951 -1.06066 -1.06066 
C -1.341951 -0.77937 -1.5 -0.397805 -1.5 0 
C -1.5 0.397805 -1.341951 0.77937 -1.06066 1.06066 
C -0.77937 1.341951 -0.397805 1.5 0 1.5 
z
" id="m298a90e141" style="stroke:#0000ff;stroke-width:0.5;"/>
    </defs>
    <g>
     <use style="fill:#0000ff;stroke:#0000ff;stroke-width:0.5;" x="310.172539945" xlink:href="#m298a90e141" y="276.461600589"/>
     <use style="fill:#0000ff;stroke:#0000ff;stroke-width:0.5;" x="310.172539945" xlink:href="#m298a90e141" y="276.461600589"/>
    </g>
   </g>
   <g id="line2d_12">
    <path d="M 49.252971 359.056343 
L 49.252971 350.059416 
L 119.284688 350.059416 
L 119.284688 349.026981 
L 177.949223 349.026981 
L 177.949223 348.142038 
L 185.353734 348.142038 
L 185.353734 347.699566 
L 189.104295 347.699566 
L 189.104295 346.962113 
L 194.088238 346.962113 
L 194.088238 346.22466 
L 195.667816 346.22466 
L 195.667816 346.077169 
L 199.242031 346.077169 
L 199.242031 345.782188 
L 199.644477 345.782188 
L 199.644477 345.634697 
L 201.036044 345.634697 
L 201.110868 345.044735 
L 203.583311 345.044735 
L 203.583311 344.749754 
L 204.068398 344.749754 
L 204.068398 343.569829 
L 204.819049 343.569829 
L 204.819049 343.127357 
L 205.298945 343.127357 
L 205.298945 342.537394 
L 206.640858 342.537394 
L 206.640858 342.242413 
L 207.442719 342.242413 
L 207.442719 341.50496 
L 209.891399 341.50496 
L 209.891399 339.882563 
L 211.605355 339.882563 
L 211.605355 338.555148 
L 212.728418 338.555148 
L 212.728418 338.260167 
L 215.495204 338.260167 
L 215.495204 337.522714 
L 216.766033 337.522714 
L 216.766033 337.375223 
L 217.023962 337.375223 
L 217.023962 337.080242 
L 219.10939 337.080242 
L 219.10939 335.900317 
L 220.945019 335.900317 
L 220.975735 335.162864 
L 222.488717 335.162864 
L 222.517383 332.950505 
L 224.525157 332.950505 
L 224.525157 332.655523 
L 225.706557 332.655523 
L 225.706557 332.360542 
L 225.94535 332.360542 
L 225.94535 332.065561 
L 227.063538 332.065561 
L 227.063538 331.623089 
L 227.272895 331.623089 
L 227.272895 331.475599 
L 227.579491 331.475599 
L 227.579491 331.033127 
L 227.919454 331.033127 
L 227.919454 330.590655 
L 228.401553 330.590655 
L 228.430884 329.705711 
L 229.391837 329.705711 
L 229.391837 329.263239 
L 230.614209 329.263239 
L 230.614209 328.820768 
L 232.073954 328.820768 
L 232.123698 326.90339 
L 232.814751 326.90339 
L 232.814751 326.460918 
L 233.438264 326.460918 
L 233.438264 325.723465 
L 233.566728 325.723465 
L 233.566728 325.280993 
L 234.618724 325.280993 
L 234.618724 324.69103 
L 235.020574 324.69103 
L 235.020574 324.101068 
L 236.298125 324.101068 
L 236.298125 323.806087 
L 237.38418 323.806087 
L 237.44789 323.068634 
L 239.592667 323.068634 
L 239.690258 321.446237 
L 240.959275 321.446237 
L 240.959275 320.708784 
L 241.475981 320.708784 
L 241.475981 320.561293 
L 241.804534 320.561293 
L 241.804534 320.413803 
L 242.325877 320.413803 
L 242.325877 319.67635 
L 242.513897 319.67635 
L 242.513897 319.528859 
L 242.984778 319.528859 
L 243.041994 319.233878 
L 243.861073 319.233878 
L 243.861073 319.086387 
L 244.189161 319.086387 
L 244.189161 318.791406 
L 244.340635 318.791406 
L 244.340635 318.348934 
L 244.831225 318.348934 
L 244.831225 318.201444 
L 245.20087 318.201444 
L 245.20087 317.758972 
L 246.125636 317.758972 
L 246.125636 317.46399 
L 246.45502 317.46399 
L 246.45502 317.021519 
L 247.099565 317.021519 
L 247.099565 316.726537 
L 247.639375 316.726537 
L 247.648676 315.989084 
L 248.117938 315.989084 
L 248.127042 314.809159 
L 249.274202 314.809159 
L 249.274202 314.661669 
L 249.674074 314.661669 
L 249.750376 314.219197 
L 250.169591 314.219197 
L 250.180663 313.334253 
L 250.548441 313.334253 
L 250.548441 312.744291 
L 250.759765 312.744291 
L 250.759765 312.5968 
L 251.030465 312.5968 
L 251.030465 312.154328 
L 251.634936 312.154328 
L 251.634936 311.564366 
L 251.93882 311.564366 
L 251.93882 311.269385 
L 252.205792 311.269385 
L 252.205792 310.826913 
L 252.722943 310.826913 
L 252.722943 310.679422 
L 252.9025 310.679422 
L 252.9025 310.531932 
L 253.485242 310.531932 
L 253.485242 310.08946 
L 254.025226 310.08946 
L 254.025226 309.794479 
L 255.071986 309.794479 
L 255.071986 308.614554 
L 255.765809 308.614554 
L 255.765809 308.172082 
L 256.001618 308.172082 
L 256.033581 307.877101 
L 256.205399 307.877101 
L 256.205399 307.72961 
L 256.48051 307.72961 
L 256.48051 307.139648 
L 257.308212 307.139648 
L 257.354423 306.402195 
L 257.488496 306.402195 
L 257.488496 306.254704 
L 257.844758 306.254704 
L 257.844758 306.107213 
L 258.051928 306.107213 
L 258.051928 305.812232 
L 258.195426 305.812232 
L 258.195426 305.664742 
L 258.766024 305.664742 
L 258.766024 305.36976 
L 259.139718 305.36976 
L 259.139718 305.22227 
L 259.739355 305.22227 
L 259.744766 304.632307 
L 260.138032 304.632307 
L 260.138032 304.337326 
L 260.382982 304.337326 
L 260.43375 304.042345 
L 260.677225 304.042345 
L 260.723877 303.157401 
L 260.792813 303.157401 
L 260.792813 303.009911 
L 261.895654 303.009911 
L 261.895654 302.567439 
L 262.257937 302.567439 
L 262.257937 302.124967 
L 262.589048 302.124967 
L 262.589048 301.829986 
L 263.082124 301.829986 
L 263.082124 301.682495 
L 263.434982 301.682495 
L 263.434982 301.535004 
L 264.127367 301.535004 
L 264.127367 300.797551 
L 264.592317 300.797551 
L 264.592317 300.50257 
L 264.751421 300.50257 
L 264.751421 300.35508 
L 265.076213 300.35508 
L 265.076213 299.470136 
L 265.594303 299.470136 
L 265.674656 298.732683 
L 265.767118 298.732683 
L 265.824885 298.14272 
L 266.157559 298.14272 
L 266.257481 297.847739 
L 266.919852 297.847739 
L 266.919852 297.405267 
L 267.143687 297.405267 
L 267.147571 297.110286 
L 267.344778 297.110286 
L 267.348628 296.815305 
L 267.629128 296.815305 
L 267.629128 296.667814 
L 267.804554 296.667814 
L 267.804554 296.077852 
L 268.016002 296.077852 
L 268.049599 295.782871 
L 268.240266 295.782871 
L 268.240266 295.487889 
L 268.622846 295.487889 
L 268.622846 295.340399 
L 268.905839 295.340399 
L 268.905839 295.192908 
L 269.165194 295.192908 
L 269.191201 294.897927 
L 269.408705 294.897927 
L 269.408705 294.602946 
L 269.773093 294.602946 
L 269.773093 294.455455 
L 270.035143 294.455455 
L 270.035143 294.307965 
L 270.552417 294.307965 
L 270.576859 294.012983 
L 271.022092 294.012983 
L 271.126341 293.423021 
L 271.267816 293.423021 
L 271.267816 293.27553 
L 271.837518 293.27553 
L 271.837518 292.538077 
L 272.852017 292.538077 
L 272.852017 292.390587 
L 273.007914 292.390587 
L 273.007914 291.653134 
L 273.365537 291.653134 
L 273.365537 291.505643 
L 273.702083 291.505643 
L 273.702083 291.358152 
L 274.433327 291.358152 
L 274.453872 290.91568 
L 274.625892 290.91568 
L 274.625892 290.76819 
L 274.914864 290.76819 
L 274.914864 290.620699 
L 275.123277 290.620699 
L 275.123277 290.473209 
L 275.536138 290.473209 
L 275.536138 290.178227 
L 276.110284 290.178227 
L 276.110284 289.883246 
L 276.457719 289.883246 
L 276.457719 289.588265 
L 276.570076 289.588265 
L 276.570076 289.293284 
L 277.521677 289.293284 
L 277.524118 288.998303 
L 277.702385 288.998303 
L 277.702385 288.40834 
L 277.949593 288.40834 
L 277.971134 288.113359 
L 278.19962 288.113359 
L 278.19962 287.818378 
L 278.517803 287.818378 
L 278.524028 286.785943 
L 278.692976 286.785943 
L 278.709955 286.195981 
L 279.608169 286.195981 
L 279.608169 285.901 
L 280.087646 285.901 
L 280.087646 285.753509 
L 280.473079 285.753509 
L 280.473079 285.458528 
L 281.274812 285.458528 
L 281.274812 285.016056 
L 281.522412 285.016056 
L 281.522412 284.868565 
L 281.968895 284.868565 
L 281.968895 284.721075 
L 282.121721 284.721075 
L 282.125032 284.278603 
L 282.283372 284.278603 
L 282.283372 283.983622 
L 283.46265 283.983622 
L 283.46265 283.836131 
L 283.713177 283.836131 
L 283.713177 283.54115 
L 284.393963 283.54115 
L 284.487078 283.098678 
L 284.817003 283.098678 
L 284.817003 282.951187 
L 285.225265 282.951187 
L 285.225265 282.803697 
L 285.363147 282.803697 
L 285.363147 282.656206 
L 286.033404 282.656206 
L 286.033404 282.508716 
L 286.393976 282.508716 
L 286.393976 282.361225 
L 286.856219 282.361225 
L 286.856219 282.213734 
L 287.212815 282.213734 
L 287.212815 282.066244 
L 287.572109 282.066244 
L 287.572109 281.918753 
L 287.943071 281.918753 
L 287.947153 281.476281 
L 288.92095 281.476281 
L 288.92095 281.328791 
L 289.244362 281.328791 
L 289.244362 281.1813 
L 289.715445 281.1813 
L 289.715445 281.03381 
L 290.369416 281.03381 
L 290.472625 280.738828 
L 291.482789 280.738828 
L 291.521947 280.296356 
L 292.032082 280.296356 
L 292.126634 279.853885 
L 292.332578 279.853885 
L 292.332578 279.706394 
L 292.557817 279.706394 
L 292.561137 279.411413 
L 292.865699 279.411413 
L 292.865699 279.263922 
L 293.408775 279.263922 
L 293.408775 279.116432 
L 293.569592 279.116432 
L 293.569592 278.968941 
L 294.553839 278.968941 
L 294.636424 278.67396 
L 294.832567 278.67396 
L 294.832567 278.526469 
L 295.477973 278.526469 
L 295.477973 278.378979 
L 296.237985 278.378979 
L 296.237985 278.231488 
L 297.661791 278.231488 
L 297.661791 278.083997 
L 298.739021 278.083997 
L 298.739021 277.936507 
L 298.865792 277.936507 
L 298.865792 277.789016 
L 299.711613 277.789016 
L 299.711613 277.641525 
L 300.266242 277.641525 
L 300.266242 277.494035 
L 302.549961 277.494035 
L 302.549961 277.346544 
L 303.143743 277.346544 
L 303.143743 277.199054 
L 305.505457 277.199054 
L 305.505457 277.051563 
L 305.975345 277.051563 
L 305.975345 276.904072 
L 309.340773 276.904072 
L 309.340773 276.756582 
L 309.840976 276.756582 
L 309.840976 276.609091 
L 310.17254 276.609091 
L 310.17254 276.461601 
L 445.2 276.461601 
L 445.2 276.461601 
" style="fill:none;stroke:#0000ff;stroke-linecap:square;stroke-width:1.5;"/>
   </g>
   <g id="line2d_13">
    <defs>
     <path d="M 0 -6 
L -1.347084 -1.854102 
L -5.706339 -1.854102 
L -2.179628 0.708204 
L -3.526712 4.854102 
L -0 2.291796 
L 3.526712 4.854102 
L 2.179628 0.708204 
L 5.706339 -1.854102 
L 1.347084 -1.854102 
z
" id="ma12d7c93eb" style="stroke:#0000ff;stroke-linejoin:bevel;stroke-width:1.5;"/>
    </defs>
    <g>
     <use style="fill:none;stroke:#0000ff;stroke-linejoin:bevel;stroke-width:1.5;" x="189.104294536" xlink:href="#ma12d7c93eb" y="347.699565765"/>
     <use style="fill:none;stroke:#0000ff;stroke-linejoin:bevel;stroke-width:1.5;" x="247.639375394" xlink:href="#ma12d7c93eb" y="316.284065594"/>
     <use style="fill:none;stroke:#0000ff;stroke-linejoin:bevel;stroke-width:1.5;" x="278.52402762" xlink:href="#ma12d7c93eb" y="286.933433979"/>
     <use style="fill:none;stroke:#0000ff;stroke-linejoin:bevel;stroke-width:1.5;" x="310.172539945" xlink:href="#ma12d7c93eb" y="276.461600589"/>
     <use style="fill:none;stroke:#0000ff;stroke-linejoin:bevel;stroke-width:1.5;" x="310.172539945" xlink:href="#ma12d7c93eb" y="276.461600589"/>
     <use style="fill:none;stroke:#0000ff;stroke-linejoin:bevel;stroke-width:1.5;" x="445.2" xlink:href="#ma12d7c93eb" y="276.461600589"/>
    </g>
   </g>
   <g id="line2d_14"/>
   <g id="line2d_15">
    <path clip-path="url(#p55bc2ce734)" d="M 239.58822 323.068634 
" style="fill:none;stroke:#0000ff;stroke-linecap:square;"/>
    <defs>
     <path d="M -12 12 
L 12 -12 
M -12 -12 
L 12 12 
" id="m30776572d1" style="stroke:#0000ff;stroke-width:3.0;"/>
    </defs>
    <g clip-path="url(#p55bc2ce734)">
     <use style="fill:#0000ff;stroke:#0000ff;stroke-width:3.0;" x="239.588220368" xlink:href="#m30776572d1" y="323.068633706"/>
    </g>
   </g>
   <g id="line2d_16">
    <path d="M 445.2 276.461601 
L 484.8 352.212778 
" style="fill:none;stroke:#0000ff;stroke-linecap:square;stroke-width:1.5;"/>
    <g>
     <use style="fill:none;stroke:#0000ff;stroke-linejoin:bevel;stroke-width:1.5;" x="445.2" xlink:href="#ma12d7c93eb" y="276.461600589"/>
     <use style="fill:none;stroke:#0000ff;stroke-linejoin:bevel;stroke-width:1.5;" x="484.8" xlink:href="#ma12d7c93eb" y="352.212778465"/>
    </g>
   </g>
   <g id="line2d_17">
    <path d="M 445.2 229.264605 
L 484.8 187.967234 
" style="fill:none;stroke:#008000;stroke-linecap:square;stroke-width:1.5;"/>
    <g>
     <use style="fill:none;stroke:#008000;stroke-linejoin:miter;stroke-width:1.5;" x="445.2" xlink:href="#m44c1c362bc" y="229.264605027"/>
     <use style="fill:none;stroke:#008000;stroke-linejoin:miter;stroke-width:1.5;" x="484.8" xlink:href="#m44c1c362bc" y="187.967233911"/>
    </g>
   </g>
   <g id="line2d_18">
    <path d="M 445.2 224.839887 
L 484.8 23.721689 
" style="fill:none;stroke:#00bfbf;stroke-linecap:square;stroke-width:1.5;"/>
    <g>
     <use style="fill:none;stroke:#00bfbf;stroke-width:1.5;" x="445.2" xlink:href="#mabed136b84" y="224.839886693"/>
     <use style="fill:none;stroke:#00bfbf;stroke-width:1.5;" x="484.8" xlink:href="#mabed136b84" y="23.7216893564"/>
    </g>
   </g>
   <g id="line2d_19">
    <path d="M 445.2 359.056343 
L 445.2 16.878125 
" style="fill:none;stroke:#000000;stroke-linecap:square;"/>
   </g>
   <g id="patch_3">
    <path d="M 85.2 13.456343 
L 531.6 13.456343 
" style="fill:none;stroke:#000000;stroke-linecap:square;stroke-linejoin:miter;"/>
   </g>
   <g id="patch_4">
    <path d="M 531.6 359.056343 
L 531.6 13.456343 
" style="fill:none;stroke:#000000;stroke-linecap:square;stroke-linejoin:miter;"/>
   </g>
   <g id="patch_5">
    <path d="M 85.2 359.056343 
L 531.6 359.056343 
" style="fill:none;stroke:#000000;stroke-linecap:square;stroke-linejoin:miter;"/>
   </g>
   <g id="patch_6">
    <path d="M 85.2 359.056343 
L 85.2 13.456343 
" style="fill:none;stroke:#000000;stroke-linecap:square;stroke-linejoin:miter;"/>
   </g>
   <g id="matplotlib.axis_1">
    <g id="xtick_1">
     <g id="line2d_20">
      <path clip-path="url(#p55bc2ce734)" d="M 85.2 359.056343 
L 85.2 13.456343 
" style="fill:none;stroke:#000000;stroke-dasharray:1.000000,3.000000;stroke-dashoffset:0.0;stroke-width:0.5;"/>
     </g>
     <g id="line2d_21">
      <defs>
       <path d="M 0 0 
L 0 -4 
" id="m9b4ad3ca66" style="stroke:#000000;stroke-width:0.5;"/>
      </defs>
      <g>
       <use style="stroke:#000000;stroke-width:0.5;" x="85.2" xlink:href="#m9b4ad3ca66" y="359.056342822"/>
      </g>
     </g>
     <g id="line2d_22">
      <defs>
       <path d="M 0 0 
L 0 4 
" id="m1c0b6bba14" style="stroke:#000000;stroke-width:0.5;"/>
      </defs>
      <g>
       <use style="stroke:#000000;stroke-width:0.5;" x="85.2" xlink:href="#m1c0b6bba14" y="13.4563428218"/>
      </g>
     </g>
     <g id="text_1">
      <!-- 0 -->
      <defs>
       <path d="M 31.78125 66.40625 
Q 24.171875 66.40625 20.328125 58.90625 
Q 16.5 51.421875 16.5 36.375 
Q 16.5 21.390625 20.328125 13.890625 
Q 24.171875 6.390625 31.78125 6.390625 
Q 39.453125 6.390625 43.28125 13.890625 
Q 47.125 21.390625 47.125 36.375 
Q 47.125 51.421875 43.28125 58.90625 
Q 39.453125 66.40625 31.78125 66.40625 
M 31.78125 74.21875 
Q 44.046875 74.21875 50.515625 64.515625 
Q 56.984375 54.828125 56.984375 36.375 
Q 56.984375 17.96875 50.515625 8.265625 
Q 44.046875 -1.421875 31.78125 -1.421875 
Q 19.53125 -1.421875 13.0625 8.265625 
Q 6.59375 17.96875 6.59375 36.375 
Q 6.59375 54.828125 13.0625 64.515625 
Q 19.53125 74.21875 31.78125 74.21875 
" id="BitstreamVeraSans-Roman-30"/>
      </defs>
      <g transform="translate(78.8375 378.253217822)scale(0.2 -0.2)">
       <use xlink:href="#BitstreamVeraSans-Roman-30"/>
      </g>
     </g>
    </g>
    <g id="xtick_2">
     <g id="line2d_23">
      <path clip-path="url(#p55bc2ce734)" d="M 136.628571 359.056343 
L 136.628571 13.456343 
" style="fill:none;stroke:#000000;stroke-dasharray:1.000000,3.000000;stroke-dashoffset:0.0;stroke-width:0.5;"/>
     </g>
     <g id="line2d_24">
      <g>
       <use style="stroke:#000000;stroke-width:0.5;" x="136.628571429" xlink:href="#m9b4ad3ca66" y="359.056342822"/>
      </g>
     </g>
     <g id="line2d_25">
      <g>
       <use style="stroke:#000000;stroke-width:0.5;" x="136.628571429" xlink:href="#m1c0b6bba14" y="13.4563428218"/>
      </g>
     </g>
     <g id="text_2">
      <!-- 1 -->
      <defs>
       <path d="M 12.40625 8.296875 
L 28.515625 8.296875 
L 28.515625 63.921875 
L 10.984375 60.40625 
L 10.984375 69.390625 
L 28.421875 72.90625 
L 38.28125 72.90625 
L 38.28125 8.296875 
L 54.390625 8.296875 
L 54.390625 0 
L 12.40625 0 
z
" id="BitstreamVeraSans-Roman-31"/>
      </defs>
      <g transform="translate(130.266071429 378.253217822)scale(0.2 -0.2)">
       <use xlink:href="#BitstreamVeraSans-Roman-31"/>
      </g>
     </g>
    </g>
    <g id="xtick_3">
     <g id="line2d_26">
      <path clip-path="url(#p55bc2ce734)" d="M 188.057143 359.056343 
L 188.057143 13.456343 
" style="fill:none;stroke:#000000;stroke-dasharray:1.000000,3.000000;stroke-dashoffset:0.0;stroke-width:0.5;"/>
     </g>
     <g id="line2d_27">
      <g>
       <use style="stroke:#000000;stroke-width:0.5;" x="188.057142857" xlink:href="#m9b4ad3ca66" y="359.056342822"/>
      </g>
     </g>
     <g id="line2d_28">
      <g>
       <use style="stroke:#000000;stroke-width:0.5;" x="188.057142857" xlink:href="#m1c0b6bba14" y="13.4563428218"/>
      </g>
     </g>
     <g id="text_3">
      <!-- 2 -->
      <defs>
       <path d="M 19.1875 8.296875 
L 53.609375 8.296875 
L 53.609375 0 
L 7.328125 0 
L 7.328125 8.296875 
Q 12.9375 14.109375 22.625 23.890625 
Q 32.328125 33.6875 34.8125 36.53125 
Q 39.546875 41.84375 41.421875 45.53125 
Q 43.3125 49.21875 43.3125 52.78125 
Q 43.3125 58.59375 39.234375 62.25 
Q 35.15625 65.921875 28.609375 65.921875 
Q 23.96875 65.921875 18.8125 64.3125 
Q 13.671875 62.703125 7.8125 59.421875 
L 7.8125 69.390625 
Q 13.765625 71.78125 18.9375 73 
Q 24.125 74.21875 28.421875 74.21875 
Q 39.75 74.21875 46.484375 68.546875 
Q 53.21875 62.890625 53.21875 53.421875 
Q 53.21875 48.921875 51.53125 44.890625 
Q 49.859375 40.875 45.40625 35.40625 
Q 44.1875 33.984375 37.640625 27.21875 
Q 31.109375 20.453125 19.1875 8.296875 
" id="BitstreamVeraSans-Roman-32"/>
      </defs>
      <g transform="translate(181.694642857 378.253217822)scale(0.2 -0.2)">
       <use xlink:href="#BitstreamVeraSans-Roman-32"/>
      </g>
     </g>
    </g>
    <g id="xtick_4">
     <g id="line2d_29">
      <path clip-path="url(#p55bc2ce734)" d="M 239.485714 359.056343 
L 239.485714 13.456343 
" style="fill:none;stroke:#000000;stroke-dasharray:1.000000,3.000000;stroke-dashoffset:0.0;stroke-width:0.5;"/>
     </g>
     <g id="line2d_30">
      <g>
       <use style="stroke:#000000;stroke-width:0.5;" x="239.485714286" xlink:href="#m9b4ad3ca66" y="359.056342822"/>
      </g>
     </g>
     <g id="line2d_31">
      <g>
       <use style="stroke:#000000;stroke-width:0.5;" x="239.485714286" xlink:href="#m1c0b6bba14" y="13.4563428218"/>
      </g>
     </g>
     <g id="text_4">
      <!-- 3 -->
      <defs>
       <path d="M 40.578125 39.3125 
Q 47.65625 37.796875 51.625 33 
Q 55.609375 28.21875 55.609375 21.1875 
Q 55.609375 10.40625 48.1875 4.484375 
Q 40.765625 -1.421875 27.09375 -1.421875 
Q 22.515625 -1.421875 17.65625 -0.515625 
Q 12.796875 0.390625 7.625 2.203125 
L 7.625 11.71875 
Q 11.71875 9.328125 16.59375 8.109375 
Q 21.484375 6.890625 26.8125 6.890625 
Q 36.078125 6.890625 40.9375 10.546875 
Q 45.796875 14.203125 45.796875 21.1875 
Q 45.796875 27.640625 41.28125 31.265625 
Q 36.765625 34.90625 28.71875 34.90625 
L 20.21875 34.90625 
L 20.21875 43.015625 
L 29.109375 43.015625 
Q 36.375 43.015625 40.234375 45.921875 
Q 44.09375 48.828125 44.09375 54.296875 
Q 44.09375 59.90625 40.109375 62.90625 
Q 36.140625 65.921875 28.71875 65.921875 
Q 24.65625 65.921875 20.015625 65.03125 
Q 15.375 64.15625 9.8125 62.3125 
L 9.8125 71.09375 
Q 15.4375 72.65625 20.34375 73.4375 
Q 25.25 74.21875 29.59375 74.21875 
Q 40.828125 74.21875 47.359375 69.109375 
Q 53.90625 64.015625 53.90625 55.328125 
Q 53.90625 49.265625 50.4375 45.09375 
Q 46.96875 40.921875 40.578125 39.3125 
" id="BitstreamVeraSans-Roman-33"/>
      </defs>
      <g transform="translate(233.123214286 378.253217822)scale(0.2 -0.2)">
       <use xlink:href="#BitstreamVeraSans-Roman-33"/>
      </g>
     </g>
    </g>
    <g id="xtick_5">
     <g id="line2d_32">
      <path clip-path="url(#p55bc2ce734)" d="M 290.914286 359.056343 
L 290.914286 13.456343 
" style="fill:none;stroke:#000000;stroke-dasharray:1.000000,3.000000;stroke-dashoffset:0.0;stroke-width:0.5;"/>
     </g>
     <g id="line2d_33">
      <g>
       <use style="stroke:#000000;stroke-width:0.5;" x="290.914285714" xlink:href="#m9b4ad3ca66" y="359.056342822"/>
      </g>
     </g>
     <g id="line2d_34">
      <g>
       <use style="stroke:#000000;stroke-width:0.5;" x="290.914285714" xlink:href="#m1c0b6bba14" y="13.4563428218"/>
      </g>
     </g>
     <g id="text_5">
      <!-- 4 -->
      <defs>
       <path d="M 37.796875 64.3125 
L 12.890625 25.390625 
L 37.796875 25.390625 
z
M 35.203125 72.90625 
L 47.609375 72.90625 
L 47.609375 25.390625 
L 58.015625 25.390625 
L 58.015625 17.1875 
L 47.609375 17.1875 
L 47.609375 0 
L 37.796875 0 
L 37.796875 17.1875 
L 4.890625 17.1875 
L 4.890625 26.703125 
z
" id="BitstreamVeraSans-Roman-34"/>
      </defs>
      <g transform="translate(284.551785714 378.253217822)scale(0.2 -0.2)">
       <use xlink:href="#BitstreamVeraSans-Roman-34"/>
      </g>
     </g>
    </g>
    <g id="xtick_6">
     <g id="line2d_35">
      <path clip-path="url(#p55bc2ce734)" d="M 342.342857 359.056343 
L 342.342857 13.456343 
" style="fill:none;stroke:#000000;stroke-dasharray:1.000000,3.000000;stroke-dashoffset:0.0;stroke-width:0.5;"/>
     </g>
     <g id="line2d_36">
      <g>
       <use style="stroke:#000000;stroke-width:0.5;" x="342.342857143" xlink:href="#m9b4ad3ca66" y="359.056342822"/>
      </g>
     </g>
     <g id="line2d_37">
      <g>
       <use style="stroke:#000000;stroke-width:0.5;" x="342.342857143" xlink:href="#m1c0b6bba14" y="13.4563428218"/>
      </g>
     </g>
     <g id="text_6">
      <!-- 5 -->
      <defs>
       <path d="M 10.796875 72.90625 
L 49.515625 72.90625 
L 49.515625 64.59375 
L 19.828125 64.59375 
L 19.828125 46.734375 
Q 21.96875 47.46875 24.109375 47.828125 
Q 26.265625 48.1875 28.421875 48.1875 
Q 40.625 48.1875 47.75 41.5 
Q 54.890625 34.8125 54.890625 23.390625 
Q 54.890625 11.625 47.5625 5.09375 
Q 40.234375 -1.421875 26.90625 -1.421875 
Q 22.3125 -1.421875 17.546875 -0.640625 
Q 12.796875 0.140625 7.71875 1.703125 
L 7.71875 11.625 
Q 12.109375 9.234375 16.796875 8.0625 
Q 21.484375 6.890625 26.703125 6.890625 
Q 35.15625 6.890625 40.078125 11.328125 
Q 45.015625 15.765625 45.015625 23.390625 
Q 45.015625 31 40.078125 35.4375 
Q 35.15625 39.890625 26.703125 39.890625 
Q 22.75 39.890625 18.8125 39.015625 
Q 14.890625 38.140625 10.796875 36.28125 
z
" id="BitstreamVeraSans-Roman-35"/>
      </defs>
      <g transform="translate(335.980357143 378.253217822)scale(0.2 -0.2)">
       <use xlink:href="#BitstreamVeraSans-Roman-35"/>
      </g>
     </g>
    </g>
    <g id="xtick_7">
     <g id="line2d_38">
      <path clip-path="url(#p55bc2ce734)" d="M 393.771429 359.056343 
L 393.771429 13.456343 
" style="fill:none;stroke:#000000;stroke-dasharray:1.000000,3.000000;stroke-dashoffset:0.0;stroke-width:0.5;"/>
     </g>
     <g id="line2d_39">
      <g>
       <use style="stroke:#000000;stroke-width:0.5;" x="393.771428571" xlink:href="#m9b4ad3ca66" y="359.056342822"/>
      </g>
     </g>
     <g id="line2d_40">
      <g>
       <use style="stroke:#000000;stroke-width:0.5;" x="393.771428571" xlink:href="#m1c0b6bba14" y="13.4563428218"/>
      </g>
     </g>
     <g id="text_7">
      <!-- 6 -->
      <defs>
       <path d="M 33.015625 40.375 
Q 26.375 40.375 22.484375 35.828125 
Q 18.609375 31.296875 18.609375 23.390625 
Q 18.609375 15.53125 22.484375 10.953125 
Q 26.375 6.390625 33.015625 6.390625 
Q 39.65625 6.390625 43.53125 10.953125 
Q 47.40625 15.53125 47.40625 23.390625 
Q 47.40625 31.296875 43.53125 35.828125 
Q 39.65625 40.375 33.015625 40.375 
M 52.59375 71.296875 
L 52.59375 62.3125 
Q 48.875 64.0625 45.09375 64.984375 
Q 41.3125 65.921875 37.59375 65.921875 
Q 27.828125 65.921875 22.671875 59.328125 
Q 17.53125 52.734375 16.796875 39.40625 
Q 19.671875 43.65625 24.015625 45.921875 
Q 28.375 48.1875 33.59375 48.1875 
Q 44.578125 48.1875 50.953125 41.515625 
Q 57.328125 34.859375 57.328125 23.390625 
Q 57.328125 12.15625 50.6875 5.359375 
Q 44.046875 -1.421875 33.015625 -1.421875 
Q 20.359375 -1.421875 13.671875 8.265625 
Q 6.984375 17.96875 6.984375 36.375 
Q 6.984375 53.65625 15.1875 63.9375 
Q 23.390625 74.21875 37.203125 74.21875 
Q 40.921875 74.21875 44.703125 73.484375 
Q 48.484375 72.75 52.59375 71.296875 
" id="BitstreamVeraSans-Roman-36"/>
      </defs>
      <g transform="translate(387.408928571 378.253217822)scale(0.2 -0.2)">
       <use xlink:href="#BitstreamVeraSans-Roman-36"/>
      </g>
     </g>
    </g>
    <g id="xtick_8">
     <g id="line2d_41">
      <path clip-path="url(#p55bc2ce734)" d="M 445.2 359.056343 
L 445.2 13.456343 
" style="fill:none;stroke:#000000;stroke-dasharray:1.000000,3.000000;stroke-dashoffset:0.0;stroke-width:0.5;"/>
     </g>
     <g id="line2d_42">
      <g>
       <use style="stroke:#000000;stroke-width:0.5;" x="445.2" xlink:href="#m9b4ad3ca66" y="359.056342822"/>
      </g>
     </g>
     <g id="line2d_43">
      <g>
       <use style="stroke:#000000;stroke-width:0.5;" x="445.2" xlink:href="#m1c0b6bba14" y="13.4563428218"/>
      </g>
     </g>
     <g id="text_8">
      <!-- 7 -->
      <defs>
       <path d="M 8.203125 72.90625 
L 55.078125 72.90625 
L 55.078125 68.703125 
L 28.609375 0 
L 18.3125 0 
L 43.21875 64.59375 
L 8.203125 64.59375 
z
" id="BitstreamVeraSans-Roman-37"/>
      </defs>
      <g transform="translate(438.8375 378.253217822)scale(0.2 -0.2)">
       <use xlink:href="#BitstreamVeraSans-Roman-37"/>
      </g>
     </g>
    </g>
    <g id="xtick_9">
     <g id="line2d_44">
      <path clip-path="url(#p55bc2ce734)" d="M 496.628571 359.056343 
L 496.628571 13.456343 
" style="fill:none;stroke:#000000;stroke-dasharray:1.000000,3.000000;stroke-dashoffset:0.0;stroke-width:0.5;"/>
     </g>
     <g id="line2d_45">
      <g>
       <use style="stroke:#000000;stroke-width:0.5;" x="496.628571429" xlink:href="#m9b4ad3ca66" y="359.056342822"/>
      </g>
     </g>
     <g id="line2d_46">
      <g>
       <use style="stroke:#000000;stroke-width:0.5;" x="496.628571429" xlink:href="#m1c0b6bba14" y="13.4563428218"/>
      </g>
     </g>
     <g id="text_9">
      <!-- 8 -->
      <defs>
       <path d="M 31.78125 34.625 
Q 24.75 34.625 20.71875 30.859375 
Q 16.703125 27.09375 16.703125 20.515625 
Q 16.703125 13.921875 20.71875 10.15625 
Q 24.75 6.390625 31.78125 6.390625 
Q 38.8125 6.390625 42.859375 10.171875 
Q 46.921875 13.96875 46.921875 20.515625 
Q 46.921875 27.09375 42.890625 30.859375 
Q 38.875 34.625 31.78125 34.625 
M 21.921875 38.8125 
Q 15.578125 40.375 12.03125 44.71875 
Q 8.5 49.078125 8.5 55.328125 
Q 8.5 64.0625 14.71875 69.140625 
Q 20.953125 74.21875 31.78125 74.21875 
Q 42.671875 74.21875 48.875 69.140625 
Q 55.078125 64.0625 55.078125 55.328125 
Q 55.078125 49.078125 51.53125 44.71875 
Q 48 40.375 41.703125 38.8125 
Q 48.828125 37.15625 52.796875 32.3125 
Q 56.78125 27.484375 56.78125 20.515625 
Q 56.78125 9.90625 50.3125 4.234375 
Q 43.84375 -1.421875 31.78125 -1.421875 
Q 19.734375 -1.421875 13.25 4.234375 
Q 6.78125 9.90625 6.78125 20.515625 
Q 6.78125 27.484375 10.78125 32.3125 
Q 14.796875 37.15625 21.921875 38.8125 
M 18.3125 54.390625 
Q 18.3125 48.734375 21.84375 45.5625 
Q 25.390625 42.390625 31.78125 42.390625 
Q 38.140625 42.390625 41.71875 45.5625 
Q 45.3125 48.734375 45.3125 54.390625 
Q 45.3125 60.0625 41.71875 63.234375 
Q 38.140625 66.40625 31.78125 66.40625 
Q 25.390625 66.40625 21.84375 63.234375 
Q 18.3125 60.0625 18.3125 54.390625 
" id="BitstreamVeraSans-Roman-38"/>
      </defs>
      <g transform="translate(490.266071429 378.253217822)scale(0.2 -0.2)">
       <use xlink:href="#BitstreamVeraSans-Roman-38"/>
      </g>
     </g>
    </g>
    <g id="xtick_10">
     <g id="line2d_47">
      <defs>
       <path d="M 0 0 
L 0 -2 
" id="m722d9743da" style="stroke:#000000;stroke-width:0.5;"/>
      </defs>
      <g>
       <use style="stroke:#000000;stroke-width:0.5;" x="100.681542634" xlink:href="#m722d9743da" y="359.056342822"/>
      </g>
     </g>
     <g id="line2d_48">
      <defs>
       <path d="M 0 0 
L 0 2 
" id="mdb9b70207e" style="stroke:#000000;stroke-width:0.5;"/>
      </defs>
      <g>
       <use style="stroke:#000000;stroke-width:0.5;" x="100.681542634" xlink:href="#mdb9b70207e" y="13.4563428218"/>
      </g>
     </g>
    </g>
    <g id="xtick_11">
     <g id="line2d_49">
      <g>
       <use style="stroke:#000000;stroke-width:0.5;" x="116.163085268" xlink:href="#m722d9743da" y="359.056342822"/>
      </g>
     </g>
     <g id="line2d_50">
      <g>
       <use style="stroke:#000000;stroke-width:0.5;" x="116.163085268" xlink:href="#mdb9b70207e" y="13.4563428218"/>
      </g>
     </g>
    </g>
    <g id="xtick_12">
     <g id="line2d_51">
      <g>
       <use style="stroke:#000000;stroke-width:0.5;" x="125.219207163" xlink:href="#m722d9743da" y="359.056342822"/>
      </g>
     </g>
     <g id="line2d_52">
      <g>
       <use style="stroke:#000000;stroke-width:0.5;" x="125.219207163" xlink:href="#mdb9b70207e" y="13.4563428218"/>
      </g>
     </g>
    </g>
    <g id="xtick_13">
     <g id="line2d_53">
      <g>
       <use style="stroke:#000000;stroke-width:0.5;" x="131.644627902" xlink:href="#m722d9743da" y="359.056342822"/>
      </g>
     </g>
     <g id="line2d_54">
      <g>
       <use style="stroke:#000000;stroke-width:0.5;" x="131.644627902" xlink:href="#mdb9b70207e" y="13.4563428218"/>
      </g>
     </g>
    </g>
    <g id="xtick_14">
     <g id="line2d_55">
      <g>
       <use style="stroke:#000000;stroke-width:0.5;" x="152.110114063" xlink:href="#m722d9743da" y="359.056342822"/>
      </g>
     </g>
     <g id="line2d_56">
      <g>
       <use style="stroke:#000000;stroke-width:0.5;" x="152.110114063" xlink:href="#mdb9b70207e" y="13.4563428218"/>
      </g>
     </g>
    </g>
    <g id="xtick_15">
     <g id="line2d_57">
      <g>
       <use style="stroke:#000000;stroke-width:0.5;" x="167.591656697" xlink:href="#m722d9743da" y="359.056342822"/>
      </g>
     </g>
     <g id="line2d_58">
      <g>
       <use style="stroke:#000000;stroke-width:0.5;" x="167.591656697" xlink:href="#mdb9b70207e" y="13.4563428218"/>
      </g>
     </g>
    </g>
    <g id="xtick_16">
     <g id="line2d_59">
      <g>
       <use style="stroke:#000000;stroke-width:0.5;" x="176.647778591" xlink:href="#m722d9743da" y="359.056342822"/>
      </g>
     </g>
     <g id="line2d_60">
      <g>
       <use style="stroke:#000000;stroke-width:0.5;" x="176.647778591" xlink:href="#mdb9b70207e" y="13.4563428218"/>
      </g>
     </g>
    </g>
    <g id="xtick_17">
     <g id="line2d_61">
      <g>
       <use style="stroke:#000000;stroke-width:0.5;" x="183.073199331" xlink:href="#m722d9743da" y="359.056342822"/>
      </g>
     </g>
     <g id="line2d_62">
      <g>
       <use style="stroke:#000000;stroke-width:0.5;" x="183.073199331" xlink:href="#mdb9b70207e" y="13.4563428218"/>
      </g>
     </g>
    </g>
    <g id="xtick_18">
     <g id="line2d_63">
      <g>
       <use style="stroke:#000000;stroke-width:0.5;" x="203.538685491" xlink:href="#m722d9743da" y="359.056342822"/>
      </g>
     </g>
     <g id="line2d_64">
      <g>
       <use style="stroke:#000000;stroke-width:0.5;" x="203.538685491" xlink:href="#mdb9b70207e" y="13.4563428218"/>
      </g>
     </g>
    </g>
    <g id="xtick_19">
     <g id="line2d_65">
      <g>
       <use style="stroke:#000000;stroke-width:0.5;" x="219.020228125" xlink:href="#m722d9743da" y="359.056342822"/>
      </g>
     </g>
     <g id="line2d_66">
      <g>
       <use style="stroke:#000000;stroke-width:0.5;" x="219.020228125" xlink:href="#mdb9b70207e" y="13.4563428218"/>
      </g>
     </g>
    </g>
    <g id="xtick_20">
     <g id="line2d_67">
      <g>
       <use style="stroke:#000000;stroke-width:0.5;" x="228.07635002" xlink:href="#m722d9743da" y="359.056342822"/>
      </g>
     </g>
     <g id="line2d_68">
      <g>
       <use style="stroke:#000000;stroke-width:0.5;" x="228.07635002" xlink:href="#mdb9b70207e" y="13.4563428218"/>
      </g>
     </g>
    </g>
    <g id="xtick_21">
     <g id="line2d_69">
      <g>
       <use style="stroke:#000000;stroke-width:0.5;" x="234.50177076" xlink:href="#m722d9743da" y="359.056342822"/>
      </g>
     </g>
     <g id="line2d_70">
      <g>
       <use style="stroke:#000000;stroke-width:0.5;" x="234.50177076" xlink:href="#mdb9b70207e" y="13.4563428218"/>
      </g>
     </g>
    </g>
    <g id="xtick_22">
     <g id="line2d_71">
      <g>
       <use style="stroke:#000000;stroke-width:0.5;" x="254.96725692" xlink:href="#m722d9743da" y="359.056342822"/>
      </g>
     </g>
     <g id="line2d_72">
      <g>
       <use style="stroke:#000000;stroke-width:0.5;" x="254.96725692" xlink:href="#mdb9b70207e" y="13.4563428218"/>
      </g>
     </g>
    </g>
    <g id="xtick_23">
     <g id="line2d_73">
      <g>
       <use style="stroke:#000000;stroke-width:0.5;" x="270.448799554" xlink:href="#m722d9743da" y="359.056342822"/>
      </g>
     </g>
     <g id="line2d_74">
      <g>
       <use style="stroke:#000000;stroke-width:0.5;" x="270.448799554" xlink:href="#mdb9b70207e" y="13.4563428218"/>
      </g>
     </g>
    </g>
    <g id="xtick_24">
     <g id="line2d_75">
      <g>
       <use style="stroke:#000000;stroke-width:0.5;" x="279.504921448" xlink:href="#m722d9743da" y="359.056342822"/>
      </g>
     </g>
     <g id="line2d_76">
      <g>
       <use style="stroke:#000000;stroke-width:0.5;" x="279.504921448" xlink:href="#mdb9b70207e" y="13.4563428218"/>
      </g>
     </g>
    </g>
    <g id="xtick_25">
     <g id="line2d_77">
      <g>
       <use style="stroke:#000000;stroke-width:0.5;" x="285.930342188" xlink:href="#m722d9743da" y="359.056342822"/>
      </g>
     </g>
     <g id="line2d_78">
      <g>
       <use style="stroke:#000000;stroke-width:0.5;" x="285.930342188" xlink:href="#mdb9b70207e" y="13.4563428218"/>
      </g>
     </g>
    </g>
    <g id="xtick_26">
     <g id="line2d_79">
      <g>
       <use style="stroke:#000000;stroke-width:0.5;" x="306.395828348" xlink:href="#m722d9743da" y="359.056342822"/>
      </g>
     </g>
     <g id="line2d_80">
      <g>
       <use style="stroke:#000000;stroke-width:0.5;" x="306.395828348" xlink:href="#mdb9b70207e" y="13.4563428218"/>
      </g>
     </g>
    </g>
    <g id="xtick_27">
     <g id="line2d_81">
      <g>
       <use style="stroke:#000000;stroke-width:0.5;" x="321.877370983" xlink:href="#m722d9743da" y="359.056342822"/>
      </g>
     </g>
     <g id="line2d_82">
      <g>
       <use style="stroke:#000000;stroke-width:0.5;" x="321.877370983" xlink:href="#mdb9b70207e" y="13.4563428218"/>
      </g>
     </g>
    </g>
    <g id="xtick_28">
     <g id="line2d_83">
      <g>
       <use style="stroke:#000000;stroke-width:0.5;" x="330.933492877" xlink:href="#m722d9743da" y="359.056342822"/>
      </g>
     </g>
     <g id="line2d_84">
      <g>
       <use style="stroke:#000000;stroke-width:0.5;" x="330.933492877" xlink:href="#mdb9b70207e" y="13.4563428218"/>
      </g>
     </g>
    </g>
    <g id="xtick_29">
     <g id="line2d_85">
      <g>
       <use style="stroke:#000000;stroke-width:0.5;" x="337.358913617" xlink:href="#m722d9743da" y="359.056342822"/>
      </g>
     </g>
     <g id="line2d_86">
      <g>
       <use style="stroke:#000000;stroke-width:0.5;" x="337.358913617" xlink:href="#mdb9b70207e" y="13.4563428218"/>
      </g>
     </g>
    </g>
    <g id="xtick_30">
     <g id="line2d_87">
      <g>
       <use style="stroke:#000000;stroke-width:0.5;" x="357.824399777" xlink:href="#m722d9743da" y="359.056342822"/>
      </g>
     </g>
     <g id="line2d_88">
      <g>
       <use style="stroke:#000000;stroke-width:0.5;" x="357.824399777" xlink:href="#mdb9b70207e" y="13.4563428218"/>
      </g>
     </g>
    </g>
    <g id="xtick_31">
     <g id="line2d_89">
      <g>
       <use style="stroke:#000000;stroke-width:0.5;" x="373.305942411" xlink:href="#m722d9743da" y="359.056342822"/>
      </g>
     </g>
     <g id="line2d_90">
      <g>
       <use style="stroke:#000000;stroke-width:0.5;" x="373.305942411" xlink:href="#mdb9b70207e" y="13.4563428218"/>
      </g>
     </g>
    </g>
    <g id="xtick_32">
     <g id="line2d_91">
      <g>
       <use style="stroke:#000000;stroke-width:0.5;" x="382.362064305" xlink:href="#m722d9743da" y="359.056342822"/>
      </g>
     </g>
     <g id="line2d_92">
      <g>
       <use style="stroke:#000000;stroke-width:0.5;" x="382.362064305" xlink:href="#mdb9b70207e" y="13.4563428218"/>
      </g>
     </g>
    </g>
    <g id="xtick_33">
     <g id="line2d_93">
      <g>
       <use style="stroke:#000000;stroke-width:0.5;" x="388.787485045" xlink:href="#m722d9743da" y="359.056342822"/>
      </g>
     </g>
     <g id="line2d_94">
      <g>
       <use style="stroke:#000000;stroke-width:0.5;" x="388.787485045" xlink:href="#mdb9b70207e" y="13.4563428218"/>
      </g>
     </g>
    </g>
    <g id="xtick_34">
     <g id="line2d_95">
      <g>
       <use style="stroke:#000000;stroke-width:0.5;" x="409.252971206" xlink:href="#m722d9743da" y="359.056342822"/>
      </g>
     </g>
     <g id="line2d_96">
      <g>
       <use style="stroke:#000000;stroke-width:0.5;" x="409.252971206" xlink:href="#mdb9b70207e" y="13.4563428218"/>
      </g>
     </g>
    </g>
    <g id="xtick_35">
     <g id="line2d_97">
      <g>
       <use style="stroke:#000000;stroke-width:0.5;" x="424.73451384" xlink:href="#m722d9743da" y="359.056342822"/>
      </g>
     </g>
     <g id="line2d_98">
      <g>
       <use style="stroke:#000000;stroke-width:0.5;" x="424.73451384" xlink:href="#mdb9b70207e" y="13.4563428218"/>
      </g>
     </g>
    </g>
    <g id="xtick_36">
     <g id="line2d_99">
      <g>
       <use style="stroke:#000000;stroke-width:0.5;" x="433.790635734" xlink:href="#m722d9743da" y="359.056342822"/>
      </g>
     </g>
     <g id="line2d_100">
      <g>
       <use style="stroke:#000000;stroke-width:0.5;" x="433.790635734" xlink:href="#mdb9b70207e" y="13.4563428218"/>
      </g>
     </g>
    </g>
    <g id="xtick_37">
     <g id="line2d_101">
      <g>
       <use style="stroke:#000000;stroke-width:0.5;" x="440.216056474" xlink:href="#m722d9743da" y="359.056342822"/>
      </g>
     </g>
     <g id="line2d_102">
      <g>
       <use style="stroke:#000000;stroke-width:0.5;" x="440.216056474" xlink:href="#mdb9b70207e" y="13.4563428218"/>
      </g>
     </g>
    </g>
    <g id="xtick_38">
     <g id="line2d_103">
      <g>
       <use style="stroke:#000000;stroke-width:0.5;" x="460.681542634" xlink:href="#m722d9743da" y="359.056342822"/>
      </g>
     </g>
     <g id="line2d_104">
      <g>
       <use style="stroke:#000000;stroke-width:0.5;" x="460.681542634" xlink:href="#mdb9b70207e" y="13.4563428218"/>
      </g>
     </g>
    </g>
    <g id="xtick_39">
     <g id="line2d_105">
      <g>
       <use style="stroke:#000000;stroke-width:0.5;" x="476.163085268" xlink:href="#m722d9743da" y="359.056342822"/>
      </g>
     </g>
     <g id="line2d_106">
      <g>
       <use style="stroke:#000000;stroke-width:0.5;" x="476.163085268" xlink:href="#mdb9b70207e" y="13.4563428218"/>
      </g>
     </g>
    </g>
    <g id="xtick_40">
     <g id="line2d_107">
      <g>
       <use style="stroke:#000000;stroke-width:0.5;" x="485.219207163" xlink:href="#m722d9743da" y="359.056342822"/>
      </g>
     </g>
     <g id="line2d_108">
      <g>
       <use style="stroke:#000000;stroke-width:0.5;" x="485.219207163" xlink:href="#mdb9b70207e" y="13.4563428218"/>
      </g>
     </g>
    </g>
    <g id="xtick_41">
     <g id="line2d_109">
      <g>
       <use style="stroke:#000000;stroke-width:0.5;" x="491.644627902" xlink:href="#m722d9743da" y="359.056342822"/>
      </g>
     </g>
     <g id="line2d_110">
      <g>
       <use style="stroke:#000000;stroke-width:0.5;" x="491.644627902" xlink:href="#mdb9b70207e" y="13.4563428218"/>
      </g>
     </g>
    </g>
    <g id="xtick_42">
     <g id="line2d_111">
      <g>
       <use style="stroke:#000000;stroke-width:0.5;" x="512.110114063" xlink:href="#m722d9743da" y="359.056342822"/>
      </g>
     </g>
     <g id="line2d_112">
      <g>
       <use style="stroke:#000000;stroke-width:0.5;" x="512.110114063" xlink:href="#mdb9b70207e" y="13.4563428218"/>
      </g>
     </g>
    </g>
    <g id="xtick_43">
     <g id="line2d_113">
      <g>
       <use style="stroke:#000000;stroke-width:0.5;" x="527.591656697" xlink:href="#m722d9743da" y="359.056342822"/>
      </g>
     </g>
     <g id="line2d_114">
      <g>
       <use style="stroke:#000000;stroke-width:0.5;" x="527.591656697" xlink:href="#mdb9b70207e" y="13.4563428218"/>
      </g>
     </g>
    </g>
    <g id="text_10">
     <!-- log10 of (# f-evals / dimension) -->
     <defs>
      <path id="BitstreamVeraSans-Roman-20"/>
      <path d="M 51.125 44 
L 36.921875 44 
L 32.8125 27.6875 
L 47.125 27.6875 
z
M 43.796875 71.78125 
L 38.71875 51.515625 
L 52.984375 51.515625 
L 58.109375 71.78125 
L 65.921875 71.78125 
L 60.890625 51.515625 
L 76.125 51.515625 
L 76.125 44 
L 58.984375 44 
L 54.984375 27.6875 
L 70.515625 27.6875 
L 70.515625 20.21875 
L 53.078125 20.21875 
L 48 0 
L 40.1875 0 
L 45.21875 20.21875 
L 30.90625 20.21875 
L 25.875 0 
L 18.015625 0 
L 23.09375 20.21875 
L 7.71875 20.21875 
L 7.71875 27.6875 
L 24.90625 27.6875 
L 29 44 
L 13.28125 44 
L 13.28125 51.515625 
L 30.90625 51.515625 
L 35.890625 71.78125 
z
" id="BitstreamVeraSans-Roman-23"/>
      <path d="M 52 44.1875 
Q 55.375 50.25 60.0625 53.125 
Q 64.75 56 71.09375 56 
Q 79.640625 56 84.28125 50.015625 
Q 88.921875 44.046875 88.921875 33.015625 
L 88.921875 0 
L 79.890625 0 
L 79.890625 32.71875 
Q 79.890625 40.578125 77.09375 44.375 
Q 74.3125 48.1875 68.609375 48.1875 
Q 61.625 48.1875 57.5625 43.546875 
Q 53.515625 38.921875 53.515625 30.90625 
L 53.515625 0 
L 44.484375 0 
L 44.484375 32.71875 
Q 44.484375 40.625 41.703125 44.40625 
Q 38.921875 48.1875 33.109375 48.1875 
Q 26.21875 48.1875 22.15625 43.53125 
Q 18.109375 38.875 18.109375 30.90625 
L 18.109375 0 
L 9.078125 0 
L 9.078125 54.6875 
L 18.109375 54.6875 
L 18.109375 46.1875 
Q 21.1875 51.21875 25.484375 53.609375 
Q 29.78125 56 35.6875 56 
Q 41.65625 56 45.828125 52.96875 
Q 50 49.953125 52 44.1875 
" id="BitstreamVeraSans-Roman-6d"/>
      <path d="M 54.890625 33.015625 
L 54.890625 0 
L 45.90625 0 
L 45.90625 32.71875 
Q 45.90625 40.484375 42.875 44.328125 
Q 39.84375 48.1875 33.796875 48.1875 
Q 26.515625 48.1875 22.3125 43.546875 
Q 18.109375 38.921875 18.109375 30.90625 
L 18.109375 0 
L 9.078125 0 
L 9.078125 54.6875 
L 18.109375 54.6875 
L 18.109375 46.1875 
Q 21.34375 51.125 25.703125 53.5625 
Q 30.078125 56 35.796875 56 
Q 45.21875 56 50.046875 50.171875 
Q 54.890625 44.34375 54.890625 33.015625 
" id="BitstreamVeraSans-Roman-6e"/>
      <path d="M 31 75.875 
Q 24.46875 64.65625 21.28125 53.65625 
Q 18.109375 42.671875 18.109375 31.390625 
Q 18.109375 20.125 21.3125 9.0625 
Q 24.515625 -2 31 -13.1875 
L 23.1875 -13.1875 
Q 15.875 -1.703125 12.234375 9.375 
Q 8.59375 20.453125 8.59375 31.390625 
Q 8.59375 42.28125 12.203125 53.3125 
Q 15.828125 64.359375 23.1875 75.875 
z
" id="BitstreamVeraSans-Roman-28"/>
      <path d="M 30.609375 48.390625 
Q 23.390625 48.390625 19.1875 42.75 
Q 14.984375 37.109375 14.984375 27.296875 
Q 14.984375 17.484375 19.15625 11.84375 
Q 23.34375 6.203125 30.609375 6.203125 
Q 37.796875 6.203125 41.984375 11.859375 
Q 46.1875 17.53125 46.1875 27.296875 
Q 46.1875 37.015625 41.984375 42.703125 
Q 37.796875 48.390625 30.609375 48.390625 
M 30.609375 56 
Q 42.328125 56 49.015625 48.375 
Q 55.71875 40.765625 55.71875 27.296875 
Q 55.71875 13.875 49.015625 6.21875 
Q 42.328125 -1.421875 30.609375 -1.421875 
Q 18.84375 -1.421875 12.171875 6.21875 
Q 5.515625 13.875 5.515625 27.296875 
Q 5.515625 40.765625 12.171875 48.375 
Q 18.84375 56 30.609375 56 
" id="BitstreamVeraSans-Roman-6f"/>
      <path d="M 9.421875 75.984375 
L 18.40625 75.984375 
L 18.40625 0 
L 9.421875 0 
z
" id="BitstreamVeraSans-Roman-6c"/>
      <path d="M 2.984375 54.6875 
L 12.5 54.6875 
L 29.59375 8.796875 
L 46.6875 54.6875 
L 56.203125 54.6875 
L 35.6875 0 
L 23.484375 0 
z
" id="BitstreamVeraSans-Roman-76"/>
      <path d="M 9.421875 54.6875 
L 18.40625 54.6875 
L 18.40625 0 
L 9.421875 0 
z
M 9.421875 75.984375 
L 18.40625 75.984375 
L 18.40625 64.59375 
L 9.421875 64.59375 
z
" id="BitstreamVeraSans-Roman-69"/>
      <path d="M 4.890625 31.390625 
L 31.203125 31.390625 
L 31.203125 23.390625 
L 4.890625 23.390625 
z
" id="BitstreamVeraSans-Roman-2d"/>
      <path d="M 25.390625 72.90625 
L 33.6875 72.90625 
L 8.296875 -9.28125 
L 0 -9.28125 
z
" id="BitstreamVeraSans-Roman-2f"/>
      <path d="M 56.203125 29.59375 
L 56.203125 25.203125 
L 14.890625 25.203125 
Q 15.484375 15.921875 20.484375 11.0625 
Q 25.484375 6.203125 34.421875 6.203125 
Q 39.59375 6.203125 44.453125 7.46875 
Q 49.3125 8.734375 54.109375 11.28125 
L 54.109375 2.78125 
Q 49.265625 0.734375 44.1875 -0.34375 
Q 39.109375 -1.421875 33.890625 -1.421875 
Q 20.796875 -1.421875 13.15625 6.1875 
Q 5.515625 13.8125 5.515625 26.8125 
Q 5.515625 40.234375 12.765625 48.109375 
Q 20.015625 56 32.328125 56 
Q 43.359375 56 49.78125 48.890625 
Q 56.203125 41.796875 56.203125 29.59375 
M 47.21875 32.234375 
Q 47.125 39.59375 43.09375 43.984375 
Q 39.0625 48.390625 32.421875 48.390625 
Q 24.90625 48.390625 20.390625 44.140625 
Q 15.875 39.890625 15.1875 32.171875 
z
" id="BitstreamVeraSans-Roman-65"/>
      <path d="M 45.40625 46.390625 
L 45.40625 75.984375 
L 54.390625 75.984375 
L 54.390625 0 
L 45.40625 0 
L 45.40625 8.203125 
Q 42.578125 3.328125 38.25 0.953125 
Q 33.9375 -1.421875 27.875 -1.421875 
Q 17.96875 -1.421875 11.734375 6.484375 
Q 5.515625 14.40625 5.515625 27.296875 
Q 5.515625 40.1875 11.734375 48.09375 
Q 17.96875 56 27.875 56 
Q 33.9375 56 38.25 53.625 
Q 42.578125 51.265625 45.40625 46.390625 
M 14.796875 27.296875 
Q 14.796875 17.390625 18.875 11.75 
Q 22.953125 6.109375 30.078125 6.109375 
Q 37.203125 6.109375 41.296875 11.75 
Q 45.40625 17.390625 45.40625 27.296875 
Q 45.40625 37.203125 41.296875 42.84375 
Q 37.203125 48.484375 30.078125 48.484375 
Q 22.953125 48.484375 18.875 42.84375 
Q 14.796875 37.203125 14.796875 27.296875 
" id="BitstreamVeraSans-Roman-64"/>
      <path d="M 45.40625 27.984375 
Q 45.40625 37.75 41.375 43.109375 
Q 37.359375 48.484375 30.078125 48.484375 
Q 22.859375 48.484375 18.828125 43.109375 
Q 14.796875 37.75 14.796875 27.984375 
Q 14.796875 18.265625 18.828125 12.890625 
Q 22.859375 7.515625 30.078125 7.515625 
Q 37.359375 7.515625 41.375 12.890625 
Q 45.40625 18.265625 45.40625 27.984375 
M 54.390625 6.78125 
Q 54.390625 -7.171875 48.1875 -13.984375 
Q 42 -20.796875 29.203125 -20.796875 
Q 24.46875 -20.796875 20.265625 -20.09375 
Q 16.0625 -19.390625 12.109375 -17.921875 
L 12.109375 -9.1875 
Q 16.0625 -11.328125 19.921875 -12.34375 
Q 23.78125 -13.375 27.78125 -13.375 
Q 36.625 -13.375 41.015625 -8.765625 
Q 45.40625 -4.15625 45.40625 5.171875 
L 45.40625 9.625 
Q 42.625 4.78125 38.28125 2.390625 
Q 33.9375 0 27.875 0 
Q 17.828125 0 11.671875 7.65625 
Q 5.515625 15.328125 5.515625 27.984375 
Q 5.515625 40.671875 11.671875 48.328125 
Q 17.828125 56 27.875 56 
Q 33.9375 56 38.28125 53.609375 
Q 42.625 51.21875 45.40625 46.390625 
L 45.40625 54.6875 
L 54.390625 54.6875 
z
" id="BitstreamVeraSans-Roman-67"/>
      <path d="M 37.109375 75.984375 
L 37.109375 68.5 
L 28.515625 68.5 
Q 23.6875 68.5 21.796875 66.546875 
Q 19.921875 64.59375 19.921875 59.515625 
L 19.921875 54.6875 
L 34.71875 54.6875 
L 34.71875 47.703125 
L 19.921875 47.703125 
L 19.921875 0 
L 10.890625 0 
L 10.890625 47.703125 
L 2.296875 47.703125 
L 2.296875 54.6875 
L 10.890625 54.6875 
L 10.890625 58.5 
Q 10.890625 67.625 15.140625 71.796875 
Q 19.390625 75.984375 28.609375 75.984375 
z
" id="BitstreamVeraSans-Roman-66"/>
      <path d="M 34.28125 27.484375 
Q 23.390625 27.484375 19.1875 25 
Q 14.984375 22.515625 14.984375 16.5 
Q 14.984375 11.71875 18.140625 8.90625 
Q 21.296875 6.109375 26.703125 6.109375 
Q 34.1875 6.109375 38.703125 11.40625 
Q 43.21875 16.703125 43.21875 25.484375 
L 43.21875 27.484375 
z
M 52.203125 31.203125 
L 52.203125 0 
L 43.21875 0 
L 43.21875 8.296875 
Q 40.140625 3.328125 35.546875 0.953125 
Q 30.953125 -1.421875 24.3125 -1.421875 
Q 15.921875 -1.421875 10.953125 3.296875 
Q 6 8.015625 6 15.921875 
Q 6 25.140625 12.171875 29.828125 
Q 18.359375 34.515625 30.609375 34.515625 
L 43.21875 34.515625 
L 43.21875 35.40625 
Q 43.21875 41.609375 39.140625 45 
Q 35.0625 48.390625 27.6875 48.390625 
Q 23 48.390625 18.546875 47.265625 
Q 14.109375 46.140625 10.015625 43.890625 
L 10.015625 52.203125 
Q 14.9375 54.109375 19.578125 55.046875 
Q 24.21875 56 28.609375 56 
Q 40.484375 56 46.34375 49.84375 
Q 52.203125 43.703125 52.203125 31.203125 
" id="BitstreamVeraSans-Roman-61"/>
      <path d="M 44.28125 53.078125 
L 44.28125 44.578125 
Q 40.484375 46.53125 36.375 47.5 
Q 32.28125 48.484375 27.875 48.484375 
Q 21.1875 48.484375 17.84375 46.4375 
Q 14.5 44.390625 14.5 40.28125 
Q 14.5 37.15625 16.890625 35.375 
Q 19.28125 33.59375 26.515625 31.984375 
L 29.59375 31.296875 
Q 39.15625 29.25 43.1875 25.515625 
Q 47.21875 21.78125 47.21875 15.09375 
Q 47.21875 7.46875 41.1875 3.015625 
Q 35.15625 -1.421875 24.609375 -1.421875 
Q 20.21875 -1.421875 15.453125 -0.5625 
Q 10.6875 0.296875 5.421875 2 
L 5.421875 11.28125 
Q 10.40625 8.6875 15.234375 7.390625 
Q 20.0625 6.109375 24.8125 6.109375 
Q 31.15625 6.109375 34.5625 8.28125 
Q 37.984375 10.453125 37.984375 14.40625 
Q 37.984375 18.0625 35.515625 20.015625 
Q 33.0625 21.96875 24.703125 23.78125 
L 21.578125 24.515625 
Q 13.234375 26.265625 9.515625 29.90625 
Q 5.8125 33.546875 5.8125 39.890625 
Q 5.8125 47.609375 11.28125 51.796875 
Q 16.75 56 26.8125 56 
Q 31.78125 56 36.171875 55.265625 
Q 40.578125 54.546875 44.28125 53.078125 
" id="BitstreamVeraSans-Roman-73"/>
      <path d="M 8.015625 75.875 
L 15.828125 75.875 
Q 23.140625 64.359375 26.78125 53.3125 
Q 30.421875 42.28125 30.421875 31.390625 
Q 30.421875 20.453125 26.78125 9.375 
Q 23.140625 -1.703125 15.828125 -13.1875 
L 8.015625 -13.1875 
Q 14.5 -2 17.703125 9.0625 
Q 20.90625 20.125 20.90625 31.390625 
Q 20.90625 42.671875 17.703125 53.65625 
Q 14.5 64.65625 8.015625 75.875 
" id="BitstreamVeraSans-Roman-29"/>
     </defs>
     <g transform="translate(166.05515625 401.089780322)scale(0.18 -0.18)">
      <use xlink:href="#BitstreamVeraSans-Roman-6c"/>
      <use x="27.783203125" xlink:href="#BitstreamVeraSans-Roman-6f"/>
      <use x="88.96484375" xlink:href="#BitstreamVeraSans-Roman-67"/>
      <use x="152.44140625" xlink:href="#BitstreamVeraSans-Roman-31"/>
      <use x="216.064453125" xlink:href="#BitstreamVeraSans-Roman-30"/>
      <use x="279.6875" xlink:href="#BitstreamVeraSans-Roman-20"/>
      <use x="311.474609375" xlink:href="#BitstreamVeraSans-Roman-6f"/>
      <use x="372.65625" xlink:href="#BitstreamVeraSans-Roman-66"/>
      <use x="407.861328125" xlink:href="#BitstreamVeraSans-Roman-20"/>
      <use x="439.6484375" xlink:href="#BitstreamVeraSans-Roman-28"/>
      <use x="478.662109375" xlink:href="#BitstreamVeraSans-Roman-23"/>
      <use x="562.451171875" xlink:href="#BitstreamVeraSans-Roman-20"/>
      <use x="594.23828125" xlink:href="#BitstreamVeraSans-Roman-66"/>
      <use x="629.365234375" xlink:href="#BitstreamVeraSans-Roman-2d"/>
      <use x="665.44921875" xlink:href="#BitstreamVeraSans-Roman-65"/>
      <use x="726.97265625" xlink:href="#BitstreamVeraSans-Roman-76"/>
      <use x="786.15234375" xlink:href="#BitstreamVeraSans-Roman-61"/>
      <use x="847.431640625" xlink:href="#BitstreamVeraSans-Roman-6c"/>
      <use x="875.21484375" xlink:href="#BitstreamVeraSans-Roman-73"/>
      <use x="927.314453125" xlink:href="#BitstreamVeraSans-Roman-20"/>
      <use x="959.1015625" xlink:href="#BitstreamVeraSans-Roman-2f"/>
      <use x="992.79296875" xlink:href="#BitstreamVeraSans-Roman-20"/>
      <use x="1024.58007812" xlink:href="#BitstreamVeraSans-Roman-64"/>
      <use x="1088.05664062" xlink:href="#BitstreamVeraSans-Roman-69"/>
      <use x="1115.83984375" xlink:href="#BitstreamVeraSans-Roman-6d"/>
      <use x="1213.25195312" xlink:href="#BitstreamVeraSans-Roman-65"/>
      <use x="1274.77539062" xlink:href="#BitstreamVeraSans-Roman-6e"/>
      <use x="1338.15429688" xlink:href="#BitstreamVeraSans-Roman-73"/>
      <use x="1390.25390625" xlink:href="#BitstreamVeraSans-Roman-69"/>
      <use x="1418.03710938" xlink:href="#BitstreamVeraSans-Roman-6f"/>
      <use x="1479.21875" xlink:href="#BitstreamVeraSans-Roman-6e"/>
      <use x="1542.59765625" xlink:href="#BitstreamVeraSans-Roman-29"/>
     </g>
    </g>
   </g>
   <g id="matplotlib.axis_2">
    <g id="ytick_1">
     <g id="line2d_115">
      <path clip-path="url(#p55bc2ce734)" d="M 85.2 359.056343 
L 531.6 359.056343 
" style="fill:none;stroke:#000000;stroke-dasharray:1.000000,3.000000;stroke-dashoffset:0.0;stroke-width:0.5;"/>
     </g>
     <g id="line2d_116">
      <defs>
       <path d="M 0 0 
L 4 0 
" id="ma0ed6abb1a" style="stroke:#000000;stroke-width:0.5;"/>
      </defs>
      <g>
       <use style="stroke:#000000;stroke-width:0.5;" x="85.2" xlink:href="#ma0ed6abb1a" y="359.056342822"/>
      </g>
     </g>
     <g id="line2d_117">
      <defs>
       <path d="M 0 0 
L -4 0 
" id="me750ac70e0" style="stroke:#000000;stroke-width:0.5;"/>
      </defs>
      <g>
       <use style="stroke:#000000;stroke-width:0.5;" x="531.6" xlink:href="#me750ac70e0" y="359.056342822"/>
      </g>
     </g>
     <g id="text_11">
      <!-- 0.0 -->
      <defs>
       <path d="M 10.6875 12.40625 
L 21 12.40625 
L 21 0 
L 10.6875 0 
z
" id="BitstreamVeraSans-Roman-2e"/>
      </defs>
      <g transform="translate(49.39375 364.575092822)scale(0.2 -0.2)">
       <use xlink:href="#BitstreamVeraSans-Roman-30"/>
       <use x="63.623046875" xlink:href="#BitstreamVeraSans-Roman-2e"/>
       <use x="95.41015625" xlink:href="#BitstreamVeraSans-Roman-30"/>
      </g>
     </g>
    </g>
    <g id="ytick_2">
     <g id="line2d_118">
      <path clip-path="url(#p55bc2ce734)" d="M 85.2 290.620699 
L 531.6 290.620699 
" style="fill:none;stroke:#000000;stroke-dasharray:1.000000,3.000000;stroke-dashoffset:0.0;stroke-width:0.5;"/>
     </g>
     <g id="line2d_119">
      <g>
       <use style="stroke:#000000;stroke-width:0.5;" x="85.2" xlink:href="#ma0ed6abb1a" y="290.620699257"/>
      </g>
     </g>
     <g id="line2d_120">
      <g>
       <use style="stroke:#000000;stroke-width:0.5;" x="531.6" xlink:href="#me750ac70e0" y="290.620699257"/>
      </g>
     </g>
     <g id="text_12">
      <!-- 0.2 -->
      <g transform="translate(49.39375 296.139449257)scale(0.2 -0.2)">
       <use xlink:href="#BitstreamVeraSans-Roman-30"/>
       <use x="63.623046875" xlink:href="#BitstreamVeraSans-Roman-2e"/>
       <use x="95.41015625" xlink:href="#BitstreamVeraSans-Roman-32"/>
      </g>
     </g>
    </g>
    <g id="ytick_3">
     <g id="line2d_121">
      <path clip-path="url(#p55bc2ce734)" d="M 85.2 222.185056 
L 531.6 222.185056 
" style="fill:none;stroke:#000000;stroke-dasharray:1.000000,3.000000;stroke-dashoffset:0.0;stroke-width:0.5;"/>
     </g>
     <g id="line2d_122">
      <g>
       <use style="stroke:#000000;stroke-width:0.5;" x="85.2" xlink:href="#ma0ed6abb1a" y="222.185055693"/>
      </g>
     </g>
     <g id="line2d_123">
      <g>
       <use style="stroke:#000000;stroke-width:0.5;" x="531.6" xlink:href="#me750ac70e0" y="222.185055693"/>
      </g>
     </g>
     <g id="text_13">
      <!-- 0.4 -->
      <g transform="translate(49.39375 227.703805693)scale(0.2 -0.2)">
       <use xlink:href="#BitstreamVeraSans-Roman-30"/>
       <use x="63.623046875" xlink:href="#BitstreamVeraSans-Roman-2e"/>
       <use x="95.41015625" xlink:href="#BitstreamVeraSans-Roman-34"/>
      </g>
     </g>
    </g>
    <g id="ytick_4">
     <g id="line2d_124">
      <path clip-path="url(#p55bc2ce734)" d="M 85.2 153.749412 
L 531.6 153.749412 
" style="fill:none;stroke:#000000;stroke-dasharray:1.000000,3.000000;stroke-dashoffset:0.0;stroke-width:0.5;"/>
     </g>
     <g id="line2d_125">
      <g>
       <use style="stroke:#000000;stroke-width:0.5;" x="85.2" xlink:href="#ma0ed6abb1a" y="153.749412129"/>
      </g>
     </g>
     <g id="line2d_126">
      <g>
       <use style="stroke:#000000;stroke-width:0.5;" x="531.6" xlink:href="#me750ac70e0" y="153.749412129"/>
      </g>
     </g>
     <g id="text_14">
      <!-- 0.6 -->
      <g transform="translate(49.39375 159.268162129)scale(0.2 -0.2)">
       <use xlink:href="#BitstreamVeraSans-Roman-30"/>
       <use x="63.623046875" xlink:href="#BitstreamVeraSans-Roman-2e"/>
       <use x="95.41015625" xlink:href="#BitstreamVeraSans-Roman-36"/>
      </g>
     </g>
    </g>
    <g id="ytick_5">
     <g id="line2d_127">
      <path clip-path="url(#p55bc2ce734)" d="M 85.2 85.313769 
L 531.6 85.313769 
" style="fill:none;stroke:#000000;stroke-dasharray:1.000000,3.000000;stroke-dashoffset:0.0;stroke-width:0.5;"/>
     </g>
     <g id="line2d_128">
      <g>
       <use style="stroke:#000000;stroke-width:0.5;" x="85.2" xlink:href="#ma0ed6abb1a" y="85.3137685644"/>
      </g>
     </g>
     <g id="line2d_129">
      <g>
       <use style="stroke:#000000;stroke-width:0.5;" x="531.6" xlink:href="#me750ac70e0" y="85.3137685644"/>
      </g>
     </g>
     <g id="text_15">
      <!-- 0.8 -->
      <g transform="translate(49.39375 90.8325185644)scale(0.2 -0.2)">
       <use xlink:href="#BitstreamVeraSans-Roman-30"/>
       <use x="63.623046875" xlink:href="#BitstreamVeraSans-Roman-2e"/>
       <use x="95.41015625" xlink:href="#BitstreamVeraSans-Roman-38"/>
      </g>
     </g>
    </g>
    <g id="ytick_6">
     <g id="line2d_130">
      <path clip-path="url(#p55bc2ce734)" d="M 85.2 16.878125 
L 531.6 16.878125 
" style="fill:none;stroke:#000000;stroke-dasharray:1.000000,3.000000;stroke-dashoffset:0.0;stroke-width:0.5;"/>
     </g>
     <g id="line2d_131">
      <g>
       <use style="stroke:#000000;stroke-width:0.5;" x="85.2" xlink:href="#ma0ed6abb1a" y="16.878125"/>
      </g>
     </g>
     <g id="line2d_132">
      <g>
       <use style="stroke:#000000;stroke-width:0.5;" x="531.6" xlink:href="#me750ac70e0" y="16.878125"/>
      </g>
     </g>
     <g id="text_16">
      <!-- 1.0 -->
      <g transform="translate(49.39375 22.396875)scale(0.2 -0.2)">
       <use xlink:href="#BitstreamVeraSans-Roman-31"/>
       <use x="63.623046875" xlink:href="#BitstreamVeraSans-Roman-2e"/>
       <use x="95.41015625" xlink:href="#BitstreamVeraSans-Roman-30"/>
      </g>
     </g>
    </g>
    <g id="text_17">
     <!-- Proportion of function+target pairs -->
     <defs>
      <path d="M 19.671875 64.796875 
L 19.671875 37.40625 
L 32.078125 37.40625 
Q 38.96875 37.40625 42.71875 40.96875 
Q 46.484375 44.53125 46.484375 51.125 
Q 46.484375 57.671875 42.71875 61.234375 
Q 38.96875 64.796875 32.078125 64.796875 
z
M 9.8125 72.90625 
L 32.078125 72.90625 
Q 44.34375 72.90625 50.609375 67.359375 
Q 56.890625 61.8125 56.890625 51.125 
Q 56.890625 40.328125 50.609375 34.8125 
Q 44.34375 29.296875 32.078125 29.296875 
L 19.671875 29.296875 
L 19.671875 0 
L 9.8125 0 
z
" id="BitstreamVeraSans-Roman-50"/>
      <path d="M 46 62.703125 
L 46 35.5 
L 73.1875 35.5 
L 73.1875 27.203125 
L 46 27.203125 
L 46 0 
L 37.796875 0 
L 37.796875 27.203125 
L 10.59375 27.203125 
L 10.59375 35.5 
L 37.796875 35.5 
L 37.796875 62.703125 
z
" id="BitstreamVeraSans-Roman-2b"/>
      <path d="M 18.109375 8.203125 
L 18.109375 -20.796875 
L 9.078125 -20.796875 
L 9.078125 54.6875 
L 18.109375 54.6875 
L 18.109375 46.390625 
Q 20.953125 51.265625 25.265625 53.625 
Q 29.59375 56 35.59375 56 
Q 45.5625 56 51.78125 48.09375 
Q 58.015625 40.1875 58.015625 27.296875 
Q 58.015625 14.40625 51.78125 6.484375 
Q 45.5625 -1.421875 35.59375 -1.421875 
Q 29.59375 -1.421875 25.265625 0.953125 
Q 20.953125 3.328125 18.109375 8.203125 
M 48.6875 27.296875 
Q 48.6875 37.203125 44.609375 42.84375 
Q 40.53125 48.484375 33.40625 48.484375 
Q 26.265625 48.484375 22.1875 42.84375 
Q 18.109375 37.203125 18.109375 27.296875 
Q 18.109375 17.390625 22.1875 11.75 
Q 26.265625 6.109375 33.40625 6.109375 
Q 40.53125 6.109375 44.609375 11.75 
Q 48.6875 17.390625 48.6875 27.296875 
" id="BitstreamVeraSans-Roman-70"/>
      <path d="M 18.3125 70.21875 
L 18.3125 54.6875 
L 36.8125 54.6875 
L 36.8125 47.703125 
L 18.3125 47.703125 
L 18.3125 18.015625 
Q 18.3125 11.328125 20.140625 9.421875 
Q 21.96875 7.515625 27.59375 7.515625 
L 36.8125 7.515625 
L 36.8125 0 
L 27.59375 0 
Q 17.1875 0 13.234375 3.875 
Q 9.28125 7.765625 9.28125 18.015625 
L 9.28125 47.703125 
L 2.6875 47.703125 
L 2.6875 54.6875 
L 9.28125 54.6875 
L 9.28125 70.21875 
z
" id="BitstreamVeraSans-Roman-74"/>
      <path d="M 8.5 21.578125 
L 8.5 54.6875 
L 17.484375 54.6875 
L 17.484375 21.921875 
Q 17.484375 14.15625 20.5 10.265625 
Q 23.53125 6.390625 29.59375 6.390625 
Q 36.859375 6.390625 41.078125 11.03125 
Q 45.3125 15.671875 45.3125 23.6875 
L 45.3125 54.6875 
L 54.296875 54.6875 
L 54.296875 0 
L 45.3125 0 
L 45.3125 8.40625 
Q 42.046875 3.421875 37.71875 1 
Q 33.40625 -1.421875 27.6875 -1.421875 
Q 18.265625 -1.421875 13.375 4.4375 
Q 8.5 10.296875 8.5 21.578125 
" id="BitstreamVeraSans-Roman-75"/>
      <path d="M 41.109375 46.296875 
Q 39.59375 47.171875 37.8125 47.578125 
Q 36.03125 48 33.890625 48 
Q 26.265625 48 22.1875 43.046875 
Q 18.109375 38.09375 18.109375 28.8125 
L 18.109375 0 
L 9.078125 0 
L 9.078125 54.6875 
L 18.109375 54.6875 
L 18.109375 46.1875 
Q 20.953125 51.171875 25.484375 53.578125 
Q 30.03125 56 36.53125 56 
Q 37.453125 56 38.578125 55.875 
Q 39.703125 55.765625 41.0625 55.515625 
z
" id="BitstreamVeraSans-Roman-72"/>
      <path d="M 48.78125 52.59375 
L 48.78125 44.1875 
Q 44.96875 46.296875 41.140625 47.34375 
Q 37.3125 48.390625 33.40625 48.390625 
Q 24.65625 48.390625 19.8125 42.84375 
Q 14.984375 37.3125 14.984375 27.296875 
Q 14.984375 17.28125 19.8125 11.734375 
Q 24.65625 6.203125 33.40625 6.203125 
Q 37.3125 6.203125 41.140625 7.25 
Q 44.96875 8.296875 48.78125 10.40625 
L 48.78125 2.09375 
Q 45.015625 0.34375 40.984375 -0.53125 
Q 36.96875 -1.421875 32.421875 -1.421875 
Q 20.0625 -1.421875 12.78125 6.34375 
Q 5.515625 14.109375 5.515625 27.296875 
Q 5.515625 40.671875 12.859375 48.328125 
Q 20.21875 56 33.015625 56 
Q 37.15625 56 41.109375 55.140625 
Q 45.0625 54.296875 48.78125 52.59375 
" id="BitstreamVeraSans-Roman-63"/>
     </defs>
     <g transform="translate(40.6503125 344.245717822)rotate(-90.0)scale(0.18 -0.18)">
      <use xlink:href="#BitstreamVeraSans-Roman-50"/>
      <use x="60.287109375" xlink:href="#BitstreamVeraSans-Roman-72"/>
      <use x="101.369140625" xlink:href="#BitstreamVeraSans-Roman-6f"/>
      <use x="162.55078125" xlink:href="#BitstreamVeraSans-Roman-70"/>
      <use x="226.02734375" xlink:href="#BitstreamVeraSans-Roman-6f"/>
      <use x="287.208984375" xlink:href="#BitstreamVeraSans-Roman-72"/>
      <use x="328.322265625" xlink:href="#BitstreamVeraSans-Roman-74"/>
      <use x="367.53125" xlink:href="#BitstreamVeraSans-Roman-69"/>
      <use x="395.314453125" xlink:href="#BitstreamVeraSans-Roman-6f"/>
      <use x="456.49609375" xlink:href="#BitstreamVeraSans-Roman-6e"/>
      <use x="519.875" xlink:href="#BitstreamVeraSans-Roman-20"/>
      <use x="551.662109375" xlink:href="#BitstreamVeraSans-Roman-6f"/>
      <use x="612.84375" xlink:href="#BitstreamVeraSans-Roman-66"/>
      <use x="648.048828125" xlink:href="#BitstreamVeraSans-Roman-20"/>
      <use x="679.8359375" xlink:href="#BitstreamVeraSans-Roman-66"/>
      <use x="715.041015625" xlink:href="#BitstreamVeraSans-Roman-75"/>
      <use x="778.419921875" xlink:href="#BitstreamVeraSans-Roman-6e"/>
      <use x="841.798828125" xlink:href="#BitstreamVeraSans-Roman-63"/>
      <use x="896.779296875" xlink:href="#BitstreamVeraSans-Roman-74"/>
      <use x="935.98828125" xlink:href="#BitstreamVeraSans-Roman-69"/>
      <use x="963.771484375" xlink:href="#BitstreamVeraSans-Roman-6f"/>
      <use x="1024.953125" xlink:href="#BitstreamVeraSans-Roman-6e"/>
      <use x="1088.33203125" xlink:href="#BitstreamVeraSans-Roman-2b"/>
      <use x="1172.12109375" xlink:href="#BitstreamVeraSans-Roman-74"/>
      <use x="1211.33007812" xlink:href="#BitstreamVeraSans-Roman-61"/>
      <use x="1272.609375" xlink:href="#BitstreamVeraSans-Roman-72"/>
      <use x="1313.70703125" xlink:href="#BitstreamVeraSans-Roman-67"/>
      <use x="1377.18359375" xlink:href="#BitstreamVeraSans-Roman-65"/>
      <use x="1438.70703125" xlink:href="#BitstreamVeraSans-Roman-74"/>
      <use x="1477.91601562" xlink:href="#BitstreamVeraSans-Roman-20"/>
      <use x="1509.703125" xlink:href="#BitstreamVeraSans-Roman-70"/>
      <use x="1573.1796875" xlink:href="#BitstreamVeraSans-Roman-61"/>
      <use x="1634.45898438" xlink:href="#BitstreamVeraSans-Roman-69"/>
      <use x="1662.2421875" xlink:href="#BitstreamVeraSans-Roman-72"/>
      <use x="1703.35546875" xlink:href="#BitstreamVeraSans-Roman-73"/>
     </g>
    </g>
   </g>
   <g id="text_18">
    <!-- 5-D -->
    <defs>
     <path d="M 19.671875 64.796875 
L 19.671875 8.109375 
L 31.59375 8.109375 
Q 46.6875 8.109375 53.6875 14.9375 
Q 60.6875 21.78125 60.6875 36.53125 
Q 60.6875 51.171875 53.6875 57.984375 
Q 46.6875 64.796875 31.59375 64.796875 
z
M 9.8125 72.90625 
L 30.078125 72.90625 
Q 51.265625 72.90625 61.171875 64.09375 
Q 71.09375 55.28125 71.09375 36.53125 
Q 71.09375 17.671875 61.125 8.828125 
Q 51.171875 0 30.078125 0 
L 9.8125 0 
z
" id="BitstreamVeraSans-Roman-44"/>
    </defs>
    <g transform="translate(492.0 356.351840965)scale(0.15 -0.15)">
     <use xlink:href="#BitstreamVeraSans-Roman-35"/>
     <use x="63.623046875" xlink:href="#BitstreamVeraSans-Roman-2d"/>
     <use x="99.70703125" xlink:href="#BitstreamVeraSans-Roman-44"/>
    </g>
   </g>
   <g id="text_19">
    <!-- 3-D -->
    <g transform="translate(492.0 192.106296411)scale(0.15 -0.15)">
     <use xlink:href="#BitstreamVeraSans-Roman-33"/>
     <use x="63.623046875" xlink:href="#BitstreamVeraSans-Roman-2d"/>
     <use x="99.70703125" xlink:href="#BitstreamVeraSans-Roman-44"/>
    </g>
   </g>
   <g id="text_20">
    <!-- 2-D -->
    <g transform="translate(492.0 27.8607518564)scale(0.15 -0.15)">
     <use xlink:href="#BitstreamVeraSans-Roman-32"/>
     <use x="63.623046875" xlink:href="#BitstreamVeraSans-Roman-2d"/>
     <use x="99.70703125" xlink:href="#BitstreamVeraSans-Roman-44"/>
    </g>
   </g>
   <g id="text_21">
    <!-- bbob-biobj - f3, f4, f12, f13 -->
    <defs>
     <path d="M 11.71875 12.40625 
L 22.015625 12.40625 
L 22.015625 4 
L 14.015625 -11.625 
L 7.71875 -11.625 
L 11.71875 4 
z
" id="BitstreamVeraSans-Roman-2c"/>
     <path d="M 9.421875 54.6875 
L 18.40625 54.6875 
L 18.40625 -0.984375 
Q 18.40625 -11.421875 14.421875 -16.109375 
Q 10.453125 -20.796875 1.609375 -20.796875 
L -1.8125 -20.796875 
L -1.8125 -13.1875 
L 0.59375 -13.1875 
Q 5.71875 -13.1875 7.5625 -10.8125 
Q 9.421875 -8.453125 9.421875 -0.984375 
z
M 9.421875 75.984375 
L 18.40625 75.984375 
L 18.40625 64.59375 
L 9.421875 64.59375 
z
" id="BitstreamVeraSans-Roman-6a"/>
     <path d="M 48.6875 27.296875 
Q 48.6875 37.203125 44.609375 42.84375 
Q 40.53125 48.484375 33.40625 48.484375 
Q 26.265625 48.484375 22.1875 42.84375 
Q 18.109375 37.203125 18.109375 27.296875 
Q 18.109375 17.390625 22.1875 11.75 
Q 26.265625 6.109375 33.40625 6.109375 
Q 40.53125 6.109375 44.609375 11.75 
Q 48.6875 17.390625 48.6875 27.296875 
M 18.109375 46.390625 
Q 20.953125 51.265625 25.265625 53.625 
Q 29.59375 56 35.59375 56 
Q 45.5625 56 51.78125 48.09375 
Q 58.015625 40.1875 58.015625 27.296875 
Q 58.015625 14.40625 51.78125 6.484375 
Q 45.5625 -1.421875 35.59375 -1.421875 
Q 29.59375 -1.421875 25.265625 0.953125 
Q 20.953125 3.328125 18.109375 8.203125 
L 18.109375 0 
L 9.078125 0 
L 9.078125 75.984375 
L 18.109375 75.984375 
z
" id="BitstreamVeraSans-Roman-62"/>
    </defs>
    <g transform="translate(89.664 33.0273396968)scale(0.1666 -0.1666)">
     <use xlink:href="#BitstreamVeraSans-Roman-62"/>
     <use x="63.4765625" xlink:href="#BitstreamVeraSans-Roman-62"/>
     <use x="126.953125" xlink:href="#BitstreamVeraSans-Roman-6f"/>
     <use x="188.134765625" xlink:href="#BitstreamVeraSans-Roman-62"/>
     <use x="251.611328125" xlink:href="#BitstreamVeraSans-Roman-2d"/>
     <use x="287.6953125" xlink:href="#BitstreamVeraSans-Roman-62"/>
     <use x="351.171875" xlink:href="#BitstreamVeraSans-Roman-69"/>
     <use x="378.955078125" xlink:href="#BitstreamVeraSans-Roman-6f"/>
     <use x="440.13671875" xlink:href="#BitstreamVeraSans-Roman-62"/>
     <use x="503.61328125" xlink:href="#BitstreamVeraSans-Roman-6a"/>
     <use x="531.396484375" xlink:href="#BitstreamVeraSans-Roman-20"/>
     <use x="563.18359375" xlink:href="#BitstreamVeraSans-Roman-2d"/>
     <use x="599.267578125" xlink:href="#BitstreamVeraSans-Roman-20"/>
     <use x="631.0546875" xlink:href="#BitstreamVeraSans-Roman-66"/>
     <use x="666.259765625" xlink:href="#BitstreamVeraSans-Roman-33"/>
     <use x="729.8828125" xlink:href="#BitstreamVeraSans-Roman-2c"/>
     <use x="761.669921875" xlink:href="#BitstreamVeraSans-Roman-20"/>
     <use x="793.45703125" xlink:href="#BitstreamVeraSans-Roman-66"/>
     <use x="828.662109375" xlink:href="#BitstreamVeraSans-Roman-34"/>
     <use x="892.28515625" xlink:href="#BitstreamVeraSans-Roman-2c"/>
     <use x="924.072265625" xlink:href="#BitstreamVeraSans-Roman-20"/>
     <use x="955.859375" xlink:href="#BitstreamVeraSans-Roman-66"/>
     <use x="991.064453125" xlink:href="#BitstreamVeraSans-Roman-31"/>
     <use x="1054.6875" xlink:href="#BitstreamVeraSans-Roman-32"/>
     <use x="1118.31054688" xlink:href="#BitstreamVeraSans-Roman-2c"/>
     <use x="1150.09765625" xlink:href="#BitstreamVeraSans-Roman-20"/>
     <use x="1181.88476562" xlink:href="#BitstreamVeraSans-Roman-66"/>
     <use x="1217.08984375" xlink:href="#BitstreamVeraSans-Roman-31"/>
     <use x="1280.71289062" xlink:href="#BitstreamVeraSans-Roman-33"/>
    </g>
    <!-- 58 targets in 1..-1.0e-4 -->
    <g transform="translate(89.664 51.6828953218)scale(0.1666 -0.1666)">
     <use xlink:href="#BitstreamVeraSans-Roman-35"/>
     <use x="63.623046875" xlink:href="#BitstreamVeraSans-Roman-38"/>
     <use x="127.24609375" xlink:href="#BitstreamVeraSans-Roman-20"/>
     <use x="159.033203125" xlink:href="#BitstreamVeraSans-Roman-74"/>
     <use x="198.2421875" xlink:href="#BitstreamVeraSans-Roman-61"/>
     <use x="259.521484375" xlink:href="#BitstreamVeraSans-Roman-72"/>
     <use x="300.619140625" xlink:href="#BitstreamVeraSans-Roman-67"/>
     <use x="364.095703125" xlink:href="#BitstreamVeraSans-Roman-65"/>
     <use x="425.619140625" xlink:href="#BitstreamVeraSans-Roman-74"/>
     <use x="464.828125" xlink:href="#BitstreamVeraSans-Roman-73"/>
     <use x="516.927734375" xlink:href="#BitstreamVeraSans-Roman-20"/>
     <use x="548.71484375" xlink:href="#BitstreamVeraSans-Roman-69"/>
     <use x="576.498046875" xlink:href="#BitstreamVeraSans-Roman-6e"/>
     <use x="639.876953125" xlink:href="#BitstreamVeraSans-Roman-20"/>
     <use x="671.6640625" xlink:href="#BitstreamVeraSans-Roman-31"/>
     <use x="735.287109375" xlink:href="#BitstreamVeraSans-Roman-2e"/>
     <use x="767.07421875" xlink:href="#BitstreamVeraSans-Roman-2e"/>
     <use x="798.861328125" xlink:href="#BitstreamVeraSans-Roman-2d"/>
     <use x="834.9453125" xlink:href="#BitstreamVeraSans-Roman-31"/>
     <use x="898.568359375" xlink:href="#BitstreamVeraSans-Roman-2e"/>
     <use x="930.35546875" xlink:href="#BitstreamVeraSans-Roman-30"/>
     <use x="993.978515625" xlink:href="#BitstreamVeraSans-Roman-65"/>
     <use x="1055.50195312" xlink:href="#BitstreamVeraSans-Roman-2d"/>
     <use x="1091.5859375" xlink:href="#BitstreamVeraSans-Roman-34"/>
    </g>
    <!-- 5 instances -->
    <g transform="translate(89.664 70.3384509468)scale(0.1666 -0.1666)">
     <use xlink:href="#BitstreamVeraSans-Roman-35"/>
     <use x="63.623046875" xlink:href="#BitstreamVeraSans-Roman-20"/>
     <use x="95.41015625" xlink:href="#BitstreamVeraSans-Roman-69"/>
     <use x="123.193359375" xlink:href="#BitstreamVeraSans-Roman-6e"/>
     <use x="186.572265625" xlink:href="#BitstreamVeraSans-Roman-73"/>
     <use x="238.671875" xlink:href="#BitstreamVeraSans-Roman-74"/>
     <use x="277.880859375" xlink:href="#BitstreamVeraSans-Roman-61"/>
     <use x="339.16015625" xlink:href="#BitstreamVeraSans-Roman-6e"/>
     <use x="402.5390625" xlink:href="#BitstreamVeraSans-Roman-63"/>
     <use x="457.51953125" xlink:href="#BitstreamVeraSans-Roman-65"/>
     <use x="519.04296875" xlink:href="#BitstreamVeraSans-Roman-73"/>
    </g>
   </g>
   <g id="text_22">
    <!-- 1.2 -->
    <g style="fill:#808080;" transform="translate(300.4484375 353.520655322)scale(0.1 -0.1)">
     <use xlink:href="#BitstreamVeraSans-Roman-31"/>
     <use x="63.623046875" xlink:href="#BitstreamVeraSans-Roman-2e"/>
     <use x="95.41015625" xlink:href="#BitstreamVeraSans-Roman-32"/>
    </g>
   </g>
  </g>
 </g>
 <defs>
  <clipPath id="p55bc2ce734">
   <rect height="345.6" width="446.4" x="85.2" y="13.4563428218"/>
  </clipPath>
 </defs>
</svg>
