<?xml version="1.0" encoding="utf-8" standalone="no"?>
<!DOCTYPE svg PUBLIC "-//W3C//DTD SVG 1.1//EN"
  "http://www.w3.org/Graphics/SVG/1.1/DTD/svg11.dtd">
<!-- Created with matplotlib (http://matplotlib.org/) -->
<svg height="415pt" version="1.1" viewBox="0 0 538 415" width="538pt" xmlns="http://www.w3.org/2000/svg" xmlns:xlink="http://www.w3.org/1999/xlink">
 <defs>
  <style type="text/css">
*{stroke-linecap:butt;stroke-linejoin:round;stroke-miterlimit:100000;}
  </style>
 </defs>
 <g id="figure_1">
  <g id="patch_1">
   <path d="M 0 415.456343 
L 538.8 415.456343 
L 538.8 0 
L 0 0 
z
" style="fill:#ffffff;"/>
  </g>
  <g id="axes_1">
   <g id="patch_2">
    <path d="M 85.2 359.056343 
L 531.6 359.056343 
L 531.6 13.456343 
L 85.2 13.456343 
z
" style="fill:#ffffff;"/>
   </g>
   <g id="line2d_1">
    <defs>
     <path d="M 0 1.5 
C 0.397805 1.5 0.77937 1.341951 1.06066 1.06066 
C 1.341951 0.77937 1.5 0.397805 1.5 0 
C 1.5 -0.397805 1.341951 -0.77937 1.06066 -1.06066 
C 0.77937 -1.341951 0.397805 -1.5 0 -1.5 
C -0.397805 -1.5 -0.77937 -1.341951 -1.06066 -1.06066 
C -1.341951 -0.77937 -1.5 -0.397805 -1.5 0 
C -1.5 0.397805 -1.341951 0.77937 -1.06066 1.06066 
C -0.77937 1.341951 -0.397805 1.5 0 1.5 
z
" id="m085c5d3df7" style="stroke:#000080;stroke-width:0.5;"/>
    </defs>
    <g>
     <use style="fill:#000080;stroke:#000080;stroke-width:0.5;" x="459.42026491" xlink:href="#m085c5d3df7" y="158.469111685"/>
     <use style="fill:#000080;stroke:#000080;stroke-width:0.5;" x="459.42026491" xlink:href="#m085c5d3df7" y="158.469111685"/>
    </g>
   </g>
   <g id="line2d_2">
    <path d="M 69.718457 359.056343 
L 69.718457 353.746681 
L 85.2 353.746681 
L 85.2 352.566756 
L 100.681543 352.566756 
L 100.681543 351.976793 
L 116.163085 351.976793 
L 116.163085 349.026981 
L 125.219207 349.026981 
L 125.219207 348.437019 
L 127.006973 348.437019 
L 127.006973 346.667131 
L 130.203151 346.667131 
L 130.203151 344.307282 
L 137.718307 344.307282 
L 137.718307 342.537394 
L 138.757338 342.537394 
L 138.757338 340.767507 
L 150.368832 340.767507 
L 150.368832 338.99762 
L 151.544637 338.99762 
L 151.544637 336.047807 
L 153.199849 336.047807 
L 153.199849 332.508033 
L 157.970058 332.508033 
L 157.970058 331.91807 
L 163.961773 331.91807 
L 163.961773 327.198371 
L 164.92603 327.198371 
L 164.92603 325.428483 
L 175.106813 325.428483 
L 175.106813 322.478671 
L 176.460873 322.478671 
L 176.460873 321.888709 
L 179.769382 321.888709 
L 179.769382 319.528859 
L 191.178746 319.528859 
L 191.178746 318.938897 
L 194.088238 318.938897 
L 194.088238 318.348934 
L 196.356069 318.348934 
L 196.356069 315.399122 
L 196.662034 315.399122 
L 196.662034 313.039272 
L 199.376987 313.039272 
L 199.376987 311.859347 
L 204.892745 311.859347 
L 204.892745 310.679422 
L 205.616633 310.679422 
L 205.616633 308.909535 
L 206.465221 308.909535 
L 206.465221 307.72961 
L 209.008675 307.72961 
L 209.008675 306.549685 
L 209.950142 306.549685 
L 209.950142 305.36976 
L 214.244701 305.36976 
L 214.244701 301.240023 
L 216.666986 301.240023 
L 216.666986 300.650061 
L 216.913785 300.650061 
L 216.913785 298.880173 
L 219.352767 298.880173 
L 219.352767 297.110286 
L 228.390544 297.110286 
L 228.390544 295.930361 
L 229.898451 295.930361 
L 229.898451 292.980549 
L 231.535276 292.980549 
L 231.535276 290.030737 
L 231.836144 290.030737 
L 231.836144 288.260849 
L 232.955819 288.260849 
L 232.955819 287.670887 
L 243.761699 287.670887 
L 243.761699 284.721075 
L 250.205555 284.721075 
L 250.205555 283.54115 
L 253.334369 283.54115 
L 253.334369 280.591338 
L 255.404076 280.591338 
L 255.404076 280.001375 
L 259.722212 280.001375 
L 259.722212 278.82145 
L 262.621573 278.82145 
L 262.621573 276.461601 
L 264.698031 276.461601 
L 264.698031 274.691713 
L 264.910115 274.691713 
L 264.910115 269.972014 
L 272.31717 269.972014 
L 272.31717 268.792089 
L 275.262348 268.792089 
L 275.262348 264.072389 
L 283.731669 264.072389 
L 283.731669 262.892464 
L 284.76853 262.892464 
L 284.76853 261.122577 
L 289.257355 261.122577 
L 289.257355 260.532615 
L 290.106972 260.532615 
L 290.106972 257.582802 
L 293.623271 257.582802 
L 293.623271 256.402877 
L 295.746731 256.402877 
L 295.746731 255.812915 
L 299.879393 255.812915 
L 299.879393 254.043028 
L 302.021883 254.043028 
L 302.07073 251.093215 
L 304.087831 251.093215 
L 304.087831 250.503253 
L 313.295135 250.503253 
L 313.295135 246.963478 
L 313.75931 246.963478 
L 313.75931 245.193591 
L 315.036018 245.193591 
L 315.036018 244.013666 
L 315.263918 244.013666 
L 315.263918 243.423704 
L 321.643869 243.423704 
L 321.643869 241.653816 
L 321.825661 241.653816 
L 321.825661 238.114042 
L 322.232454 238.114042 
L 322.232454 235.164229 
L 323.503309 235.164229 
L 323.503309 233.394342 
L 325.256283 233.394342 
L 325.256283 232.214417 
L 326.183767 232.214417 
L 326.183767 231.034492 
L 327.332495 231.034492 
L 327.332495 230.44453 
L 329.594423 230.44453 
L 329.594423 228.08468 
L 329.980393 228.08468 
L 329.982724 225.134868 
L 333.496258 225.134868 
L 333.496258 223.954943 
L 333.929635 223.954943 
L 333.929635 223.364981 
L 337.907022 223.364981 
L 337.907022 221.595093 
L 338.853896 221.595093 
L 338.853896 219.235243 
L 340.503568 219.235243 
L 340.503568 217.465356 
L 341.140599 217.465356 
L 341.140599 215.105506 
L 344.506521 215.105506 
L 344.506521 214.515544 
L 346.273785 214.515544 
L 346.273785 213.925581 
L 346.971996 213.925581 
L 346.971996 210.975769 
L 351.051056 210.975769 
L 351.051056 209.795844 
L 351.470708 209.795844 
L 351.470708 208.025957 
L 352.270397 208.025957 
L 352.270397 205.076145 
L 354.022135 205.076145 
L 354.022135 203.306257 
L 355.756336 203.306257 
L 355.756336 202.126333 
L 356.948726 202.126333 
L 356.948726 201.53637 
L 359.176357 201.53637 
L 359.176357 200.356445 
L 360.010909 200.356445 
L 360.010909 199.17652 
L 367.757918 199.17652 
L 367.757918 197.996595 
L 370.258761 197.996595 
L 370.258761 196.816671 
L 371.978974 196.816671 
L 371.978974 195.636746 
L 374.668777 195.636746 
L 374.668777 195.046783 
L 377.796978 195.046783 
L 377.796978 194.456821 
L 378.182015 194.456821 
L 378.182015 192.686933 
L 378.590451 192.686933 
L 378.590451 191.507009 
L 383.739498 191.507009 
L 383.739498 188.557196 
L 385.477468 188.557196 
L 385.477468 187.377271 
L 386.079727 187.377271 
L 386.079727 184.427459 
L 387.730916 184.427459 
L 387.730916 182.657572 
L 390.748784 182.657572 
L 390.773946 180.887685 
L 390.973817 180.887685 
L 390.973817 180.297722 
L 391.464954 180.297722 
L 391.464954 176.757947 
L 391.720974 176.757947 
L 391.720974 176.167985 
L 401.684525 176.167985 
L 401.684525 175.578023 
L 402.664453 175.578023 
L 402.664453 174.398098 
L 402.928189 174.398098 
L 402.928189 171.448285 
L 404.79557 171.448285 
L 404.79557 170.268361 
L 405.488785 170.268361 
L 405.488785 169.678398 
L 408.129493 169.678398 
L 408.129493 169.088436 
L 413.558142 169.088436 
L 413.558142 167.908511 
L 414.297352 167.908511 
L 414.297352 167.318548 
L 415.438407 167.318548 
L 415.438407 166.138623 
L 415.871384 166.138623 
L 415.871384 165.548661 
L 417.353942 165.548661 
L 417.414933 164.368736 
L 420.519063 164.368736 
L 420.519063 163.778774 
L 424.179838 163.778774 
L 424.179838 163.188811 
L 426.990668 163.188811 
L 426.990668 162.008886 
L 427.398812 162.008886 
L 427.398812 161.418924 
L 432.605022 161.418924 
L 432.605022 160.828961 
L 433.34803 160.828961 
L 433.34803 159.649037 
L 445.2 159.649037 
L 445.2 159.649037 
" style="fill:none;stroke:#000080;stroke-linecap:square;stroke-width:1.5;"/>
   </g>
   <g id="line2d_3">
    <defs>
     <path d="M 0 6 
C 1.591219 6 3.117479 5.367802 4.242641 4.242641 
C 5.367802 3.117479 6 1.591219 6 0 
C 6 -1.591219 5.367802 -3.117479 4.242641 -4.242641 
C 3.117479 -5.367802 1.591219 -6 0 -6 
C -1.591219 -6 -3.117479 -5.367802 -4.242641 -4.242641 
C -5.367802 -3.117479 -6 -1.591219 -6 0 
C -6 1.591219 -5.367802 3.117479 -4.242641 4.242641 
C -3.117479 5.367802 -1.591219 6 0 6 
z
" id="m954466b711" style="stroke:#000080;stroke-width:1.5;"/>
    </defs>
    <g>
     <use style="fill:none;stroke:#000080;stroke-width:1.5;" x="138.757338094" xlink:href="#m954466b711" y="340.767507042"/>
     <use style="fill:none;stroke:#000080;stroke-width:1.5;" x="231.836143648" xlink:href="#m954466b711" y="290.030736813"/>
     <use style="fill:none;stroke:#000080;stroke-width:1.5;" x="321.825661148" xlink:href="#m954466b711" y="241.653816362"/>
     <use style="fill:none;stroke:#000080;stroke-width:1.5;" x="383.739497987" xlink:href="#m954466b711" y="191.507008578"/>
     <use style="fill:none;stroke:#000080;stroke-width:1.5;" x="433.348030056" xlink:href="#m954466b711" y="159.649036574"/>
     <use style="fill:none;stroke:#000080;stroke-width:1.5;" x="445.2" xlink:href="#m954466b711" y="159.649036574"/>
    </g>
   </g>
   <g id="line2d_4"/>
   <g id="line2d_5">
    <path clip-path="url(#pdcea6f1d45)" d="M 393.771429 176.167985 
" style="fill:none;stroke:#000080;stroke-linecap:square;"/>
    <defs>
     <path d="M -12 12 
L 12 -12 
M -12 -12 
L 12 12 
" id="m889901b24b" style="stroke:#000080;stroke-width:3.0;"/>
    </defs>
    <g clip-path="url(#pdcea6f1d45)">
     <use style="fill:#000080;stroke:#000080;stroke-width:3.0;" x="393.771428571" xlink:href="#m889901b24b" y="176.16798502"/>
    </g>
   </g>
   <g id="line2d_6">
    <defs>
     <path d="M 0 1.5 
C 0.397805 1.5 0.77937 1.341951 1.06066 1.06066 
C 1.341951 0.77937 1.5 0.397805 1.5 0 
C 1.5 -0.397805 1.341951 -0.77937 1.06066 -1.06066 
C 0.77937 -1.341951 0.397805 -1.5 0 -1.5 
C -0.397805 -1.5 -0.77937 -1.341951 -1.06066 -1.06066 
C -1.341951 -0.77937 -1.5 -0.397805 -1.5 0 
C -1.5 0.397805 -1.341951 0.77937 -1.06066 1.06066 
C -0.77937 1.341951 -0.397805 1.5 0 1.5 
z
" id="me15a94dbca" style="stroke:#ff00ff;stroke-width:0.5;"/>
    </defs>
    <g>
     <use style="fill:#ff00ff;stroke:#ff00ff;stroke-width:0.5;" x="450.553240652" xlink:href="#me15a94dbca" y="128.970989459"/>
     <use style="fill:#ff00ff;stroke:#ff00ff;stroke-width:0.5;" x="450.553240652" xlink:href="#me15a94dbca" y="128.970989459"/>
    </g>
   </g>
   <g id="line2d_7">
    <path d="M 69.718457 359.056343 
L 69.718457 356.696493 
L 85.2 356.696493 
L 85.2 350.206906 
L 100.681543 350.206906 
L 100.681543 348.437019 
L 109.737665 348.437019 
L 109.737665 343.717319 
L 113.180642 343.717319 
L 113.180642 343.127357 
L 116.163085 343.127357 
L 116.163085 341.357469 
L 118.793786 341.357469 
L 118.793786 340.767507 
L 123.275795 340.767507 
L 123.275795 338.99762 
L 128.662185 338.99762 
L 128.662185 337.817695 
L 134.275329 337.817695 
L 134.275329 334.27792 
L 138.757338 334.27792 
L 138.757338 329.558221 
L 149.127671 329.558221 
L 149.127671 327.788333 
L 152.110114 327.788333 
L 152.110114 326.018446 
L 152.661627 326.018446 
L 152.661627 324.248559 
L 153.725407 324.248559 
L 153.725407 322.478671 
L 156.642827 322.478671 
L 156.642827 321.888709 
L 159.62527 321.888709 
L 159.62527 321.298746 
L 167.591657 321.298746 
L 167.591657 320.118821 
L 170.469158 320.118821 
L 170.469158 315.989084 
L 174.500392 315.989084 
L 174.500392 313.629235 
L 176.833134 313.629235 
L 176.833134 311.859347 
L 177.737514 311.859347 
L 177.737514 311.269385 
L 179.930647 311.269385 
L 179.930647 310.679422 
L 180.874526 310.679422 
L 180.874526 309.499497 
L 186.436266 309.499497 
L 186.436266 308.319573 
L 188.389682 308.319573 
L 188.389682 307.139648 
L 191.081425 307.139648 
L 191.081425 304.779798 
L 191.753932 304.779798 
L 191.753932 303.599873 
L 200.873058 303.599873 
L 200.873058 301.240023 
L 202.510287 301.240023 
L 202.510287 300.650061 
L 203.370541 300.650061 
L 203.370541 299.470136 
L 206.853668 299.470136 
L 206.853668 298.290211 
L 207.282745 298.290211 
L 207.282745 297.700249 
L 210.570029 297.700249 
L 210.570029 297.110286 
L 211.370657 297.110286 
L 211.370657 294.750436 
L 218.050223 294.750436 
L 218.050223 290.620699 
L 222.262889 290.620699 
L 222.262889 287.670887 
L 223.185276 287.670887 
L 223.185276 284.721075 
L 224.159973 284.721075 
L 224.159973 283.54115 
L 225.619464 283.54115 
L 225.619464 282.361225 
L 227.35763 282.361225 
L 227.35763 280.591338 
L 230.888304 280.591338 
L 230.888304 278.231488 
L 232.34926 278.231488 
L 232.34926 277.641525 
L 236.400934 277.641525 
L 236.400934 276.461601 
L 239.3513 276.461601 
L 239.440999 270.561976 
L 248.189149 270.561976 
L 248.189149 267.612164 
L 249.338952 267.612164 
L 249.338952 266.432239 
L 251.271585 266.432239 
L 251.271585 264.662352 
L 253.117052 264.662352 
L 253.117052 261.712539 
L 255.442373 261.712539 
L 255.442373 260.532615 
L 260.559297 260.532615 
L 260.559297 257.582802 
L 261.261072 257.582802 
L 261.261072 254.043028 
L 262.051522 254.043028 
L 262.051522 253.453065 
L 264.45107 253.453065 
L 264.454722 249.913291 
L 268.080041 249.913291 
L 268.080041 248.733366 
L 271.3248 248.733366 
L 271.3248 247.553441 
L 276.738401 247.553441 
L 276.738401 245.783553 
L 281.356166 245.783553 
L 281.356166 243.423704 
L 281.606599 243.423704 
L 281.606599 242.833741 
L 283.859154 242.833741 
L 283.859154 239.293967 
L 284.78029 239.293967 
L 284.78029 238.114042 
L 290.050165 238.114042 
L 290.050165 234.574267 
L 292.788818 234.574267 
L 292.788818 232.80438 
L 295.621351 232.80438 
L 295.621351 231.034492 
L 298.458937 231.034492 
L 298.458937 229.264605 
L 299.499416 229.264605 
L 299.499416 228.674643 
L 301.354578 228.674643 
L 301.354578 228.08468 
L 302.65795 228.08468 
L 302.65795 226.314793 
L 302.932181 226.314793 
L 302.932181 224.544905 
L 305.886977 224.544905 
L 305.886977 223.954943 
L 307.010444 223.954943 
L 307.010444 222.185056 
L 311.298772 222.185056 
L 311.298772 220.415168 
L 312.531534 220.415168 
L 312.531534 218.645281 
L 313.59851 218.645281 
L 313.59851 218.055319 
L 316.363358 218.055319 
L 316.363358 216.285431 
L 319.297773 216.285431 
L 319.297773 215.695469 
L 319.523198 215.695469 
L 319.523198 213.335619 
L 323.089349 213.335619 
L 323.089349 212.155694 
L 324.034039 212.155694 
L 324.034039 208.615919 
L 324.812966 208.615919 
L 324.812966 207.435995 
L 327.408033 207.435995 
L 327.408033 205.076145 
L 327.659867 205.076145 
L 327.659867 203.306257 
L 328.510863 203.306257 
L 328.510863 202.126333 
L 329.552289 202.126333 
L 329.552289 199.17652 
L 330.282138 199.17652 
L 330.282138 197.406633 
L 331.597668 197.406633 
L 331.597668 195.046783 
L 331.744613 195.046783 
L 331.744613 193.866858 
L 332.480464 193.866858 
L 332.480464 192.686933 
L 338.71941 192.686933 
L 338.71941 190.327084 
L 339.21945 190.327084 
L 339.21945 188.557196 
L 346.402096 188.557196 
L 346.402096 187.377271 
L 347.685379 187.377271 
L 347.685379 186.197347 
L 349.770255 186.197347 
L 349.770255 184.427459 
L 350.537566 184.427459 
L 350.537566 180.887685 
L 352.134082 180.887685 
L 352.134082 179.70776 
L 355.556303 179.70776 
L 355.556303 179.117797 
L 356.695619 179.117797 
L 356.695619 177.34791 
L 362.304541 177.34791 
L 362.304541 176.167985 
L 363.49377 176.167985 
L 363.49377 174.398098 
L 365.347611 174.398098 
L 365.347611 171.448285 
L 366.59946 171.448285 
L 366.59946 170.858323 
L 367.017092 170.858323 
L 367.017092 169.678398 
L 370.747487 169.678398 
L 370.747487 168.498473 
L 374.895587 168.498473 
L 374.932971 166.728586 
L 377.775092 166.728586 
L 377.775092 163.778774 
L 379.513782 163.778774 
L 379.513782 162.598849 
L 381.387257 162.598849 
L 381.387257 160.828961 
L 385.186257 160.828961 
L 385.256429 158.469112 
L 385.801739 158.469112 
L 385.801739 155.519299 
L 386.07139 155.519299 
L 386.07139 154.339375 
L 387.959639 154.339375 
L 387.959639 153.15945 
L 391.48592 153.15945 
L 391.48592 151.979525 
L 393.502588 151.979525 
L 393.502588 150.7996 
L 396.301255 150.7996 
L 396.301255 149.619675 
L 397.659394 149.619675 
L 397.659394 149.029713 
L 399.566825 149.029713 
L 399.662963 147.849788 
L 401.763669 147.849788 
L 401.763669 146.669863 
L 402.657268 146.669863 
L 402.657268 144.310013 
L 403.908442 144.310013 
L 403.908442 143.720051 
L 405.398817 143.720051 
L 405.398817 143.130088 
L 405.733145 143.130088 
L 405.733145 141.360201 
L 406.53558 141.360201 
L 406.53558 140.180276 
L 410.553683 140.180276 
L 410.553683 139.590313 
L 411.281447 139.590313 
L 411.281447 139.000351 
L 413.604686 139.000351 
L 413.604686 138.410389 
L 414.134901 138.410389 
L 414.134901 137.230464 
L 414.891706 137.230464 
L 414.891706 136.050539 
L 420.412454 136.050539 
L 420.412454 135.460576 
L 421.679251 135.460576 
L 421.679251 134.280651 
L 422.22173 134.280651 
L 422.22173 133.690689 
L 428.376332 133.690689 
L 428.376332 133.100727 
L 428.670831 133.100727 
L 428.670831 132.510764 
L 434.487465 132.510764 
L 434.487465 131.920802 
L 436.283252 131.920802 
L 436.283252 130.740877 
L 437.832217 130.740877 
L 437.832217 130.150914 
L 439.386725 130.150914 
L 439.386725 129.560952 
L 445.2 129.560952 
L 445.2 129.560952 
" style="fill:none;stroke:#ff00ff;stroke-linecap:square;stroke-width:1.5;"/>
   </g>
   <g id="line2d_8">
    <defs>
     <path d="M -0 8.485281 
L 5.091169 0 
L 0 -8.485281 
L -5.091169 -0 
z
" id="m069cf83978" style="stroke:#ff00ff;stroke-linejoin:miter;stroke-width:1.5;"/>
    </defs>
    <g>
     <use style="fill:none;stroke:#ff00ff;stroke-linejoin:miter;stroke-width:1.5;" x="123.27579546" xlink:href="#m069cf83978" y="340.767507042"/>
     <use style="fill:none;stroke:#ff00ff;stroke-linejoin:miter;stroke-width:1.5;" x="236.400933686" xlink:href="#m069cf83978" y="277.641525478"/>
     <use style="fill:none;stroke:#ff00ff;stroke-linejoin:miter;stroke-width:1.5;" x="284.780290344" xlink:href="#m069cf83978" y="239.293966584"/>
     <use style="fill:none;stroke:#ff00ff;stroke-linejoin:miter;stroke-width:1.5;" x="370.747486667" xlink:href="#m069cf83978" y="168.498473242"/>
     <use style="fill:none;stroke:#ff00ff;stroke-linejoin:miter;stroke-width:1.5;" x="439.38672524" xlink:href="#m069cf83978" y="129.560951903"/>
     <use style="fill:none;stroke:#ff00ff;stroke-linejoin:miter;stroke-width:1.5;" x="445.2" xlink:href="#m069cf83978" y="129.560951903"/>
    </g>
   </g>
   <g id="line2d_9"/>
   <g id="line2d_10">
    <path clip-path="url(#pdcea6f1d45)" d="M 393.771429 150.7996 
" style="fill:none;stroke:#ff00ff;stroke-linecap:square;"/>
    <defs>
     <path d="M -12 12 
L 12 -12 
M -12 -12 
L 12 12 
" id="m462bd9a929" style="stroke:#ff00ff;stroke-width:3.0;"/>
    </defs>
    <g clip-path="url(#pdcea6f1d45)">
     <use style="fill:#ff00ff;stroke:#ff00ff;stroke-width:3.0;" x="393.771428571" xlink:href="#m462bd9a929" y="150.799599906"/>
    </g>
   </g>
   <g id="line2d_11">
    <defs>
     <path d="M 0 1.5 
C 0.397805 1.5 0.77937 1.341951 1.06066 1.06066 
C 1.341951 0.77937 1.5 0.397805 1.5 0 
C 1.5 -0.397805 1.341951 -0.77937 1.06066 -1.06066 
C 0.77937 -1.341951 0.397805 -1.5 0 -1.5 
C -0.397805 -1.5 -0.77937 -1.341951 -1.06066 -1.06066 
C -1.341951 -0.77937 -1.5 -0.397805 -1.5 0 
C -1.5 0.397805 -1.341951 0.77937 -1.06066 1.06066 
C -0.77937 1.341951 -0.397805 1.5 0 1.5 
z
" id="m81b8e6442f" style="stroke:#ffa500;stroke-width:0.5;"/>
    </defs>
    <g>
     <use style="fill:#ffa500;stroke:#ffa500;stroke-width:0.5;" x="457.795675117" xlink:href="#m81b8e6442f" y="164.36873613"/>
     <use style="fill:#ffa500;stroke:#ffa500;stroke-width:0.5;" x="457.795675117" xlink:href="#m81b8e6442f" y="164.36873613"/>
    </g>
   </g>
   <g id="line2d_12">
    <path d="M 109.737665 359.056343 
L 109.737665 353.156718 
L 113.180642 353.156718 
L 113.180642 349.026981 
L 140.70075 349.026981 
L 140.70075 346.667131 
L 144.143728 346.667131 
L 144.143728 344.307282 
L 153.725407 344.307282 
L 153.725407 342.537394 
L 160.40904 342.537394 
L 160.40904 339.587582 
L 163.630876 339.587582 
L 163.630876 338.99762 
L 165.850374 338.99762 
L 165.850374 338.407657 
L 166.446014 338.407657 
L 166.446014 336.047807 
L 171.663835 336.047807 
L 171.663835 331.91807 
L 172.797842 331.91807 
L 172.797842 331.328108 
L 180.407572 331.328108 
L 180.407572 330.148183 
L 189.879244 330.148183 
L 189.879244 328.968258 
L 191.372125 328.968258 
L 191.372125 327.198371 
L 193.744614 327.198371 
L 193.744614 326.018446 
L 194.173324 326.018446 
L 194.173324 323.658596 
L 197.261672 323.658596 
L 197.261672 320.708784 
L 205.309263 320.708784 
L 205.309263 317.758972 
L 206.268434 317.758972 
L 206.268434 317.169009 
L 206.562968 317.169009 
L 206.562968 315.989084 
L 209.226156 315.989084 
L 209.226156 312.44931 
L 214.140736 312.44931 
L 214.140736 310.679422 
L 218.625903 310.679422 
L 218.625903 308.909535 
L 218.936314 308.909535 
L 218.936314 307.72961 
L 221.351124 307.72961 
L 221.351124 307.139648 
L 223.959457 307.139648 
L 223.959457 305.959723 
L 224.729331 305.959723 
L 224.729331 303.599873 
L 232.425987 303.599873 
L 232.425987 302.419948 
L 237.840808 302.419948 
L 237.840808 301.829986 
L 250.825732 301.829986 
L 250.825732 300.650061 
L 256.994269 300.650061 
L 256.994269 298.290211 
L 260.537551 298.290211 
L 260.537551 297.110286 
L 265.180373 297.110286 
L 265.180373 295.930361 
L 266.561238 295.930361 
L 266.561238 295.340399 
L 270.828051 295.340399 
L 270.828051 294.160474 
L 274.045994 294.160474 
L 274.045994 291.210662 
L 275.692547 291.210662 
L 275.692547 287.670887 
L 276.315185 287.670887 
L 276.315185 286.490962 
L 279.070778 286.490962 
L 279.070778 283.54115 
L 280.663683 283.54115 
L 280.663683 281.1813 
L 280.991721 281.1813 
L 280.991721 280.591338 
L 283.046594 280.591338 
L 283.046594 279.411413 
L 283.455789 279.411413 
L 283.455789 276.461601 
L 288.249917 276.461601 
L 288.249917 273.511788 
L 290.329329 273.511788 
L 290.329329 271.741901 
L 293.961964 271.741901 
L 293.961964 271.151939 
L 294.316704 271.151939 
L 294.316704 268.202126 
L 298.178361 268.202126 
L 298.178361 264.662352 
L 299.918978 264.662352 
L 299.993475 259.942652 
L 302.713988 259.942652 
L 302.713988 255.812915 
L 309.597403 255.812915 
L 309.597403 254.043028 
L 310.201189 254.043028 
L 310.201189 251.683178 
L 311.015888 251.683178 
L 311.015888 251.093215 
L 317.202574 251.093215 
L 317.202574 249.323328 
L 317.538375 249.323328 
L 317.538375 247.553441 
L 318.613979 247.553441 
L 318.613979 244.013666 
L 323.123964 244.013666 
L 323.123964 242.833741 
L 328.022832 242.833741 
L 328.022832 242.243779 
L 330.118459 242.243779 
L 330.118459 239.883929 
L 330.437015 239.883929 
L 330.437015 238.704004 
L 332.970701 238.704004 
L 332.970701 238.114042 
L 333.571969 238.114042 
L 333.571969 236.934117 
L 333.910258 236.934117 
L 333.910258 236.344154 
L 334.291115 236.344154 
L 334.291115 235.164229 
L 334.989379 235.164229 
L 334.989379 231.034492 
L 341.477575 231.034492 
L 341.525815 225.72483 
L 341.912471 225.72483 
L 341.912471 223.954943 
L 342.812616 223.954943 
L 342.812616 221.595093 
L 343.412482 221.595093 
L 343.412482 220.415168 
L 344.2333 220.415168 
L 344.2333 219.825206 
L 350.683026 219.825206 
L 350.683026 215.105506 
L 351.550196 215.105506 
L 351.550196 213.335619 
L 356.446502 213.335619 
L 356.446502 210.975769 
L 361.165889 210.975769 
L 361.165889 209.795844 
L 361.384108 209.795844 
L 361.384108 209.205882 
L 362.628223 209.205882 
L 362.628223 206.846032 
L 363.4649 206.846032 
L 363.4649 206.25607 
L 365.845028 206.25607 
L 365.845028 205.666107 
L 370.174443 205.666107 
L 370.174443 204.486182 
L 370.679886 204.486182 
L 370.679886 202.126333 
L 371.140485 202.126333 
L 371.140485 200.946408 
L 373.468785 200.946408 
L 373.468785 199.766483 
L 377.103108 199.766483 
L 377.103108 197.996595 
L 380.436595 197.996595 
L 380.436595 193.276896 
L 380.81719 193.276896 
L 380.81719 192.686933 
L 381.443803 192.686933 
L 381.443803 192.096971 
L 382.895448 192.096971 
L 382.895448 190.327084 
L 386.751388 190.327084 
L 386.751388 188.557196 
L 389.691709 188.557196 
L 389.691709 187.967234 
L 395.25239 187.967234 
L 395.27702 186.787309 
L 396.656812 186.787309 
L 396.656812 186.197347 
L 396.912814 186.197347 
L 396.912814 185.607384 
L 400.567252 185.607384 
L 400.567252 185.017422 
L 400.689006 185.017422 
L 400.689006 184.427459 
L 401.333232 184.427459 
L 401.333232 182.657572 
L 403.566284 182.657572 
L 403.566284 182.067609 
L 407.306132 182.067609 
L 407.306132 181.477647 
L 410.302254 181.477647 
L 410.302254 180.887685 
L 410.742224 180.887685 
L 410.742224 180.297722 
L 411.957583 180.297722 
L 411.957583 179.70776 
L 414.68308 179.70776 
L 414.68308 177.937872 
L 416.205076 177.937872 
L 416.205076 177.34791 
L 419.056767 177.34791 
L 419.056767 176.167985 
L 420.148054 176.167985 
L 420.148054 175.578023 
L 421.586343 175.578023 
L 421.586343 174.98806 
L 422.071667 174.98806 
L 422.071667 173.808135 
L 422.230826 173.808135 
L 422.230826 172.62821 
L 423.175372 172.62821 
L 423.175372 171.448285 
L 426.127733 171.448285 
L 426.127733 170.858323 
L 426.636905 170.858323 
L 426.636905 170.268361 
L 427.738463 170.268361 
L 427.738463 169.678398 
L 430.839899 169.678398 
L 430.839899 169.088436 
L 434.729037 169.088436 
L 434.729037 168.498473 
L 435.837467 168.498473 
L 435.837467 167.908511 
L 438.999276 167.908511 
L 438.999276 167.318548 
L 439.450088 167.318548 
L 439.450088 166.728586 
L 441.768495 166.728586 
L 441.768495 165.548661 
L 444.231936 165.548661 
L 444.231936 164.958699 
L 445.2 164.958699 
L 445.2 164.958699 
" style="fill:none;stroke:#ffa500;stroke-linecap:square;stroke-width:1.5;"/>
   </g>
   <g id="line2d_13">
    <defs>
     <path d="M 0 -6 
L -1.347084 -1.854102 
L -5.706339 -1.854102 
L -2.179628 0.708204 
L -3.526712 4.854102 
L -0 2.291796 
L 3.526712 4.854102 
L 2.179628 0.708204 
L 5.706339 -1.854102 
L 1.347084 -1.854102 
z
" id="mea4b0bfed1" style="stroke:#ffa500;stroke-linejoin:bevel;stroke-width:1.5;"/>
    </defs>
    <g>
     <use style="fill:none;stroke:#ffa500;stroke-linejoin:bevel;stroke-width:1.5;" x="250.82573206" xlink:href="#mea4b0bfed1" y="301.829985703"/>
     <use style="fill:none;stroke:#ffa500;stroke-linejoin:bevel;stroke-width:1.5;" x="317.538375389" xlink:href="#mea4b0bfed1" y="247.553440807"/>
     <use style="fill:none;stroke:#ffa500;stroke-linejoin:bevel;stroke-width:1.5;" x="389.691708585" xlink:href="#mea4b0bfed1" y="188.557196355"/>
     <use style="fill:none;stroke:#ffa500;stroke-linejoin:bevel;stroke-width:1.5;" x="444.231936384" xlink:href="#mea4b0bfed1" y="164.958698575"/>
     <use style="fill:none;stroke:#ffa500;stroke-linejoin:bevel;stroke-width:1.5;" x="445.2" xlink:href="#mea4b0bfed1" y="164.958698575"/>
    </g>
   </g>
   <g id="line2d_14"/>
   <g id="line2d_15">
    <path clip-path="url(#pdcea6f1d45)" d="M 393.771429 187.967234 
" style="fill:none;stroke:#ffa500;stroke-linecap:square;"/>
    <defs>
     <path d="M -12 12 
L 12 -12 
M -12 -12 
L 12 12 
" id="mc9cd98b78d" style="stroke:#ffa500;stroke-width:3.0;"/>
    </defs>
    <g clip-path="url(#pdcea6f1d45)">
     <use style="fill:#ffa500;stroke:#ffa500;stroke-width:3.0;" x="393.771428571" xlink:href="#mc9cd98b78d" y="187.967233911"/>
    </g>
   </g>
   <g id="line2d_16">
    <path d="M 445.2 164.958699 
L 484.8 352.212778 
" style="fill:none;stroke:#ffa500;stroke-linecap:square;stroke-width:1.5;"/>
    <g>
     <use style="fill:none;stroke:#ffa500;stroke-linejoin:bevel;stroke-width:1.5;" x="445.2" xlink:href="#mea4b0bfed1" y="164.958698575"/>
     <use style="fill:none;stroke:#ffa500;stroke-linejoin:bevel;stroke-width:1.5;" x="484.8" xlink:href="#mea4b0bfed1" y="352.212778465"/>
    </g>
   </g>
   <g id="line2d_17">
    <path d="M 445.2 159.649037 
L 484.8 187.967234 
" style="fill:none;stroke:#000080;stroke-linecap:square;stroke-width:1.5;"/>
    <g>
     <use style="fill:none;stroke:#000080;stroke-width:1.5;" x="445.2" xlink:href="#m954466b711" y="159.649036574"/>
     <use style="fill:none;stroke:#000080;stroke-width:1.5;" x="484.8" xlink:href="#m954466b711" y="187.967233911"/>
    </g>
   </g>
   <g id="line2d_18">
    <path d="M 445.2 129.560952 
L 484.8 23.721689 
" style="fill:none;stroke:#ff00ff;stroke-linecap:square;stroke-width:1.5;"/>
    <g>
     <use style="fill:none;stroke:#ff00ff;stroke-linejoin:miter;stroke-width:1.5;" x="445.2" xlink:href="#m069cf83978" y="129.560951903"/>
     <use style="fill:none;stroke:#ff00ff;stroke-linejoin:miter;stroke-width:1.5;" x="484.8" xlink:href="#m069cf83978" y="23.7216893564"/>
    </g>
   </g>
   <g id="line2d_19">
    <path d="M 445.2 359.056343 
L 445.2 16.878125 
" style="fill:none;stroke:#000000;stroke-linecap:square;"/>
   </g>
   <g id="patch_3">
    <path d="M 85.2 13.456343 
L 531.6 13.456343 
" style="fill:none;stroke:#000000;stroke-linecap:square;stroke-linejoin:miter;"/>
   </g>
   <g id="patch_4">
    <path d="M 531.6 359.056343 
L 531.6 13.456343 
" style="fill:none;stroke:#000000;stroke-linecap:square;stroke-linejoin:miter;"/>
   </g>
   <g id="patch_5">
    <path d="M 85.2 359.056343 
L 531.6 359.056343 
" style="fill:none;stroke:#000000;stroke-linecap:square;stroke-linejoin:miter;"/>
   </g>
   <g id="patch_6">
    <path d="M 85.2 359.056343 
L 85.2 13.456343 
" style="fill:none;stroke:#000000;stroke-linecap:square;stroke-linejoin:miter;"/>
   </g>
   <g id="matplotlib.axis_1">
    <g id="xtick_1">
     <g id="line2d_20">
      <path clip-path="url(#pdcea6f1d45)" d="M 85.2 359.056343 
L 85.2 13.456343 
" style="fill:none;stroke:#000000;stroke-dasharray:1.000000,3.000000;stroke-dashoffset:0.0;stroke-width:0.5;"/>
     </g>
     <g id="line2d_21">
      <defs>
       <path d="M 0 0 
L 0 -4 
" id="m47d0560ac0" style="stroke:#000000;stroke-width:0.5;"/>
      </defs>
      <g>
       <use style="stroke:#000000;stroke-width:0.5;" x="85.2" xlink:href="#m47d0560ac0" y="359.056342822"/>
      </g>
     </g>
     <g id="line2d_22">
      <defs>
       <path d="M 0 0 
L 0 4 
" id="m51bb034f53" style="stroke:#000000;stroke-width:0.5;"/>
      </defs>
      <g>
       <use style="stroke:#000000;stroke-width:0.5;" x="85.2" xlink:href="#m51bb034f53" y="13.4563428218"/>
      </g>
     </g>
     <g id="text_1">
      <!-- 0 -->
      <defs>
       <path d="M 31.78125 66.40625 
Q 24.171875 66.40625 20.328125 58.90625 
Q 16.5 51.421875 16.5 36.375 
Q 16.5 21.390625 20.328125 13.890625 
Q 24.171875 6.390625 31.78125 6.390625 
Q 39.453125 6.390625 43.28125 13.890625 
Q 47.125 21.390625 47.125 36.375 
Q 47.125 51.421875 43.28125 58.90625 
Q 39.453125 66.40625 31.78125 66.40625 
M 31.78125 74.21875 
Q 44.046875 74.21875 50.515625 64.515625 
Q 56.984375 54.828125 56.984375 36.375 
Q 56.984375 17.96875 50.515625 8.265625 
Q 44.046875 -1.421875 31.78125 -1.421875 
Q 19.53125 -1.421875 13.0625 8.265625 
Q 6.59375 17.96875 6.59375 36.375 
Q 6.59375 54.828125 13.0625 64.515625 
Q 19.53125 74.21875 31.78125 74.21875 
" id="BitstreamVeraSans-Roman-30"/>
      </defs>
      <g transform="translate(78.8375 378.253217822)scale(0.2 -0.2)">
       <use xlink:href="#BitstreamVeraSans-Roman-30"/>
      </g>
     </g>
    </g>
    <g id="xtick_2">
     <g id="line2d_23">
      <path clip-path="url(#pdcea6f1d45)" d="M 136.628571 359.056343 
L 136.628571 13.456343 
" style="fill:none;stroke:#000000;stroke-dasharray:1.000000,3.000000;stroke-dashoffset:0.0;stroke-width:0.5;"/>
     </g>
     <g id="line2d_24">
      <g>
       <use style="stroke:#000000;stroke-width:0.5;" x="136.628571429" xlink:href="#m47d0560ac0" y="359.056342822"/>
      </g>
     </g>
     <g id="line2d_25">
      <g>
       <use style="stroke:#000000;stroke-width:0.5;" x="136.628571429" xlink:href="#m51bb034f53" y="13.4563428218"/>
      </g>
     </g>
     <g id="text_2">
      <!-- 1 -->
      <defs>
       <path d="M 12.40625 8.296875 
L 28.515625 8.296875 
L 28.515625 63.921875 
L 10.984375 60.40625 
L 10.984375 69.390625 
L 28.421875 72.90625 
L 38.28125 72.90625 
L 38.28125 8.296875 
L 54.390625 8.296875 
L 54.390625 0 
L 12.40625 0 
z
" id="BitstreamVeraSans-Roman-31"/>
      </defs>
      <g transform="translate(130.266071429 378.253217822)scale(0.2 -0.2)">
       <use xlink:href="#BitstreamVeraSans-Roman-31"/>
      </g>
     </g>
    </g>
    <g id="xtick_3">
     <g id="line2d_26">
      <path clip-path="url(#pdcea6f1d45)" d="M 188.057143 359.056343 
L 188.057143 13.456343 
" style="fill:none;stroke:#000000;stroke-dasharray:1.000000,3.000000;stroke-dashoffset:0.0;stroke-width:0.5;"/>
     </g>
     <g id="line2d_27">
      <g>
       <use style="stroke:#000000;stroke-width:0.5;" x="188.057142857" xlink:href="#m47d0560ac0" y="359.056342822"/>
      </g>
     </g>
     <g id="line2d_28">
      <g>
       <use style="stroke:#000000;stroke-width:0.5;" x="188.057142857" xlink:href="#m51bb034f53" y="13.4563428218"/>
      </g>
     </g>
     <g id="text_3">
      <!-- 2 -->
      <defs>
       <path d="M 19.1875 8.296875 
L 53.609375 8.296875 
L 53.609375 0 
L 7.328125 0 
L 7.328125 8.296875 
Q 12.9375 14.109375 22.625 23.890625 
Q 32.328125 33.6875 34.8125 36.53125 
Q 39.546875 41.84375 41.421875 45.53125 
Q 43.3125 49.21875 43.3125 52.78125 
Q 43.3125 58.59375 39.234375 62.25 
Q 35.15625 65.921875 28.609375 65.921875 
Q 23.96875 65.921875 18.8125 64.3125 
Q 13.671875 62.703125 7.8125 59.421875 
L 7.8125 69.390625 
Q 13.765625 71.78125 18.9375 73 
Q 24.125 74.21875 28.421875 74.21875 
Q 39.75 74.21875 46.484375 68.546875 
Q 53.21875 62.890625 53.21875 53.421875 
Q 53.21875 48.921875 51.53125 44.890625 
Q 49.859375 40.875 45.40625 35.40625 
Q 44.1875 33.984375 37.640625 27.21875 
Q 31.109375 20.453125 19.1875 8.296875 
" id="BitstreamVeraSans-Roman-32"/>
      </defs>
      <g transform="translate(181.694642857 378.253217822)scale(0.2 -0.2)">
       <use xlink:href="#BitstreamVeraSans-Roman-32"/>
      </g>
     </g>
    </g>
    <g id="xtick_4">
     <g id="line2d_29">
      <path clip-path="url(#pdcea6f1d45)" d="M 239.485714 359.056343 
L 239.485714 13.456343 
" style="fill:none;stroke:#000000;stroke-dasharray:1.000000,3.000000;stroke-dashoffset:0.0;stroke-width:0.5;"/>
     </g>
     <g id="line2d_30">
      <g>
       <use style="stroke:#000000;stroke-width:0.5;" x="239.485714286" xlink:href="#m47d0560ac0" y="359.056342822"/>
      </g>
     </g>
     <g id="line2d_31">
      <g>
       <use style="stroke:#000000;stroke-width:0.5;" x="239.485714286" xlink:href="#m51bb034f53" y="13.4563428218"/>
      </g>
     </g>
     <g id="text_4">
      <!-- 3 -->
      <defs>
       <path d="M 40.578125 39.3125 
Q 47.65625 37.796875 51.625 33 
Q 55.609375 28.21875 55.609375 21.1875 
Q 55.609375 10.40625 48.1875 4.484375 
Q 40.765625 -1.421875 27.09375 -1.421875 
Q 22.515625 -1.421875 17.65625 -0.515625 
Q 12.796875 0.390625 7.625 2.203125 
L 7.625 11.71875 
Q 11.71875 9.328125 16.59375 8.109375 
Q 21.484375 6.890625 26.8125 6.890625 
Q 36.078125 6.890625 40.9375 10.546875 
Q 45.796875 14.203125 45.796875 21.1875 
Q 45.796875 27.640625 41.28125 31.265625 
Q 36.765625 34.90625 28.71875 34.90625 
L 20.21875 34.90625 
L 20.21875 43.015625 
L 29.109375 43.015625 
Q 36.375 43.015625 40.234375 45.921875 
Q 44.09375 48.828125 44.09375 54.296875 
Q 44.09375 59.90625 40.109375 62.90625 
Q 36.140625 65.921875 28.71875 65.921875 
Q 24.65625 65.921875 20.015625 65.03125 
Q 15.375 64.15625 9.8125 62.3125 
L 9.8125 71.09375 
Q 15.4375 72.65625 20.34375 73.4375 
Q 25.25 74.21875 29.59375 74.21875 
Q 40.828125 74.21875 47.359375 69.109375 
Q 53.90625 64.015625 53.90625 55.328125 
Q 53.90625 49.265625 50.4375 45.09375 
Q 46.96875 40.921875 40.578125 39.3125 
" id="BitstreamVeraSans-Roman-33"/>
      </defs>
      <g transform="translate(233.123214286 378.253217822)scale(0.2 -0.2)">
       <use xlink:href="#BitstreamVeraSans-Roman-33"/>
      </g>
     </g>
    </g>
    <g id="xtick_5">
     <g id="line2d_32">
      <path clip-path="url(#pdcea6f1d45)" d="M 290.914286 359.056343 
L 290.914286 13.456343 
" style="fill:none;stroke:#000000;stroke-dasharray:1.000000,3.000000;stroke-dashoffset:0.0;stroke-width:0.5;"/>
     </g>
     <g id="line2d_33">
      <g>
       <use style="stroke:#000000;stroke-width:0.5;" x="290.914285714" xlink:href="#m47d0560ac0" y="359.056342822"/>
      </g>
     </g>
     <g id="line2d_34">
      <g>
       <use style="stroke:#000000;stroke-width:0.5;" x="290.914285714" xlink:href="#m51bb034f53" y="13.4563428218"/>
      </g>
     </g>
     <g id="text_5">
      <!-- 4 -->
      <defs>
       <path d="M 37.796875 64.3125 
L 12.890625 25.390625 
L 37.796875 25.390625 
z
M 35.203125 72.90625 
L 47.609375 72.90625 
L 47.609375 25.390625 
L 58.015625 25.390625 
L 58.015625 17.1875 
L 47.609375 17.1875 
L 47.609375 0 
L 37.796875 0 
L 37.796875 17.1875 
L 4.890625 17.1875 
L 4.890625 26.703125 
z
" id="BitstreamVeraSans-Roman-34"/>
      </defs>
      <g transform="translate(284.551785714 378.253217822)scale(0.2 -0.2)">
       <use xlink:href="#BitstreamVeraSans-Roman-34"/>
      </g>
     </g>
    </g>
    <g id="xtick_6">
     <g id="line2d_35">
      <path clip-path="url(#pdcea6f1d45)" d="M 342.342857 359.056343 
L 342.342857 13.456343 
" style="fill:none;stroke:#000000;stroke-dasharray:1.000000,3.000000;stroke-dashoffset:0.0;stroke-width:0.5;"/>
     </g>
     <g id="line2d_36">
      <g>
       <use style="stroke:#000000;stroke-width:0.5;" x="342.342857143" xlink:href="#m47d0560ac0" y="359.056342822"/>
      </g>
     </g>
     <g id="line2d_37">
      <g>
       <use style="stroke:#000000;stroke-width:0.5;" x="342.342857143" xlink:href="#m51bb034f53" y="13.4563428218"/>
      </g>
     </g>
     <g id="text_6">
      <!-- 5 -->
      <defs>
       <path d="M 10.796875 72.90625 
L 49.515625 72.90625 
L 49.515625 64.59375 
L 19.828125 64.59375 
L 19.828125 46.734375 
Q 21.96875 47.46875 24.109375 47.828125 
Q 26.265625 48.1875 28.421875 48.1875 
Q 40.625 48.1875 47.75 41.5 
Q 54.890625 34.8125 54.890625 23.390625 
Q 54.890625 11.625 47.5625 5.09375 
Q 40.234375 -1.421875 26.90625 -1.421875 
Q 22.3125 -1.421875 17.546875 -0.640625 
Q 12.796875 0.140625 7.71875 1.703125 
L 7.71875 11.625 
Q 12.109375 9.234375 16.796875 8.0625 
Q 21.484375 6.890625 26.703125 6.890625 
Q 35.15625 6.890625 40.078125 11.328125 
Q 45.015625 15.765625 45.015625 23.390625 
Q 45.015625 31 40.078125 35.4375 
Q 35.15625 39.890625 26.703125 39.890625 
Q 22.75 39.890625 18.8125 39.015625 
Q 14.890625 38.140625 10.796875 36.28125 
z
" id="BitstreamVeraSans-Roman-35"/>
      </defs>
      <g transform="translate(335.980357143 378.253217822)scale(0.2 -0.2)">
       <use xlink:href="#BitstreamVeraSans-Roman-35"/>
      </g>
     </g>
    </g>
    <g id="xtick_7">
     <g id="line2d_38">
      <path clip-path="url(#pdcea6f1d45)" d="M 393.771429 359.056343 
L 393.771429 13.456343 
" style="fill:none;stroke:#000000;stroke-dasharray:1.000000,3.000000;stroke-dashoffset:0.0;stroke-width:0.5;"/>
     </g>
     <g id="line2d_39">
      <g>
       <use style="stroke:#000000;stroke-width:0.5;" x="393.771428571" xlink:href="#m47d0560ac0" y="359.056342822"/>
      </g>
     </g>
     <g id="line2d_40">
      <g>
       <use style="stroke:#000000;stroke-width:0.5;" x="393.771428571" xlink:href="#m51bb034f53" y="13.4563428218"/>
      </g>
     </g>
     <g id="text_7">
      <!-- 6 -->
      <defs>
       <path d="M 33.015625 40.375 
Q 26.375 40.375 22.484375 35.828125 
Q 18.609375 31.296875 18.609375 23.390625 
Q 18.609375 15.53125 22.484375 10.953125 
Q 26.375 6.390625 33.015625 6.390625 
Q 39.65625 6.390625 43.53125 10.953125 
Q 47.40625 15.53125 47.40625 23.390625 
Q 47.40625 31.296875 43.53125 35.828125 
Q 39.65625 40.375 33.015625 40.375 
M 52.59375 71.296875 
L 52.59375 62.3125 
Q 48.875 64.0625 45.09375 64.984375 
Q 41.3125 65.921875 37.59375 65.921875 
Q 27.828125 65.921875 22.671875 59.328125 
Q 17.53125 52.734375 16.796875 39.40625 
Q 19.671875 43.65625 24.015625 45.921875 
Q 28.375 48.1875 33.59375 48.1875 
Q 44.578125 48.1875 50.953125 41.515625 
Q 57.328125 34.859375 57.328125 23.390625 
Q 57.328125 12.15625 50.6875 5.359375 
Q 44.046875 -1.421875 33.015625 -1.421875 
Q 20.359375 -1.421875 13.671875 8.265625 
Q 6.984375 17.96875 6.984375 36.375 
Q 6.984375 53.65625 15.1875 63.9375 
Q 23.390625 74.21875 37.203125 74.21875 
Q 40.921875 74.21875 44.703125 73.484375 
Q 48.484375 72.75 52.59375 71.296875 
" id="BitstreamVeraSans-Roman-36"/>
      </defs>
      <g transform="translate(387.408928571 378.253217822)scale(0.2 -0.2)">
       <use xlink:href="#BitstreamVeraSans-Roman-36"/>
      </g>
     </g>
    </g>
    <g id="xtick_8">
     <g id="line2d_41">
      <path clip-path="url(#pdcea6f1d45)" d="M 445.2 359.056343 
L 445.2 13.456343 
" style="fill:none;stroke:#000000;stroke-dasharray:1.000000,3.000000;stroke-dashoffset:0.0;stroke-width:0.5;"/>
     </g>
     <g id="line2d_42">
      <g>
       <use style="stroke:#000000;stroke-width:0.5;" x="445.2" xlink:href="#m47d0560ac0" y="359.056342822"/>
      </g>
     </g>
     <g id="line2d_43">
      <g>
       <use style="stroke:#000000;stroke-width:0.5;" x="445.2" xlink:href="#m51bb034f53" y="13.4563428218"/>
      </g>
     </g>
     <g id="text_8">
      <!-- 7 -->
      <defs>
       <path d="M 8.203125 72.90625 
L 55.078125 72.90625 
L 55.078125 68.703125 
L 28.609375 0 
L 18.3125 0 
L 43.21875 64.59375 
L 8.203125 64.59375 
z
" id="BitstreamVeraSans-Roman-37"/>
      </defs>
      <g transform="translate(438.8375 378.253217822)scale(0.2 -0.2)">
       <use xlink:href="#BitstreamVeraSans-Roman-37"/>
      </g>
     </g>
    </g>
    <g id="xtick_9">
     <g id="line2d_44">
      <path clip-path="url(#pdcea6f1d45)" d="M 496.628571 359.056343 
L 496.628571 13.456343 
" style="fill:none;stroke:#000000;stroke-dasharray:1.000000,3.000000;stroke-dashoffset:0.0;stroke-width:0.5;"/>
     </g>
     <g id="line2d_45">
      <g>
       <use style="stroke:#000000;stroke-width:0.5;" x="496.628571429" xlink:href="#m47d0560ac0" y="359.056342822"/>
      </g>
     </g>
     <g id="line2d_46">
      <g>
       <use style="stroke:#000000;stroke-width:0.5;" x="496.628571429" xlink:href="#m51bb034f53" y="13.4563428218"/>
      </g>
     </g>
     <g id="text_9">
      <!-- 8 -->
      <defs>
       <path d="M 31.78125 34.625 
Q 24.75 34.625 20.71875 30.859375 
Q 16.703125 27.09375 16.703125 20.515625 
Q 16.703125 13.921875 20.71875 10.15625 
Q 24.75 6.390625 31.78125 6.390625 
Q 38.8125 6.390625 42.859375 10.171875 
Q 46.921875 13.96875 46.921875 20.515625 
Q 46.921875 27.09375 42.890625 30.859375 
Q 38.875 34.625 31.78125 34.625 
M 21.921875 38.8125 
Q 15.578125 40.375 12.03125 44.71875 
Q 8.5 49.078125 8.5 55.328125 
Q 8.5 64.0625 14.71875 69.140625 
Q 20.953125 74.21875 31.78125 74.21875 
Q 42.671875 74.21875 48.875 69.140625 
Q 55.078125 64.0625 55.078125 55.328125 
Q 55.078125 49.078125 51.53125 44.71875 
Q 48 40.375 41.703125 38.8125 
Q 48.828125 37.15625 52.796875 32.3125 
Q 56.78125 27.484375 56.78125 20.515625 
Q 56.78125 9.90625 50.3125 4.234375 
Q 43.84375 -1.421875 31.78125 -1.421875 
Q 19.734375 -1.421875 13.25 4.234375 
Q 6.78125 9.90625 6.78125 20.515625 
Q 6.78125 27.484375 10.78125 32.3125 
Q 14.796875 37.15625 21.921875 38.8125 
M 18.3125 54.390625 
Q 18.3125 48.734375 21.84375 45.5625 
Q 25.390625 42.390625 31.78125 42.390625 
Q 38.140625 42.390625 41.71875 45.5625 
Q 45.3125 48.734375 45.3125 54.390625 
Q 45.3125 60.0625 41.71875 63.234375 
Q 38.140625 66.40625 31.78125 66.40625 
Q 25.390625 66.40625 21.84375 63.234375 
Q 18.3125 60.0625 18.3125 54.390625 
" id="BitstreamVeraSans-Roman-38"/>
      </defs>
      <g transform="translate(490.266071429 378.253217822)scale(0.2 -0.2)">
       <use xlink:href="#BitstreamVeraSans-Roman-38"/>
      </g>
     </g>
    </g>
    <g id="xtick_10">
     <g id="line2d_47">
      <defs>
       <path d="M 0 0 
L 0 -2 
" id="m74fd057bb4" style="stroke:#000000;stroke-width:0.5;"/>
      </defs>
      <g>
       <use style="stroke:#000000;stroke-width:0.5;" x="100.681542634" xlink:href="#m74fd057bb4" y="359.056342822"/>
      </g>
     </g>
     <g id="line2d_48">
      <defs>
       <path d="M 0 0 
L 0 2 
" id="m3d71501936" style="stroke:#000000;stroke-width:0.5;"/>
      </defs>
      <g>
       <use style="stroke:#000000;stroke-width:0.5;" x="100.681542634" xlink:href="#m3d71501936" y="13.4563428218"/>
      </g>
     </g>
    </g>
    <g id="xtick_11">
     <g id="line2d_49">
      <g>
       <use style="stroke:#000000;stroke-width:0.5;" x="116.163085268" xlink:href="#m74fd057bb4" y="359.056342822"/>
      </g>
     </g>
     <g id="line2d_50">
      <g>
       <use style="stroke:#000000;stroke-width:0.5;" x="116.163085268" xlink:href="#m3d71501936" y="13.4563428218"/>
      </g>
     </g>
    </g>
    <g id="xtick_12">
     <g id="line2d_51">
      <g>
       <use style="stroke:#000000;stroke-width:0.5;" x="125.219207163" xlink:href="#m74fd057bb4" y="359.056342822"/>
      </g>
     </g>
     <g id="line2d_52">
      <g>
       <use style="stroke:#000000;stroke-width:0.5;" x="125.219207163" xlink:href="#m3d71501936" y="13.4563428218"/>
      </g>
     </g>
    </g>
    <g id="xtick_13">
     <g id="line2d_53">
      <g>
       <use style="stroke:#000000;stroke-width:0.5;" x="131.644627902" xlink:href="#m74fd057bb4" y="359.056342822"/>
      </g>
     </g>
     <g id="line2d_54">
      <g>
       <use style="stroke:#000000;stroke-width:0.5;" x="131.644627902" xlink:href="#m3d71501936" y="13.4563428218"/>
      </g>
     </g>
    </g>
    <g id="xtick_14">
     <g id="line2d_55">
      <g>
       <use style="stroke:#000000;stroke-width:0.5;" x="152.110114063" xlink:href="#m74fd057bb4" y="359.056342822"/>
      </g>
     </g>
     <g id="line2d_56">
      <g>
       <use style="stroke:#000000;stroke-width:0.5;" x="152.110114063" xlink:href="#m3d71501936" y="13.4563428218"/>
      </g>
     </g>
    </g>
    <g id="xtick_15">
     <g id="line2d_57">
      <g>
       <use style="stroke:#000000;stroke-width:0.5;" x="167.591656697" xlink:href="#m74fd057bb4" y="359.056342822"/>
      </g>
     </g>
     <g id="line2d_58">
      <g>
       <use style="stroke:#000000;stroke-width:0.5;" x="167.591656697" xlink:href="#m3d71501936" y="13.4563428218"/>
      </g>
     </g>
    </g>
    <g id="xtick_16">
     <g id="line2d_59">
      <g>
       <use style="stroke:#000000;stroke-width:0.5;" x="176.647778591" xlink:href="#m74fd057bb4" y="359.056342822"/>
      </g>
     </g>
     <g id="line2d_60">
      <g>
       <use style="stroke:#000000;stroke-width:0.5;" x="176.647778591" xlink:href="#m3d71501936" y="13.4563428218"/>
      </g>
     </g>
    </g>
    <g id="xtick_17">
     <g id="line2d_61">
      <g>
       <use style="stroke:#000000;stroke-width:0.5;" x="183.073199331" xlink:href="#m74fd057bb4" y="359.056342822"/>
      </g>
     </g>
     <g id="line2d_62">
      <g>
       <use style="stroke:#000000;stroke-width:0.5;" x="183.073199331" xlink:href="#m3d71501936" y="13.4563428218"/>
      </g>
     </g>
    </g>
    <g id="xtick_18">
     <g id="line2d_63">
      <g>
       <use style="stroke:#000000;stroke-width:0.5;" x="203.538685491" xlink:href="#m74fd057bb4" y="359.056342822"/>
      </g>
     </g>
     <g id="line2d_64">
      <g>
       <use style="stroke:#000000;stroke-width:0.5;" x="203.538685491" xlink:href="#m3d71501936" y="13.4563428218"/>
      </g>
     </g>
    </g>
    <g id="xtick_19">
     <g id="line2d_65">
      <g>
       <use style="stroke:#000000;stroke-width:0.5;" x="219.020228125" xlink:href="#m74fd057bb4" y="359.056342822"/>
      </g>
     </g>
     <g id="line2d_66">
      <g>
       <use style="stroke:#000000;stroke-width:0.5;" x="219.020228125" xlink:href="#m3d71501936" y="13.4563428218"/>
      </g>
     </g>
    </g>
    <g id="xtick_20">
     <g id="line2d_67">
      <g>
       <use style="stroke:#000000;stroke-width:0.5;" x="228.07635002" xlink:href="#m74fd057bb4" y="359.056342822"/>
      </g>
     </g>
     <g id="line2d_68">
      <g>
       <use style="stroke:#000000;stroke-width:0.5;" x="228.07635002" xlink:href="#m3d71501936" y="13.4563428218"/>
      </g>
     </g>
    </g>
    <g id="xtick_21">
     <g id="line2d_69">
      <g>
       <use style="stroke:#000000;stroke-width:0.5;" x="234.50177076" xlink:href="#m74fd057bb4" y="359.056342822"/>
      </g>
     </g>
     <g id="line2d_70">
      <g>
       <use style="stroke:#000000;stroke-width:0.5;" x="234.50177076" xlink:href="#m3d71501936" y="13.4563428218"/>
      </g>
     </g>
    </g>
    <g id="xtick_22">
     <g id="line2d_71">
      <g>
       <use style="stroke:#000000;stroke-width:0.5;" x="254.96725692" xlink:href="#m74fd057bb4" y="359.056342822"/>
      </g>
     </g>
     <g id="line2d_72">
      <g>
       <use style="stroke:#000000;stroke-width:0.5;" x="254.96725692" xlink:href="#m3d71501936" y="13.4563428218"/>
      </g>
     </g>
    </g>
    <g id="xtick_23">
     <g id="line2d_73">
      <g>
       <use style="stroke:#000000;stroke-width:0.5;" x="270.448799554" xlink:href="#m74fd057bb4" y="359.056342822"/>
      </g>
     </g>
     <g id="line2d_74">
      <g>
       <use style="stroke:#000000;stroke-width:0.5;" x="270.448799554" xlink:href="#m3d71501936" y="13.4563428218"/>
      </g>
     </g>
    </g>
    <g id="xtick_24">
     <g id="line2d_75">
      <g>
       <use style="stroke:#000000;stroke-width:0.5;" x="279.504921448" xlink:href="#m74fd057bb4" y="359.056342822"/>
      </g>
     </g>
     <g id="line2d_76">
      <g>
       <use style="stroke:#000000;stroke-width:0.5;" x="279.504921448" xlink:href="#m3d71501936" y="13.4563428218"/>
      </g>
     </g>
    </g>
    <g id="xtick_25">
     <g id="line2d_77">
      <g>
       <use style="stroke:#000000;stroke-width:0.5;" x="285.930342188" xlink:href="#m74fd057bb4" y="359.056342822"/>
      </g>
     </g>
     <g id="line2d_78">
      <g>
       <use style="stroke:#000000;stroke-width:0.5;" x="285.930342188" xlink:href="#m3d71501936" y="13.4563428218"/>
      </g>
     </g>
    </g>
    <g id="xtick_26">
     <g id="line2d_79">
      <g>
       <use style="stroke:#000000;stroke-width:0.5;" x="306.395828348" xlink:href="#m74fd057bb4" y="359.056342822"/>
      </g>
     </g>
     <g id="line2d_80">
      <g>
       <use style="stroke:#000000;stroke-width:0.5;" x="306.395828348" xlink:href="#m3d71501936" y="13.4563428218"/>
      </g>
     </g>
    </g>
    <g id="xtick_27">
     <g id="line2d_81">
      <g>
       <use style="stroke:#000000;stroke-width:0.5;" x="321.877370983" xlink:href="#m74fd057bb4" y="359.056342822"/>
      </g>
     </g>
     <g id="line2d_82">
      <g>
       <use style="stroke:#000000;stroke-width:0.5;" x="321.877370983" xlink:href="#m3d71501936" y="13.4563428218"/>
      </g>
     </g>
    </g>
    <g id="xtick_28">
     <g id="line2d_83">
      <g>
       <use style="stroke:#000000;stroke-width:0.5;" x="330.933492877" xlink:href="#m74fd057bb4" y="359.056342822"/>
      </g>
     </g>
     <g id="line2d_84">
      <g>
       <use style="stroke:#000000;stroke-width:0.5;" x="330.933492877" xlink:href="#m3d71501936" y="13.4563428218"/>
      </g>
     </g>
    </g>
    <g id="xtick_29">
     <g id="line2d_85">
      <g>
       <use style="stroke:#000000;stroke-width:0.5;" x="337.358913617" xlink:href="#m74fd057bb4" y="359.056342822"/>
      </g>
     </g>
     <g id="line2d_86">
      <g>
       <use style="stroke:#000000;stroke-width:0.5;" x="337.358913617" xlink:href="#m3d71501936" y="13.4563428218"/>
      </g>
     </g>
    </g>
    <g id="xtick_30">
     <g id="line2d_87">
      <g>
       <use style="stroke:#000000;stroke-width:0.5;" x="357.824399777" xlink:href="#m74fd057bb4" y="359.056342822"/>
      </g>
     </g>
     <g id="line2d_88">
      <g>
       <use style="stroke:#000000;stroke-width:0.5;" x="357.824399777" xlink:href="#m3d71501936" y="13.4563428218"/>
      </g>
     </g>
    </g>
    <g id="xtick_31">
     <g id="line2d_89">
      <g>
       <use style="stroke:#000000;stroke-width:0.5;" x="373.305942411" xlink:href="#m74fd057bb4" y="359.056342822"/>
      </g>
     </g>
     <g id="line2d_90">
      <g>
       <use style="stroke:#000000;stroke-width:0.5;" x="373.305942411" xlink:href="#m3d71501936" y="13.4563428218"/>
      </g>
     </g>
    </g>
    <g id="xtick_32">
     <g id="line2d_91">
      <g>
       <use style="stroke:#000000;stroke-width:0.5;" x="382.362064305" xlink:href="#m74fd057bb4" y="359.056342822"/>
      </g>
     </g>
     <g id="line2d_92">
      <g>
       <use style="stroke:#000000;stroke-width:0.5;" x="382.362064305" xlink:href="#m3d71501936" y="13.4563428218"/>
      </g>
     </g>
    </g>
    <g id="xtick_33">
     <g id="line2d_93">
      <g>
       <use style="stroke:#000000;stroke-width:0.5;" x="388.787485045" xlink:href="#m74fd057bb4" y="359.056342822"/>
      </g>
     </g>
     <g id="line2d_94">
      <g>
       <use style="stroke:#000000;stroke-width:0.5;" x="388.787485045" xlink:href="#m3d71501936" y="13.4563428218"/>
      </g>
     </g>
    </g>
    <g id="xtick_34">
     <g id="line2d_95">
      <g>
       <use style="stroke:#000000;stroke-width:0.5;" x="409.252971206" xlink:href="#m74fd057bb4" y="359.056342822"/>
      </g>
     </g>
     <g id="line2d_96">
      <g>
       <use style="stroke:#000000;stroke-width:0.5;" x="409.252971206" xlink:href="#m3d71501936" y="13.4563428218"/>
      </g>
     </g>
    </g>
    <g id="xtick_35">
     <g id="line2d_97">
      <g>
       <use style="stroke:#000000;stroke-width:0.5;" x="424.73451384" xlink:href="#m74fd057bb4" y="359.056342822"/>
      </g>
     </g>
     <g id="line2d_98">
      <g>
       <use style="stroke:#000000;stroke-width:0.5;" x="424.73451384" xlink:href="#m3d71501936" y="13.4563428218"/>
      </g>
     </g>
    </g>
    <g id="xtick_36">
     <g id="line2d_99">
      <g>
       <use style="stroke:#000000;stroke-width:0.5;" x="433.790635734" xlink:href="#m74fd057bb4" y="359.056342822"/>
      </g>
     </g>
     <g id="line2d_100">
      <g>
       <use style="stroke:#000000;stroke-width:0.5;" x="433.790635734" xlink:href="#m3d71501936" y="13.4563428218"/>
      </g>
     </g>
    </g>
    <g id="xtick_37">
     <g id="line2d_101">
      <g>
       <use style="stroke:#000000;stroke-width:0.5;" x="440.216056474" xlink:href="#m74fd057bb4" y="359.056342822"/>
      </g>
     </g>
     <g id="line2d_102">
      <g>
       <use style="stroke:#000000;stroke-width:0.5;" x="440.216056474" xlink:href="#m3d71501936" y="13.4563428218"/>
      </g>
     </g>
    </g>
    <g id="xtick_38">
     <g id="line2d_103">
      <g>
       <use style="stroke:#000000;stroke-width:0.5;" x="460.681542634" xlink:href="#m74fd057bb4" y="359.056342822"/>
      </g>
     </g>
     <g id="line2d_104">
      <g>
       <use style="stroke:#000000;stroke-width:0.5;" x="460.681542634" xlink:href="#m3d71501936" y="13.4563428218"/>
      </g>
     </g>
    </g>
    <g id="xtick_39">
     <g id="line2d_105">
      <g>
       <use style="stroke:#000000;stroke-width:0.5;" x="476.163085268" xlink:href="#m74fd057bb4" y="359.056342822"/>
      </g>
     </g>
     <g id="line2d_106">
      <g>
       <use style="stroke:#000000;stroke-width:0.5;" x="476.163085268" xlink:href="#m3d71501936" y="13.4563428218"/>
      </g>
     </g>
    </g>
    <g id="xtick_40">
     <g id="line2d_107">
      <g>
       <use style="stroke:#000000;stroke-width:0.5;" x="485.219207163" xlink:href="#m74fd057bb4" y="359.056342822"/>
      </g>
     </g>
     <g id="line2d_108">
      <g>
       <use style="stroke:#000000;stroke-width:0.5;" x="485.219207163" xlink:href="#m3d71501936" y="13.4563428218"/>
      </g>
     </g>
    </g>
    <g id="xtick_41">
     <g id="line2d_109">
      <g>
       <use style="stroke:#000000;stroke-width:0.5;" x="491.644627902" xlink:href="#m74fd057bb4" y="359.056342822"/>
      </g>
     </g>
     <g id="line2d_110">
      <g>
       <use style="stroke:#000000;stroke-width:0.5;" x="491.644627902" xlink:href="#m3d71501936" y="13.4563428218"/>
      </g>
     </g>
    </g>
    <g id="xtick_42">
     <g id="line2d_111">
      <g>
       <use style="stroke:#000000;stroke-width:0.5;" x="512.110114063" xlink:href="#m74fd057bb4" y="359.056342822"/>
      </g>
     </g>
     <g id="line2d_112">
      <g>
       <use style="stroke:#000000;stroke-width:0.5;" x="512.110114063" xlink:href="#m3d71501936" y="13.4563428218"/>
      </g>
     </g>
    </g>
    <g id="xtick_43">
     <g id="line2d_113">
      <g>
       <use style="stroke:#000000;stroke-width:0.5;" x="527.591656697" xlink:href="#m74fd057bb4" y="359.056342822"/>
      </g>
     </g>
     <g id="line2d_114">
      <g>
       <use style="stroke:#000000;stroke-width:0.5;" x="527.591656697" xlink:href="#m3d71501936" y="13.4563428218"/>
      </g>
     </g>
    </g>
    <g id="text_10">
     <!-- log10 of (# f-evals / dimension) -->
     <defs>
      <path id="BitstreamVeraSans-Roman-20"/>
      <path d="M 51.125 44 
L 36.921875 44 
L 32.8125 27.6875 
L 47.125 27.6875 
z
M 43.796875 71.78125 
L 38.71875 51.515625 
L 52.984375 51.515625 
L 58.109375 71.78125 
L 65.921875 71.78125 
L 60.890625 51.515625 
L 76.125 51.515625 
L 76.125 44 
L 58.984375 44 
L 54.984375 27.6875 
L 70.515625 27.6875 
L 70.515625 20.21875 
L 53.078125 20.21875 
L 48 0 
L 40.1875 0 
L 45.21875 20.21875 
L 30.90625 20.21875 
L 25.875 0 
L 18.015625 0 
L 23.09375 20.21875 
L 7.71875 20.21875 
L 7.71875 27.6875 
L 24.90625 27.6875 
L 29 44 
L 13.28125 44 
L 13.28125 51.515625 
L 30.90625 51.515625 
L 35.890625 71.78125 
z
" id="BitstreamVeraSans-Roman-23"/>
      <path d="M 52 44.1875 
Q 55.375 50.25 60.0625 53.125 
Q 64.75 56 71.09375 56 
Q 79.640625 56 84.28125 50.015625 
Q 88.921875 44.046875 88.921875 33.015625 
L 88.921875 0 
L 79.890625 0 
L 79.890625 32.71875 
Q 79.890625 40.578125 77.09375 44.375 
Q 74.3125 48.1875 68.609375 48.1875 
Q 61.625 48.1875 57.5625 43.546875 
Q 53.515625 38.921875 53.515625 30.90625 
L 53.515625 0 
L 44.484375 0 
L 44.484375 32.71875 
Q 44.484375 40.625 41.703125 44.40625 
Q 38.921875 48.1875 33.109375 48.1875 
Q 26.21875 48.1875 22.15625 43.53125 
Q 18.109375 38.875 18.109375 30.90625 
L 18.109375 0 
L 9.078125 0 
L 9.078125 54.6875 
L 18.109375 54.6875 
L 18.109375 46.1875 
Q 21.1875 51.21875 25.484375 53.609375 
Q 29.78125 56 35.6875 56 
Q 41.65625 56 45.828125 52.96875 
Q 50 49.953125 52 44.1875 
" id="BitstreamVeraSans-Roman-6d"/>
      <path d="M 54.890625 33.015625 
L 54.890625 0 
L 45.90625 0 
L 45.90625 32.71875 
Q 45.90625 40.484375 42.875 44.328125 
Q 39.84375 48.1875 33.796875 48.1875 
Q 26.515625 48.1875 22.3125 43.546875 
Q 18.109375 38.921875 18.109375 30.90625 
L 18.109375 0 
L 9.078125 0 
L 9.078125 54.6875 
L 18.109375 54.6875 
L 18.109375 46.1875 
Q 21.34375 51.125 25.703125 53.5625 
Q 30.078125 56 35.796875 56 
Q 45.21875 56 50.046875 50.171875 
Q 54.890625 44.34375 54.890625 33.015625 
" id="BitstreamVeraSans-Roman-6e"/>
      <path d="M 31 75.875 
Q 24.46875 64.65625 21.28125 53.65625 
Q 18.109375 42.671875 18.109375 31.390625 
Q 18.109375 20.125 21.3125 9.0625 
Q 24.515625 -2 31 -13.1875 
L 23.1875 -13.1875 
Q 15.875 -1.703125 12.234375 9.375 
Q 8.59375 20.453125 8.59375 31.390625 
Q 8.59375 42.28125 12.203125 53.3125 
Q 15.828125 64.359375 23.1875 75.875 
z
" id="BitstreamVeraSans-Roman-28"/>
      <path d="M 30.609375 48.390625 
Q 23.390625 48.390625 19.1875 42.75 
Q 14.984375 37.109375 14.984375 27.296875 
Q 14.984375 17.484375 19.15625 11.84375 
Q 23.34375 6.203125 30.609375 6.203125 
Q 37.796875 6.203125 41.984375 11.859375 
Q 46.1875 17.53125 46.1875 27.296875 
Q 46.1875 37.015625 41.984375 42.703125 
Q 37.796875 48.390625 30.609375 48.390625 
M 30.609375 56 
Q 42.328125 56 49.015625 48.375 
Q 55.71875 40.765625 55.71875 27.296875 
Q 55.71875 13.875 49.015625 6.21875 
Q 42.328125 -1.421875 30.609375 -1.421875 
Q 18.84375 -1.421875 12.171875 6.21875 
Q 5.515625 13.875 5.515625 27.296875 
Q 5.515625 40.765625 12.171875 48.375 
Q 18.84375 56 30.609375 56 
" id="BitstreamVeraSans-Roman-6f"/>
      <path d="M 9.421875 75.984375 
L 18.40625 75.984375 
L 18.40625 0 
L 9.421875 0 
z
" id="BitstreamVeraSans-Roman-6c"/>
      <path d="M 2.984375 54.6875 
L 12.5 54.6875 
L 29.59375 8.796875 
L 46.6875 54.6875 
L 56.203125 54.6875 
L 35.6875 0 
L 23.484375 0 
z
" id="BitstreamVeraSans-Roman-76"/>
      <path d="M 9.421875 54.6875 
L 18.40625 54.6875 
L 18.40625 0 
L 9.421875 0 
z
M 9.421875 75.984375 
L 18.40625 75.984375 
L 18.40625 64.59375 
L 9.421875 64.59375 
z
" id="BitstreamVeraSans-Roman-69"/>
      <path d="M 4.890625 31.390625 
L 31.203125 31.390625 
L 31.203125 23.390625 
L 4.890625 23.390625 
z
" id="BitstreamVeraSans-Roman-2d"/>
      <path d="M 25.390625 72.90625 
L 33.6875 72.90625 
L 8.296875 -9.28125 
L 0 -9.28125 
z
" id="BitstreamVeraSans-Roman-2f"/>
      <path d="M 56.203125 29.59375 
L 56.203125 25.203125 
L 14.890625 25.203125 
Q 15.484375 15.921875 20.484375 11.0625 
Q 25.484375 6.203125 34.421875 6.203125 
Q 39.59375 6.203125 44.453125 7.46875 
Q 49.3125 8.734375 54.109375 11.28125 
L 54.109375 2.78125 
Q 49.265625 0.734375 44.1875 -0.34375 
Q 39.109375 -1.421875 33.890625 -1.421875 
Q 20.796875 -1.421875 13.15625 6.1875 
Q 5.515625 13.8125 5.515625 26.8125 
Q 5.515625 40.234375 12.765625 48.109375 
Q 20.015625 56 32.328125 56 
Q 43.359375 56 49.78125 48.890625 
Q 56.203125 41.796875 56.203125 29.59375 
M 47.21875 32.234375 
Q 47.125 39.59375 43.09375 43.984375 
Q 39.0625 48.390625 32.421875 48.390625 
Q 24.90625 48.390625 20.390625 44.140625 
Q 15.875 39.890625 15.1875 32.171875 
z
" id="BitstreamVeraSans-Roman-65"/>
      <path d="M 45.40625 46.390625 
L 45.40625 75.984375 
L 54.390625 75.984375 
L 54.390625 0 
L 45.40625 0 
L 45.40625 8.203125 
Q 42.578125 3.328125 38.25 0.953125 
Q 33.9375 -1.421875 27.875 -1.421875 
Q 17.96875 -1.421875 11.734375 6.484375 
Q 5.515625 14.40625 5.515625 27.296875 
Q 5.515625 40.1875 11.734375 48.09375 
Q 17.96875 56 27.875 56 
Q 33.9375 56 38.25 53.625 
Q 42.578125 51.265625 45.40625 46.390625 
M 14.796875 27.296875 
Q 14.796875 17.390625 18.875 11.75 
Q 22.953125 6.109375 30.078125 6.109375 
Q 37.203125 6.109375 41.296875 11.75 
Q 45.40625 17.390625 45.40625 27.296875 
Q 45.40625 37.203125 41.296875 42.84375 
Q 37.203125 48.484375 30.078125 48.484375 
Q 22.953125 48.484375 18.875 42.84375 
Q 14.796875 37.203125 14.796875 27.296875 
" id="BitstreamVeraSans-Roman-64"/>
      <path d="M 45.40625 27.984375 
Q 45.40625 37.75 41.375 43.109375 
Q 37.359375 48.484375 30.078125 48.484375 
Q 22.859375 48.484375 18.828125 43.109375 
Q 14.796875 37.75 14.796875 27.984375 
Q 14.796875 18.265625 18.828125 12.890625 
Q 22.859375 7.515625 30.078125 7.515625 
Q 37.359375 7.515625 41.375 12.890625 
Q 45.40625 18.265625 45.40625 27.984375 
M 54.390625 6.78125 
Q 54.390625 -7.171875 48.1875 -13.984375 
Q 42 -20.796875 29.203125 -20.796875 
Q 24.46875 -20.796875 20.265625 -20.09375 
Q 16.0625 -19.390625 12.109375 -17.921875 
L 12.109375 -9.1875 
Q 16.0625 -11.328125 19.921875 -12.34375 
Q 23.78125 -13.375 27.78125 -13.375 
Q 36.625 -13.375 41.015625 -8.765625 
Q 45.40625 -4.15625 45.40625 5.171875 
L 45.40625 9.625 
Q 42.625 4.78125 38.28125 2.390625 
Q 33.9375 0 27.875 0 
Q 17.828125 0 11.671875 7.65625 
Q 5.515625 15.328125 5.515625 27.984375 
Q 5.515625 40.671875 11.671875 48.328125 
Q 17.828125 56 27.875 56 
Q 33.9375 56 38.28125 53.609375 
Q 42.625 51.21875 45.40625 46.390625 
L 45.40625 54.6875 
L 54.390625 54.6875 
z
" id="BitstreamVeraSans-Roman-67"/>
      <path d="M 37.109375 75.984375 
L 37.109375 68.5 
L 28.515625 68.5 
Q 23.6875 68.5 21.796875 66.546875 
Q 19.921875 64.59375 19.921875 59.515625 
L 19.921875 54.6875 
L 34.71875 54.6875 
L 34.71875 47.703125 
L 19.921875 47.703125 
L 19.921875 0 
L 10.890625 0 
L 10.890625 47.703125 
L 2.296875 47.703125 
L 2.296875 54.6875 
L 10.890625 54.6875 
L 10.890625 58.5 
Q 10.890625 67.625 15.140625 71.796875 
Q 19.390625 75.984375 28.609375 75.984375 
z
" id="BitstreamVeraSans-Roman-66"/>
      <path d="M 34.28125 27.484375 
Q 23.390625 27.484375 19.1875 25 
Q 14.984375 22.515625 14.984375 16.5 
Q 14.984375 11.71875 18.140625 8.90625 
Q 21.296875 6.109375 26.703125 6.109375 
Q 34.1875 6.109375 38.703125 11.40625 
Q 43.21875 16.703125 43.21875 25.484375 
L 43.21875 27.484375 
z
M 52.203125 31.203125 
L 52.203125 0 
L 43.21875 0 
L 43.21875 8.296875 
Q 40.140625 3.328125 35.546875 0.953125 
Q 30.953125 -1.421875 24.3125 -1.421875 
Q 15.921875 -1.421875 10.953125 3.296875 
Q 6 8.015625 6 15.921875 
Q 6 25.140625 12.171875 29.828125 
Q 18.359375 34.515625 30.609375 34.515625 
L 43.21875 34.515625 
L 43.21875 35.40625 
Q 43.21875 41.609375 39.140625 45 
Q 35.0625 48.390625 27.6875 48.390625 
Q 23 48.390625 18.546875 47.265625 
Q 14.109375 46.140625 10.015625 43.890625 
L 10.015625 52.203125 
Q 14.9375 54.109375 19.578125 55.046875 
Q 24.21875 56 28.609375 56 
Q 40.484375 56 46.34375 49.84375 
Q 52.203125 43.703125 52.203125 31.203125 
" id="BitstreamVeraSans-Roman-61"/>
      <path d="M 44.28125 53.078125 
L 44.28125 44.578125 
Q 40.484375 46.53125 36.375 47.5 
Q 32.28125 48.484375 27.875 48.484375 
Q 21.1875 48.484375 17.84375 46.4375 
Q 14.5 44.390625 14.5 40.28125 
Q 14.5 37.15625 16.890625 35.375 
Q 19.28125 33.59375 26.515625 31.984375 
L 29.59375 31.296875 
Q 39.15625 29.25 43.1875 25.515625 
Q 47.21875 21.78125 47.21875 15.09375 
Q 47.21875 7.46875 41.1875 3.015625 
Q 35.15625 -1.421875 24.609375 -1.421875 
Q 20.21875 -1.421875 15.453125 -0.5625 
Q 10.6875 0.296875 5.421875 2 
L 5.421875 11.28125 
Q 10.40625 8.6875 15.234375 7.390625 
Q 20.0625 6.109375 24.8125 6.109375 
Q 31.15625 6.109375 34.5625 8.28125 
Q 37.984375 10.453125 37.984375 14.40625 
Q 37.984375 18.0625 35.515625 20.015625 
Q 33.0625 21.96875 24.703125 23.78125 
L 21.578125 24.515625 
Q 13.234375 26.265625 9.515625 29.90625 
Q 5.8125 33.546875 5.8125 39.890625 
Q 5.8125 47.609375 11.28125 51.796875 
Q 16.75 56 26.8125 56 
Q 31.78125 56 36.171875 55.265625 
Q 40.578125 54.546875 44.28125 53.078125 
" id="BitstreamVeraSans-Roman-73"/>
      <path d="M 8.015625 75.875 
L 15.828125 75.875 
Q 23.140625 64.359375 26.78125 53.3125 
Q 30.421875 42.28125 30.421875 31.390625 
Q 30.421875 20.453125 26.78125 9.375 
Q 23.140625 -1.703125 15.828125 -13.1875 
L 8.015625 -13.1875 
Q 14.5 -2 17.703125 9.0625 
Q 20.90625 20.125 20.90625 31.390625 
Q 20.90625 42.671875 17.703125 53.65625 
Q 14.5 64.65625 8.015625 75.875 
" id="BitstreamVeraSans-Roman-29"/>
     </defs>
     <g transform="translate(166.05515625 401.089780322)scale(0.18 -0.18)">
      <use xlink:href="#BitstreamVeraSans-Roman-6c"/>
      <use x="27.783203125" xlink:href="#BitstreamVeraSans-Roman-6f"/>
      <use x="88.96484375" xlink:href="#BitstreamVeraSans-Roman-67"/>
      <use x="152.44140625" xlink:href="#BitstreamVeraSans-Roman-31"/>
      <use x="216.064453125" xlink:href="#BitstreamVeraSans-Roman-30"/>
      <use x="279.6875" xlink:href="#BitstreamVeraSans-Roman-20"/>
      <use x="311.474609375" xlink:href="#BitstreamVeraSans-Roman-6f"/>
      <use x="372.65625" xlink:href="#BitstreamVeraSans-Roman-66"/>
      <use x="407.861328125" xlink:href="#BitstreamVeraSans-Roman-20"/>
      <use x="439.6484375" xlink:href="#BitstreamVeraSans-Roman-28"/>
      <use x="478.662109375" xlink:href="#BitstreamVeraSans-Roman-23"/>
      <use x="562.451171875" xlink:href="#BitstreamVeraSans-Roman-20"/>
      <use x="594.23828125" xlink:href="#BitstreamVeraSans-Roman-66"/>
      <use x="629.365234375" xlink:href="#BitstreamVeraSans-Roman-2d"/>
      <use x="665.44921875" xlink:href="#BitstreamVeraSans-Roman-65"/>
      <use x="726.97265625" xlink:href="#BitstreamVeraSans-Roman-76"/>
      <use x="786.15234375" xlink:href="#BitstreamVeraSans-Roman-61"/>
      <use x="847.431640625" xlink:href="#BitstreamVeraSans-Roman-6c"/>
      <use x="875.21484375" xlink:href="#BitstreamVeraSans-Roman-73"/>
      <use x="927.314453125" xlink:href="#BitstreamVeraSans-Roman-20"/>
      <use x="959.1015625" xlink:href="#BitstreamVeraSans-Roman-2f"/>
      <use x="992.79296875" xlink:href="#BitstreamVeraSans-Roman-20"/>
      <use x="1024.58007812" xlink:href="#BitstreamVeraSans-Roman-64"/>
      <use x="1088.05664062" xlink:href="#BitstreamVeraSans-Roman-69"/>
      <use x="1115.83984375" xlink:href="#BitstreamVeraSans-Roman-6d"/>
      <use x="1213.25195312" xlink:href="#BitstreamVeraSans-Roman-65"/>
      <use x="1274.77539062" xlink:href="#BitstreamVeraSans-Roman-6e"/>
      <use x="1338.15429688" xlink:href="#BitstreamVeraSans-Roman-73"/>
      <use x="1390.25390625" xlink:href="#BitstreamVeraSans-Roman-69"/>
      <use x="1418.03710938" xlink:href="#BitstreamVeraSans-Roman-6f"/>
      <use x="1479.21875" xlink:href="#BitstreamVeraSans-Roman-6e"/>
      <use x="1542.59765625" xlink:href="#BitstreamVeraSans-Roman-29"/>
     </g>
    </g>
   </g>
   <g id="matplotlib.axis_2">
    <g id="ytick_1">
     <g id="line2d_115">
      <path clip-path="url(#pdcea6f1d45)" d="M 85.2 359.056343 
L 531.6 359.056343 
" style="fill:none;stroke:#000000;stroke-dasharray:1.000000,3.000000;stroke-dashoffset:0.0;stroke-width:0.5;"/>
     </g>
     <g id="line2d_116">
      <defs>
       <path d="M 0 0 
L 4 0 
" id="mca6b0d0a17" style="stroke:#000000;stroke-width:0.5;"/>
      </defs>
      <g>
       <use style="stroke:#000000;stroke-width:0.5;" x="85.2" xlink:href="#mca6b0d0a17" y="359.056342822"/>
      </g>
     </g>
     <g id="line2d_117">
      <defs>
       <path d="M 0 0 
L -4 0 
" id="m3738bd362e" style="stroke:#000000;stroke-width:0.5;"/>
      </defs>
      <g>
       <use style="stroke:#000000;stroke-width:0.5;" x="531.6" xlink:href="#m3738bd362e" y="359.056342822"/>
      </g>
     </g>
     <g id="text_11">
      <!-- 0.0 -->
      <defs>
       <path d="M 10.6875 12.40625 
L 21 12.40625 
L 21 0 
L 10.6875 0 
z
" id="BitstreamVeraSans-Roman-2e"/>
      </defs>
      <g transform="translate(49.39375 364.575092822)scale(0.2 -0.2)">
       <use xlink:href="#BitstreamVeraSans-Roman-30"/>
       <use x="63.623046875" xlink:href="#BitstreamVeraSans-Roman-2e"/>
       <use x="95.41015625" xlink:href="#BitstreamVeraSans-Roman-30"/>
      </g>
     </g>
    </g>
    <g id="ytick_2">
     <g id="line2d_118">
      <path clip-path="url(#pdcea6f1d45)" d="M 85.2 290.620699 
L 531.6 290.620699 
" style="fill:none;stroke:#000000;stroke-dasharray:1.000000,3.000000;stroke-dashoffset:0.0;stroke-width:0.5;"/>
     </g>
     <g id="line2d_119">
      <g>
       <use style="stroke:#000000;stroke-width:0.5;" x="85.2" xlink:href="#mca6b0d0a17" y="290.620699257"/>
      </g>
     </g>
     <g id="line2d_120">
      <g>
       <use style="stroke:#000000;stroke-width:0.5;" x="531.6" xlink:href="#m3738bd362e" y="290.620699257"/>
      </g>
     </g>
     <g id="text_12">
      <!-- 0.2 -->
      <g transform="translate(49.39375 296.139449257)scale(0.2 -0.2)">
       <use xlink:href="#BitstreamVeraSans-Roman-30"/>
       <use x="63.623046875" xlink:href="#BitstreamVeraSans-Roman-2e"/>
       <use x="95.41015625" xlink:href="#BitstreamVeraSans-Roman-32"/>
      </g>
     </g>
    </g>
    <g id="ytick_3">
     <g id="line2d_121">
      <path clip-path="url(#pdcea6f1d45)" d="M 85.2 222.185056 
L 531.6 222.185056 
" style="fill:none;stroke:#000000;stroke-dasharray:1.000000,3.000000;stroke-dashoffset:0.0;stroke-width:0.5;"/>
     </g>
     <g id="line2d_122">
      <g>
       <use style="stroke:#000000;stroke-width:0.5;" x="85.2" xlink:href="#mca6b0d0a17" y="222.185055693"/>
      </g>
     </g>
     <g id="line2d_123">
      <g>
       <use style="stroke:#000000;stroke-width:0.5;" x="531.6" xlink:href="#m3738bd362e" y="222.185055693"/>
      </g>
     </g>
     <g id="text_13">
      <!-- 0.4 -->
      <g transform="translate(49.39375 227.703805693)scale(0.2 -0.2)">
       <use xlink:href="#BitstreamVeraSans-Roman-30"/>
       <use x="63.623046875" xlink:href="#BitstreamVeraSans-Roman-2e"/>
       <use x="95.41015625" xlink:href="#BitstreamVeraSans-Roman-34"/>
      </g>
     </g>
    </g>
    <g id="ytick_4">
     <g id="line2d_124">
      <path clip-path="url(#pdcea6f1d45)" d="M 85.2 153.749412 
L 531.6 153.749412 
" style="fill:none;stroke:#000000;stroke-dasharray:1.000000,3.000000;stroke-dashoffset:0.0;stroke-width:0.5;"/>
     </g>
     <g id="line2d_125">
      <g>
       <use style="stroke:#000000;stroke-width:0.5;" x="85.2" xlink:href="#mca6b0d0a17" y="153.749412129"/>
      </g>
     </g>
     <g id="line2d_126">
      <g>
       <use style="stroke:#000000;stroke-width:0.5;" x="531.6" xlink:href="#m3738bd362e" y="153.749412129"/>
      </g>
     </g>
     <g id="text_14">
      <!-- 0.6 -->
      <g transform="translate(49.39375 159.268162129)scale(0.2 -0.2)">
       <use xlink:href="#BitstreamVeraSans-Roman-30"/>
       <use x="63.623046875" xlink:href="#BitstreamVeraSans-Roman-2e"/>
       <use x="95.41015625" xlink:href="#BitstreamVeraSans-Roman-36"/>
      </g>
     </g>
    </g>
    <g id="ytick_5">
     <g id="line2d_127">
      <path clip-path="url(#pdcea6f1d45)" d="M 85.2 85.313769 
L 531.6 85.313769 
" style="fill:none;stroke:#000000;stroke-dasharray:1.000000,3.000000;stroke-dashoffset:0.0;stroke-width:0.5;"/>
     </g>
     <g id="line2d_128">
      <g>
       <use style="stroke:#000000;stroke-width:0.5;" x="85.2" xlink:href="#mca6b0d0a17" y="85.3137685644"/>
      </g>
     </g>
     <g id="line2d_129">
      <g>
       <use style="stroke:#000000;stroke-width:0.5;" x="531.6" xlink:href="#m3738bd362e" y="85.3137685644"/>
      </g>
     </g>
     <g id="text_15">
      <!-- 0.8 -->
      <g transform="translate(49.39375 90.8325185644)scale(0.2 -0.2)">
       <use xlink:href="#BitstreamVeraSans-Roman-30"/>
       <use x="63.623046875" xlink:href="#BitstreamVeraSans-Roman-2e"/>
       <use x="95.41015625" xlink:href="#BitstreamVeraSans-Roman-38"/>
      </g>
     </g>
    </g>
    <g id="ytick_6">
     <g id="line2d_130">
      <path clip-path="url(#pdcea6f1d45)" d="M 85.2 16.878125 
L 531.6 16.878125 
" style="fill:none;stroke:#000000;stroke-dasharray:1.000000,3.000000;stroke-dashoffset:0.0;stroke-width:0.5;"/>
     </g>
     <g id="line2d_131">
      <g>
       <use style="stroke:#000000;stroke-width:0.5;" x="85.2" xlink:href="#mca6b0d0a17" y="16.878125"/>
      </g>
     </g>
     <g id="line2d_132">
      <g>
       <use style="stroke:#000000;stroke-width:0.5;" x="531.6" xlink:href="#m3738bd362e" y="16.878125"/>
      </g>
     </g>
     <g id="text_16">
      <!-- 1.0 -->
      <g transform="translate(49.39375 22.396875)scale(0.2 -0.2)">
       <use xlink:href="#BitstreamVeraSans-Roman-31"/>
       <use x="63.623046875" xlink:href="#BitstreamVeraSans-Roman-2e"/>
       <use x="95.41015625" xlink:href="#BitstreamVeraSans-Roman-30"/>
      </g>
     </g>
    </g>
    <g id="text_17">
     <!-- Proportion of function+target pairs -->
     <defs>
      <path d="M 19.671875 64.796875 
L 19.671875 37.40625 
L 32.078125 37.40625 
Q 38.96875 37.40625 42.71875 40.96875 
Q 46.484375 44.53125 46.484375 51.125 
Q 46.484375 57.671875 42.71875 61.234375 
Q 38.96875 64.796875 32.078125 64.796875 
z
M 9.8125 72.90625 
L 32.078125 72.90625 
Q 44.34375 72.90625 50.609375 67.359375 
Q 56.890625 61.8125 56.890625 51.125 
Q 56.890625 40.328125 50.609375 34.8125 
Q 44.34375 29.296875 32.078125 29.296875 
L 19.671875 29.296875 
L 19.671875 0 
L 9.8125 0 
z
" id="BitstreamVeraSans-Roman-50"/>
      <path d="M 46 62.703125 
L 46 35.5 
L 73.1875 35.5 
L 73.1875 27.203125 
L 46 27.203125 
L 46 0 
L 37.796875 0 
L 37.796875 27.203125 
L 10.59375 27.203125 
L 10.59375 35.5 
L 37.796875 35.5 
L 37.796875 62.703125 
z
" id="BitstreamVeraSans-Roman-2b"/>
      <path d="M 18.109375 8.203125 
L 18.109375 -20.796875 
L 9.078125 -20.796875 
L 9.078125 54.6875 
L 18.109375 54.6875 
L 18.109375 46.390625 
Q 20.953125 51.265625 25.265625 53.625 
Q 29.59375 56 35.59375 56 
Q 45.5625 56 51.78125 48.09375 
Q 58.015625 40.1875 58.015625 27.296875 
Q 58.015625 14.40625 51.78125 6.484375 
Q 45.5625 -1.421875 35.59375 -1.421875 
Q 29.59375 -1.421875 25.265625 0.953125 
Q 20.953125 3.328125 18.109375 8.203125 
M 48.6875 27.296875 
Q 48.6875 37.203125 44.609375 42.84375 
Q 40.53125 48.484375 33.40625 48.484375 
Q 26.265625 48.484375 22.1875 42.84375 
Q 18.109375 37.203125 18.109375 27.296875 
Q 18.109375 17.390625 22.1875 11.75 
Q 26.265625 6.109375 33.40625 6.109375 
Q 40.53125 6.109375 44.609375 11.75 
Q 48.6875 17.390625 48.6875 27.296875 
" id="BitstreamVeraSans-Roman-70"/>
      <path d="M 18.3125 70.21875 
L 18.3125 54.6875 
L 36.8125 54.6875 
L 36.8125 47.703125 
L 18.3125 47.703125 
L 18.3125 18.015625 
Q 18.3125 11.328125 20.140625 9.421875 
Q 21.96875 7.515625 27.59375 7.515625 
L 36.8125 7.515625 
L 36.8125 0 
L 27.59375 0 
Q 17.1875 0 13.234375 3.875 
Q 9.28125 7.765625 9.28125 18.015625 
L 9.28125 47.703125 
L 2.6875 47.703125 
L 2.6875 54.6875 
L 9.28125 54.6875 
L 9.28125 70.21875 
z
" id="BitstreamVeraSans-Roman-74"/>
      <path d="M 8.5 21.578125 
L 8.5 54.6875 
L 17.484375 54.6875 
L 17.484375 21.921875 
Q 17.484375 14.15625 20.5 10.265625 
Q 23.53125 6.390625 29.59375 6.390625 
Q 36.859375 6.390625 41.078125 11.03125 
Q 45.3125 15.671875 45.3125 23.6875 
L 45.3125 54.6875 
L 54.296875 54.6875 
L 54.296875 0 
L 45.3125 0 
L 45.3125 8.40625 
Q 42.046875 3.421875 37.71875 1 
Q 33.40625 -1.421875 27.6875 -1.421875 
Q 18.265625 -1.421875 13.375 4.4375 
Q 8.5 10.296875 8.5 21.578125 
" id="BitstreamVeraSans-Roman-75"/>
      <path d="M 41.109375 46.296875 
Q 39.59375 47.171875 37.8125 47.578125 
Q 36.03125 48 33.890625 48 
Q 26.265625 48 22.1875 43.046875 
Q 18.109375 38.09375 18.109375 28.8125 
L 18.109375 0 
L 9.078125 0 
L 9.078125 54.6875 
L 18.109375 54.6875 
L 18.109375 46.1875 
Q 20.953125 51.171875 25.484375 53.578125 
Q 30.03125 56 36.53125 56 
Q 37.453125 56 38.578125 55.875 
Q 39.703125 55.765625 41.0625 55.515625 
z
" id="BitstreamVeraSans-Roman-72"/>
      <path d="M 48.78125 52.59375 
L 48.78125 44.1875 
Q 44.96875 46.296875 41.140625 47.34375 
Q 37.3125 48.390625 33.40625 48.390625 
Q 24.65625 48.390625 19.8125 42.84375 
Q 14.984375 37.3125 14.984375 27.296875 
Q 14.984375 17.28125 19.8125 11.734375 
Q 24.65625 6.203125 33.40625 6.203125 
Q 37.3125 6.203125 41.140625 7.25 
Q 44.96875 8.296875 48.78125 10.40625 
L 48.78125 2.09375 
Q 45.015625 0.34375 40.984375 -0.53125 
Q 36.96875 -1.421875 32.421875 -1.421875 
Q 20.0625 -1.421875 12.78125 6.34375 
Q 5.515625 14.109375 5.515625 27.296875 
Q 5.515625 40.671875 12.859375 48.328125 
Q 20.21875 56 33.015625 56 
Q 37.15625 56 41.109375 55.140625 
Q 45.0625 54.296875 48.78125 52.59375 
" id="BitstreamVeraSans-Roman-63"/>
     </defs>
     <g transform="translate(40.6503125 344.245717822)rotate(-90.0)scale(0.18 -0.18)">
      <use xlink:href="#BitstreamVeraSans-Roman-50"/>
      <use x="60.287109375" xlink:href="#BitstreamVeraSans-Roman-72"/>
      <use x="101.369140625" xlink:href="#BitstreamVeraSans-Roman-6f"/>
      <use x="162.55078125" xlink:href="#BitstreamVeraSans-Roman-70"/>
      <use x="226.02734375" xlink:href="#BitstreamVeraSans-Roman-6f"/>
      <use x="287.208984375" xlink:href="#BitstreamVeraSans-Roman-72"/>
      <use x="328.322265625" xlink:href="#BitstreamVeraSans-Roman-74"/>
      <use x="367.53125" xlink:href="#BitstreamVeraSans-Roman-69"/>
      <use x="395.314453125" xlink:href="#BitstreamVeraSans-Roman-6f"/>
      <use x="456.49609375" xlink:href="#BitstreamVeraSans-Roman-6e"/>
      <use x="519.875" xlink:href="#BitstreamVeraSans-Roman-20"/>
      <use x="551.662109375" xlink:href="#BitstreamVeraSans-Roman-6f"/>
      <use x="612.84375" xlink:href="#BitstreamVeraSans-Roman-66"/>
      <use x="648.048828125" xlink:href="#BitstreamVeraSans-Roman-20"/>
      <use x="679.8359375" xlink:href="#BitstreamVeraSans-Roman-66"/>
      <use x="715.041015625" xlink:href="#BitstreamVeraSans-Roman-75"/>
      <use x="778.419921875" xlink:href="#BitstreamVeraSans-Roman-6e"/>
      <use x="841.798828125" xlink:href="#BitstreamVeraSans-Roman-63"/>
      <use x="896.779296875" xlink:href="#BitstreamVeraSans-Roman-74"/>
      <use x="935.98828125" xlink:href="#BitstreamVeraSans-Roman-69"/>
      <use x="963.771484375" xlink:href="#BitstreamVeraSans-Roman-6f"/>
      <use x="1024.953125" xlink:href="#BitstreamVeraSans-Roman-6e"/>
      <use x="1088.33203125" xlink:href="#BitstreamVeraSans-Roman-2b"/>
      <use x="1172.12109375" xlink:href="#BitstreamVeraSans-Roman-74"/>
      <use x="1211.33007812" xlink:href="#BitstreamVeraSans-Roman-61"/>
      <use x="1272.609375" xlink:href="#BitstreamVeraSans-Roman-72"/>
      <use x="1313.70703125" xlink:href="#BitstreamVeraSans-Roman-67"/>
      <use x="1377.18359375" xlink:href="#BitstreamVeraSans-Roman-65"/>
      <use x="1438.70703125" xlink:href="#BitstreamVeraSans-Roman-74"/>
      <use x="1477.91601562" xlink:href="#BitstreamVeraSans-Roman-20"/>
      <use x="1509.703125" xlink:href="#BitstreamVeraSans-Roman-70"/>
      <use x="1573.1796875" xlink:href="#BitstreamVeraSans-Roman-61"/>
      <use x="1634.45898438" xlink:href="#BitstreamVeraSans-Roman-69"/>
      <use x="1662.2421875" xlink:href="#BitstreamVeraSans-Roman-72"/>
      <use x="1703.35546875" xlink:href="#BitstreamVeraSans-Roman-73"/>
     </g>
    </g>
   </g>
   <g id="text_18">
    <!-- f46 -->
    <g transform="translate(492.0 356.351840965)scale(0.15 -0.15)">
     <use xlink:href="#BitstreamVeraSans-Roman-66"/>
     <use x="35.205078125" xlink:href="#BitstreamVeraSans-Roman-34"/>
     <use x="98.828125" xlink:href="#BitstreamVeraSans-Roman-36"/>
    </g>
   </g>
   <g id="text_19">
    <!-- f47 -->
    <g transform="translate(492.0 192.106296411)scale(0.15 -0.15)">
     <use xlink:href="#BitstreamVeraSans-Roman-66"/>
     <use x="35.205078125" xlink:href="#BitstreamVeraSans-Roman-34"/>
     <use x="98.828125" xlink:href="#BitstreamVeraSans-Roman-37"/>
    </g>
   </g>
   <g id="text_20">
    <!-- f50 -->
    <g transform="translate(492.0 27.8607518564)scale(0.15 -0.15)">
     <use xlink:href="#BitstreamVeraSans-Roman-66"/>
     <use x="35.205078125" xlink:href="#BitstreamVeraSans-Roman-35"/>
     <use x="98.828125" xlink:href="#BitstreamVeraSans-Roman-30"/>
    </g>
   </g>
   <g id="text_21">
    <!-- bbob-biobj -->
    <defs>
     <path d="M 9.421875 54.6875 
L 18.40625 54.6875 
L 18.40625 -0.984375 
Q 18.40625 -11.421875 14.421875 -16.109375 
Q 10.453125 -20.796875 1.609375 -20.796875 
L -1.8125 -20.796875 
L -1.8125 -13.1875 
L 0.59375 -13.1875 
Q 5.71875 -13.1875 7.5625 -10.8125 
Q 9.421875 -8.453125 9.421875 -0.984375 
z
M 9.421875 75.984375 
L 18.40625 75.984375 
L 18.40625 64.59375 
L 9.421875 64.59375 
z
" id="BitstreamVeraSans-Roman-6a"/>
     <path d="M 48.6875 27.296875 
Q 48.6875 37.203125 44.609375 42.84375 
Q 40.53125 48.484375 33.40625 48.484375 
Q 26.265625 48.484375 22.1875 42.84375 
Q 18.109375 37.203125 18.109375 27.296875 
Q 18.109375 17.390625 22.1875 11.75 
Q 26.265625 6.109375 33.40625 6.109375 
Q 40.53125 6.109375 44.609375 11.75 
Q 48.6875 17.390625 48.6875 27.296875 
M 18.109375 46.390625 
Q 20.953125 51.265625 25.265625 53.625 
Q 29.59375 56 35.59375 56 
Q 45.5625 56 51.78125 48.09375 
Q 58.015625 40.1875 58.015625 27.296875 
Q 58.015625 14.40625 51.78125 6.484375 
Q 45.5625 -1.421875 35.59375 -1.421875 
Q 29.59375 -1.421875 25.265625 0.953125 
Q 20.953125 3.328125 18.109375 8.203125 
L 18.109375 0 
L 9.078125 0 
L 9.078125 75.984375 
L 18.109375 75.984375 
z
" id="BitstreamVeraSans-Roman-62"/>
    </defs>
    <g transform="translate(89.664 33.0273396968)scale(0.1666 -0.1666)">
     <use xlink:href="#BitstreamVeraSans-Roman-62"/>
     <use x="63.4765625" xlink:href="#BitstreamVeraSans-Roman-62"/>
     <use x="126.953125" xlink:href="#BitstreamVeraSans-Roman-6f"/>
     <use x="188.134765625" xlink:href="#BitstreamVeraSans-Roman-62"/>
     <use x="251.611328125" xlink:href="#BitstreamVeraSans-Roman-2d"/>
     <use x="287.6953125" xlink:href="#BitstreamVeraSans-Roman-62"/>
     <use x="351.171875" xlink:href="#BitstreamVeraSans-Roman-69"/>
     <use x="378.955078125" xlink:href="#BitstreamVeraSans-Roman-6f"/>
     <use x="440.13671875" xlink:href="#BitstreamVeraSans-Roman-62"/>
     <use x="503.61328125" xlink:href="#BitstreamVeraSans-Roman-6a"/>
    </g>
    <!-- 4-multi-modal 4-multi-modal, 2-D -->
    <defs>
     <path d="M 11.71875 12.40625 
L 22.015625 12.40625 
L 22.015625 4 
L 14.015625 -11.625 
L 7.71875 -11.625 
L 11.71875 4 
z
" id="BitstreamVeraSans-Roman-2c"/>
     <path d="M 19.671875 64.796875 
L 19.671875 8.109375 
L 31.59375 8.109375 
Q 46.6875 8.109375 53.6875 14.9375 
Q 60.6875 21.78125 60.6875 36.53125 
Q 60.6875 51.171875 53.6875 57.984375 
Q 46.6875 64.796875 31.59375 64.796875 
z
M 9.8125 72.90625 
L 30.078125 72.90625 
Q 51.265625 72.90625 61.171875 64.09375 
Q 71.09375 55.28125 71.09375 36.53125 
Q 71.09375 17.671875 61.125 8.828125 
Q 51.171875 0 30.078125 0 
L 9.8125 0 
z
" id="BitstreamVeraSans-Roman-44"/>
    </defs>
    <g transform="translate(89.664 51.6828953218)scale(0.1666 -0.1666)">
     <use xlink:href="#BitstreamVeraSans-Roman-34"/>
     <use x="63.623046875" xlink:href="#BitstreamVeraSans-Roman-2d"/>
     <use x="99.70703125" xlink:href="#BitstreamVeraSans-Roman-6d"/>
     <use x="197.119140625" xlink:href="#BitstreamVeraSans-Roman-75"/>
     <use x="260.498046875" xlink:href="#BitstreamVeraSans-Roman-6c"/>
     <use x="288.28125" xlink:href="#BitstreamVeraSans-Roman-74"/>
     <use x="327.490234375" xlink:href="#BitstreamVeraSans-Roman-69"/>
     <use x="355.2734375" xlink:href="#BitstreamVeraSans-Roman-2d"/>
     <use x="391.357421875" xlink:href="#BitstreamVeraSans-Roman-6d"/>
     <use x="488.76953125" xlink:href="#BitstreamVeraSans-Roman-6f"/>
     <use x="549.951171875" xlink:href="#BitstreamVeraSans-Roman-64"/>
     <use x="613.427734375" xlink:href="#BitstreamVeraSans-Roman-61"/>
     <use x="674.70703125" xlink:href="#BitstreamVeraSans-Roman-6c"/>
     <use x="702.490234375" xlink:href="#BitstreamVeraSans-Roman-20"/>
     <use x="734.27734375" xlink:href="#BitstreamVeraSans-Roman-34"/>
     <use x="797.900390625" xlink:href="#BitstreamVeraSans-Roman-2d"/>
     <use x="833.984375" xlink:href="#BitstreamVeraSans-Roman-6d"/>
     <use x="931.396484375" xlink:href="#BitstreamVeraSans-Roman-75"/>
     <use x="994.775390625" xlink:href="#BitstreamVeraSans-Roman-6c"/>
     <use x="1022.55859375" xlink:href="#BitstreamVeraSans-Roman-74"/>
     <use x="1061.76757812" xlink:href="#BitstreamVeraSans-Roman-69"/>
     <use x="1089.55078125" xlink:href="#BitstreamVeraSans-Roman-2d"/>
     <use x="1125.63476562" xlink:href="#BitstreamVeraSans-Roman-6d"/>
     <use x="1223.046875" xlink:href="#BitstreamVeraSans-Roman-6f"/>
     <use x="1284.22851562" xlink:href="#BitstreamVeraSans-Roman-64"/>
     <use x="1347.70507812" xlink:href="#BitstreamVeraSans-Roman-61"/>
     <use x="1408.984375" xlink:href="#BitstreamVeraSans-Roman-6c"/>
     <use x="1436.76757812" xlink:href="#BitstreamVeraSans-Roman-2c"/>
     <use x="1468.5546875" xlink:href="#BitstreamVeraSans-Roman-20"/>
     <use x="1500.34179688" xlink:href="#BitstreamVeraSans-Roman-32"/>
     <use x="1563.96484375" xlink:href="#BitstreamVeraSans-Roman-2d"/>
     <use x="1600.04882812" xlink:href="#BitstreamVeraSans-Roman-44"/>
    </g>
    <!-- 58 targets in 1..-1.0e-4 -->
    <g transform="translate(89.664 70.3384509468)scale(0.1666 -0.1666)">
     <use xlink:href="#BitstreamVeraSans-Roman-35"/>
     <use x="63.623046875" xlink:href="#BitstreamVeraSans-Roman-38"/>
     <use x="127.24609375" xlink:href="#BitstreamVeraSans-Roman-20"/>
     <use x="159.033203125" xlink:href="#BitstreamVeraSans-Roman-74"/>
     <use x="198.2421875" xlink:href="#BitstreamVeraSans-Roman-61"/>
     <use x="259.521484375" xlink:href="#BitstreamVeraSans-Roman-72"/>
     <use x="300.619140625" xlink:href="#BitstreamVeraSans-Roman-67"/>
     <use x="364.095703125" xlink:href="#BitstreamVeraSans-Roman-65"/>
     <use x="425.619140625" xlink:href="#BitstreamVeraSans-Roman-74"/>
     <use x="464.828125" xlink:href="#BitstreamVeraSans-Roman-73"/>
     <use x="516.927734375" xlink:href="#BitstreamVeraSans-Roman-20"/>
     <use x="548.71484375" xlink:href="#BitstreamVeraSans-Roman-69"/>
     <use x="576.498046875" xlink:href="#BitstreamVeraSans-Roman-6e"/>
     <use x="639.876953125" xlink:href="#BitstreamVeraSans-Roman-20"/>
     <use x="671.6640625" xlink:href="#BitstreamVeraSans-Roman-31"/>
     <use x="735.287109375" xlink:href="#BitstreamVeraSans-Roman-2e"/>
     <use x="767.07421875" xlink:href="#BitstreamVeraSans-Roman-2e"/>
     <use x="798.861328125" xlink:href="#BitstreamVeraSans-Roman-2d"/>
     <use x="834.9453125" xlink:href="#BitstreamVeraSans-Roman-31"/>
     <use x="898.568359375" xlink:href="#BitstreamVeraSans-Roman-2e"/>
     <use x="930.35546875" xlink:href="#BitstreamVeraSans-Roman-30"/>
     <use x="993.978515625" xlink:href="#BitstreamVeraSans-Roman-65"/>
     <use x="1055.50195312" xlink:href="#BitstreamVeraSans-Roman-2d"/>
     <use x="1091.5859375" xlink:href="#BitstreamVeraSans-Roman-34"/>
    </g>
    <!-- 5 instances -->
    <g transform="translate(89.664 88.9940065718)scale(0.1666 -0.1666)">
     <use xlink:href="#BitstreamVeraSans-Roman-35"/>
     <use x="63.623046875" xlink:href="#BitstreamVeraSans-Roman-20"/>
     <use x="95.41015625" xlink:href="#BitstreamVeraSans-Roman-69"/>
     <use x="123.193359375" xlink:href="#BitstreamVeraSans-Roman-6e"/>
     <use x="186.572265625" xlink:href="#BitstreamVeraSans-Roman-73"/>
     <use x="238.671875" xlink:href="#BitstreamVeraSans-Roman-74"/>
     <use x="277.880859375" xlink:href="#BitstreamVeraSans-Roman-61"/>
     <use x="339.16015625" xlink:href="#BitstreamVeraSans-Roman-6e"/>
     <use x="402.5390625" xlink:href="#BitstreamVeraSans-Roman-63"/>
     <use x="457.51953125" xlink:href="#BitstreamVeraSans-Roman-65"/>
     <use x="519.04296875" xlink:href="#BitstreamVeraSans-Roman-73"/>
    </g>
   </g>
   <g id="text_22">
    <!-- 1.2 -->
    <g style="fill:#808080;" transform="translate(300.4484375 353.520655322)scale(0.1 -0.1)">
     <use xlink:href="#BitstreamVeraSans-Roman-31"/>
     <use x="63.623046875" xlink:href="#BitstreamVeraSans-Roman-2e"/>
     <use x="95.41015625" xlink:href="#BitstreamVeraSans-Roman-32"/>
    </g>
   </g>
  </g>
 </g>
 <defs>
  <clipPath id="pdcea6f1d45">
   <rect height="345.6" width="446.4" x="85.2" y="13.4563428218"/>
  </clipPath>
 </defs>
</svg>
