<?xml version="1.0" encoding="utf-8" standalone="no"?>
<!DOCTYPE svg PUBLIC "-//W3C//DTD SVG 1.1//EN"
  "http://www.w3.org/Graphics/SVG/1.1/DTD/svg11.dtd">
<!-- Created with matplotlib (http://matplotlib.org/) -->
<svg height="415pt" version="1.1" viewBox="0 0 538 415" width="538pt" xmlns="http://www.w3.org/2000/svg" xmlns:xlink="http://www.w3.org/1999/xlink">
 <defs>
  <style type="text/css">
*{stroke-linecap:butt;stroke-linejoin:round;stroke-miterlimit:100000;}
  </style>
 </defs>
 <g id="figure_1">
  <g id="patch_1">
   <path d="M 0 415.456343 
L 538.8 415.456343 
L 538.8 0 
L 0 0 
z
" style="fill:#ffffff;"/>
  </g>
  <g id="axes_1">
   <g id="patch_2">
    <path d="M 85.2 359.056343 
L 531.6 359.056343 
L 531.6 13.456343 
L 85.2 13.456343 
z
" style="fill:#ffffff;"/>
   </g>
   <g id="line2d_1">
    <defs>
     <path d="M 0 1.5 
C 0.397805 1.5 0.77937 1.341951 1.06066 1.06066 
C 1.341951 0.77937 1.5 0.397805 1.5 0 
C 1.5 -0.397805 1.341951 -0.77937 1.06066 -1.06066 
C 0.77937 -1.341951 0.397805 -1.5 0 -1.5 
C -0.397805 -1.5 -0.77937 -1.341951 -1.06066 -1.06066 
C -1.341951 -0.77937 -1.5 -0.397805 -1.5 0 
C -1.5 0.397805 -1.341951 0.77937 -1.06066 1.06066 
C -0.77937 1.341951 -0.397805 1.5 0 1.5 
z
" id="mc64e73a7cc" style="stroke:#00bfbf;stroke-width:0.5;"/>
    </defs>
    <g>
     <use style="fill:#00bfbf;stroke:#00bfbf;stroke-width:0.5;" x="313.686508763" xlink:href="#mc64e73a7cc" y="211.565731692"/>
     <use style="fill:#00bfbf;stroke:#00bfbf;stroke-width:0.5;" x="313.686508763" xlink:href="#mc64e73a7cc" y="211.565731692"/>
    </g>
   </g>
   <g id="line2d_2">
    <path d="M 69.718457 359.056343 
L 69.718457 341.50496 
L 149.127671 341.50496 
L 149.127671 338.99762 
L 165.54649 338.99762 
L 165.54649 334.425411 
L 170.71326 334.425411 
L 170.71326 334.13043 
L 181.780129 334.13043 
L 181.780129 333.835448 
L 184.02959 333.835448 
L 184.02959 332.213052 
L 195.810331 332.213052 
L 195.810331 332.065561 
L 198.131982 332.065561 
L 198.131982 331.623089 
L 199.376987 331.623089 
L 199.376987 331.033127 
L 200.619966 331.033127 
L 200.619966 330.885636 
L 200.746871 330.885636 
L 200.746871 330.295674 
L 201.123315 330.295674 
L 201.123315 330.148183 
L 201.554627 330.148183 
L 201.554627 328.673277 
L 202.510287 328.673277 
L 202.56868 327.345861 
L 206.317793 327.345861 
L 206.367044 326.608408 
L 206.465221 326.608408 
L 206.465221 326.165937 
L 207.376986 326.165937 
L 207.376986 324.69103 
L 208.02577 324.69103 
L 208.02577 322.478671 
L 209.139418 322.478671 
L 209.139418 321.151256 
L 209.2694 321.151256 
L 209.2694 320.856275 
L 210.117135 320.856275 
L 210.117135 320.708784 
L 210.893732 320.708784 
L 210.893732 320.118821 
L 211.212811 320.118821 
L 211.252378 319.528859 
L 212.370332 319.528859 
L 212.370332 319.233878 
L 213.399106 319.233878 
L 213.399106 318.496425 
L 215.291589 318.496425 
L 215.291589 316.431556 
L 216.101509 316.431556 
L 216.101509 315.694103 
L 217.157888 315.694103 
L 217.157888 314.95665 
L 217.519111 314.95665 
L 217.519111 314.809159 
L 217.815731 314.809159 
L 217.815731 314.514178 
L 218.852083 314.514178 
L 218.852083 314.071706 
L 219.24247 314.071706 
L 219.24247 313.629235 
L 220.687402 313.629235 
L 220.687402 312.006838 
L 222.141831 312.006838 
L 222.141831 309.057026 
L 222.407298 309.057026 
L 222.407298 308.909535 
L 222.787885 308.909535 
L 222.787885 308.467063 
L 223.162095 308.467063 
L 223.162095 307.72961 
L 223.62121 307.72961 
L 223.711911 306.549685 
L 224.686046 306.549685 
L 224.750942 305.959723 
L 225.908463 305.959723 
L 225.908463 305.22227 
L 226.654717 305.22227 
L 226.654717 304.042345 
L 226.969857 304.042345 
L 226.969857 303.747364 
L 227.396039 303.747364 
L 227.396039 300.207589 
L 227.719881 300.207589 
L 227.738785 298.585192 
L 228.518645 298.585192 
L 228.609697 297.405267 
L 228.682273 297.405267 
L 228.682273 296.520324 
L 228.988115 296.520324 
L 228.988115 296.077852 
L 229.342649 296.077852 
L 229.360229 294.455455 
L 230.356885 294.455455 
L 230.356885 293.718002 
L 230.822564 293.718002 
L 230.822564 292.833058 
L 231.375281 292.833058 
L 231.375281 290.76819 
L 232.101948 290.76819 
L 232.133012 289.293284 
L 232.502451 289.293284 
L 232.502451 288.260849 
L 232.63943 288.260849 
L 232.63943 287.965868 
L 232.820772 287.965868 
L 232.820772 287.375906 
L 232.955819 287.375906 
L 232.955819 286.933434 
L 233.179098 286.933434 
L 233.2087 284.573584 
L 233.560904 284.573584 
L 233.560904 282.656206 
L 233.792659 282.656206 
L 233.792659 282.508716 
L 233.921972 282.508716 
L 233.921972 282.213734 
L 234.206681 282.213734 
L 234.206681 280.886319 
L 234.916677 280.886319 
L 234.985085 275.871638 
L 235.229633 275.871638 
L 235.229633 274.691713 
L 235.377771 274.691713 
L 235.377771 274.544223 
L 235.538264 274.544223 
L 235.538264 273.95426 
L 236.065061 273.95426 
L 236.065061 273.659279 
L 236.181897 273.659279 
L 236.207778 269.234561 
L 236.528783 269.234561 
L 236.630537 268.054636 
L 236.655904 268.054636 
L 236.70655 266.874711 
L 236.782306 266.874711 
L 236.782306 266.137258 
L 236.995561 266.137258 
L 237.008042 264.957333 
L 237.157275 264.957333 
L 237.182051 263.482427 
L 237.683985 263.482427 
L 237.683985 263.187446 
L 238.257632 263.187446 
L 238.257632 263.039955 
L 239.906101 263.039955 
L 239.906101 262.449993 
L 240.189242 262.449993 
L 240.189242 261.122577 
L 240.554168 261.122577 
L 240.554168 260.680105 
L 240.955093 260.680105 
L 240.955093 259.50018 
L 241.916993 259.50018 
L 241.916993 258.467746 
L 243.511313 258.467746 
L 243.511313 258.320255 
L 243.687802 258.320255 
L 243.706299 257.877784 
L 243.826158 257.877784 
L 243.826158 257.582802 
L 243.972799 257.582802 
L 243.981932 256.845349 
L 244.621023 256.845349 
L 244.638763 256.107896 
L 245.147199 256.107896 
L 245.147199 254.927971 
L 245.576404 254.927971 
L 245.584904 254.63299 
L 245.830023 254.63299 
L 245.830023 254.338009 
L 246.064164 254.338009 
L 246.064164 254.043028 
L 246.517058 254.043028 
L 246.517058 253.010593 
L 246.719921 253.010593 
L 246.719921 252.863103 
L 246.992892 252.863103 
L 247.088444 252.568122 
L 247.167759 252.568122 
L 247.167759 252.420631 
L 247.560164 252.420631 
L 247.560164 252.27314 
L 247.976359 252.27314 
L 247.976359 251.978159 
L 248.41491 251.978159 
L 248.497121 251.240706 
L 248.911021 251.240706 
L 248.911021 250.355762 
L 249.906404 250.355762 
L 249.906404 250.208272 
L 250.170976 250.208272 
L 250.170976 249.028347 
L 250.288329 249.028347 
L 250.288329 248.733366 
L 250.582442 248.733366 
L 250.643514 247.110969 
L 250.899545 247.110969 
L 250.899545 246.521007 
L 251.284758 246.521007 
L 251.284758 246.373516 
L 251.68932 246.373516 
L 251.68932 246.078535 
L 251.997573 246.078535 
L 251.997573 245.931044 
L 252.131108 245.931044 
L 252.207056 245.636063 
L 252.433364 245.636063 
L 252.44587 245.193591 
L 252.564326 245.193591 
L 252.595394 244.456138 
L 252.750092 244.456138 
L 252.750092 244.308647 
L 252.873083 244.308647 
L 252.873083 244.161157 
L 253.183679 244.161157 
L 253.213898 243.128722 
L 253.460167 243.128722 
L 253.460167 241.653816 
L 253.69784 241.653816 
L 253.76276 240.768873 
L 253.909605 240.768873 
L 253.991419 239.146476 
L 254.12518 239.146476 
L 254.211986 237.229098 
L 255.524217 237.229098 
L 255.524217 236.786626 
L 255.665373 236.786626 
L 255.665373 236.491645 
L 255.848626 236.491645 
L 255.848626 236.196664 
L 256.051674 236.196664 
L 256.051674 235.754192 
L 256.462762 235.754192 
L 256.54616 235.31172 
L 257.388518 235.31172 
L 257.493483 234.721758 
L 257.558216 234.721758 
L 257.558216 234.574267 
L 258.282239 234.574267 
L 258.282239 234.279286 
L 258.664046 234.279286 
L 258.664046 234.131795 
L 258.796151 234.131795 
L 258.796151 233.836814 
L 259.05339 233.836814 
L 259.05339 233.246852 
L 259.169345 233.246852 
L 259.169345 232.95187 
L 259.326084 232.95187 
L 259.381142 232.656889 
L 260.204381 232.656889 
L 260.204381 232.509398 
L 260.450355 232.509398 
L 260.450355 232.361908 
L 261.049443 232.361908 
L 261.049443 232.214417 
L 261.210463 232.214417 
L 261.282125 230.739511 
L 261.462366 230.739511 
L 261.570648 230.149549 
L 261.657725 230.149549 
L 261.657725 229.854567 
L 262.625537 229.854567 
L 262.625537 229.707077 
L 263.096098 229.707077 
L 263.115491 229.264605 
L 263.273883 229.264605 
L 263.273883 228.379661 
L 263.46172 228.379661 
L 263.56455 227.789699 
L 263.591133 227.789699 
L 263.617684 227.052246 
L 263.704702 227.052246 
L 263.76127 226.167302 
L 264.093995 226.167302 
L 264.093995 225.872321 
L 264.719691 225.872321 
L 264.719691 225.72483 
L 264.977986 225.72483 
L 264.977986 225.57734 
L 265.310772 225.57734 
L 265.310772 224.987377 
L 265.954999 224.987377 
L 265.954999 224.839887 
L 266.667312 224.839887 
L 266.667312 224.692396 
L 266.855017 224.692396 
L 266.855017 224.544905 
L 267.22576 224.544905 
L 267.22576 224.397415 
L 267.456782 224.397415 
L 267.456782 224.249924 
L 267.846 224.249924 
L 267.846 224.102434 
L 268.020982 224.102434 
L 268.020982 223.807452 
L 268.565206 223.807452 
L 268.565206 222.627528 
L 268.74672 222.627528 
L 268.74672 222.480037 
L 269.58642 222.480037 
L 269.58642 222.332546 
L 269.937663 222.332546 
L 269.937663 221.890074 
L 270.068678 221.890074 
L 270.068678 221.742584 
L 270.32281 221.742584 
L 270.429248 220.71015 
L 270.676569 220.71015 
L 270.676569 220.562659 
L 271.073734 220.562659 
L 271.073734 220.415168 
L 271.338218 220.415168 
L 271.338218 220.267678 
L 271.588998 220.267678 
L 271.588998 220.120187 
L 272.15222 220.120187 
L 272.15222 219.972697 
L 272.491104 219.972697 
L 272.491104 219.825206 
L 273.049701 219.825206 
L 273.079501 219.530225 
L 274.12902 219.530225 
L 274.230603 219.087753 
L 274.341109 219.087753 
L 274.341109 218.940262 
L 275.167621 218.940262 
L 275.271348 218.49779 
L 275.381313 218.49779 
L 275.47291 218.055319 
L 275.557471 218.055319 
L 275.557471 217.907828 
L 275.754277 217.907828 
L 275.754277 217.760337 
L 276.282957 217.760337 
L 276.282957 217.465356 
L 277.211573 217.465356 
L 277.211573 217.317866 
L 277.664824 217.317866 
L 277.664824 217.170375 
L 278.166444 217.170375 
L 278.166444 217.022884 
L 278.513523 217.022884 
L 278.513523 216.875394 
L 279.488164 216.875394 
L 279.488164 216.727903 
L 279.642232 216.727903 
L 279.725321 216.137941 
L 282.303743 216.137941 
L 282.303743 215.99045 
L 283.212749 215.99045 
L 283.236385 215.105506 
L 285.317568 215.105506 
L 285.317568 214.958016 
L 286.198148 214.958016 
L 286.269757 214.220563 
L 286.847914 214.220563 
L 286.847914 214.073072 
L 288.220958 214.073072 
L 288.220958 213.925581 
L 289.048304 213.925581 
L 289.048304 213.778091 
L 289.70861 213.778091 
L 289.70861 213.6306 
L 290.346518 213.6306 
L 290.346518 213.48311 
L 290.679655 213.48311 
L 290.679655 213.335619 
L 291.322614 213.335619 
L 291.422175 212.598166 
L 293.567807 212.598166 
L 293.567807 212.450675 
L 297.324905 212.450675 
L 297.324905 212.303185 
L 298.920951 212.303185 
L 298.920951 212.155694 
L 300.47393 212.155694 
L 300.47393 212.008204 
L 305.794816 212.008204 
L 305.794816 211.860713 
L 308.090451 211.860713 
L 308.090451 211.713222 
L 313.686509 211.713222 
L 313.686509 211.565732 
L 445.2 211.565732 
L 445.2 211.565732 
" style="fill:none;stroke:#00bfbf;stroke-linecap:square;stroke-width:1.5;"/>
   </g>
   <g id="line2d_3">
    <defs>
     <path d="M -6 0 
L 6 0 
M 0 6 
L 0 -6 
" id="m8eb2e7bed0" style="stroke:#00bfbf;stroke-width:1.5;"/>
    </defs>
    <g>
     <use style="fill:none;stroke:#00bfbf;stroke-width:1.5;" x="69.7184573659" xlink:href="#m8eb2e7bed0" y="341.504960097"/>
     <use style="fill:none;stroke:#00bfbf;stroke-width:1.5;" x="232.955818906" xlink:href="#m8eb2e7bed0" y="286.933433979"/>
     <use style="fill:none;stroke:#00bfbf;stroke-width:1.5;" x="253.460167002" xlink:href="#m8eb2e7bed0" y="243.128722474"/>
     <use style="fill:none;stroke:#00bfbf;stroke-width:1.5;" x="313.686508763" xlink:href="#m8eb2e7bed0" y="211.713222303"/>
     <use style="fill:none;stroke:#00bfbf;stroke-width:1.5;" x="313.686508763" xlink:href="#m8eb2e7bed0" y="211.565731692"/>
     <use style="fill:none;stroke:#00bfbf;stroke-width:1.5;" x="445.2" xlink:href="#m8eb2e7bed0" y="211.565731692"/>
    </g>
   </g>
   <g id="line2d_4"/>
   <g id="line2d_5">
    <path clip-path="url(#pc5887f66e2)" d="M 240.178418 262.449993 
" style="fill:none;stroke:#00bfbf;stroke-linecap:square;"/>
    <defs>
     <path d="M -12 12 
L 12 -12 
M -12 -12 
L 12 12 
" id="m8ad41f50f4" style="stroke:#00bfbf;stroke-width:3.0;"/>
    </defs>
    <g clip-path="url(#pc5887f66e2)">
     <use style="fill:#00bfbf;stroke:#00bfbf;stroke-width:3.0;" x="240.178417662" xlink:href="#m8ad41f50f4" y="262.449992532"/>
    </g>
   </g>
   <g id="line2d_6">
    <defs>
     <path d="M 0 1.5 
C 0.397805 1.5 0.77937 1.341951 1.06066 1.06066 
C 1.341951 0.77937 1.5 0.397805 1.5 0 
C 1.5 -0.397805 1.341951 -0.77937 1.06066 -1.06066 
C 0.77937 -1.341951 0.397805 -1.5 0 -1.5 
C -0.397805 -1.5 -0.77937 -1.341951 -1.06066 -1.06066 
C -1.341951 -0.77937 -1.5 -0.397805 -1.5 0 
C -1.5 0.397805 -1.341951 0.77937 -1.06066 1.06066 
C -0.77937 1.341951 -0.397805 1.5 0 1.5 
z
" id="m015b8b8592" style="stroke:#008000;stroke-width:0.5;"/>
    </defs>
    <g>
     <use style="fill:#008000;stroke:#008000;stroke-width:0.5;" x="309.351732591" xlink:href="#m015b8b8592" y="221.890074471"/>
     <use style="fill:#008000;stroke:#008000;stroke-width:0.5;" x="309.351732591" xlink:href="#m015b8b8592" y="221.890074471"/>
    </g>
   </g>
   <g id="line2d_7">
    <path d="M 60.662335 359.056343 
L 60.662335 338.260167 
L 128.662185 338.260167 
L 128.662185 337.670204 
L 152.110114 337.670204 
L 152.110114 335.752826 
L 180.407572 335.752826 
L 180.407572 335.310354 
L 194.314419 335.310354 
L 194.314419 334.867883 
L 200.299514 334.867883 
L 200.299514 334.425411 
L 201.554627 334.425411 
L 201.554627 334.27792 
L 205.395069 334.27792 
L 205.395069 334.13043 
L 206.169387 334.13043 
L 206.169387 333.687958 
L 207.140633 333.687958 
L 207.140633 333.245486 
L 208.283108 333.245486 
L 208.283108 332.360542 
L 208.671036 332.360542 
L 208.671036 331.475599 
L 209.85215 331.475599 
L 209.85215 331.033127 
L 210.759426 331.033127 
L 210.759426 330.885636 
L 212.395385 330.885636 
L 212.395385 330.738145 
L 212.915118 330.738145 
L 212.915118 330.148183 
L 213.303144 330.148183 
L 213.303144 329.558221 
L 214.587798 329.558221 
L 214.587798 328.820768 
L 215.103851 328.820768 
L 215.103851 328.230805 
L 216.438332 328.230805 
L 216.438332 327.345861 
L 217.117389 327.345861 
L 217.157888 325.723465 
L 219.279297 325.723465 
L 219.279297 325.428483 
L 220.038945 325.428483 
L 220.056721 324.248559 
L 221.115128 324.248559 
L 221.115128 322.773652 
L 221.250288 322.773652 
L 221.283951 321.151256 
L 221.584653 321.151256 
L 221.584653 321.003765 
L 222.254839 321.003765 
L 222.287022 319.381368 
L 223.674164 319.381368 
L 223.674164 318.791406 
L 223.989277 318.791406 
L 223.989277 318.348934 
L 224.387997 318.348934 
L 224.387997 317.611481 
L 224.894485 317.611481 
L 224.894485 317.3165 
L 225.860555 317.3165 
L 225.860555 317.169009 
L 226.159995 317.169009 
L 226.200518 315.546613 
L 226.308223 315.546613 
L 226.308223 315.251631 
L 226.495464 315.251631 
L 226.561958 314.219197 
L 226.70755 314.219197 
L 226.70755 313.629235 
L 228.298592 313.629235 
L 228.372184 312.44931 
L 228.567252 312.44931 
L 228.567252 312.301819 
L 228.928475 312.301819 
L 228.940416 310.974404 
L 229.071344 310.974404 
L 229.071344 310.826913 
L 229.35437 310.826913 
L 229.35437 309.941969 
L 229.737766 309.941969 
L 229.737766 309.499497 
L 230.762132 309.499497 
L 230.762132 308.467063 
L 230.981105 308.467063 
L 231.078948 303.747364 
L 231.251838 303.747364 
L 231.359219 301.092533 
L 231.709956 301.092533 
L 231.709956 300.797551 
L 231.930319 300.797551 
L 231.930319 300.35508 
L 232.096767 300.35508 
L 232.096767 299.912608 
L 232.272269 299.912608 
L 232.272269 299.470136 
L 232.710127 299.470136 
L 232.770547 298.585192 
L 232.910894 298.585192 
L 232.910894 298.290211 
L 233.773438 298.290211 
L 233.773438 298.14272 
L 234.164205 298.14272 
L 234.164205 297.99523 
L 234.501771 297.99523 
L 234.520376 297.110286 
L 235.016937 297.110286 
L 235.016937 296.962796 
L 235.234136 296.962796 
L 235.234136 296.667814 
L 235.943248 296.667814 
L 235.943248 296.520324 
L 236.272349 296.520324 
L 236.272349 295.63538 
L 236.460688 295.63538 
L 236.511778 293.12804 
L 236.857805 293.12804 
L 236.857805 292.390587 
L 236.983072 292.390587 
L 236.983072 292.243096 
L 237.792672 292.243096 
L 237.792672 291.800624 
L 237.960696 291.800624 
L 237.960696 291.653134 
L 238.135377 291.653134 
L 238.135377 290.91568 
L 238.426111 290.91568 
L 238.426111 290.325718 
L 239.957186 290.325718 
L 239.957186 286.933434 
L 240.102503 286.933434 
L 240.102503 286.638453 
L 241.45145 286.638453 
L 241.45145 286.343472 
L 242.671963 286.343472 
L 242.671963 286.195981 
L 243.445937 286.195981 
L 243.445937 285.606018 
L 243.632219 285.606018 
L 243.632219 285.458528 
L 244.398071 285.458528 
L 244.398071 284.573584 
L 244.87104 284.573584 
L 244.87104 284.426094 
L 245.10961 284.426094 
L 245.10961 284.131112 
L 245.299795 284.131112 
L 245.299795 283.836131 
L 245.776721 283.836131 
L 245.86642 283.098678 
L 246.172043 283.098678 
L 246.172043 282.508716 
L 246.298619 282.508716 
L 246.331522 282.213734 
L 246.636294 282.213734 
L 246.636294 281.328791 
L 246.813964 281.328791 
L 246.824687 279.116432 
L 247.40664 279.116432 
L 247.40664 278.968941 
L 247.6249 278.968941 
L 247.630071 278.231488 
L 247.983994 278.231488 
L 248.085541 277.641525 
L 248.292279 277.641525 
L 248.292279 276.904072 
L 248.744413 276.904072 
L 248.744413 276.461601 
L 248.979264 276.461601 
L 248.979264 276.31411 
L 249.148966 276.31411 
L 249.148966 275.724148 
L 249.479793 275.724148 
L 249.584251 275.134185 
L 249.702364 275.134185 
L 249.702364 274.986694 
L 250.457519 274.986694 
L 250.457519 274.544223 
L 250.593764 274.544223 
L 250.593764 273.95426 
L 250.75617 273.95426 
L 250.75617 273.659279 
L 250.904011 273.659279 
L 250.904011 273.364298 
L 251.306696 273.364298 
L 251.416064 272.921826 
L 251.420428 272.921826 
L 251.503175 271.59441 
L 251.546603 271.59441 
L 251.546603 271.44692 
L 251.68932 271.44692 
L 251.68932 271.151939 
L 251.848259 271.151939 
L 251.848259 271.004448 
L 252.103618 271.004448 
L 252.103618 270.709467 
L 252.725412 270.709467 
L 252.725412 270.414486 
L 252.873083 270.414486 
L 252.873083 269.677032 
L 253.10087 269.677032 
L 253.197786 269.08707 
L 253.754901 269.08707 
L 253.778469 268.054636 
L 253.938859 268.054636 
L 253.938859 267.759655 
L 254.458976 267.759655 
L 254.5426 267.022201 
L 254.682538 267.022201 
L 254.682538 266.874711 
L 255.435084 266.874711 
L 255.435084 264.36737 
L 256.194831 264.36737 
L 256.194831 264.072389 
L 257.247792 264.072389 
L 257.348401 263.777408 
L 257.766078 263.777408 
L 257.766078 263.482427 
L 257.985036 263.482427 
L 257.985036 263.334936 
L 258.585039 263.334936 
L 258.585039 263.187446 
L 258.758486 263.187446 
L 258.849401 262.597483 
L 259.023919 262.597483 
L 259.132305 261.86003 
L 259.469561 261.86003 
L 259.469561 261.417558 
L 259.807796 261.417558 
L 259.807796 261.270068 
L 259.989881 261.270068 
L 259.989881 260.090143 
L 260.320385 260.090143 
L 260.320385 259.942652 
L 260.764115 259.942652 
L 260.850097 258.467746 
L 261.235782 258.467746 
L 261.297551 257.730293 
L 261.381507 257.730293 
L 261.48184 256.255387 
L 261.573417 256.255387 
L 261.573417 255.960406 
L 261.824021 255.960406 
L 261.903296 255.370443 
L 261.946914 255.370443 
L 261.946914 254.63299 
L 262.063717 254.63299 
L 262.163736 254.190518 
L 262.324982 254.190518 
L 262.324982 253.895537 
L 262.720445 253.895537 
L 262.820191 252.863103 
L 262.961173 252.863103 
L 262.961173 252.715612 
L 263.327712 252.715612 
L 263.399283 251.978159 
L 263.503671 251.978159 
L 263.503671 251.830669 
L 263.898949 251.830669 
L 263.898949 251.535687 
L 264.48999 251.535687 
L 264.48999 250.650744 
L 265.714724 250.650744 
L 265.714724 250.355762 
L 266.638633 250.355762 
L 266.638633 250.208272 
L 266.823295 250.208272 
L 266.823295 249.913291 
L 266.94556 249.913291 
L 267.021637 248.880856 
L 267.351194 248.880856 
L 267.351194 248.733366 
L 267.627438 248.733366 
L 267.627438 248.438384 
L 267.993991 248.438384 
L 267.993991 248.290894 
L 268.231634 248.290894 
L 268.24191 247.848422 
L 268.624865 247.848422 
L 268.697454 246.815988 
L 268.945692 246.815988 
L 269.0351 246.521007 
L 269.120201 246.521007 
L 269.161645 246.226025 
L 269.600924 246.226025 
L 269.674268 245.931044 
L 269.778081 245.931044 
L 269.778081 245.783553 
L 269.976668 245.783553 
L 269.976668 245.636063 
L 270.090439 245.636063 
L 270.101784 245.193591 
L 270.392892 245.193591 
L 270.472983 244.603629 
L 270.914803 244.603629 
L 270.914803 244.456138 
L 271.839616 244.456138 
L 271.839616 244.161157 
L 272.545394 244.161157 
L 272.638397 243.423704 
L 272.839979 243.423704 
L 272.839979 243.128722 
L 273.023178 243.128722 
L 273.094386 242.833741 
L 273.308294 242.833741 
L 273.308294 242.096288 
L 273.59305 242.096288 
L 273.59305 241.948798 
L 273.738095 241.948798 
L 273.786234 241.063854 
L 274.003175 241.063854 
L 274.003175 240.916363 
L 274.407463 240.916363 
L 274.474398 240.621382 
L 274.624657 240.621382 
L 274.624657 240.473891 
L 274.853517 240.473891 
L 274.911511 239.588948 
L 274.993665 239.588948 
L 275.030081 239.146476 
L 275.545622 239.146476 
L 275.545622 238.998985 
L 275.898382 238.998985 
L 275.898382 238.851495 
L 276.860256 238.851495 
L 276.860256 238.704004 
L 277.21226 238.704004 
L 277.287756 238.261532 
L 277.327461 238.261532 
L 277.327461 237.966551 
L 277.451594 237.966551 
L 277.451594 237.67157 
L 277.600731 237.67157 
L 277.600731 237.524079 
L 277.833286 237.524079 
L 277.833286 237.229098 
L 278.217767 237.229098 
L 278.217767 237.081607 
L 278.40234 237.081607 
L 278.40234 236.786626 
L 278.516766 236.786626 
L 278.516766 236.344154 
L 278.714326 236.344154 
L 278.816934 235.901683 
L 279.148452 235.901683 
L 279.218946 235.459211 
L 279.676736 235.459211 
L 279.676736 235.31172 
L 280.591111 235.31172 
L 280.591111 235.164229 
L 281.070525 235.164229 
L 281.167489 234.721758 
L 281.27206 234.721758 
L 281.27206 234.574267 
L 281.594172 234.574267 
L 281.594172 234.131795 
L 281.891641 234.131795 
L 281.919501 233.394342 
L 282.133417 233.394342 
L 282.173092 232.95187 
L 282.340931 232.95187 
L 282.428191 232.214417 
L 282.770644 232.214417 
L 282.770644 231.919436 
L 283.161715 231.919436 
L 283.161715 231.771945 
L 284.41429 231.771945 
L 284.41429 231.624455 
L 284.533491 231.624455 
L 284.533491 231.476964 
L 284.812111 231.476964 
L 284.812111 231.181983 
L 285.069897 231.181983 
L 285.069897 231.034492 
L 285.279753 231.034492 
L 285.31422 230.44453 
L 285.475313 230.44453 
L 285.516116 230.149549 
L 285.78188 230.149549 
L 285.78188 230.002058 
L 286.175608 230.002058 
L 286.175608 229.854567 
L 287.22564 229.854567 
L 287.273889 229.264605 
L 287.378798 229.264605 
L 287.378798 228.969624 
L 287.511847 228.969624 
L 287.511847 228.822133 
L 287.851718 228.822133 
L 287.851718 228.674643 
L 288.037101 228.674643 
L 288.037101 228.527152 
L 288.483148 228.527152 
L 288.483148 228.379661 
L 289.902253 228.379661 
L 289.987781 228.08468 
L 290.344227 228.08468 
L 290.451657 227.642208 
L 290.491147 227.642208 
L 290.491147 227.494718 
L 290.64615 227.494718 
L 290.64615 227.199736 
L 290.889704 227.199736 
L 290.891194 226.904755 
L 292.045816 226.904755 
L 292.105186 226.609774 
L 292.169326 226.609774 
L 292.246613 226.314793 
L 292.726778 226.314793 
L 292.726778 226.019812 
L 293.348235 226.019812 
L 293.348235 225.872321 
L 294.881989 225.872321 
L 294.881989 225.72483 
L 295.0218 225.72483 
L 295.044089 225.429849 
L 296.057875 225.429849 
L 296.111624 225.134868 
L 296.447127 225.134868 
L 296.447127 224.987377 
L 296.863392 224.987377 
L 296.863392 224.839887 
L 297.103948 224.839887 
L 297.103948 224.692396 
L 298.159799 224.692396 
L 298.159799 224.544905 
L 298.545601 224.544905 
L 298.545601 224.397415 
L 299.75295 224.397415 
L 299.75295 224.249924 
L 301.098871 224.249924 
L 301.098871 224.102434 
L 301.325635 224.102434 
L 301.325635 223.954943 
L 302.499404 223.954943 
L 302.499404 223.807452 
L 302.72825 223.807452 
L 302.72825 223.659962 
L 302.928268 223.659962 
L 302.928268 223.512471 
L 303.64826 223.512471 
L 303.64826 223.364981 
L 304.018169 223.364981 
L 304.018169 223.21749 
L 304.901876 223.21749 
L 304.901876 222.922509 
L 305.480185 222.922509 
L 305.480185 222.775018 
L 306.068087 222.775018 
L 306.134096 222.480037 
L 306.240432 222.480037 
L 306.240432 222.332546 
L 306.512781 222.332546 
L 306.520556 222.037565 
L 309.351733 222.037565 
L 309.351733 221.890074 
L 445.2 221.890074 
L 445.2 221.890074 
" style="fill:none;stroke:#008000;stroke-linecap:square;stroke-width:1.5;"/>
   </g>
   <g id="line2d_8">
    <defs>
     <path d="M -0 6 
L 6 -6 
L -6 -6 
z
" id="mfb72bf6b66" style="stroke:#008000;stroke-linejoin:miter;stroke-width:1.5;"/>
    </defs>
    <g>
     <use style="fill:none;stroke:#008000;stroke-linejoin:miter;stroke-width:1.5;" x="60.6623354716" xlink:href="#mfb72bf6b66" y="338.260166652"/>
     <use style="fill:none;stroke:#008000;stroke-linejoin:miter;stroke-width:1.5;" x="226.159994825" xlink:href="#mfb72bf6b66" y="317.169009261"/>
     <use style="fill:none;stroke:#008000;stroke-linejoin:miter;stroke-width:1.5;" x="251.43351357" xlink:href="#mfb72bf6b66" y="272.036882255"/>
     <use style="fill:none;stroke:#008000;stroke-linejoin:miter;stroke-width:1.5;" x="309.351732591" xlink:href="#mfb72bf6b66" y="222.037565082"/>
     <use style="fill:none;stroke:#008000;stroke-linejoin:miter;stroke-width:1.5;" x="309.351732591" xlink:href="#mfb72bf6b66" y="221.890074471"/>
     <use style="fill:none;stroke:#008000;stroke-linejoin:miter;stroke-width:1.5;" x="445.2" xlink:href="#mfb72bf6b66" y="221.890074471"/>
    </g>
   </g>
   <g id="line2d_9"/>
   <g id="line2d_10">
    <path clip-path="url(#pc5887f66e2)" d="M 239.949895 290.325718 
" style="fill:none;stroke:#008000;stroke-linecap:square;"/>
    <defs>
     <path d="M -12 12 
L 12 -12 
M -12 -12 
L 12 12 
" id="m2b8ea8136d" style="stroke:#008000;stroke-width:3.0;"/>
    </defs>
    <g clip-path="url(#pc5887f66e2)">
     <use style="fill:#008000;stroke:#008000;stroke-width:3.0;" x="239.949895307" xlink:href="#m2b8ea8136d" y="290.325718035"/>
    </g>
   </g>
   <g id="line2d_11">
    <defs>
     <path d="M 0 1.5 
C 0.397805 1.5 0.77937 1.341951 1.06066 1.06066 
C 1.341951 0.77937 1.5 0.397805 1.5 0 
C 1.5 -0.397805 1.341951 -0.77937 1.06066 -1.06066 
C 0.77937 -1.341951 0.397805 -1.5 0 -1.5 
C -0.397805 -1.5 -0.77937 -1.341951 -1.06066 -1.06066 
C -1.341951 -0.77937 -1.5 -0.397805 -1.5 0 
C -1.5 0.397805 -1.341951 0.77937 -1.06066 1.06066 
C -0.77937 1.341951 -0.397805 1.5 0 1.5 
z
" id="m819fd2f801" style="stroke:#0000ff;stroke-width:0.5;"/>
    </defs>
    <g>
     <use style="fill:#0000ff;stroke:#0000ff;stroke-width:0.5;" x="306.117141099" xlink:href="#m819fd2f801" y="291.210661702"/>
     <use style="fill:#0000ff;stroke:#0000ff;stroke-width:0.5;" x="306.117141099" xlink:href="#m819fd2f801" y="291.210661702"/>
    </g>
   </g>
   <g id="line2d_12">
    <path d="M 49.252971 359.056343 
L 49.252971 351.534322 
L 200.273678 351.534322 
L 200.273678 350.944359 
L 202.58034 350.944359 
L 202.58034 350.354397 
L 210.797113 350.354397 
L 210.797113 350.206906 
L 218.659976 350.206906 
L 218.659976 349.469453 
L 218.885814 349.469453 
L 218.885814 349.174472 
L 219.637017 349.174472 
L 219.637017 348.879491 
L 220.131225 348.879491 
L 220.131225 348.437019 
L 222.315948 348.437019 
L 222.315948 348.289528 
L 222.802031 348.289528 
L 222.802031 347.847056 
L 222.943007 347.847056 
L 222.943007 347.699566 
L 223.05515 347.699566 
L 223.05515 347.109603 
L 224.235258 347.109603 
L 224.235258 346.962113 
L 224.551326 346.962113 
L 224.638335 344.749754 
L 225.314043 344.749754 
L 225.314043 344.602263 
L 226.503454 344.602263 
L 226.535384 342.832376 
L 226.638843 342.832376 
L 226.638843 342.242413 
L 227.746342 342.242413 
L 227.776545 340.914998 
L 228.851903 340.914998 
L 228.851903 340.620016 
L 229.187347 340.620016 
L 229.243945 340.325035 
L 229.822843 340.325035 
L 229.822843 339.882563 
L 230.028446 339.882563 
L 230.12375 339.14511 
L 230.30641 339.14511 
L 230.30641 338.99762 
L 230.567643 338.99762 
L 230.567643 338.702638 
L 230.924378 338.702638 
L 230.924378 338.407657 
L 232.444362 338.407657 
L 232.444362 338.260167 
L 232.862874 338.260167 
L 232.862874 338.112676 
L 233.018562 338.112676 
L 233.107891 337.522714 
L 233.543426 337.522714 
L 233.648094 335.900317 
L 233.976347 335.900317 
L 233.976347 335.310354 
L 234.198193 335.310354 
L 234.198193 335.015373 
L 234.944065 335.015373 
L 234.944065 334.720392 
L 235.205298 334.720392 
L 235.205298 332.360542 
L 235.383139 332.360542 
L 235.383139 331.475599 
L 235.792677 331.475599 
L 235.792677 331.180617 
L 235.981604 331.180617 
L 235.981604 330.885636 
L 236.508376 330.885636 
L 236.508376 330.443164 
L 236.787347 330.443164 
L 236.802464 329.558221 
L 236.907996 329.558221 
L 236.907996 329.115749 
L 237.067855 329.115749 
L 237.162232 327.640843 
L 237.599083 327.640843 
L 237.599083 327.345861 
L 237.783032 327.345861 
L 237.783032 326.755899 
L 237.97026 326.755899 
L 237.97026 326.165937 
L 239.76979 326.165937 
L 239.76979 325.133502 
L 243.284482 325.133502 
L 243.284482 324.986012 
L 243.635929 324.986012 
L 243.635929 324.69103 
L 245.162794 324.69103 
L 245.162794 324.54354 
L 247.099565 324.54354 
L 247.163008 324.248559 
L 247.377377 324.248559 
L 247.377377 324.101068 
L 248.18461 324.101068 
L 248.18461 323.806087 
L 248.338407 323.806087 
L 248.419402 322.773652 
L 248.91395 322.773652 
L 248.940293 322.18369 
L 249.17021 322.18369 
L 249.17021 322.036199 
L 249.586146 322.036199 
L 249.597511 321.593728 
L 250.047435 321.593728 
L 250.047435 321.446237 
L 250.600102 321.446237 
L 250.600102 321.151256 
L 250.942379 321.151256 
L 251.014475 320.118821 
L 251.118205 320.118821 
L 251.118205 319.971331 
L 251.88504 319.971331 
L 251.88504 319.82384 
L 252.061261 319.82384 
L 252.165316 319.233878 
L 252.351906 319.233878 
L 252.397058 318.348934 
L 252.636339 318.348934 
L 252.636339 318.053953 
L 252.966105 318.053953 
L 252.966105 317.611481 
L 253.083056 317.611481 
L 253.163106 316.431556 
L 253.348781 316.431556 
L 253.435064 315.546613 
L 253.807503 315.546613 
L 253.863893 314.661669 
L 253.938859 314.661669 
L 253.983251 313.776725 
L 254.190027 313.776725 
L 254.277734 312.744291 
L 254.367392 312.744291 
L 254.367392 312.5968 
L 255.249127 312.5968 
L 255.249127 312.154328 
L 257.265935 312.154328 
L 257.265935 312.006838 
L 258.108274 312.006838 
L 258.108274 311.859347 
L 259.213712 311.859347 
L 259.250618 311.269385 
L 259.375642 311.269385 
L 259.375642 311.121894 
L 259.850914 311.121894 
L 259.942265 310.679422 
L 259.990476 310.679422 
L 259.990476 310.384441 
L 260.28638 310.384441 
L 260.302216 309.941969 
L 260.440743 309.941969 
L 260.440743 309.646988 
L 260.699699 309.646988 
L 260.722151 309.204516 
L 260.97447 309.204516 
L 260.97447 309.057026 
L 261.301476 309.057026 
L 261.314928 308.762044 
L 261.504075 308.762044 
L 261.57231 308.319573 
L 261.726317 308.319573 
L 261.726317 308.172082 
L 262.296579 308.172082 
L 262.296579 308.024591 
L 262.415307 308.024591 
L 262.444091 307.72961 
L 262.534998 307.72961 
L 262.596985 307.287138 
L 262.884004 307.287138 
L 262.935654 306.549685 
L 263.055706 306.549685 
L 263.055706 306.254704 
L 263.353811 306.254704 
L 263.439568 305.959723 
L 263.46859 305.959723 
L 263.46859 305.517251 
L 263.661613 305.517251 
L 263.661613 304.927289 
L 264.304514 304.927289 
L 264.304514 304.779798 
L 267.024241 304.779798 
L 267.050262 304.484817 
L 267.475289 304.484817 
L 267.574579 304.189835 
L 267.896135 304.189835 
L 267.896135 304.042345 
L 268.076937 304.042345 
L 268.076937 303.894854 
L 268.279682 303.894854 
L 268.279682 303.747364 
L 268.525683 303.747364 
L 268.525683 303.599873 
L 268.679732 303.599873 
L 268.759371 303.157401 
L 269.110718 303.157401 
L 269.110718 303.009911 
L 269.327829 303.009911 
L 269.327829 302.86242 
L 269.672726 302.86242 
L 269.71085 302.272458 
L 269.799552 302.272458 
L 269.840903 301.977476 
L 270.023763 301.977476 
L 270.023763 301.682495 
L 270.206268 301.682495 
L 270.293028 300.50257 
L 270.729567 300.50257 
L 270.729567 300.35508 
L 272.819903 300.35508 
L 272.819903 300.207589 
L 273.14888 300.207589 
L 273.14888 299.912608 
L 273.390024 299.912608 
L 273.390024 299.765117 
L 273.967906 299.765117 
L 273.967906 299.617627 
L 274.114335 299.617627 
L 274.151266 299.322645 
L 274.42772 299.322645 
L 274.42772 299.175155 
L 274.599014 299.175155 
L 274.599014 298.732683 
L 274.871847 298.732683 
L 274.972394 298.437702 
L 275.295632 298.437702 
L 275.364741 297.552758 
L 275.71329 297.552758 
L 275.71329 297.257777 
L 277.400933 297.257777 
L 277.400933 297.110286 
L 277.866426 297.110286 
L 277.866426 296.815305 
L 278.182248 296.815305 
L 278.182248 296.667814 
L 279.111354 296.667814 
L 279.111354 296.372833 
L 279.466174 296.372833 
L 279.495241 295.487889 
L 281.200407 295.487889 
L 281.200407 295.340399 
L 282.097869 295.340399 
L 282.097869 295.045418 
L 282.437986 295.045418 
L 282.437986 294.897927 
L 282.630409 294.897927 
L 282.630409 294.750436 
L 282.827604 294.750436 
L 282.873751 294.455455 
L 282.954918 294.455455 
L 282.954918 294.307965 
L 284.487078 294.307965 
L 284.487078 294.160474 
L 285.224688 294.160474 
L 285.224688 294.012983 
L 285.860436 294.012983 
L 285.860436 293.865493 
L 285.99335 293.865493 
L 285.99335 293.570511 
L 287.452986 293.570511 
L 287.452986 293.423021 
L 288.566006 293.423021 
L 288.566006 293.12804 
L 290.06293 293.12804 
L 290.06293 292.980549 
L 291.003448 292.980549 
L 291.020793 292.685568 
L 292.193806 292.685568 
L 292.215309 292.390587 
L 292.610461 292.390587 
L 292.610461 292.243096 
L 293.098213 292.243096 
L 293.165357 291.948115 
L 298.532901 291.948115 
L 298.532901 291.800624 
L 300.921591 291.800624 
L 300.921591 291.653134 
L 301.583484 291.653134 
L 301.583484 291.505643 
L 302.943915 291.505643 
L 302.943915 291.358152 
L 306.117141 291.358152 
L 306.117141 291.210662 
L 445.2 291.210662 
L 445.2 291.210662 
" style="fill:none;stroke:#0000ff;stroke-linecap:square;stroke-width:1.5;"/>
   </g>
   <g id="line2d_13">
    <defs>
     <path d="M 0 -6 
L -1.347084 -1.854102 
L -5.706339 -1.854102 
L -2.179628 0.708204 
L -3.526712 4.854102 
L -0 2.291796 
L 3.526712 4.854102 
L 2.179628 0.708204 
L 5.706339 -1.854102 
L 1.347084 -1.854102 
z
" id="ma5064b73ba" style="stroke:#0000ff;stroke-linejoin:bevel;stroke-width:1.5;"/>
    </defs>
    <g>
     <use style="fill:none;stroke:#0000ff;stroke-linejoin:bevel;stroke-width:1.5;" x="49.2529712056" xlink:href="#ma5064b73ba" y="351.534321654"/>
     <use style="fill:none;stroke:#0000ff;stroke-linejoin:bevel;stroke-width:1.5;" x="248.91394954" xlink:href="#ma5064b73ba" y="322.773652484"/>
     <use style="fill:none;stroke:#0000ff;stroke-linejoin:bevel;stroke-width:1.5;" x="292.215308792" xlink:href="#ma5064b73ba" y="292.390586591"/>
     <use style="fill:none;stroke:#0000ff;stroke-linejoin:bevel;stroke-width:1.5;" x="306.117141099" xlink:href="#ma5064b73ba" y="291.210661702"/>
     <use style="fill:none;stroke:#0000ff;stroke-linejoin:bevel;stroke-width:1.5;" x="306.117141099" xlink:href="#ma5064b73ba" y="291.210661702"/>
     <use style="fill:none;stroke:#0000ff;stroke-linejoin:bevel;stroke-width:1.5;" x="445.2" xlink:href="#ma5064b73ba" y="291.210661702"/>
    </g>
   </g>
   <g id="line2d_14"/>
   <g id="line2d_15">
    <path clip-path="url(#pc5887f66e2)" d="M 239.765379 326.165937 
" style="fill:none;stroke:#0000ff;stroke-linecap:square;"/>
    <defs>
     <path d="M -12 12 
L 12 -12 
M -12 -12 
L 12 12 
" id="ma46e0d6e58" style="stroke:#0000ff;stroke-width:3.0;"/>
    </defs>
    <g clip-path="url(#pc5887f66e2)">
     <use style="fill:#0000ff;stroke:#0000ff;stroke-width:3.0;" x="239.7653789" xlink:href="#ma46e0d6e58" y="326.16593654"/>
    </g>
   </g>
   <g id="line2d_16">
    <path d="M 445.2 291.210662 
L 484.8 352.212778 
" style="fill:none;stroke:#0000ff;stroke-linecap:square;stroke-width:1.5;"/>
    <g>
     <use style="fill:none;stroke:#0000ff;stroke-linejoin:bevel;stroke-width:1.5;" x="445.2" xlink:href="#ma5064b73ba" y="291.210661702"/>
     <use style="fill:none;stroke:#0000ff;stroke-linejoin:bevel;stroke-width:1.5;" x="484.8" xlink:href="#ma5064b73ba" y="352.212778465"/>
    </g>
   </g>
   <g id="line2d_17">
    <path d="M 445.2 221.890074 
L 484.8 187.967234 
" style="fill:none;stroke:#008000;stroke-linecap:square;stroke-width:1.5;"/>
    <g>
     <use style="fill:none;stroke:#008000;stroke-linejoin:miter;stroke-width:1.5;" x="445.2" xlink:href="#mfb72bf6b66" y="221.890074471"/>
     <use style="fill:none;stroke:#008000;stroke-linejoin:miter;stroke-width:1.5;" x="484.8" xlink:href="#mfb72bf6b66" y="187.967233911"/>
    </g>
   </g>
   <g id="line2d_18">
    <path d="M 445.2 211.565732 
L 484.8 23.721689 
" style="fill:none;stroke:#00bfbf;stroke-linecap:square;stroke-width:1.5;"/>
    <g>
     <use style="fill:none;stroke:#00bfbf;stroke-width:1.5;" x="445.2" xlink:href="#m8eb2e7bed0" y="211.565731692"/>
     <use style="fill:none;stroke:#00bfbf;stroke-width:1.5;" x="484.8" xlink:href="#m8eb2e7bed0" y="23.7216893564"/>
    </g>
   </g>
   <g id="line2d_19">
    <path d="M 445.2 359.056343 
L 445.2 16.878125 
" style="fill:none;stroke:#000000;stroke-linecap:square;"/>
   </g>
   <g id="patch_3">
    <path d="M 85.2 13.456343 
L 531.6 13.456343 
" style="fill:none;stroke:#000000;stroke-linecap:square;stroke-linejoin:miter;"/>
   </g>
   <g id="patch_4">
    <path d="M 531.6 359.056343 
L 531.6 13.456343 
" style="fill:none;stroke:#000000;stroke-linecap:square;stroke-linejoin:miter;"/>
   </g>
   <g id="patch_5">
    <path d="M 85.2 359.056343 
L 531.6 359.056343 
" style="fill:none;stroke:#000000;stroke-linecap:square;stroke-linejoin:miter;"/>
   </g>
   <g id="patch_6">
    <path d="M 85.2 359.056343 
L 85.2 13.456343 
" style="fill:none;stroke:#000000;stroke-linecap:square;stroke-linejoin:miter;"/>
   </g>
   <g id="matplotlib.axis_1">
    <g id="xtick_1">
     <g id="line2d_20">
      <path clip-path="url(#pc5887f66e2)" d="M 85.2 359.056343 
L 85.2 13.456343 
" style="fill:none;stroke:#000000;stroke-dasharray:1.000000,3.000000;stroke-dashoffset:0.0;stroke-width:0.5;"/>
     </g>
     <g id="line2d_21">
      <defs>
       <path d="M 0 0 
L 0 -4 
" id="m867114fbc4" style="stroke:#000000;stroke-width:0.5;"/>
      </defs>
      <g>
       <use style="stroke:#000000;stroke-width:0.5;" x="85.2" xlink:href="#m867114fbc4" y="359.056342822"/>
      </g>
     </g>
     <g id="line2d_22">
      <defs>
       <path d="M 0 0 
L 0 4 
" id="mef5a823bbe" style="stroke:#000000;stroke-width:0.5;"/>
      </defs>
      <g>
       <use style="stroke:#000000;stroke-width:0.5;" x="85.2" xlink:href="#mef5a823bbe" y="13.4563428218"/>
      </g>
     </g>
     <g id="text_1">
      <!-- 0 -->
      <defs>
       <path d="M 31.78125 66.40625 
Q 24.171875 66.40625 20.328125 58.90625 
Q 16.5 51.421875 16.5 36.375 
Q 16.5 21.390625 20.328125 13.890625 
Q 24.171875 6.390625 31.78125 6.390625 
Q 39.453125 6.390625 43.28125 13.890625 
Q 47.125 21.390625 47.125 36.375 
Q 47.125 51.421875 43.28125 58.90625 
Q 39.453125 66.40625 31.78125 66.40625 
M 31.78125 74.21875 
Q 44.046875 74.21875 50.515625 64.515625 
Q 56.984375 54.828125 56.984375 36.375 
Q 56.984375 17.96875 50.515625 8.265625 
Q 44.046875 -1.421875 31.78125 -1.421875 
Q 19.53125 -1.421875 13.0625 8.265625 
Q 6.59375 17.96875 6.59375 36.375 
Q 6.59375 54.828125 13.0625 64.515625 
Q 19.53125 74.21875 31.78125 74.21875 
" id="BitstreamVeraSans-Roman-30"/>
      </defs>
      <g transform="translate(78.8375 378.253217822)scale(0.2 -0.2)">
       <use xlink:href="#BitstreamVeraSans-Roman-30"/>
      </g>
     </g>
    </g>
    <g id="xtick_2">
     <g id="line2d_23">
      <path clip-path="url(#pc5887f66e2)" d="M 136.628571 359.056343 
L 136.628571 13.456343 
" style="fill:none;stroke:#000000;stroke-dasharray:1.000000,3.000000;stroke-dashoffset:0.0;stroke-width:0.5;"/>
     </g>
     <g id="line2d_24">
      <g>
       <use style="stroke:#000000;stroke-width:0.5;" x="136.628571429" xlink:href="#m867114fbc4" y="359.056342822"/>
      </g>
     </g>
     <g id="line2d_25">
      <g>
       <use style="stroke:#000000;stroke-width:0.5;" x="136.628571429" xlink:href="#mef5a823bbe" y="13.4563428218"/>
      </g>
     </g>
     <g id="text_2">
      <!-- 1 -->
      <defs>
       <path d="M 12.40625 8.296875 
L 28.515625 8.296875 
L 28.515625 63.921875 
L 10.984375 60.40625 
L 10.984375 69.390625 
L 28.421875 72.90625 
L 38.28125 72.90625 
L 38.28125 8.296875 
L 54.390625 8.296875 
L 54.390625 0 
L 12.40625 0 
z
" id="BitstreamVeraSans-Roman-31"/>
      </defs>
      <g transform="translate(130.266071429 378.253217822)scale(0.2 -0.2)">
       <use xlink:href="#BitstreamVeraSans-Roman-31"/>
      </g>
     </g>
    </g>
    <g id="xtick_3">
     <g id="line2d_26">
      <path clip-path="url(#pc5887f66e2)" d="M 188.057143 359.056343 
L 188.057143 13.456343 
" style="fill:none;stroke:#000000;stroke-dasharray:1.000000,3.000000;stroke-dashoffset:0.0;stroke-width:0.5;"/>
     </g>
     <g id="line2d_27">
      <g>
       <use style="stroke:#000000;stroke-width:0.5;" x="188.057142857" xlink:href="#m867114fbc4" y="359.056342822"/>
      </g>
     </g>
     <g id="line2d_28">
      <g>
       <use style="stroke:#000000;stroke-width:0.5;" x="188.057142857" xlink:href="#mef5a823bbe" y="13.4563428218"/>
      </g>
     </g>
     <g id="text_3">
      <!-- 2 -->
      <defs>
       <path d="M 19.1875 8.296875 
L 53.609375 8.296875 
L 53.609375 0 
L 7.328125 0 
L 7.328125 8.296875 
Q 12.9375 14.109375 22.625 23.890625 
Q 32.328125 33.6875 34.8125 36.53125 
Q 39.546875 41.84375 41.421875 45.53125 
Q 43.3125 49.21875 43.3125 52.78125 
Q 43.3125 58.59375 39.234375 62.25 
Q 35.15625 65.921875 28.609375 65.921875 
Q 23.96875 65.921875 18.8125 64.3125 
Q 13.671875 62.703125 7.8125 59.421875 
L 7.8125 69.390625 
Q 13.765625 71.78125 18.9375 73 
Q 24.125 74.21875 28.421875 74.21875 
Q 39.75 74.21875 46.484375 68.546875 
Q 53.21875 62.890625 53.21875 53.421875 
Q 53.21875 48.921875 51.53125 44.890625 
Q 49.859375 40.875 45.40625 35.40625 
Q 44.1875 33.984375 37.640625 27.21875 
Q 31.109375 20.453125 19.1875 8.296875 
" id="BitstreamVeraSans-Roman-32"/>
      </defs>
      <g transform="translate(181.694642857 378.253217822)scale(0.2 -0.2)">
       <use xlink:href="#BitstreamVeraSans-Roman-32"/>
      </g>
     </g>
    </g>
    <g id="xtick_4">
     <g id="line2d_29">
      <path clip-path="url(#pc5887f66e2)" d="M 239.485714 359.056343 
L 239.485714 13.456343 
" style="fill:none;stroke:#000000;stroke-dasharray:1.000000,3.000000;stroke-dashoffset:0.0;stroke-width:0.5;"/>
     </g>
     <g id="line2d_30">
      <g>
       <use style="stroke:#000000;stroke-width:0.5;" x="239.485714286" xlink:href="#m867114fbc4" y="359.056342822"/>
      </g>
     </g>
     <g id="line2d_31">
      <g>
       <use style="stroke:#000000;stroke-width:0.5;" x="239.485714286" xlink:href="#mef5a823bbe" y="13.4563428218"/>
      </g>
     </g>
     <g id="text_4">
      <!-- 3 -->
      <defs>
       <path d="M 40.578125 39.3125 
Q 47.65625 37.796875 51.625 33 
Q 55.609375 28.21875 55.609375 21.1875 
Q 55.609375 10.40625 48.1875 4.484375 
Q 40.765625 -1.421875 27.09375 -1.421875 
Q 22.515625 -1.421875 17.65625 -0.515625 
Q 12.796875 0.390625 7.625 2.203125 
L 7.625 11.71875 
Q 11.71875 9.328125 16.59375 8.109375 
Q 21.484375 6.890625 26.8125 6.890625 
Q 36.078125 6.890625 40.9375 10.546875 
Q 45.796875 14.203125 45.796875 21.1875 
Q 45.796875 27.640625 41.28125 31.265625 
Q 36.765625 34.90625 28.71875 34.90625 
L 20.21875 34.90625 
L 20.21875 43.015625 
L 29.109375 43.015625 
Q 36.375 43.015625 40.234375 45.921875 
Q 44.09375 48.828125 44.09375 54.296875 
Q 44.09375 59.90625 40.109375 62.90625 
Q 36.140625 65.921875 28.71875 65.921875 
Q 24.65625 65.921875 20.015625 65.03125 
Q 15.375 64.15625 9.8125 62.3125 
L 9.8125 71.09375 
Q 15.4375 72.65625 20.34375 73.4375 
Q 25.25 74.21875 29.59375 74.21875 
Q 40.828125 74.21875 47.359375 69.109375 
Q 53.90625 64.015625 53.90625 55.328125 
Q 53.90625 49.265625 50.4375 45.09375 
Q 46.96875 40.921875 40.578125 39.3125 
" id="BitstreamVeraSans-Roman-33"/>
      </defs>
      <g transform="translate(233.123214286 378.253217822)scale(0.2 -0.2)">
       <use xlink:href="#BitstreamVeraSans-Roman-33"/>
      </g>
     </g>
    </g>
    <g id="xtick_5">
     <g id="line2d_32">
      <path clip-path="url(#pc5887f66e2)" d="M 290.914286 359.056343 
L 290.914286 13.456343 
" style="fill:none;stroke:#000000;stroke-dasharray:1.000000,3.000000;stroke-dashoffset:0.0;stroke-width:0.5;"/>
     </g>
     <g id="line2d_33">
      <g>
       <use style="stroke:#000000;stroke-width:0.5;" x="290.914285714" xlink:href="#m867114fbc4" y="359.056342822"/>
      </g>
     </g>
     <g id="line2d_34">
      <g>
       <use style="stroke:#000000;stroke-width:0.5;" x="290.914285714" xlink:href="#mef5a823bbe" y="13.4563428218"/>
      </g>
     </g>
     <g id="text_5">
      <!-- 4 -->
      <defs>
       <path d="M 37.796875 64.3125 
L 12.890625 25.390625 
L 37.796875 25.390625 
z
M 35.203125 72.90625 
L 47.609375 72.90625 
L 47.609375 25.390625 
L 58.015625 25.390625 
L 58.015625 17.1875 
L 47.609375 17.1875 
L 47.609375 0 
L 37.796875 0 
L 37.796875 17.1875 
L 4.890625 17.1875 
L 4.890625 26.703125 
z
" id="BitstreamVeraSans-Roman-34"/>
      </defs>
      <g transform="translate(284.551785714 378.253217822)scale(0.2 -0.2)">
       <use xlink:href="#BitstreamVeraSans-Roman-34"/>
      </g>
     </g>
    </g>
    <g id="xtick_6">
     <g id="line2d_35">
      <path clip-path="url(#pc5887f66e2)" d="M 342.342857 359.056343 
L 342.342857 13.456343 
" style="fill:none;stroke:#000000;stroke-dasharray:1.000000,3.000000;stroke-dashoffset:0.0;stroke-width:0.5;"/>
     </g>
     <g id="line2d_36">
      <g>
       <use style="stroke:#000000;stroke-width:0.5;" x="342.342857143" xlink:href="#m867114fbc4" y="359.056342822"/>
      </g>
     </g>
     <g id="line2d_37">
      <g>
       <use style="stroke:#000000;stroke-width:0.5;" x="342.342857143" xlink:href="#mef5a823bbe" y="13.4563428218"/>
      </g>
     </g>
     <g id="text_6">
      <!-- 5 -->
      <defs>
       <path d="M 10.796875 72.90625 
L 49.515625 72.90625 
L 49.515625 64.59375 
L 19.828125 64.59375 
L 19.828125 46.734375 
Q 21.96875 47.46875 24.109375 47.828125 
Q 26.265625 48.1875 28.421875 48.1875 
Q 40.625 48.1875 47.75 41.5 
Q 54.890625 34.8125 54.890625 23.390625 
Q 54.890625 11.625 47.5625 5.09375 
Q 40.234375 -1.421875 26.90625 -1.421875 
Q 22.3125 -1.421875 17.546875 -0.640625 
Q 12.796875 0.140625 7.71875 1.703125 
L 7.71875 11.625 
Q 12.109375 9.234375 16.796875 8.0625 
Q 21.484375 6.890625 26.703125 6.890625 
Q 35.15625 6.890625 40.078125 11.328125 
Q 45.015625 15.765625 45.015625 23.390625 
Q 45.015625 31 40.078125 35.4375 
Q 35.15625 39.890625 26.703125 39.890625 
Q 22.75 39.890625 18.8125 39.015625 
Q 14.890625 38.140625 10.796875 36.28125 
z
" id="BitstreamVeraSans-Roman-35"/>
      </defs>
      <g transform="translate(335.980357143 378.253217822)scale(0.2 -0.2)">
       <use xlink:href="#BitstreamVeraSans-Roman-35"/>
      </g>
     </g>
    </g>
    <g id="xtick_7">
     <g id="line2d_38">
      <path clip-path="url(#pc5887f66e2)" d="M 393.771429 359.056343 
L 393.771429 13.456343 
" style="fill:none;stroke:#000000;stroke-dasharray:1.000000,3.000000;stroke-dashoffset:0.0;stroke-width:0.5;"/>
     </g>
     <g id="line2d_39">
      <g>
       <use style="stroke:#000000;stroke-width:0.5;" x="393.771428571" xlink:href="#m867114fbc4" y="359.056342822"/>
      </g>
     </g>
     <g id="line2d_40">
      <g>
       <use style="stroke:#000000;stroke-width:0.5;" x="393.771428571" xlink:href="#mef5a823bbe" y="13.4563428218"/>
      </g>
     </g>
     <g id="text_7">
      <!-- 6 -->
      <defs>
       <path d="M 33.015625 40.375 
Q 26.375 40.375 22.484375 35.828125 
Q 18.609375 31.296875 18.609375 23.390625 
Q 18.609375 15.53125 22.484375 10.953125 
Q 26.375 6.390625 33.015625 6.390625 
Q 39.65625 6.390625 43.53125 10.953125 
Q 47.40625 15.53125 47.40625 23.390625 
Q 47.40625 31.296875 43.53125 35.828125 
Q 39.65625 40.375 33.015625 40.375 
M 52.59375 71.296875 
L 52.59375 62.3125 
Q 48.875 64.0625 45.09375 64.984375 
Q 41.3125 65.921875 37.59375 65.921875 
Q 27.828125 65.921875 22.671875 59.328125 
Q 17.53125 52.734375 16.796875 39.40625 
Q 19.671875 43.65625 24.015625 45.921875 
Q 28.375 48.1875 33.59375 48.1875 
Q 44.578125 48.1875 50.953125 41.515625 
Q 57.328125 34.859375 57.328125 23.390625 
Q 57.328125 12.15625 50.6875 5.359375 
Q 44.046875 -1.421875 33.015625 -1.421875 
Q 20.359375 -1.421875 13.671875 8.265625 
Q 6.984375 17.96875 6.984375 36.375 
Q 6.984375 53.65625 15.1875 63.9375 
Q 23.390625 74.21875 37.203125 74.21875 
Q 40.921875 74.21875 44.703125 73.484375 
Q 48.484375 72.75 52.59375 71.296875 
" id="BitstreamVeraSans-Roman-36"/>
      </defs>
      <g transform="translate(387.408928571 378.253217822)scale(0.2 -0.2)">
       <use xlink:href="#BitstreamVeraSans-Roman-36"/>
      </g>
     </g>
    </g>
    <g id="xtick_8">
     <g id="line2d_41">
      <path clip-path="url(#pc5887f66e2)" d="M 445.2 359.056343 
L 445.2 13.456343 
" style="fill:none;stroke:#000000;stroke-dasharray:1.000000,3.000000;stroke-dashoffset:0.0;stroke-width:0.5;"/>
     </g>
     <g id="line2d_42">
      <g>
       <use style="stroke:#000000;stroke-width:0.5;" x="445.2" xlink:href="#m867114fbc4" y="359.056342822"/>
      </g>
     </g>
     <g id="line2d_43">
      <g>
       <use style="stroke:#000000;stroke-width:0.5;" x="445.2" xlink:href="#mef5a823bbe" y="13.4563428218"/>
      </g>
     </g>
     <g id="text_8">
      <!-- 7 -->
      <defs>
       <path d="M 8.203125 72.90625 
L 55.078125 72.90625 
L 55.078125 68.703125 
L 28.609375 0 
L 18.3125 0 
L 43.21875 64.59375 
L 8.203125 64.59375 
z
" id="BitstreamVeraSans-Roman-37"/>
      </defs>
      <g transform="translate(438.8375 378.253217822)scale(0.2 -0.2)">
       <use xlink:href="#BitstreamVeraSans-Roman-37"/>
      </g>
     </g>
    </g>
    <g id="xtick_9">
     <g id="line2d_44">
      <path clip-path="url(#pc5887f66e2)" d="M 496.628571 359.056343 
L 496.628571 13.456343 
" style="fill:none;stroke:#000000;stroke-dasharray:1.000000,3.000000;stroke-dashoffset:0.0;stroke-width:0.5;"/>
     </g>
     <g id="line2d_45">
      <g>
       <use style="stroke:#000000;stroke-width:0.5;" x="496.628571429" xlink:href="#m867114fbc4" y="359.056342822"/>
      </g>
     </g>
     <g id="line2d_46">
      <g>
       <use style="stroke:#000000;stroke-width:0.5;" x="496.628571429" xlink:href="#mef5a823bbe" y="13.4563428218"/>
      </g>
     </g>
     <g id="text_9">
      <!-- 8 -->
      <defs>
       <path d="M 31.78125 34.625 
Q 24.75 34.625 20.71875 30.859375 
Q 16.703125 27.09375 16.703125 20.515625 
Q 16.703125 13.921875 20.71875 10.15625 
Q 24.75 6.390625 31.78125 6.390625 
Q 38.8125 6.390625 42.859375 10.171875 
Q 46.921875 13.96875 46.921875 20.515625 
Q 46.921875 27.09375 42.890625 30.859375 
Q 38.875 34.625 31.78125 34.625 
M 21.921875 38.8125 
Q 15.578125 40.375 12.03125 44.71875 
Q 8.5 49.078125 8.5 55.328125 
Q 8.5 64.0625 14.71875 69.140625 
Q 20.953125 74.21875 31.78125 74.21875 
Q 42.671875 74.21875 48.875 69.140625 
Q 55.078125 64.0625 55.078125 55.328125 
Q 55.078125 49.078125 51.53125 44.71875 
Q 48 40.375 41.703125 38.8125 
Q 48.828125 37.15625 52.796875 32.3125 
Q 56.78125 27.484375 56.78125 20.515625 
Q 56.78125 9.90625 50.3125 4.234375 
Q 43.84375 -1.421875 31.78125 -1.421875 
Q 19.734375 -1.421875 13.25 4.234375 
Q 6.78125 9.90625 6.78125 20.515625 
Q 6.78125 27.484375 10.78125 32.3125 
Q 14.796875 37.15625 21.921875 38.8125 
M 18.3125 54.390625 
Q 18.3125 48.734375 21.84375 45.5625 
Q 25.390625 42.390625 31.78125 42.390625 
Q 38.140625 42.390625 41.71875 45.5625 
Q 45.3125 48.734375 45.3125 54.390625 
Q 45.3125 60.0625 41.71875 63.234375 
Q 38.140625 66.40625 31.78125 66.40625 
Q 25.390625 66.40625 21.84375 63.234375 
Q 18.3125 60.0625 18.3125 54.390625 
" id="BitstreamVeraSans-Roman-38"/>
      </defs>
      <g transform="translate(490.266071429 378.253217822)scale(0.2 -0.2)">
       <use xlink:href="#BitstreamVeraSans-Roman-38"/>
      </g>
     </g>
    </g>
    <g id="xtick_10">
     <g id="line2d_47">
      <defs>
       <path d="M 0 0 
L 0 -2 
" id="mb34ecf38f4" style="stroke:#000000;stroke-width:0.5;"/>
      </defs>
      <g>
       <use style="stroke:#000000;stroke-width:0.5;" x="100.681542634" xlink:href="#mb34ecf38f4" y="359.056342822"/>
      </g>
     </g>
     <g id="line2d_48">
      <defs>
       <path d="M 0 0 
L 0 2 
" id="m3d5c1d01a1" style="stroke:#000000;stroke-width:0.5;"/>
      </defs>
      <g>
       <use style="stroke:#000000;stroke-width:0.5;" x="100.681542634" xlink:href="#m3d5c1d01a1" y="13.4563428218"/>
      </g>
     </g>
    </g>
    <g id="xtick_11">
     <g id="line2d_49">
      <g>
       <use style="stroke:#000000;stroke-width:0.5;" x="116.163085268" xlink:href="#mb34ecf38f4" y="359.056342822"/>
      </g>
     </g>
     <g id="line2d_50">
      <g>
       <use style="stroke:#000000;stroke-width:0.5;" x="116.163085268" xlink:href="#m3d5c1d01a1" y="13.4563428218"/>
      </g>
     </g>
    </g>
    <g id="xtick_12">
     <g id="line2d_51">
      <g>
       <use style="stroke:#000000;stroke-width:0.5;" x="125.219207163" xlink:href="#mb34ecf38f4" y="359.056342822"/>
      </g>
     </g>
     <g id="line2d_52">
      <g>
       <use style="stroke:#000000;stroke-width:0.5;" x="125.219207163" xlink:href="#m3d5c1d01a1" y="13.4563428218"/>
      </g>
     </g>
    </g>
    <g id="xtick_13">
     <g id="line2d_53">
      <g>
       <use style="stroke:#000000;stroke-width:0.5;" x="131.644627902" xlink:href="#mb34ecf38f4" y="359.056342822"/>
      </g>
     </g>
     <g id="line2d_54">
      <g>
       <use style="stroke:#000000;stroke-width:0.5;" x="131.644627902" xlink:href="#m3d5c1d01a1" y="13.4563428218"/>
      </g>
     </g>
    </g>
    <g id="xtick_14">
     <g id="line2d_55">
      <g>
       <use style="stroke:#000000;stroke-width:0.5;" x="152.110114063" xlink:href="#mb34ecf38f4" y="359.056342822"/>
      </g>
     </g>
     <g id="line2d_56">
      <g>
       <use style="stroke:#000000;stroke-width:0.5;" x="152.110114063" xlink:href="#m3d5c1d01a1" y="13.4563428218"/>
      </g>
     </g>
    </g>
    <g id="xtick_15">
     <g id="line2d_57">
      <g>
       <use style="stroke:#000000;stroke-width:0.5;" x="167.591656697" xlink:href="#mb34ecf38f4" y="359.056342822"/>
      </g>
     </g>
     <g id="line2d_58">
      <g>
       <use style="stroke:#000000;stroke-width:0.5;" x="167.591656697" xlink:href="#m3d5c1d01a1" y="13.4563428218"/>
      </g>
     </g>
    </g>
    <g id="xtick_16">
     <g id="line2d_59">
      <g>
       <use style="stroke:#000000;stroke-width:0.5;" x="176.647778591" xlink:href="#mb34ecf38f4" y="359.056342822"/>
      </g>
     </g>
     <g id="line2d_60">
      <g>
       <use style="stroke:#000000;stroke-width:0.5;" x="176.647778591" xlink:href="#m3d5c1d01a1" y="13.4563428218"/>
      </g>
     </g>
    </g>
    <g id="xtick_17">
     <g id="line2d_61">
      <g>
       <use style="stroke:#000000;stroke-width:0.5;" x="183.073199331" xlink:href="#mb34ecf38f4" y="359.056342822"/>
      </g>
     </g>
     <g id="line2d_62">
      <g>
       <use style="stroke:#000000;stroke-width:0.5;" x="183.073199331" xlink:href="#m3d5c1d01a1" y="13.4563428218"/>
      </g>
     </g>
    </g>
    <g id="xtick_18">
     <g id="line2d_63">
      <g>
       <use style="stroke:#000000;stroke-width:0.5;" x="203.538685491" xlink:href="#mb34ecf38f4" y="359.056342822"/>
      </g>
     </g>
     <g id="line2d_64">
      <g>
       <use style="stroke:#000000;stroke-width:0.5;" x="203.538685491" xlink:href="#m3d5c1d01a1" y="13.4563428218"/>
      </g>
     </g>
    </g>
    <g id="xtick_19">
     <g id="line2d_65">
      <g>
       <use style="stroke:#000000;stroke-width:0.5;" x="219.020228125" xlink:href="#mb34ecf38f4" y="359.056342822"/>
      </g>
     </g>
     <g id="line2d_66">
      <g>
       <use style="stroke:#000000;stroke-width:0.5;" x="219.020228125" xlink:href="#m3d5c1d01a1" y="13.4563428218"/>
      </g>
     </g>
    </g>
    <g id="xtick_20">
     <g id="line2d_67">
      <g>
       <use style="stroke:#000000;stroke-width:0.5;" x="228.07635002" xlink:href="#mb34ecf38f4" y="359.056342822"/>
      </g>
     </g>
     <g id="line2d_68">
      <g>
       <use style="stroke:#000000;stroke-width:0.5;" x="228.07635002" xlink:href="#m3d5c1d01a1" y="13.4563428218"/>
      </g>
     </g>
    </g>
    <g id="xtick_21">
     <g id="line2d_69">
      <g>
       <use style="stroke:#000000;stroke-width:0.5;" x="234.50177076" xlink:href="#mb34ecf38f4" y="359.056342822"/>
      </g>
     </g>
     <g id="line2d_70">
      <g>
       <use style="stroke:#000000;stroke-width:0.5;" x="234.50177076" xlink:href="#m3d5c1d01a1" y="13.4563428218"/>
      </g>
     </g>
    </g>
    <g id="xtick_22">
     <g id="line2d_71">
      <g>
       <use style="stroke:#000000;stroke-width:0.5;" x="254.96725692" xlink:href="#mb34ecf38f4" y="359.056342822"/>
      </g>
     </g>
     <g id="line2d_72">
      <g>
       <use style="stroke:#000000;stroke-width:0.5;" x="254.96725692" xlink:href="#m3d5c1d01a1" y="13.4563428218"/>
      </g>
     </g>
    </g>
    <g id="xtick_23">
     <g id="line2d_73">
      <g>
       <use style="stroke:#000000;stroke-width:0.5;" x="270.448799554" xlink:href="#mb34ecf38f4" y="359.056342822"/>
      </g>
     </g>
     <g id="line2d_74">
      <g>
       <use style="stroke:#000000;stroke-width:0.5;" x="270.448799554" xlink:href="#m3d5c1d01a1" y="13.4563428218"/>
      </g>
     </g>
    </g>
    <g id="xtick_24">
     <g id="line2d_75">
      <g>
       <use style="stroke:#000000;stroke-width:0.5;" x="279.504921448" xlink:href="#mb34ecf38f4" y="359.056342822"/>
      </g>
     </g>
     <g id="line2d_76">
      <g>
       <use style="stroke:#000000;stroke-width:0.5;" x="279.504921448" xlink:href="#m3d5c1d01a1" y="13.4563428218"/>
      </g>
     </g>
    </g>
    <g id="xtick_25">
     <g id="line2d_77">
      <g>
       <use style="stroke:#000000;stroke-width:0.5;" x="285.930342188" xlink:href="#mb34ecf38f4" y="359.056342822"/>
      </g>
     </g>
     <g id="line2d_78">
      <g>
       <use style="stroke:#000000;stroke-width:0.5;" x="285.930342188" xlink:href="#m3d5c1d01a1" y="13.4563428218"/>
      </g>
     </g>
    </g>
    <g id="xtick_26">
     <g id="line2d_79">
      <g>
       <use style="stroke:#000000;stroke-width:0.5;" x="306.395828348" xlink:href="#mb34ecf38f4" y="359.056342822"/>
      </g>
     </g>
     <g id="line2d_80">
      <g>
       <use style="stroke:#000000;stroke-width:0.5;" x="306.395828348" xlink:href="#m3d5c1d01a1" y="13.4563428218"/>
      </g>
     </g>
    </g>
    <g id="xtick_27">
     <g id="line2d_81">
      <g>
       <use style="stroke:#000000;stroke-width:0.5;" x="321.877370983" xlink:href="#mb34ecf38f4" y="359.056342822"/>
      </g>
     </g>
     <g id="line2d_82">
      <g>
       <use style="stroke:#000000;stroke-width:0.5;" x="321.877370983" xlink:href="#m3d5c1d01a1" y="13.4563428218"/>
      </g>
     </g>
    </g>
    <g id="xtick_28">
     <g id="line2d_83">
      <g>
       <use style="stroke:#000000;stroke-width:0.5;" x="330.933492877" xlink:href="#mb34ecf38f4" y="359.056342822"/>
      </g>
     </g>
     <g id="line2d_84">
      <g>
       <use style="stroke:#000000;stroke-width:0.5;" x="330.933492877" xlink:href="#m3d5c1d01a1" y="13.4563428218"/>
      </g>
     </g>
    </g>
    <g id="xtick_29">
     <g id="line2d_85">
      <g>
       <use style="stroke:#000000;stroke-width:0.5;" x="337.358913617" xlink:href="#mb34ecf38f4" y="359.056342822"/>
      </g>
     </g>
     <g id="line2d_86">
      <g>
       <use style="stroke:#000000;stroke-width:0.5;" x="337.358913617" xlink:href="#m3d5c1d01a1" y="13.4563428218"/>
      </g>
     </g>
    </g>
    <g id="xtick_30">
     <g id="line2d_87">
      <g>
       <use style="stroke:#000000;stroke-width:0.5;" x="357.824399777" xlink:href="#mb34ecf38f4" y="359.056342822"/>
      </g>
     </g>
     <g id="line2d_88">
      <g>
       <use style="stroke:#000000;stroke-width:0.5;" x="357.824399777" xlink:href="#m3d5c1d01a1" y="13.4563428218"/>
      </g>
     </g>
    </g>
    <g id="xtick_31">
     <g id="line2d_89">
      <g>
       <use style="stroke:#000000;stroke-width:0.5;" x="373.305942411" xlink:href="#mb34ecf38f4" y="359.056342822"/>
      </g>
     </g>
     <g id="line2d_90">
      <g>
       <use style="stroke:#000000;stroke-width:0.5;" x="373.305942411" xlink:href="#m3d5c1d01a1" y="13.4563428218"/>
      </g>
     </g>
    </g>
    <g id="xtick_32">
     <g id="line2d_91">
      <g>
       <use style="stroke:#000000;stroke-width:0.5;" x="382.362064305" xlink:href="#mb34ecf38f4" y="359.056342822"/>
      </g>
     </g>
     <g id="line2d_92">
      <g>
       <use style="stroke:#000000;stroke-width:0.5;" x="382.362064305" xlink:href="#m3d5c1d01a1" y="13.4563428218"/>
      </g>
     </g>
    </g>
    <g id="xtick_33">
     <g id="line2d_93">
      <g>
       <use style="stroke:#000000;stroke-width:0.5;" x="388.787485045" xlink:href="#mb34ecf38f4" y="359.056342822"/>
      </g>
     </g>
     <g id="line2d_94">
      <g>
       <use style="stroke:#000000;stroke-width:0.5;" x="388.787485045" xlink:href="#m3d5c1d01a1" y="13.4563428218"/>
      </g>
     </g>
    </g>
    <g id="xtick_34">
     <g id="line2d_95">
      <g>
       <use style="stroke:#000000;stroke-width:0.5;" x="409.252971206" xlink:href="#mb34ecf38f4" y="359.056342822"/>
      </g>
     </g>
     <g id="line2d_96">
      <g>
       <use style="stroke:#000000;stroke-width:0.5;" x="409.252971206" xlink:href="#m3d5c1d01a1" y="13.4563428218"/>
      </g>
     </g>
    </g>
    <g id="xtick_35">
     <g id="line2d_97">
      <g>
       <use style="stroke:#000000;stroke-width:0.5;" x="424.73451384" xlink:href="#mb34ecf38f4" y="359.056342822"/>
      </g>
     </g>
     <g id="line2d_98">
      <g>
       <use style="stroke:#000000;stroke-width:0.5;" x="424.73451384" xlink:href="#m3d5c1d01a1" y="13.4563428218"/>
      </g>
     </g>
    </g>
    <g id="xtick_36">
     <g id="line2d_99">
      <g>
       <use style="stroke:#000000;stroke-width:0.5;" x="433.790635734" xlink:href="#mb34ecf38f4" y="359.056342822"/>
      </g>
     </g>
     <g id="line2d_100">
      <g>
       <use style="stroke:#000000;stroke-width:0.5;" x="433.790635734" xlink:href="#m3d5c1d01a1" y="13.4563428218"/>
      </g>
     </g>
    </g>
    <g id="xtick_37">
     <g id="line2d_101">
      <g>
       <use style="stroke:#000000;stroke-width:0.5;" x="440.216056474" xlink:href="#mb34ecf38f4" y="359.056342822"/>
      </g>
     </g>
     <g id="line2d_102">
      <g>
       <use style="stroke:#000000;stroke-width:0.5;" x="440.216056474" xlink:href="#m3d5c1d01a1" y="13.4563428218"/>
      </g>
     </g>
    </g>
    <g id="xtick_38">
     <g id="line2d_103">
      <g>
       <use style="stroke:#000000;stroke-width:0.5;" x="460.681542634" xlink:href="#mb34ecf38f4" y="359.056342822"/>
      </g>
     </g>
     <g id="line2d_104">
      <g>
       <use style="stroke:#000000;stroke-width:0.5;" x="460.681542634" xlink:href="#m3d5c1d01a1" y="13.4563428218"/>
      </g>
     </g>
    </g>
    <g id="xtick_39">
     <g id="line2d_105">
      <g>
       <use style="stroke:#000000;stroke-width:0.5;" x="476.163085268" xlink:href="#mb34ecf38f4" y="359.056342822"/>
      </g>
     </g>
     <g id="line2d_106">
      <g>
       <use style="stroke:#000000;stroke-width:0.5;" x="476.163085268" xlink:href="#m3d5c1d01a1" y="13.4563428218"/>
      </g>
     </g>
    </g>
    <g id="xtick_40">
     <g id="line2d_107">
      <g>
       <use style="stroke:#000000;stroke-width:0.5;" x="485.219207163" xlink:href="#mb34ecf38f4" y="359.056342822"/>
      </g>
     </g>
     <g id="line2d_108">
      <g>
       <use style="stroke:#000000;stroke-width:0.5;" x="485.219207163" xlink:href="#m3d5c1d01a1" y="13.4563428218"/>
      </g>
     </g>
    </g>
    <g id="xtick_41">
     <g id="line2d_109">
      <g>
       <use style="stroke:#000000;stroke-width:0.5;" x="491.644627902" xlink:href="#mb34ecf38f4" y="359.056342822"/>
      </g>
     </g>
     <g id="line2d_110">
      <g>
       <use style="stroke:#000000;stroke-width:0.5;" x="491.644627902" xlink:href="#m3d5c1d01a1" y="13.4563428218"/>
      </g>
     </g>
    </g>
    <g id="xtick_42">
     <g id="line2d_111">
      <g>
       <use style="stroke:#000000;stroke-width:0.5;" x="512.110114063" xlink:href="#mb34ecf38f4" y="359.056342822"/>
      </g>
     </g>
     <g id="line2d_112">
      <g>
       <use style="stroke:#000000;stroke-width:0.5;" x="512.110114063" xlink:href="#m3d5c1d01a1" y="13.4563428218"/>
      </g>
     </g>
    </g>
    <g id="xtick_43">
     <g id="line2d_113">
      <g>
       <use style="stroke:#000000;stroke-width:0.5;" x="527.591656697" xlink:href="#mb34ecf38f4" y="359.056342822"/>
      </g>
     </g>
     <g id="line2d_114">
      <g>
       <use style="stroke:#000000;stroke-width:0.5;" x="527.591656697" xlink:href="#m3d5c1d01a1" y="13.4563428218"/>
      </g>
     </g>
    </g>
    <g id="text_10">
     <!-- log10 of (# f-evals / dimension) -->
     <defs>
      <path id="BitstreamVeraSans-Roman-20"/>
      <path d="M 51.125 44 
L 36.921875 44 
L 32.8125 27.6875 
L 47.125 27.6875 
z
M 43.796875 71.78125 
L 38.71875 51.515625 
L 52.984375 51.515625 
L 58.109375 71.78125 
L 65.921875 71.78125 
L 60.890625 51.515625 
L 76.125 51.515625 
L 76.125 44 
L 58.984375 44 
L 54.984375 27.6875 
L 70.515625 27.6875 
L 70.515625 20.21875 
L 53.078125 20.21875 
L 48 0 
L 40.1875 0 
L 45.21875 20.21875 
L 30.90625 20.21875 
L 25.875 0 
L 18.015625 0 
L 23.09375 20.21875 
L 7.71875 20.21875 
L 7.71875 27.6875 
L 24.90625 27.6875 
L 29 44 
L 13.28125 44 
L 13.28125 51.515625 
L 30.90625 51.515625 
L 35.890625 71.78125 
z
" id="BitstreamVeraSans-Roman-23"/>
      <path d="M 52 44.1875 
Q 55.375 50.25 60.0625 53.125 
Q 64.75 56 71.09375 56 
Q 79.640625 56 84.28125 50.015625 
Q 88.921875 44.046875 88.921875 33.015625 
L 88.921875 0 
L 79.890625 0 
L 79.890625 32.71875 
Q 79.890625 40.578125 77.09375 44.375 
Q 74.3125 48.1875 68.609375 48.1875 
Q 61.625 48.1875 57.5625 43.546875 
Q 53.515625 38.921875 53.515625 30.90625 
L 53.515625 0 
L 44.484375 0 
L 44.484375 32.71875 
Q 44.484375 40.625 41.703125 44.40625 
Q 38.921875 48.1875 33.109375 48.1875 
Q 26.21875 48.1875 22.15625 43.53125 
Q 18.109375 38.875 18.109375 30.90625 
L 18.109375 0 
L 9.078125 0 
L 9.078125 54.6875 
L 18.109375 54.6875 
L 18.109375 46.1875 
Q 21.1875 51.21875 25.484375 53.609375 
Q 29.78125 56 35.6875 56 
Q 41.65625 56 45.828125 52.96875 
Q 50 49.953125 52 44.1875 
" id="BitstreamVeraSans-Roman-6d"/>
      <path d="M 54.890625 33.015625 
L 54.890625 0 
L 45.90625 0 
L 45.90625 32.71875 
Q 45.90625 40.484375 42.875 44.328125 
Q 39.84375 48.1875 33.796875 48.1875 
Q 26.515625 48.1875 22.3125 43.546875 
Q 18.109375 38.921875 18.109375 30.90625 
L 18.109375 0 
L 9.078125 0 
L 9.078125 54.6875 
L 18.109375 54.6875 
L 18.109375 46.1875 
Q 21.34375 51.125 25.703125 53.5625 
Q 30.078125 56 35.796875 56 
Q 45.21875 56 50.046875 50.171875 
Q 54.890625 44.34375 54.890625 33.015625 
" id="BitstreamVeraSans-Roman-6e"/>
      <path d="M 31 75.875 
Q 24.46875 64.65625 21.28125 53.65625 
Q 18.109375 42.671875 18.109375 31.390625 
Q 18.109375 20.125 21.3125 9.0625 
Q 24.515625 -2 31 -13.1875 
L 23.1875 -13.1875 
Q 15.875 -1.703125 12.234375 9.375 
Q 8.59375 20.453125 8.59375 31.390625 
Q 8.59375 42.28125 12.203125 53.3125 
Q 15.828125 64.359375 23.1875 75.875 
z
" id="BitstreamVeraSans-Roman-28"/>
      <path d="M 30.609375 48.390625 
Q 23.390625 48.390625 19.1875 42.75 
Q 14.984375 37.109375 14.984375 27.296875 
Q 14.984375 17.484375 19.15625 11.84375 
Q 23.34375 6.203125 30.609375 6.203125 
Q 37.796875 6.203125 41.984375 11.859375 
Q 46.1875 17.53125 46.1875 27.296875 
Q 46.1875 37.015625 41.984375 42.703125 
Q 37.796875 48.390625 30.609375 48.390625 
M 30.609375 56 
Q 42.328125 56 49.015625 48.375 
Q 55.71875 40.765625 55.71875 27.296875 
Q 55.71875 13.875 49.015625 6.21875 
Q 42.328125 -1.421875 30.609375 -1.421875 
Q 18.84375 -1.421875 12.171875 6.21875 
Q 5.515625 13.875 5.515625 27.296875 
Q 5.515625 40.765625 12.171875 48.375 
Q 18.84375 56 30.609375 56 
" id="BitstreamVeraSans-Roman-6f"/>
      <path d="M 9.421875 75.984375 
L 18.40625 75.984375 
L 18.40625 0 
L 9.421875 0 
z
" id="BitstreamVeraSans-Roman-6c"/>
      <path d="M 2.984375 54.6875 
L 12.5 54.6875 
L 29.59375 8.796875 
L 46.6875 54.6875 
L 56.203125 54.6875 
L 35.6875 0 
L 23.484375 0 
z
" id="BitstreamVeraSans-Roman-76"/>
      <path d="M 9.421875 54.6875 
L 18.40625 54.6875 
L 18.40625 0 
L 9.421875 0 
z
M 9.421875 75.984375 
L 18.40625 75.984375 
L 18.40625 64.59375 
L 9.421875 64.59375 
z
" id="BitstreamVeraSans-Roman-69"/>
      <path d="M 4.890625 31.390625 
L 31.203125 31.390625 
L 31.203125 23.390625 
L 4.890625 23.390625 
z
" id="BitstreamVeraSans-Roman-2d"/>
      <path d="M 25.390625 72.90625 
L 33.6875 72.90625 
L 8.296875 -9.28125 
L 0 -9.28125 
z
" id="BitstreamVeraSans-Roman-2f"/>
      <path d="M 56.203125 29.59375 
L 56.203125 25.203125 
L 14.890625 25.203125 
Q 15.484375 15.921875 20.484375 11.0625 
Q 25.484375 6.203125 34.421875 6.203125 
Q 39.59375 6.203125 44.453125 7.46875 
Q 49.3125 8.734375 54.109375 11.28125 
L 54.109375 2.78125 
Q 49.265625 0.734375 44.1875 -0.34375 
Q 39.109375 -1.421875 33.890625 -1.421875 
Q 20.796875 -1.421875 13.15625 6.1875 
Q 5.515625 13.8125 5.515625 26.8125 
Q 5.515625 40.234375 12.765625 48.109375 
Q 20.015625 56 32.328125 56 
Q 43.359375 56 49.78125 48.890625 
Q 56.203125 41.796875 56.203125 29.59375 
M 47.21875 32.234375 
Q 47.125 39.59375 43.09375 43.984375 
Q 39.0625 48.390625 32.421875 48.390625 
Q 24.90625 48.390625 20.390625 44.140625 
Q 15.875 39.890625 15.1875 32.171875 
z
" id="BitstreamVeraSans-Roman-65"/>
      <path d="M 45.40625 46.390625 
L 45.40625 75.984375 
L 54.390625 75.984375 
L 54.390625 0 
L 45.40625 0 
L 45.40625 8.203125 
Q 42.578125 3.328125 38.25 0.953125 
Q 33.9375 -1.421875 27.875 -1.421875 
Q 17.96875 -1.421875 11.734375 6.484375 
Q 5.515625 14.40625 5.515625 27.296875 
Q 5.515625 40.1875 11.734375 48.09375 
Q 17.96875 56 27.875 56 
Q 33.9375 56 38.25 53.625 
Q 42.578125 51.265625 45.40625 46.390625 
M 14.796875 27.296875 
Q 14.796875 17.390625 18.875 11.75 
Q 22.953125 6.109375 30.078125 6.109375 
Q 37.203125 6.109375 41.296875 11.75 
Q 45.40625 17.390625 45.40625 27.296875 
Q 45.40625 37.203125 41.296875 42.84375 
Q 37.203125 48.484375 30.078125 48.484375 
Q 22.953125 48.484375 18.875 42.84375 
Q 14.796875 37.203125 14.796875 27.296875 
" id="BitstreamVeraSans-Roman-64"/>
      <path d="M 45.40625 27.984375 
Q 45.40625 37.75 41.375 43.109375 
Q 37.359375 48.484375 30.078125 48.484375 
Q 22.859375 48.484375 18.828125 43.109375 
Q 14.796875 37.75 14.796875 27.984375 
Q 14.796875 18.265625 18.828125 12.890625 
Q 22.859375 7.515625 30.078125 7.515625 
Q 37.359375 7.515625 41.375 12.890625 
Q 45.40625 18.265625 45.40625 27.984375 
M 54.390625 6.78125 
Q 54.390625 -7.171875 48.1875 -13.984375 
Q 42 -20.796875 29.203125 -20.796875 
Q 24.46875 -20.796875 20.265625 -20.09375 
Q 16.0625 -19.390625 12.109375 -17.921875 
L 12.109375 -9.1875 
Q 16.0625 -11.328125 19.921875 -12.34375 
Q 23.78125 -13.375 27.78125 -13.375 
Q 36.625 -13.375 41.015625 -8.765625 
Q 45.40625 -4.15625 45.40625 5.171875 
L 45.40625 9.625 
Q 42.625 4.78125 38.28125 2.390625 
Q 33.9375 0 27.875 0 
Q 17.828125 0 11.671875 7.65625 
Q 5.515625 15.328125 5.515625 27.984375 
Q 5.515625 40.671875 11.671875 48.328125 
Q 17.828125 56 27.875 56 
Q 33.9375 56 38.28125 53.609375 
Q 42.625 51.21875 45.40625 46.390625 
L 45.40625 54.6875 
L 54.390625 54.6875 
z
" id="BitstreamVeraSans-Roman-67"/>
      <path d="M 37.109375 75.984375 
L 37.109375 68.5 
L 28.515625 68.5 
Q 23.6875 68.5 21.796875 66.546875 
Q 19.921875 64.59375 19.921875 59.515625 
L 19.921875 54.6875 
L 34.71875 54.6875 
L 34.71875 47.703125 
L 19.921875 47.703125 
L 19.921875 0 
L 10.890625 0 
L 10.890625 47.703125 
L 2.296875 47.703125 
L 2.296875 54.6875 
L 10.890625 54.6875 
L 10.890625 58.5 
Q 10.890625 67.625 15.140625 71.796875 
Q 19.390625 75.984375 28.609375 75.984375 
z
" id="BitstreamVeraSans-Roman-66"/>
      <path d="M 34.28125 27.484375 
Q 23.390625 27.484375 19.1875 25 
Q 14.984375 22.515625 14.984375 16.5 
Q 14.984375 11.71875 18.140625 8.90625 
Q 21.296875 6.109375 26.703125 6.109375 
Q 34.1875 6.109375 38.703125 11.40625 
Q 43.21875 16.703125 43.21875 25.484375 
L 43.21875 27.484375 
z
M 52.203125 31.203125 
L 52.203125 0 
L 43.21875 0 
L 43.21875 8.296875 
Q 40.140625 3.328125 35.546875 0.953125 
Q 30.953125 -1.421875 24.3125 -1.421875 
Q 15.921875 -1.421875 10.953125 3.296875 
Q 6 8.015625 6 15.921875 
Q 6 25.140625 12.171875 29.828125 
Q 18.359375 34.515625 30.609375 34.515625 
L 43.21875 34.515625 
L 43.21875 35.40625 
Q 43.21875 41.609375 39.140625 45 
Q 35.0625 48.390625 27.6875 48.390625 
Q 23 48.390625 18.546875 47.265625 
Q 14.109375 46.140625 10.015625 43.890625 
L 10.015625 52.203125 
Q 14.9375 54.109375 19.578125 55.046875 
Q 24.21875 56 28.609375 56 
Q 40.484375 56 46.34375 49.84375 
Q 52.203125 43.703125 52.203125 31.203125 
" id="BitstreamVeraSans-Roman-61"/>
      <path d="M 44.28125 53.078125 
L 44.28125 44.578125 
Q 40.484375 46.53125 36.375 47.5 
Q 32.28125 48.484375 27.875 48.484375 
Q 21.1875 48.484375 17.84375 46.4375 
Q 14.5 44.390625 14.5 40.28125 
Q 14.5 37.15625 16.890625 35.375 
Q 19.28125 33.59375 26.515625 31.984375 
L 29.59375 31.296875 
Q 39.15625 29.25 43.1875 25.515625 
Q 47.21875 21.78125 47.21875 15.09375 
Q 47.21875 7.46875 41.1875 3.015625 
Q 35.15625 -1.421875 24.609375 -1.421875 
Q 20.21875 -1.421875 15.453125 -0.5625 
Q 10.6875 0.296875 5.421875 2 
L 5.421875 11.28125 
Q 10.40625 8.6875 15.234375 7.390625 
Q 20.0625 6.109375 24.8125 6.109375 
Q 31.15625 6.109375 34.5625 8.28125 
Q 37.984375 10.453125 37.984375 14.40625 
Q 37.984375 18.0625 35.515625 20.015625 
Q 33.0625 21.96875 24.703125 23.78125 
L 21.578125 24.515625 
Q 13.234375 26.265625 9.515625 29.90625 
Q 5.8125 33.546875 5.8125 39.890625 
Q 5.8125 47.609375 11.28125 51.796875 
Q 16.75 56 26.8125 56 
Q 31.78125 56 36.171875 55.265625 
Q 40.578125 54.546875 44.28125 53.078125 
" id="BitstreamVeraSans-Roman-73"/>
      <path d="M 8.015625 75.875 
L 15.828125 75.875 
Q 23.140625 64.359375 26.78125 53.3125 
Q 30.421875 42.28125 30.421875 31.390625 
Q 30.421875 20.453125 26.78125 9.375 
Q 23.140625 -1.703125 15.828125 -13.1875 
L 8.015625 -13.1875 
Q 14.5 -2 17.703125 9.0625 
Q 20.90625 20.125 20.90625 31.390625 
Q 20.90625 42.671875 17.703125 53.65625 
Q 14.5 64.65625 8.015625 75.875 
" id="BitstreamVeraSans-Roman-29"/>
     </defs>
     <g transform="translate(166.05515625 401.089780322)scale(0.18 -0.18)">
      <use xlink:href="#BitstreamVeraSans-Roman-6c"/>
      <use x="27.783203125" xlink:href="#BitstreamVeraSans-Roman-6f"/>
      <use x="88.96484375" xlink:href="#BitstreamVeraSans-Roman-67"/>
      <use x="152.44140625" xlink:href="#BitstreamVeraSans-Roman-31"/>
      <use x="216.064453125" xlink:href="#BitstreamVeraSans-Roman-30"/>
      <use x="279.6875" xlink:href="#BitstreamVeraSans-Roman-20"/>
      <use x="311.474609375" xlink:href="#BitstreamVeraSans-Roman-6f"/>
      <use x="372.65625" xlink:href="#BitstreamVeraSans-Roman-66"/>
      <use x="407.861328125" xlink:href="#BitstreamVeraSans-Roman-20"/>
      <use x="439.6484375" xlink:href="#BitstreamVeraSans-Roman-28"/>
      <use x="478.662109375" xlink:href="#BitstreamVeraSans-Roman-23"/>
      <use x="562.451171875" xlink:href="#BitstreamVeraSans-Roman-20"/>
      <use x="594.23828125" xlink:href="#BitstreamVeraSans-Roman-66"/>
      <use x="629.365234375" xlink:href="#BitstreamVeraSans-Roman-2d"/>
      <use x="665.44921875" xlink:href="#BitstreamVeraSans-Roman-65"/>
      <use x="726.97265625" xlink:href="#BitstreamVeraSans-Roman-76"/>
      <use x="786.15234375" xlink:href="#BitstreamVeraSans-Roman-61"/>
      <use x="847.431640625" xlink:href="#BitstreamVeraSans-Roman-6c"/>
      <use x="875.21484375" xlink:href="#BitstreamVeraSans-Roman-73"/>
      <use x="927.314453125" xlink:href="#BitstreamVeraSans-Roman-20"/>
      <use x="959.1015625" xlink:href="#BitstreamVeraSans-Roman-2f"/>
      <use x="992.79296875" xlink:href="#BitstreamVeraSans-Roman-20"/>
      <use x="1024.58007812" xlink:href="#BitstreamVeraSans-Roman-64"/>
      <use x="1088.05664062" xlink:href="#BitstreamVeraSans-Roman-69"/>
      <use x="1115.83984375" xlink:href="#BitstreamVeraSans-Roman-6d"/>
      <use x="1213.25195312" xlink:href="#BitstreamVeraSans-Roman-65"/>
      <use x="1274.77539062" xlink:href="#BitstreamVeraSans-Roman-6e"/>
      <use x="1338.15429688" xlink:href="#BitstreamVeraSans-Roman-73"/>
      <use x="1390.25390625" xlink:href="#BitstreamVeraSans-Roman-69"/>
      <use x="1418.03710938" xlink:href="#BitstreamVeraSans-Roman-6f"/>
      <use x="1479.21875" xlink:href="#BitstreamVeraSans-Roman-6e"/>
      <use x="1542.59765625" xlink:href="#BitstreamVeraSans-Roman-29"/>
     </g>
    </g>
   </g>
   <g id="matplotlib.axis_2">
    <g id="ytick_1">
     <g id="line2d_115">
      <path clip-path="url(#pc5887f66e2)" d="M 85.2 359.056343 
L 531.6 359.056343 
" style="fill:none;stroke:#000000;stroke-dasharray:1.000000,3.000000;stroke-dashoffset:0.0;stroke-width:0.5;"/>
     </g>
     <g id="line2d_116">
      <defs>
       <path d="M 0 0 
L 4 0 
" id="md707e8ff56" style="stroke:#000000;stroke-width:0.5;"/>
      </defs>
      <g>
       <use style="stroke:#000000;stroke-width:0.5;" x="85.2" xlink:href="#md707e8ff56" y="359.056342822"/>
      </g>
     </g>
     <g id="line2d_117">
      <defs>
       <path d="M 0 0 
L -4 0 
" id="m35f9714715" style="stroke:#000000;stroke-width:0.5;"/>
      </defs>
      <g>
       <use style="stroke:#000000;stroke-width:0.5;" x="531.6" xlink:href="#m35f9714715" y="359.056342822"/>
      </g>
     </g>
     <g id="text_11">
      <!-- 0.0 -->
      <defs>
       <path d="M 10.6875 12.40625 
L 21 12.40625 
L 21 0 
L 10.6875 0 
z
" id="BitstreamVeraSans-Roman-2e"/>
      </defs>
      <g transform="translate(49.39375 364.575092822)scale(0.2 -0.2)">
       <use xlink:href="#BitstreamVeraSans-Roman-30"/>
       <use x="63.623046875" xlink:href="#BitstreamVeraSans-Roman-2e"/>
       <use x="95.41015625" xlink:href="#BitstreamVeraSans-Roman-30"/>
      </g>
     </g>
    </g>
    <g id="ytick_2">
     <g id="line2d_118">
      <path clip-path="url(#pc5887f66e2)" d="M 85.2 290.620699 
L 531.6 290.620699 
" style="fill:none;stroke:#000000;stroke-dasharray:1.000000,3.000000;stroke-dashoffset:0.0;stroke-width:0.5;"/>
     </g>
     <g id="line2d_119">
      <g>
       <use style="stroke:#000000;stroke-width:0.5;" x="85.2" xlink:href="#md707e8ff56" y="290.620699257"/>
      </g>
     </g>
     <g id="line2d_120">
      <g>
       <use style="stroke:#000000;stroke-width:0.5;" x="531.6" xlink:href="#m35f9714715" y="290.620699257"/>
      </g>
     </g>
     <g id="text_12">
      <!-- 0.2 -->
      <g transform="translate(49.39375 296.139449257)scale(0.2 -0.2)">
       <use xlink:href="#BitstreamVeraSans-Roman-30"/>
       <use x="63.623046875" xlink:href="#BitstreamVeraSans-Roman-2e"/>
       <use x="95.41015625" xlink:href="#BitstreamVeraSans-Roman-32"/>
      </g>
     </g>
    </g>
    <g id="ytick_3">
     <g id="line2d_121">
      <path clip-path="url(#pc5887f66e2)" d="M 85.2 222.185056 
L 531.6 222.185056 
" style="fill:none;stroke:#000000;stroke-dasharray:1.000000,3.000000;stroke-dashoffset:0.0;stroke-width:0.5;"/>
     </g>
     <g id="line2d_122">
      <g>
       <use style="stroke:#000000;stroke-width:0.5;" x="85.2" xlink:href="#md707e8ff56" y="222.185055693"/>
      </g>
     </g>
     <g id="line2d_123">
      <g>
       <use style="stroke:#000000;stroke-width:0.5;" x="531.6" xlink:href="#m35f9714715" y="222.185055693"/>
      </g>
     </g>
     <g id="text_13">
      <!-- 0.4 -->
      <g transform="translate(49.39375 227.703805693)scale(0.2 -0.2)">
       <use xlink:href="#BitstreamVeraSans-Roman-30"/>
       <use x="63.623046875" xlink:href="#BitstreamVeraSans-Roman-2e"/>
       <use x="95.41015625" xlink:href="#BitstreamVeraSans-Roman-34"/>
      </g>
     </g>
    </g>
    <g id="ytick_4">
     <g id="line2d_124">
      <path clip-path="url(#pc5887f66e2)" d="M 85.2 153.749412 
L 531.6 153.749412 
" style="fill:none;stroke:#000000;stroke-dasharray:1.000000,3.000000;stroke-dashoffset:0.0;stroke-width:0.5;"/>
     </g>
     <g id="line2d_125">
      <g>
       <use style="stroke:#000000;stroke-width:0.5;" x="85.2" xlink:href="#md707e8ff56" y="153.749412129"/>
      </g>
     </g>
     <g id="line2d_126">
      <g>
       <use style="stroke:#000000;stroke-width:0.5;" x="531.6" xlink:href="#m35f9714715" y="153.749412129"/>
      </g>
     </g>
     <g id="text_14">
      <!-- 0.6 -->
      <g transform="translate(49.39375 159.268162129)scale(0.2 -0.2)">
       <use xlink:href="#BitstreamVeraSans-Roman-30"/>
       <use x="63.623046875" xlink:href="#BitstreamVeraSans-Roman-2e"/>
       <use x="95.41015625" xlink:href="#BitstreamVeraSans-Roman-36"/>
      </g>
     </g>
    </g>
    <g id="ytick_5">
     <g id="line2d_127">
      <path clip-path="url(#pc5887f66e2)" d="M 85.2 85.313769 
L 531.6 85.313769 
" style="fill:none;stroke:#000000;stroke-dasharray:1.000000,3.000000;stroke-dashoffset:0.0;stroke-width:0.5;"/>
     </g>
     <g id="line2d_128">
      <g>
       <use style="stroke:#000000;stroke-width:0.5;" x="85.2" xlink:href="#md707e8ff56" y="85.3137685644"/>
      </g>
     </g>
     <g id="line2d_129">
      <g>
       <use style="stroke:#000000;stroke-width:0.5;" x="531.6" xlink:href="#m35f9714715" y="85.3137685644"/>
      </g>
     </g>
     <g id="text_15">
      <!-- 0.8 -->
      <g transform="translate(49.39375 90.8325185644)scale(0.2 -0.2)">
       <use xlink:href="#BitstreamVeraSans-Roman-30"/>
       <use x="63.623046875" xlink:href="#BitstreamVeraSans-Roman-2e"/>
       <use x="95.41015625" xlink:href="#BitstreamVeraSans-Roman-38"/>
      </g>
     </g>
    </g>
    <g id="ytick_6">
     <g id="line2d_130">
      <path clip-path="url(#pc5887f66e2)" d="M 85.2 16.878125 
L 531.6 16.878125 
" style="fill:none;stroke:#000000;stroke-dasharray:1.000000,3.000000;stroke-dashoffset:0.0;stroke-width:0.5;"/>
     </g>
     <g id="line2d_131">
      <g>
       <use style="stroke:#000000;stroke-width:0.5;" x="85.2" xlink:href="#md707e8ff56" y="16.878125"/>
      </g>
     </g>
     <g id="line2d_132">
      <g>
       <use style="stroke:#000000;stroke-width:0.5;" x="531.6" xlink:href="#m35f9714715" y="16.878125"/>
      </g>
     </g>
     <g id="text_16">
      <!-- 1.0 -->
      <g transform="translate(49.39375 22.396875)scale(0.2 -0.2)">
       <use xlink:href="#BitstreamVeraSans-Roman-31"/>
       <use x="63.623046875" xlink:href="#BitstreamVeraSans-Roman-2e"/>
       <use x="95.41015625" xlink:href="#BitstreamVeraSans-Roman-30"/>
      </g>
     </g>
    </g>
    <g id="text_17">
     <!-- Proportion of function+target pairs -->
     <defs>
      <path d="M 19.671875 64.796875 
L 19.671875 37.40625 
L 32.078125 37.40625 
Q 38.96875 37.40625 42.71875 40.96875 
Q 46.484375 44.53125 46.484375 51.125 
Q 46.484375 57.671875 42.71875 61.234375 
Q 38.96875 64.796875 32.078125 64.796875 
z
M 9.8125 72.90625 
L 32.078125 72.90625 
Q 44.34375 72.90625 50.609375 67.359375 
Q 56.890625 61.8125 56.890625 51.125 
Q 56.890625 40.328125 50.609375 34.8125 
Q 44.34375 29.296875 32.078125 29.296875 
L 19.671875 29.296875 
L 19.671875 0 
L 9.8125 0 
z
" id="BitstreamVeraSans-Roman-50"/>
      <path d="M 46 62.703125 
L 46 35.5 
L 73.1875 35.5 
L 73.1875 27.203125 
L 46 27.203125 
L 46 0 
L 37.796875 0 
L 37.796875 27.203125 
L 10.59375 27.203125 
L 10.59375 35.5 
L 37.796875 35.5 
L 37.796875 62.703125 
z
" id="BitstreamVeraSans-Roman-2b"/>
      <path d="M 18.109375 8.203125 
L 18.109375 -20.796875 
L 9.078125 -20.796875 
L 9.078125 54.6875 
L 18.109375 54.6875 
L 18.109375 46.390625 
Q 20.953125 51.265625 25.265625 53.625 
Q 29.59375 56 35.59375 56 
Q 45.5625 56 51.78125 48.09375 
Q 58.015625 40.1875 58.015625 27.296875 
Q 58.015625 14.40625 51.78125 6.484375 
Q 45.5625 -1.421875 35.59375 -1.421875 
Q 29.59375 -1.421875 25.265625 0.953125 
Q 20.953125 3.328125 18.109375 8.203125 
M 48.6875 27.296875 
Q 48.6875 37.203125 44.609375 42.84375 
Q 40.53125 48.484375 33.40625 48.484375 
Q 26.265625 48.484375 22.1875 42.84375 
Q 18.109375 37.203125 18.109375 27.296875 
Q 18.109375 17.390625 22.1875 11.75 
Q 26.265625 6.109375 33.40625 6.109375 
Q 40.53125 6.109375 44.609375 11.75 
Q 48.6875 17.390625 48.6875 27.296875 
" id="BitstreamVeraSans-Roman-70"/>
      <path d="M 18.3125 70.21875 
L 18.3125 54.6875 
L 36.8125 54.6875 
L 36.8125 47.703125 
L 18.3125 47.703125 
L 18.3125 18.015625 
Q 18.3125 11.328125 20.140625 9.421875 
Q 21.96875 7.515625 27.59375 7.515625 
L 36.8125 7.515625 
L 36.8125 0 
L 27.59375 0 
Q 17.1875 0 13.234375 3.875 
Q 9.28125 7.765625 9.28125 18.015625 
L 9.28125 47.703125 
L 2.6875 47.703125 
L 2.6875 54.6875 
L 9.28125 54.6875 
L 9.28125 70.21875 
z
" id="BitstreamVeraSans-Roman-74"/>
      <path d="M 8.5 21.578125 
L 8.5 54.6875 
L 17.484375 54.6875 
L 17.484375 21.921875 
Q 17.484375 14.15625 20.5 10.265625 
Q 23.53125 6.390625 29.59375 6.390625 
Q 36.859375 6.390625 41.078125 11.03125 
Q 45.3125 15.671875 45.3125 23.6875 
L 45.3125 54.6875 
L 54.296875 54.6875 
L 54.296875 0 
L 45.3125 0 
L 45.3125 8.40625 
Q 42.046875 3.421875 37.71875 1 
Q 33.40625 -1.421875 27.6875 -1.421875 
Q 18.265625 -1.421875 13.375 4.4375 
Q 8.5 10.296875 8.5 21.578125 
" id="BitstreamVeraSans-Roman-75"/>
      <path d="M 41.109375 46.296875 
Q 39.59375 47.171875 37.8125 47.578125 
Q 36.03125 48 33.890625 48 
Q 26.265625 48 22.1875 43.046875 
Q 18.109375 38.09375 18.109375 28.8125 
L 18.109375 0 
L 9.078125 0 
L 9.078125 54.6875 
L 18.109375 54.6875 
L 18.109375 46.1875 
Q 20.953125 51.171875 25.484375 53.578125 
Q 30.03125 56 36.53125 56 
Q 37.453125 56 38.578125 55.875 
Q 39.703125 55.765625 41.0625 55.515625 
z
" id="BitstreamVeraSans-Roman-72"/>
      <path d="M 48.78125 52.59375 
L 48.78125 44.1875 
Q 44.96875 46.296875 41.140625 47.34375 
Q 37.3125 48.390625 33.40625 48.390625 
Q 24.65625 48.390625 19.8125 42.84375 
Q 14.984375 37.3125 14.984375 27.296875 
Q 14.984375 17.28125 19.8125 11.734375 
Q 24.65625 6.203125 33.40625 6.203125 
Q 37.3125 6.203125 41.140625 7.25 
Q 44.96875 8.296875 48.78125 10.40625 
L 48.78125 2.09375 
Q 45.015625 0.34375 40.984375 -0.53125 
Q 36.96875 -1.421875 32.421875 -1.421875 
Q 20.0625 -1.421875 12.78125 6.34375 
Q 5.515625 14.109375 5.515625 27.296875 
Q 5.515625 40.671875 12.859375 48.328125 
Q 20.21875 56 33.015625 56 
Q 37.15625 56 41.109375 55.140625 
Q 45.0625 54.296875 48.78125 52.59375 
" id="BitstreamVeraSans-Roman-63"/>
     </defs>
     <g transform="translate(40.6503125 344.245717822)rotate(-90.0)scale(0.18 -0.18)">
      <use xlink:href="#BitstreamVeraSans-Roman-50"/>
      <use x="60.287109375" xlink:href="#BitstreamVeraSans-Roman-72"/>
      <use x="101.369140625" xlink:href="#BitstreamVeraSans-Roman-6f"/>
      <use x="162.55078125" xlink:href="#BitstreamVeraSans-Roman-70"/>
      <use x="226.02734375" xlink:href="#BitstreamVeraSans-Roman-6f"/>
      <use x="287.208984375" xlink:href="#BitstreamVeraSans-Roman-72"/>
      <use x="328.322265625" xlink:href="#BitstreamVeraSans-Roman-74"/>
      <use x="367.53125" xlink:href="#BitstreamVeraSans-Roman-69"/>
      <use x="395.314453125" xlink:href="#BitstreamVeraSans-Roman-6f"/>
      <use x="456.49609375" xlink:href="#BitstreamVeraSans-Roman-6e"/>
      <use x="519.875" xlink:href="#BitstreamVeraSans-Roman-20"/>
      <use x="551.662109375" xlink:href="#BitstreamVeraSans-Roman-6f"/>
      <use x="612.84375" xlink:href="#BitstreamVeraSans-Roman-66"/>
      <use x="648.048828125" xlink:href="#BitstreamVeraSans-Roman-20"/>
      <use x="679.8359375" xlink:href="#BitstreamVeraSans-Roman-66"/>
      <use x="715.041015625" xlink:href="#BitstreamVeraSans-Roman-75"/>
      <use x="778.419921875" xlink:href="#BitstreamVeraSans-Roman-6e"/>
      <use x="841.798828125" xlink:href="#BitstreamVeraSans-Roman-63"/>
      <use x="896.779296875" xlink:href="#BitstreamVeraSans-Roman-74"/>
      <use x="935.98828125" xlink:href="#BitstreamVeraSans-Roman-69"/>
      <use x="963.771484375" xlink:href="#BitstreamVeraSans-Roman-6f"/>
      <use x="1024.953125" xlink:href="#BitstreamVeraSans-Roman-6e"/>
      <use x="1088.33203125" xlink:href="#BitstreamVeraSans-Roman-2b"/>
      <use x="1172.12109375" xlink:href="#BitstreamVeraSans-Roman-74"/>
      <use x="1211.33007812" xlink:href="#BitstreamVeraSans-Roman-61"/>
      <use x="1272.609375" xlink:href="#BitstreamVeraSans-Roman-72"/>
      <use x="1313.70703125" xlink:href="#BitstreamVeraSans-Roman-67"/>
      <use x="1377.18359375" xlink:href="#BitstreamVeraSans-Roman-65"/>
      <use x="1438.70703125" xlink:href="#BitstreamVeraSans-Roman-74"/>
      <use x="1477.91601562" xlink:href="#BitstreamVeraSans-Roman-20"/>
      <use x="1509.703125" xlink:href="#BitstreamVeraSans-Roman-70"/>
      <use x="1573.1796875" xlink:href="#BitstreamVeraSans-Roman-61"/>
      <use x="1634.45898438" xlink:href="#BitstreamVeraSans-Roman-69"/>
      <use x="1662.2421875" xlink:href="#BitstreamVeraSans-Roman-72"/>
      <use x="1703.35546875" xlink:href="#BitstreamVeraSans-Roman-73"/>
     </g>
    </g>
   </g>
   <g id="text_18">
    <!-- 5-D -->
    <defs>
     <path d="M 19.671875 64.796875 
L 19.671875 8.109375 
L 31.59375 8.109375 
Q 46.6875 8.109375 53.6875 14.9375 
Q 60.6875 21.78125 60.6875 36.53125 
Q 60.6875 51.171875 53.6875 57.984375 
Q 46.6875 64.796875 31.59375 64.796875 
z
M 9.8125 72.90625 
L 30.078125 72.90625 
Q 51.265625 72.90625 61.171875 64.09375 
Q 71.09375 55.28125 71.09375 36.53125 
Q 71.09375 17.671875 61.125 8.828125 
Q 51.171875 0 30.078125 0 
L 9.8125 0 
z
" id="BitstreamVeraSans-Roman-44"/>
    </defs>
    <g transform="translate(492.0 356.351840965)scale(0.15 -0.15)">
     <use xlink:href="#BitstreamVeraSans-Roman-35"/>
     <use x="63.623046875" xlink:href="#BitstreamVeraSans-Roman-2d"/>
     <use x="99.70703125" xlink:href="#BitstreamVeraSans-Roman-44"/>
    </g>
   </g>
   <g id="text_19">
    <!-- 3-D -->
    <g transform="translate(492.0 192.106296411)scale(0.15 -0.15)">
     <use xlink:href="#BitstreamVeraSans-Roman-33"/>
     <use x="63.623046875" xlink:href="#BitstreamVeraSans-Roman-2d"/>
     <use x="99.70703125" xlink:href="#BitstreamVeraSans-Roman-44"/>
    </g>
   </g>
   <g id="text_20">
    <!-- 2-D -->
    <g transform="translate(492.0 27.8607518564)scale(0.15 -0.15)">
     <use xlink:href="#BitstreamVeraSans-Roman-32"/>
     <use x="63.623046875" xlink:href="#BitstreamVeraSans-Roman-2d"/>
     <use x="99.70703125" xlink:href="#BitstreamVeraSans-Roman-44"/>
    </g>
   </g>
   <g id="text_21">
    <!-- bbob-biobj - f3, f4, f12, f13 -->
    <defs>
     <path d="M 11.71875 12.40625 
L 22.015625 12.40625 
L 22.015625 4 
L 14.015625 -11.625 
L 7.71875 -11.625 
L 11.71875 4 
z
" id="BitstreamVeraSans-Roman-2c"/>
     <path d="M 9.421875 54.6875 
L 18.40625 54.6875 
L 18.40625 -0.984375 
Q 18.40625 -11.421875 14.421875 -16.109375 
Q 10.453125 -20.796875 1.609375 -20.796875 
L -1.8125 -20.796875 
L -1.8125 -13.1875 
L 0.59375 -13.1875 
Q 5.71875 -13.1875 7.5625 -10.8125 
Q 9.421875 -8.453125 9.421875 -0.984375 
z
M 9.421875 75.984375 
L 18.40625 75.984375 
L 18.40625 64.59375 
L 9.421875 64.59375 
z
" id="BitstreamVeraSans-Roman-6a"/>
     <path d="M 48.6875 27.296875 
Q 48.6875 37.203125 44.609375 42.84375 
Q 40.53125 48.484375 33.40625 48.484375 
Q 26.265625 48.484375 22.1875 42.84375 
Q 18.109375 37.203125 18.109375 27.296875 
Q 18.109375 17.390625 22.1875 11.75 
Q 26.265625 6.109375 33.40625 6.109375 
Q 40.53125 6.109375 44.609375 11.75 
Q 48.6875 17.390625 48.6875 27.296875 
M 18.109375 46.390625 
Q 20.953125 51.265625 25.265625 53.625 
Q 29.59375 56 35.59375 56 
Q 45.5625 56 51.78125 48.09375 
Q 58.015625 40.1875 58.015625 27.296875 
Q 58.015625 14.40625 51.78125 6.484375 
Q 45.5625 -1.421875 35.59375 -1.421875 
Q 29.59375 -1.421875 25.265625 0.953125 
Q 20.953125 3.328125 18.109375 8.203125 
L 18.109375 0 
L 9.078125 0 
L 9.078125 75.984375 
L 18.109375 75.984375 
z
" id="BitstreamVeraSans-Roman-62"/>
    </defs>
    <g transform="translate(89.664 33.0273396968)scale(0.1666 -0.1666)">
     <use xlink:href="#BitstreamVeraSans-Roman-62"/>
     <use x="63.4765625" xlink:href="#BitstreamVeraSans-Roman-62"/>
     <use x="126.953125" xlink:href="#BitstreamVeraSans-Roman-6f"/>
     <use x="188.134765625" xlink:href="#BitstreamVeraSans-Roman-62"/>
     <use x="251.611328125" xlink:href="#BitstreamVeraSans-Roman-2d"/>
     <use x="287.6953125" xlink:href="#BitstreamVeraSans-Roman-62"/>
     <use x="351.171875" xlink:href="#BitstreamVeraSans-Roman-69"/>
     <use x="378.955078125" xlink:href="#BitstreamVeraSans-Roman-6f"/>
     <use x="440.13671875" xlink:href="#BitstreamVeraSans-Roman-62"/>
     <use x="503.61328125" xlink:href="#BitstreamVeraSans-Roman-6a"/>
     <use x="531.396484375" xlink:href="#BitstreamVeraSans-Roman-20"/>
     <use x="563.18359375" xlink:href="#BitstreamVeraSans-Roman-2d"/>
     <use x="599.267578125" xlink:href="#BitstreamVeraSans-Roman-20"/>
     <use x="631.0546875" xlink:href="#BitstreamVeraSans-Roman-66"/>
     <use x="666.259765625" xlink:href="#BitstreamVeraSans-Roman-33"/>
     <use x="729.8828125" xlink:href="#BitstreamVeraSans-Roman-2c"/>
     <use x="761.669921875" xlink:href="#BitstreamVeraSans-Roman-20"/>
     <use x="793.45703125" xlink:href="#BitstreamVeraSans-Roman-66"/>
     <use x="828.662109375" xlink:href="#BitstreamVeraSans-Roman-34"/>
     <use x="892.28515625" xlink:href="#BitstreamVeraSans-Roman-2c"/>
     <use x="924.072265625" xlink:href="#BitstreamVeraSans-Roman-20"/>
     <use x="955.859375" xlink:href="#BitstreamVeraSans-Roman-66"/>
     <use x="991.064453125" xlink:href="#BitstreamVeraSans-Roman-31"/>
     <use x="1054.6875" xlink:href="#BitstreamVeraSans-Roman-32"/>
     <use x="1118.31054688" xlink:href="#BitstreamVeraSans-Roman-2c"/>
     <use x="1150.09765625" xlink:href="#BitstreamVeraSans-Roman-20"/>
     <use x="1181.88476562" xlink:href="#BitstreamVeraSans-Roman-66"/>
     <use x="1217.08984375" xlink:href="#BitstreamVeraSans-Roman-31"/>
     <use x="1280.71289062" xlink:href="#BitstreamVeraSans-Roman-33"/>
    </g>
    <!-- 58 targets in 1..-1.0e-4 -->
    <g transform="translate(89.664 51.6828953218)scale(0.1666 -0.1666)">
     <use xlink:href="#BitstreamVeraSans-Roman-35"/>
     <use x="63.623046875" xlink:href="#BitstreamVeraSans-Roman-38"/>
     <use x="127.24609375" xlink:href="#BitstreamVeraSans-Roman-20"/>
     <use x="159.033203125" xlink:href="#BitstreamVeraSans-Roman-74"/>
     <use x="198.2421875" xlink:href="#BitstreamVeraSans-Roman-61"/>
     <use x="259.521484375" xlink:href="#BitstreamVeraSans-Roman-72"/>
     <use x="300.619140625" xlink:href="#BitstreamVeraSans-Roman-67"/>
     <use x="364.095703125" xlink:href="#BitstreamVeraSans-Roman-65"/>
     <use x="425.619140625" xlink:href="#BitstreamVeraSans-Roman-74"/>
     <use x="464.828125" xlink:href="#BitstreamVeraSans-Roman-73"/>
     <use x="516.927734375" xlink:href="#BitstreamVeraSans-Roman-20"/>
     <use x="548.71484375" xlink:href="#BitstreamVeraSans-Roman-69"/>
     <use x="576.498046875" xlink:href="#BitstreamVeraSans-Roman-6e"/>
     <use x="639.876953125" xlink:href="#BitstreamVeraSans-Roman-20"/>
     <use x="671.6640625" xlink:href="#BitstreamVeraSans-Roman-31"/>
     <use x="735.287109375" xlink:href="#BitstreamVeraSans-Roman-2e"/>
     <use x="767.07421875" xlink:href="#BitstreamVeraSans-Roman-2e"/>
     <use x="798.861328125" xlink:href="#BitstreamVeraSans-Roman-2d"/>
     <use x="834.9453125" xlink:href="#BitstreamVeraSans-Roman-31"/>
     <use x="898.568359375" xlink:href="#BitstreamVeraSans-Roman-2e"/>
     <use x="930.35546875" xlink:href="#BitstreamVeraSans-Roman-30"/>
     <use x="993.978515625" xlink:href="#BitstreamVeraSans-Roman-65"/>
     <use x="1055.50195312" xlink:href="#BitstreamVeraSans-Roman-2d"/>
     <use x="1091.5859375" xlink:href="#BitstreamVeraSans-Roman-34"/>
    </g>
    <!-- 5 instances -->
    <g transform="translate(89.664 70.3384509468)scale(0.1666 -0.1666)">
     <use xlink:href="#BitstreamVeraSans-Roman-35"/>
     <use x="63.623046875" xlink:href="#BitstreamVeraSans-Roman-20"/>
     <use x="95.41015625" xlink:href="#BitstreamVeraSans-Roman-69"/>
     <use x="123.193359375" xlink:href="#BitstreamVeraSans-Roman-6e"/>
     <use x="186.572265625" xlink:href="#BitstreamVeraSans-Roman-73"/>
     <use x="238.671875" xlink:href="#BitstreamVeraSans-Roman-74"/>
     <use x="277.880859375" xlink:href="#BitstreamVeraSans-Roman-61"/>
     <use x="339.16015625" xlink:href="#BitstreamVeraSans-Roman-6e"/>
     <use x="402.5390625" xlink:href="#BitstreamVeraSans-Roman-63"/>
     <use x="457.51953125" xlink:href="#BitstreamVeraSans-Roman-65"/>
     <use x="519.04296875" xlink:href="#BitstreamVeraSans-Roman-73"/>
    </g>
   </g>
   <g id="text_22">
    <!-- 1.2 -->
    <g style="fill:#808080;" transform="translate(300.4484375 353.520655322)scale(0.1 -0.1)">
     <use xlink:href="#BitstreamVeraSans-Roman-31"/>
     <use x="63.623046875" xlink:href="#BitstreamVeraSans-Roman-2e"/>
     <use x="95.41015625" xlink:href="#BitstreamVeraSans-Roman-32"/>
    </g>
   </g>
  </g>
 </g>
 <defs>
  <clipPath id="pc5887f66e2">
   <rect height="345.6" width="446.4" x="85.2" y="13.4563428218"/>
  </clipPath>
 </defs>
</svg>
